<svg xmlns="http://www.w3.org/2000/svg" viewBox="0 0 1316.07 1704.64"><defs><style>.cls-1,.cls-2{fill:#f7f3ef;}.cls-2,.cls-4,.cls-7{stroke:#070707;}.cls-2,.cls-3,.cls-4,.cls-7{stroke-linecap:round;stroke-linejoin:round;stroke-width:4px;}.cls-3{fill:#efaf00;stroke:#000;}.cls-4{fill:#e57b07;}.cls-5{fill:#1c0e0c;}.cls-6{fill:#070707;}.cls-7{fill:none;}</style></defs><g id="Layer_2" data-name="Layer 2"><rect class="cls-1" x="-5841.65" y="-46.66" width="7197.02" height="2279.9"/></g><g id="Chars"><g id="SHELVES"><g id="BUTTOM_SHELF" data-name="BUTTOM SHELF"><g id="JARS"><path class="cls-2" d="M323.75,800.59v5.94a5.24,5.24,0,0,1-3.61,5v2.18a5.23,5.23,0,0,1-5.23,5.23H269.73a5.23,5.23,0,0,1-5.23-5.23v-2.18a5.22,5.22,0,0,1-3.62-5v-5.94a5.23,5.23,0,0,1,5.23-5.23h52.41A5.22,5.22,0,0,1,323.75,800.59Z"/><path class="cls-2" d="M264.27,810.18h56.1a32.39,32.39,0,0,1,32.39,32.39v119A15.48,15.48,0,0,1,337.28,977H247.36a15.48,15.48,0,0,1-15.48-15.48v-119A32.39,32.39,0,0,1,264.27,810.18Z"/><path class="cls-3" d="M344,907.09V953.3a15.08,15.08,0,0,1-15.08,15.08H255.69a15.09,15.09,0,0,1-15.08-15.08V907.09c0-4.57,23.15-13,51.71-13S344,902.52,344,907.09Z"/><path class="cls-2" d="M473.73,800.59v5.94a5.23,5.23,0,0,1-3.62,5v2.18a5.23,5.23,0,0,1-5.23,5.23H419.71a5.22,5.22,0,0,1-5.23-5.23v-2.18a5.23,5.23,0,0,1-3.63-5v-5.94a5.23,5.23,0,0,1,5.23-5.23H468.5A5.23,5.23,0,0,1,473.73,800.59Z"/><path class="cls-2" d="M414.24,810.18h56.1a32.39,32.39,0,0,1,32.39,32.39v119A15.48,15.48,0,0,1,487.25,977H397.33a15.48,15.48,0,0,1-15.48-15.48v-119A32.39,32.39,0,0,1,414.24,810.18Z"/><path class="cls-4" d="M494,901.65V948.1c0,11.19-6.76,20.28-15.08,20.28H405.67c-8.33,0-15.08-9.09-15.08-20.28V893.8c0-11.37,21.81-27.79,62.07-18.29C486.67,883.54,494,901.65,494,901.65Z"/></g><g id="SPICE"><path class="cls-2" d="M576.11,908.58H592.5a20.32,20.32,0,0,1,20.32,20.32v29a16,16,0,0,1-16,16H571.77a16,16,0,0,1-16-16v-29A20.32,20.32,0,0,1,576.11,908.58Z"/><path class="cls-5" d="M577,908.58h17.67a19.68,19.68,0,0,1,19.68,19.68v29.13a16.46,16.46,0,0,1-16.46,16.46H573.79a16.46,16.46,0,0,1-16.46-16.46V928.26A19.68,19.68,0,0,1,577,908.58Z"/><path class="cls-2" d="M559.73,908.58H577.4a19.68,19.68,0,0,1,19.68,19.68v29.13a16.46,16.46,0,0,1-16.46,16.46H556.51a16.46,16.46,0,0,1-16.46-16.46V928.26A19.68,19.68,0,0,1,559.73,908.58Z"/><rect class="cls-2" x="549.98" y="929.39" width="36.55" height="22.82"/><path class="cls-5" d="M587.45,882.73H577.18c-7.91,0-13.33,8.6-10.43,16.53l3.4,9.27h24.33l3.4-9.27C600.78,891.33,595.36,882.73,587.45,882.73Z"/><path class="cls-2" d="M576.33,882.73H566.05c-7.91,0-13.33,8.6-10.42,16.53l3.39,9.27h24.33l3.4-9.27C589.66,891.33,584.23,882.73,576.33,882.73Z"/><path class="cls-2" d="M671.22,908.58H687.6a20.32,20.32,0,0,1,20.32,20.32v29a16,16,0,0,1-16,16H666.87a16,16,0,0,1-16-16v-29a20.32,20.32,0,0,1,20.32-20.32Z"/><path class="cls-5" d="M672.11,908.58h17.67a19.68,19.68,0,0,1,19.68,19.68v29.13A16.46,16.46,0,0,1,693,973.84H668.89a16.46,16.46,0,0,1-16.46-16.46V928.26a19.68,19.68,0,0,1,19.68-19.68Z"/><path class="cls-2" d="M654.84,908.58h17.67a19.68,19.68,0,0,1,19.68,19.68v29.13a16.46,16.46,0,0,1-16.46,16.46H651.62a16.46,16.46,0,0,1-16.46-16.46V928.26A19.68,19.68,0,0,1,654.84,908.58Z"/><rect class="cls-2" x="645.08" y="929.39" width="36.55" height="22.82"/><path class="cls-5" d="M683.35,882.73h-9.48c-7.91,0-13.33,8.6-10.42,16.53l3.39,9.27h23.54l3.4-9.27C696.68,891.33,691.26,882.73,683.35,882.73Z"/><path class="cls-2" d="M670.64,882.73h-9.48c-7.91,0-13.33,8.6-10.43,16.53l3.4,9.27h23.54l3.39-9.27C684,891.33,678.55,882.73,670.64,882.73Z"/><path class="cls-2" d="M766.33,908.58h16.38A20.32,20.32,0,0,1,803,928.9v29a16,16,0,0,1-16,16H762a16,16,0,0,1-16-16v-29a20.32,20.32,0,0,1,20.32-20.32Z"/><path class="cls-5" d="M767.22,908.58h17.67a19.68,19.68,0,0,1,19.68,19.68v29.13a16.46,16.46,0,0,1-16.46,16.46H764a16.46,16.46,0,0,1-16.46-16.46V928.26A19.68,19.68,0,0,1,767.22,908.58Z"/><path class="cls-2" d="M749.95,908.58h17.67a19.68,19.68,0,0,1,19.68,19.68v29.13a16.46,16.46,0,0,1-16.46,16.46H746.72a16.46,16.46,0,0,1-16.46-16.46V928.26A19.68,19.68,0,0,1,749.95,908.58Z"/><rect class="cls-2" x="740.19" y="929.39" width="36.55" height="22.82"/><path class="cls-5" d="M777.67,882.73H765.8c-7.91,0-13.33,8.6-10.42,16.53l3.39,9.27h25.92l3.4-9.27C791,891.33,785.58,882.73,777.67,882.73Z"/><path class="cls-2" d="M765,882.73h-8.69c-7.91,0-13.33,8.6-10.42,16.53l3.39,9.27H772l3.39-9.27C778.28,891.33,772.86,882.73,765,882.73Z"/></g><g id="SAUCES"><path class="cls-2" d="M971.69,809.75h-3.82a4.68,4.68,0,0,1,.49,2.08v3.49a3.17,3.17,0,0,1-3.17,3.17h-19.3a3.17,3.17,0,0,1-3.18-3.17v-3.49a4.68,4.68,0,0,1,.49-2.08h-4v-6.67a4.68,4.68,0,0,1,4.69-4.68H967a4.67,4.67,0,0,1,4.68,4.68Z"/><path class="cls-2" d="M986.92,899.6l-4,58.75a9.75,9.75,0,0,1-9.6,9.22H937.58a9.74,9.74,0,0,1-9.6-9.22l-4-58.75Z"/><path class="cls-2" d="M994.19,882.74l-5.68,81.12A11.57,11.57,0,0,1,977,974.63h-43a11.57,11.57,0,0,1-11.55-10.77l-5.68-81.12A18.89,18.89,0,0,1,924.59,866a21.72,21.72,0,0,0,9.33-17.79l-.25-30.49a7.66,7.66,0,0,1,7.64-8h28.28a7.66,7.66,0,0,1,7.65,8L977,848.23A21.71,21.71,0,0,0,986.31,866,18.89,18.89,0,0,1,994.19,882.74Z"/><path class="cls-2" d="M975.32,932c-.61,3.38-9.3,7.63-19.93,7.63s-19.32-4.25-19.93-7.63l.08-42.71c1.09-3.23,9.56-7.31,19.85-7.31s18.76,4.08,19.85,7.31Z"/><path class="cls-2" d="M1079.61,820.08v2.09a4.34,4.34,0,0,1-4.34,4.34h0v6.6a4.51,4.51,0,0,1-4.51,4.52h-8.69a4.51,4.51,0,0,1-4.51-4.52v-6.6h0a4.34,4.34,0,0,1-4.34-4.34v-2.09a4.34,4.34,0,0,1,4.34-4.35h17.71A4.34,4.34,0,0,1,1079.61,820.08Z"/><path class="cls-2" d="M1102.94,932.42c0,9.36-5.67,23.63-10.86,32a6.54,6.54,0,0,1-5.57,3.11H1049.7a6.55,6.55,0,0,1-5.62-3.19c-5.18-8.64-10.85-23.91-10.85-33.28a50.85,50.85,0,0,1,2.63-16.66H1100A53.28,53.28,0,0,1,1102.94,932.42Z"/><path class="cls-5" d="M1109.5,932.08c0,11.13-6.75,28.09-12.9,38.06a7.78,7.78,0,0,1-6.62,3.7h-43.74a7.78,7.78,0,0,1-6.68-3.78c-6.15-10.27-12.88-28.43-12.88-39.55,0-22.33,10.14-38.92,27.49-45.64V840.93l-9.42-14.42H1082v58.36C1099.36,891.59,1109.5,909.76,1109.5,932.08Z"/><path class="cls-2" d="M1082,837.63h12.44A12.2,12.2,0,0,1,1105.9,854l-13.4,36.86"/><path class="cls-2" d="M890.74,863.51v106a5.11,5.11,0,0,1-5.11,5.11H845.24a5.11,5.11,0,0,1-5.12-5.11v-106a15.33,15.33,0,0,1,12.42-15.06V823.17h25.79v25.28A15.33,15.33,0,0,1,890.74,863.51Z"/><path class="cls-5" d="M883.31,878.75v83.89c0,3.07-2.18,5.56-4.88,5.56h-26c-2.69,0-4.88-2.49-4.88-5.56V878.75Z"/><rect class="cls-2" x="846.76" y="819.21" width="37.34" height="8.21" rx="2.35"/></g><g id="SHELF"><polygon class="cls-2" points="217.73 1026.67 164.15 1026.67 164.15 1053.39 217.73 1045.14 217.73 1026.67"/><line class="cls-2" x1="216.93" y1="1109.77" x2="1104.77" y2="1109.77"/><rect class="cls-2" x="122.35" y="977.76" width="1078.59" height="48.91"/><rect class="cls-2" x="164.15" y="1026.67" width="53.58" height="83.1"/><polygon class="cls-2" points="1159.97 1026.67 1106.38 1026.67 1106.38 1053.39 1159.97 1045.14 1159.97 1026.67"/><rect class="cls-2" x="1106.38" y="1026.67" width="53.58" height="83.1"/></g><g id="KNIVES"><path class="cls-2" d="M314.08,1178.8v95.58c0,34.92,9.1,59.63,26.6,91h0s30.49-89.84,32.7-175.51Z"/><path class="cls-2" d="M340.68,1183.67l-26.6-4.87v-89.07c0-6.43,5.95-11.65,13.3-11.65h0c7.34,0,13.3,5.22,13.3,11.65Z"/><path class="cls-2" d="M460.81,1178.8H425.86v186.58S460.81,1303.26,460.81,1178.8Z"/><path class="cls-2" d="M452.46,1178.8h-26.6v-89.07c0-6.43,5.95-11.65,13.3-11.65h0c7.34,0,13.3,5.22,13.3,11.65Z"/><path class="cls-2" d="M556.36,1189.49a4.45,4.45,0,0,0,0,6.62,1.77,1.77,0,0,1,0,2.68l0,0a4.46,4.46,0,0,0,0,6.63,1.75,1.75,0,0,1,0,2.67l0,0a4.45,4.45,0,0,0,0,6.62,1.77,1.77,0,0,1,0,2.68l0,0a4.45,4.45,0,0,0,0,6.62,1.76,1.76,0,0,1,0,2.68l0,0a4.45,4.45,0,0,0,0,6.62,1.77,1.77,0,0,1,0,2.68l0,0a4.45,4.45,0,0,0,0,6.62,1.76,1.76,0,0,1,0,2.68l0,0a4.45,4.45,0,0,0,0,6.62,1.77,1.77,0,0,1,0,2.68l0,0a4.46,4.46,0,0,0,0,6.63,1.76,1.76,0,0,1,0,2.68l0,0a4.45,4.45,0,0,0,0,6.62,1.77,1.77,0,0,1,0,2.68l0,0a4.46,4.46,0,0,0,0,6.63,1.76,1.76,0,0,1,0,2.68l0,0a4.45,4.45,0,0,0,0,6.62,1.77,1.77,0,0,1,0,2.68l0,0a4.46,4.46,0,0,0,0,6.63,1.76,1.76,0,0,1,0,2.68l0,0a4.46,4.46,0,0,0,0,6.63,1.77,1.77,0,0,1,0,2.68l0,0a4.46,4.46,0,0,0,0,6.63,1.76,1.76,0,0,1,0,2.68l0,0a4.45,4.45,0,0,0,0,6.62,1.77,1.77,0,0,1,0,2.68l0,0a4.46,4.46,0,0,0,0,6.63,1.75,1.75,0,0,1,0,2.67l0,0a4.45,4.45,0,0,0,0,6.62,1.77,1.77,0,0,1,0,2.68l0,0a4.45,4.45,0,0,0,0,6.62,1.76,1.76,0,0,1,0,2.68l0,0a5.7,5.7,0,0,0-1.46,3.3c0,1,0,4.66,2.75,4.66h-1.27c-22.65,0-41-16.08-41-35.91V1178.8h42.28c-1.37,0-.39.52-1.29,1.36a4.46,4.46,0,0,0,0,6.63,1.76,1.76,0,0,1,0,2.68Z"/><path class="cls-2" d="M542,1178.8h-26.6v-89.07c0-6.43,6-11.65,13.3-11.65h0c7.35,0,13.3,5.22,13.3,11.65Z"/><path class="cls-2" d="M682.81,1236.14c0,21.48-4.09,41.25-8.32,56.93H611.56c-4.23,0-7.43-3.37-6.62-7a235.37,235.37,0,0,0,5-49.93c0-21.68-2.56-41.6-6.85-57.34h71.26C678.67,1194.54,682.81,1214.46,682.81,1236.14Z"/><path class="cls-2" d="M629.58,1178.8H603v-89.07c0-6.43,5.95-11.65,13.3-11.65h0c7.34,0,13.3,5.22,13.3,11.65Z"/><path class="cls-2" d="M767.54,1178c-1,65-31.55,112.62-31.55,112.62V1178Z"/><path class="cls-2" d="M756.46,1178H736v-89.07c0-6,4.58-10.84,10.23-10.84h0c5.66,0,10.24,4.85,10.24,10.84Z"/><path class="cls-2" d="M889.49,1212.58v.06a5.6,5.6,0,0,1-5.63,5.55h-.78a45.88,45.88,0,0,0,.36-5.78c0-22.48-16.11-40.71-36-40.71s-36,18.23-36,40.71a45.88,45.88,0,0,0,.36,5.78H811a5.6,5.6,0,0,1-5.63-5.55v-.06c0-17.92,8.76-33.52,21.7-41.63a22.93,22.93,0,0,0,10.91-19.4v-63.32c0-5.61,4.22-10.15,9.43-10.15a9,9,0,0,1,6.66,3,10.48,10.48,0,0,1,2.77,7.17v63.32a22.94,22.94,0,0,0,10.9,19.4C880.73,1179.06,889.49,1194.66,889.49,1212.58Z"/><path class="cls-6" d="M876.12,1208.78H818.77a7.39,7.39,0,0,0-7.38,7.4v6.61a7.38,7.38,0,0,0,7.38,7.39h57.35a7.4,7.4,0,0,0,7.4-7.39v-6.61A7.4,7.4,0,0,0,876.12,1208.78Zm.93,14.7H817.84v-7.7h59.21Z"/><path class="cls-2" d="M987.58,1172.48H967.11v-84.16a10.23,10.23,0,0,1,10.24-10.24h0a10.23,10.23,0,0,1,10.23,10.24Z"/><circle class="cls-2" cx="977.35" cy="1220.74" r="38.97" transform="translate(-576.94 1048.64) rotate(-45)"/><circle class="cls-2" cx="977.35" cy="1220.79" r="7.51" transform="translate(-437.38 1887.21) rotate(-76.54)"/><path class="cls-7" d="M934.09,1198.33a48.73,48.73,0,0,1,86.51,0"/><line class="cls-2" x1="977.35" y1="1172.04" x2="977.35" y2="1220.79"/></g></g><g id="TOP_SHELF" data-name="TOP SHELF"><g id="SHELF-2" data-name="SHELF"><polygon class="cls-2" points="213.08 709.79 161.67 709.79 161.67 736.51 213.08 728.25 213.08 709.79"/><rect class="cls-2" x="122.35" y="660.88" width="1078.59" height="48.91" transform="translate(1323.29 1370.66) rotate(180)"/><rect class="cls-2" x="1109.43" y="709.79" width="51.41" height="83.1" transform="translate(2270.26 1502.67) rotate(180)"/><polygon class="cls-2" points="1160.84 709.79 1109.43 709.79 1109.43 736.51 1160.84 728.25 1160.84 709.79"/><rect class="cls-2" x="161.67" y="709.79" width="51.41" height="83.1" transform="translate(374.75 1502.67) rotate(180)"/></g><path id="SCOOP" class="cls-2" d="M1160.5,505a3.24,3.24,0,0,1-3.25,3.25h-89v20.95a19.06,19.06,0,0,1-19.06,19.06h-8.76a19.06,19.06,0,0,1-19.07-19.06V501.72h135.87A3.26,3.26,0,0,1,1160.5,505Z"/><g id="GRATER"><polygon class="cls-2" points="957.55 660.63 933.21 660.63 909.66 492.72 934 492.72 957.55 660.63"/><polygon class="cls-2" points="933.21 660.63 818.89 660.63 842.44 492.72 909.66 492.72 933.21 660.63"/><rect class="cls-2" x="855.05" y="512.93" width="7.19" height="14.46" rx="3.5"/><rect class="cls-2" x="871.54" y="512.93" width="7.19" height="14.46" rx="3.5"/><rect class="cls-2" x="888.03" y="512.93" width="7.19" height="14.46" rx="3.5"/><rect class="cls-2" x="847.2" y="539.6" width="7.19" height="14.46" rx="3.5"/><rect class="cls-2" x="863.69" y="539.6" width="7.19" height="14.46" rx="3.5"/><rect class="cls-2" x="880.18" y="539.6" width="7.19" height="14.46" rx="3.5"/><rect class="cls-2" x="896.67" y="539.6" width="7.19" height="14.46" rx="3.5"/><rect class="cls-2" x="847.2" y="566.27" width="7.19" height="14.46" rx="3.5"/><rect class="cls-2" x="863.69" y="566.27" width="7.19" height="14.46" rx="3.5"/><rect class="cls-2" x="880.18" y="566.27" width="7.19" height="14.46" rx="3.5"/><rect class="cls-2" x="896.67" y="566.27" width="7.19" height="14.46" rx="3.5"/><rect class="cls-2" x="839.35" y="592.94" width="7.19" height="14.46" rx="3.5"/><rect class="cls-2" x="855.84" y="592.94" width="7.19" height="14.46" rx="3.5"/><rect class="cls-2" x="872.32" y="592.94" width="7.19" height="14.46" rx="3.5"/><rect class="cls-2" x="888.81" y="592.94" width="7.19" height="14.46" rx="3.5"/><rect class="cls-2" x="905.3" y="592.94" width="7.19" height="14.46" rx="3.5"/><rect class="cls-2" x="839.35" y="619.6" width="7.19" height="14.46" rx="3.5"/><rect class="cls-2" x="855.84" y="619.6" width="7.19" height="14.46" rx="3.5"/><rect class="cls-2" x="872.32" y="619.6" width="7.19" height="14.46" rx="3.5"/><rect class="cls-2" x="888.81" y="619.6" width="7.19" height="14.46" rx="3.5"/><rect class="cls-2" x="905.3" y="619.6" width="7.19" height="14.46" rx="3.5"/><path class="cls-2" d="M903.65,462.37H872.79a30.35,30.35,0,0,0-30.35,30.35H934A30.35,30.35,0,0,0,903.65,462.37Z"/><path class="cls-2" d="M872,462.37h8.12a29.55,29.55,0,0,1,29.55,29.55v.8a0,0,0,0,1,0,0H842.44a0,0,0,0,1,0,0v-.8A29.55,29.55,0,0,1,872,462.37Z"/></g><g id="BEAKER"><path class="cls-2" d="M1107.57,517.51V649A11.62,11.62,0,0,1,1096,660.63h-72.26A11.62,11.62,0,0,1,1012.07,649V580.47a128.42,128.42,0,0,0-16.49-63Z"/><line class="cls-2" x1="1107.57" y1="542.6" x2="1093.96" y2="542.6"/><line class="cls-2" x1="1107.57" y1="574.27" x2="1093.96" y2="574.27"/><line class="cls-2" x1="1107.57" y1="558.44" x2="1080.34" y2="558.44"/><line class="cls-2" x1="1107.57" y1="590.11" x2="1080.34" y2="590.11"/><line class="cls-2" x1="1107.57" y1="605.94" x2="1093.96" y2="605.94"/><line class="cls-2" x1="1107.57" y1="637.61" x2="1093.96" y2="637.61"/><line class="cls-2" x1="1107.57" y1="621.78" x2="1080.34" y2="621.78"/></g><g id="POTS"><path class="cls-2" d="M305.81,366.53H475.45a0,0,0,0,1,0,0v85a33.78,33.78,0,0,1-33.78,33.78H339.6a33.78,33.78,0,0,1-33.78-33.78v-85A0,0,0,0,1,305.81,366.53Z"/><path class="cls-2" d="M475.45,366.53H503a9.25,9.25,0,0,1,9.25,9.25v1.28a9.25,9.25,0,0,1-9.25,9.25h-27.6a0,0,0,0,1,0,0V366.53A0,0,0,0,1,475.45,366.53Z"/><path class="cls-2" d="M269,366.53h27.6a9.25,9.25,0,0,1,9.25,9.25v1.28a9.25,9.25,0,0,1-9.25,9.25H269a0,0,0,0,1,0,0V366.53A0,0,0,0,1,269,366.53Z" transform="translate(574.78 752.83) rotate(-180)"/><path class="cls-2" d="M276,408.2H505.22a0,0,0,0,1,0,0V534.94a33.78,33.78,0,0,1-33.78,33.78H309.82A33.78,33.78,0,0,1,276,534.94V408.2a0,0,0,0,1,0,0Z"/><path class="cls-2" d="M505.22,408.2h37.29A12.5,12.5,0,0,1,555,420.7v1.72a12.5,12.5,0,0,1-12.5,12.5H505.22a0,0,0,0,1,0,0V408.2A0,0,0,0,1,505.22,408.2Z"/><path class="cls-2" d="M226.25,408.2h37.29A12.5,12.5,0,0,1,276,420.7v1.72a12.5,12.5,0,0,1-12.5,12.5H226.25a0,0,0,0,1,0,0V408.2a0,0,0,0,1,0,0Z" transform="translate(502.29 843.13) rotate(-180)"/><path class="cls-2" d="M501.64,660.1h-222a33.79,33.79,0,0,1-33.78-33.78v-169H535.42v169A33.78,33.78,0,0,1,501.64,660.1Z"/><path class="cls-2" d="M586,491H535.42v-24.6H586a12.3,12.3,0,0,1,12.3,12.3h0A12.3,12.3,0,0,1,586,491Z"/><path class="cls-2" d="M195.24,491h50.6v-24.6h-50.6a12.3,12.3,0,0,0-12.3,12.3h0A12.29,12.29,0,0,0,195.24,491Z"/><rect class="cls-2" x="238.43" y="452.74" width="304.25" height="13.71" rx="6.85"/><path class="cls-2" d="M475.45,366.53H305.81c8.23-15.8,43.08-27.66,84.83-27.66S467.23,350.73,475.45,366.53Z"/><path class="cls-2" d="M406.88,319h-32.5a4.47,4.47,0,0,0-4.15,6.11L376,339.68h29.28L411,325.11A4.47,4.47,0,0,0,406.88,319Z"/></g><g id="POT"><path class="cls-2" d="M741.44,531.71V650.16c0,5.79-6.05,10.47-13.52,10.47H643.85c-7.47,0-13.52-4.68-13.52-10.47V588.42c0-19.87-6.61-39.4-19.19-56.71Z"/><path class="cls-2" d="M788,538.54v57.63h0A10.2,10.2,0,0,1,777.78,586v-36.9a6.84,6.84,0,0,0-6.84-6.84H741.45V531.71h39.69A6.83,6.83,0,0,1,788,538.54Z"/></g></g></g></g></svg>