<svg xmlns="http://www.w3.org/2000/svg" viewBox="0 0 1051.1 1340.81"><defs><style>.cls-1,.cls-5{fill:#f7f3ef;}.cls-2{fill:#fcbe9f;}.cls-2,.cls-4,.cls-5,.cls-6{stroke:#070707;}.cls-2,.cls-4,.cls-5,.cls-6,.cls-7{stroke-linecap:round;stroke-linejoin:round;stroke-width:4px;}.cls-3{fill:#1c0e0c;}.cls-4{fill:#e57b07;}.cls-6{fill:none;}.cls-7{fill:#efaf00;stroke:#000;}</style></defs><g id="Layer_2" data-name="Layer 2"><rect class="cls-1" x="-2212.17" y="-46.66" width="7197.02" height="2279.9"/></g><g id="Chars"><g id="WOMAN"><g id="LEGS"><g id="LEFT_LEG" data-name="LEFT LEG"><path id="FOOT" class="cls-2" d="M412,1216.74c.16-16.72,24.2-51.43,30.68-64.1l-53.79-1.92s-8.45,32.9-20.75,57c-4.27,8.37-20,29.93-52.09,36.43-29.79,6-25.36,19.3-25.36,19.3H406.22c24.84,0,7.75-38.3,7.75-38.3Z"/><path id="SHADOW" class="cls-3" d="M387.29,1158c9.65,4.41,27.83,12,44,14.23,4.75-8.06,9.14-15.14,11.39-19.54l-53.79-1.93S388.41,1153.39,387.29,1158Z"/><path id="SHOES" class="cls-4" d="M414,1225.12s17.09,38.3-7.75,38.3H290.67s-4.65-14.49,25.36-19.3c4.17-.67,16.11-3.65,16.11-3.65s-3.71,11.4,22.7,10.23S393.16,1227,414,1225.12Z"/></g><g id="RIGHT_LEG" data-name="RIGHT LEG"><path id="FOOT-2" data-name="FOOT" class="cls-2" d="M678.19,1212.89c-3.7-13.09,6.62-49.58,9.47-60.25h-48s6.31,35.71,5.62,55c-.31,8.54-9.82,30.16-40.77,36.43-22.9,5.72-21.9,19.3-21.9,19.3h97.87c24.85,0,3.6-38.3,3.6-38.3Z"/><path id="SHADOW-2" data-name="SHADOW" class="cls-3" d="M687.65,1152.65h-48s1.19,6.86,2.48,16.19c17.47,1.65,35.43-4.15,43.08-7C686.21,1158,687.08,1154.79,687.65,1152.65Z"/><path id="SHOES-2" data-name="SHOES" class="cls-4" d="M684.07,1225.12s21.25,38.3-3.6,38.3H582.6s-1-13.58,21.9-19.3c4.1-1,12.64-4,12.64-4s8.47-7.32,33.1,8.16C671,1261.34,673.63,1225.12,684.07,1225.12Z"/></g><path id="PANTS" class="cls-4" d="M715.86,698.77C709.09,799,693.12,874.51,694.69,891.09c0,0,31.5,124.22,17.41,261.56,0,0-55.68,5.76-79.36,0,0,0-2.28-15.4-6.75-38.5-8.58-44.34-16.49-117.08-25.82-163.76-3.09-15.47-15.48-75.63-27.48-140.51C555.15,854.29,538.72,883,524.4,922c0,0,2.46,150.63-54.32,234.5l-89.66-5.63S405.84,1031.33,417.67,927l75.84-446.89H629S723.82,559.54,715.86,698.77Z"/><line id="SHADOW-3" data-name="SHADOW" class="cls-5" x1="571.99" y1="814.73" x2="554.13" y2="682.03"/></g><path id="SHIRT" class="cls-5" d="M611.14,230.43c18.8,4.62,66.21,16.78,80.1,37.42C709.3,294.68,739,423.94,739,423.94L687.2,408.66s-33.26-60.22-35.51-60.22S629,480.11,629,480.11H493.51L482.28,413.6s-28.76-23.37-27-37.75,2.34-18.6,2.34-18.6S442.27,362.91,400,404.7L350.61,383S427,275,449,262.08s48.08-15.65,48.08-15.65Z"/><g id="HEAD"><g id="NECK"><path class="cls-2" d="M545.93,141.08S562.85,209.28,619,233c0,0-41,28.38-127.21,17.85,0,0,30.58-34.8,24.8-73.44Z"/><path class="cls-3" d="M508.47,238.36a14.91,14.91,0,0,1-6.79-1.38c8.35-13.67,18.45-35.89,14.91-59.55l28.35-35.12c1.15,1.58,1.74,2.55,1.74,2.55C550.67,157.16,553,236.42,508.47,238.36Z"/></g><path id="HEAD-2" data-name="HEAD" class="cls-2" d="M545.93,141.08c4,12.3-1.5,71-34.06,75-24.47,3-51.55-46.15-55.06-57.18s.78-37.44,27-45.38C518.86,102.86,545.93,141.08,545.93,141.08Z"/><g id="HAIR"><path class="cls-3" d="M470.24,128.1s24.17,20.5,75.69,13c0,0,15,69.32,73.07,91.94,0,0,37.46-42.44,12.27-71.64-16-18.52-51.87-2.25-51.87-2.25s32-80.48-47.38-80.86-96.38,83.87-72.55,87C459.47,165.26,447.79,141.08,470.24,128.1Z"/><path class="cls-6" d="M635,154.21c-27.44-20.9-57.15,5.3-57.15,5.3"/><path class="cls-6" d="M469.48,127.34s13.51,30.34,65,22.82"/></g><path id="SHAWL" class="cls-7" d="M449.66,148.11s-7.88-29.59.39-43.5S495.93,62.87,522.62,61s85,30.46,85,30.46-48.79,2.46-57.68,62.71c0,0-22.26-50.24-62-41.7S449.66,148.11,449.66,148.11Z"/></g><path id="APRON" class="cls-7" d="M596,221.72s-17.07,47.42-18.87,82.13c0,0-59.9,8.48-73.74.85-8.62-4.75,2.37-70.32,2.37-70.32L485,248.53s-25,90.12-27.37,108.72-9.53,29.84,24.62,56.35l11.23,66.51L456.88,667.37s140.44,10,190.32-3S629,480.11,629,480.11l10.11-63.29s-57-53.1-27.92-186.39Z"/><g id="HANDS"><g id="RIGHT_HAND" data-name="RIGHT HAND"><path class="cls-5" d="M687.5,438.8c-3.93-1.61-15.76-37.88,12.71-45.66,37.33-10.21,44.77,9.08,43.78,25.05C742.08,449,722.54,453.13,687.5,438.8Z"/><path class="cls-5" d="M547.3,473.64l-.4-.21a3.1,3.1,0,0,1-1.31-4.18l23.53-50.95a3.09,3.09,0,0,1,4.17-1.31l5.34,2.8a3.09,3.09,0,0,1,1.31,4.17l-28.46,48.37A3.1,3.1,0,0,1,547.3,473.64Z"/><rect class="cls-5" x="524.13" y="467.39" width="3.98" height="92.45" transform="translate(298.17 -185.41) rotate(27.63)"/><path class="cls-5" d="M510.15,576.59c-5.56,10.6-19,20.76-26,17.13s-6.26-20.48-.71-31.09,14.57-12,21.39-8.42S515.7,566,510.15,576.59Z"/><path class="cls-2" d="M717.88,446.82c-33.13,19.77-101,48.87-139.4,57.4-4.69,10.48-20.32,26.71-24.21,27.52-4.48.94-6.14-1.27-10.56-2.89-7.55-2.78-3.93-8.22-8.91-9.19s-6.1-8.48-6.1-8.48-4.69.61-7.51,8.33c-3.52,9.65-8.65,7.41-8.65,7.41s2.62-15.63,4.86-18.58a87.87,87.87,0,0,1,12.37-13.09c2.79-2.36,26.9-6.89,38.87-6.77,30-25.74,81-63.46,114.74-77.4C707.59,401.07,747.69,429,717.88,446.82Z"/></g><g id="LEFT_HAND" data-name="LEFT HAND"><path class="cls-5" d="M338.24,431.08c-3.93-1.61-15.6-40.74,12.71-49.05s48.75,11.12,49.88,27.08C401.35,416.59,373.28,445.41,338.24,431.08Z"/><path class="cls-2" d="M366.67,460.27c-4.5-1.8-50-29.8-22.23-51.66,36.28-28.57,49.22,22.81,49.22,22.81Z"/><path class="cls-5" d="M410.78,440.28l-.42.17a3.08,3.08,0,0,1-4.05-1.63L381.85,388.3a3.08,3.08,0,0,1,1.64-4.05l5.54-2.36a3.11,3.11,0,0,1,4.06,1.64l19.33,52.69A3.1,3.1,0,0,1,410.78,440.28Z"/><rect class="cls-5" x="426.25" y="435.79" width="3.98" height="92.45" transform="translate(-154.26 205.57) rotate(-22.99)"/><path class="cls-5" d="M466.78,534.31c4.68,11,4,27.87-3.22,30.93s-19.8-8.15-24.48-19.17,0-18.87,7.06-21.87S462.11,523.29,466.78,534.31Z"/><path class="cls-2" d="M390.42,431.6c2.4-1.56,8.41-4.3,16.8,3.27s31.26,33.08,28,36.29c-6.17,6.16-18.38-14.53-20.81-12.2-.7.67-.4,2.28-.64,4a5.15,5.15,0,0,1-3.87,4.47c-3.82,1.34.05,6.23-5.33,9.18s-2.75,4.39-6.6,9c-4.35,5.17-29-10.12-32.86-18.33S380.18,438.27,390.42,431.6Z"/></g></g></g><path class="cls-6" d="M470,172.12s8.19,4.49,11.51-4.49"/><path class="cls-6" d="M497.82,161.63s9.12,5.49,15.85-5.14"/><polyline class="cls-6" points="488.12 166.34 488.12 180.68 494.63 185.16"/><path class="cls-6" d="M500,194.16s9.07-2.85,10.34-9.56"/><line class="cls-6" x1="500.37" y1="320.36" x2="575.81" y2="320.36"/><line class="cls-6" x1="503.63" y1="446.7" x2="541.08" y2="446.7"/><ellipse class="cls-4" cx="575.63" cy="160.83" rx="22.3" ry="8.44" transform="translate(69.7 479.02) rotate(-47.78)"/></g></svg>