<svg xmlns="http://www.w3.org/2000/svg" viewBox="0 0 700 700"><defs><style>.cls-1,.cls-5{fill:#f7f3ef;}.cls-2{fill:none;}.cls-2,.cls-3,.cls-5{stroke:#070707;}.cls-2,.cls-3,.cls-5,.cls-6{stroke-linecap:round;stroke-linejoin:round;stroke-width:4px;}.cls-3{fill:#e57b07;}.cls-4{fill:#090909;}.cls-6{fill:#efaf00;stroke:#000;}</style></defs><g id="Layer_2" data-name="Layer 2"><rect class="cls-1" x="-750.07" y="-1552.83" width="7197.02" height="2279.9"/></g><g id="Chars"><g id="BASKET_VEGETABLES" data-name="BASKET &amp; VEGETABLES"><g id="CARROT"><path class="cls-2" d="M508.4,284s22.46-37.28,58.07-26"/><path class="cls-2" d="M521.61,268s14.36-.93,11.24,6.18c-2,4.48-19.89,1.56-19.89,1.56s.6-19.71,8.5-19.55C527.72,256.3,521.61,268,521.61,268Z"/><path class="cls-2" d="M532.44,260.37s13.13,1.45,8.38,5.66c-2.42,2.13-17.26.38-17.26.38s6.69-17.54,13.07-18.08S532.44,260.37,532.44,260.37Z"/><path class="cls-2" d="M549.49,255.75s10.24,3.5,6.69,6.89c-1.72,1.64-15.61-4.92-15.61-4.92s6.27-11.32,12.37-9.49C557,249.44,549.49,255.75,549.49,255.75Z"/><path class="cls-2" d="M554.08,255.63s22.56-6.12,21.37,3.28C574.56,266,554.08,255.63,554.08,255.63Z"/><path class="cls-2" d="M504.19,302.33s3.88-42.76-32.22-52.59"/><path class="cls-2" d="M498.6,269.93s-11.69-5.86-10.3.15c.71,3.06,14,9.6,14,9.6s5-18,.09-21.91S498.6,269.93,498.6,269.93Z"/><path class="cls-2" d="M487.33,257s-10.53-2.62-9.64,2.07c.44,2.28,15.8,4.35,15.8,4.35s1.63-12.68-4.49-14.46C485,247.75,487.33,257,487.33,257Z"/><path class="cls-2" d="M483.62,254.4s-14.89-17.17-19.56-8.79C460.55,251.93,483.62,254.4,483.62,254.4Z"/><path class="cls-2" d="M502.12,281.86s21.88-40.57-6.38-64"/><path class="cls-2" d="M509.69,245.9s-6.88-9.05-8.33-3.05c-.74,3.05,8.33,14.29,8.33,14.29s12.37-12.14,8.09-20.31C514.94,231.4,509.69,245.9,509.69,245.9Z"/><path class="cls-2" d="M506.39,230.6s-8.35-6.61-9.66-2c-.63,2.24,12.35,10.28,12.35,10.28s7.19-10.81,2.45-14.88C508.4,221.31,506.39,230.6,506.39,230.6Z"/><path class="cls-2" d="M504.19,226.78s-5.75-21.51-13.75-15.8C484.41,215.28,504.19,226.78,504.19,226.78Z"/><path class="cls-3" d="M429.22,513.32h0a8.44,8.44,0,0,1-6.13-9.93l48.56-206.16c3-12.24,16.35-19.5,29.08-15.81l6.44,1.87c12.73,3.69,19.5,16.79,14.75,28.52L440.17,508.34A9.1,9.1,0,0,1,429.22,513.32Z"/><path class="cls-2" d="M541.67,338.29s29.65-32.62,62.3-15.19"/><path class="cls-2" d="M557.91,324.87s14.28,1.64,9.77,8.06c-2.84,4.05-19.84-2-19.84-2s4.61-19.24,12.33-17.68C566.29,314.49,557.91,324.87,557.91,324.87Z"/><path class="cls-2" d="M570.09,319.32s12.6,3.76,7.07,7c-2.81,1.67-17-2.68-17-2.68s10.15-16,16.52-15.43S570.09,319.32,570.09,319.32Z"/><path class="cls-2" d="M587.77,317.81s9.34,5.26,5.16,7.95c-2,1.31-14.32-7.6-14.32-7.6s8.46-10,14.08-7.12C596.41,313,587.77,317.81,587.77,317.81Z"/><path class="cls-4" d="M587.19,317.05s23.39-2,20.31,7C605.17,330.86,587.19,317.05,587.19,317.05Z"/><path class="cls-2" d="M533.8,355.5s12.53-41.29-20.9-57.34"/><path class="cls-2" d="M534.92,322.7s-10.27-7.83-10.13-1.67c.07,3.13,11.75,11.9,11.75,11.9s8.61-16.82,4.56-21.5S534.92,322.7,534.92,322.7Z"/><path class="cls-2" d="M526.51,308s-9.8-4.44-9.88.33c0,2.31,14.62,7.07,14.62,7.07s4.19-12.17-1.46-15C526.06,298.5,526.51,308,526.51,308Z"/><path class="cls-2" d="M523.39,304.8s-11.11-19.51-17.4-12.11C501.25,298.28,523.39,304.8,523.39,304.8Z"/><path class="cls-4" d="M535.94,335s29.76-36,6.8-63.94"/><path class="cls-4" d="M550.72,301.08s-4.91-10.11-7.56-4.48c-1.35,2.87,5.26,15.51,5.26,15.51s14.62-9.72,12.09-18.51C558.83,287.78,550.72,301.08,550.72,301.08Z"/><path class="cls-4" d="M550.6,285.47s-6.85-8-9.07-3.68c-1.08,2.07,10,12.28,10,12.28s9.27-9.34,5.44-14.17C554.46,276.7,550.6,285.47,550.6,285.47Z"/><path class="cls-4" d="M549.22,281.33s-1.25-22.14-10.27-18C532.15,266.52,549.22,281.33,549.22,281.33Z"/><path class="cls-3" d="M417.14,549.36h0a8.21,8.21,0,0,1-4-10.83L502.9,344.72c5.44-11.48,20-16.24,31.77-10.35l5.94,3c11.74,5.89,15.72,20,8.65,30.62L428.9,546.42A9.27,9.27,0,0,1,417.14,549.36Z"/><path class="cls-2" d="M427.2,338s12.12-32.22,45.45-28.57"/><path class="cls-2" d="M435.5,323.64s12.35-2.8,11.05,3.17c-.82,3.77-17,4.09-17,4.09s-3.42-15.4,3.5-16.42C438.5,313.67,435.5,323.64,435.5,323.64Z"/><path class="cls-2" d="M443.43,316.16s11.75-.77,8.44,3.19c-1.68,2-15,2.79-15,2.79s2.33-14.6,7.78-15.94S443.43,316.16,443.43,316.16Z"/><path class="cls-2" d="M457.37,310.11s9.64,1.24,7.22,4.38c-1.17,1.53-14.6-1.56-14.6-1.56s3.2-9.7,8.89-9.16C462.64,304.12,457.37,310.11,457.37,310.11Z"/><path class="cls-2" d="M461.36,309.35s18.45-8,19.3-.54C481.3,314.45,461.36,309.35,461.36,309.35Z"/><path class="cls-2" d="M427.19,352.85s-5.18-33.79-38.64-36.22"/><path class="cls-2" d="M415.82,328.48s-11.36-2.87-8.94,1.6c1.23,2.28,14.11,5.44,14.11,5.44s.76-14.74-4.31-17S415.82,328.48,415.82,328.48Z"/><path class="cls-2" d="M403.4,320s-9.71-.52-8,3c.83,1.71,14.65,1.09,14.65,1.09s-1.12-10.09-6.82-10.59C399.48,313.21,403.4,320,403.4,320Z"/><path class="cls-2" d="M399.65,318.57s-16.43-11.19-18.82-4C379,320,399.65,318.57,399.65,318.57Z"/><path class="cls-2" d="M421.29,337.24s10.95-34.69-18.39-48.79"/><path class="cls-4" d="M420.69,308.2s-7.82-6-7.88-1.17c0,2.48,10.12,9.9,10.12,9.9s8.36-11.22,3-16.95C422.37,296.17,420.69,308.2,420.69,308.2Z"/><path class="cls-2" d="M414.75,296.78s-8.61-3.93-8.83-.16c-.11,1.83,12.83,6.21,12.83,6.21s4.11-9.45-.85-11.92C414.63,289.27,414.75,296.78,414.75,296.78Z"/><path class="cls-2" d="M412.06,294.14s-9.32-15.89-15.16-10.3C392.5,288.05,412.06,294.14,412.06,294.14Z"/><path class="cls-3" d="M413.18,550.24h0c-4.67-.16-8.43-3.28-8.64-7.18L394.45,356.6c-.49-11.09,10.38-20.15,23.67-19.71l6.72.22c13.29.43,23.43,10.18,22.08,21.21L422.36,543.65C421.85,547.52,417.85,550.39,413.18,550.24Z"/></g><g id="ONION"><path class="cls-5" d="M238.59,529.61l-6.19,3c-40.73-80.45-73.38-229.21-73.71-230.7l6.77-1.39C165.78,302,198.25,449.94,238.59,529.61Z"/><path class="cls-5" d="M250.87,528.28,245.09,532c-17.4-26.07-41.81-75.09-59.35-160.58a815.45,815.45,0,0,1-13.6-91.91L179,279a807.46,807.46,0,0,0,13.5,91.15C202.1,416.75,220,482,250.87,528.28Z"/><path class="cls-5" d="M234.25,532.31l-6.7,1.69c-.08-.34-9.12-34-30.27-79.18C177.8,413.24,143.76,353.15,92.22,303l4.86-4.82C149.4,349.09,183.9,410,203.63,452.15,225,497.81,234.16,532,234.25,532.31Z"/><polygon class="cls-5" points="242.06 523.66 235.72 526.35 124.03 273.67 130.37 270.99 242.06 523.66"/><path class="cls-5" d="M227.5,533.8s-8.12-27.25-19.82-55.22c0,0,4.58-9.83,14.61-6.41a367.83,367.83,0,0,0,28.71,56Z"/><ellipse class="cls-5" cx="239.44" cy="531.81" rx="12.08" ry="7.06" transform="translate(-82.2 45.29) rotate(-9.23)"/><path class="cls-5" d="M295.55,531.25l-5.87,3.55c-40.09-94-73.47-268.11-73.8-269.86l6.44-1.67C222.65,265,255.85,438.13,295.55,531.25Z"/><path class="cls-5" d="M307.26,529.63,301.8,534c-17-30.45-41.05-87.74-59.06-187.8C232,286.5,228.42,239.08,228.39,238.61L235,238c0,.46,3.56,47.45,14.24,106.7C259,399.23,277.08,475.56,307.26,529.63Z"/><path class="cls-5" d="M291.45,534.43l-6.37,2c-.09-.39-9.22-39.82-30.09-92.59C235.77,395.24,202.37,325,152.41,266.59l4.56-5.67c50.73,59.32,84.58,130.5,104,179.77C282.11,494.06,291.36,534,291.45,534.43Z"/><polygon class="cls-5" points="298.78 524.26 292.76 527.44 169.8 201.84 175.82 198.66 298.78 524.26"/><path class="cls-5" d="M285.57,538.33s-8.71-34-20.29-66.7c0,0,4.22-11.54,13.86-7.58a479.39,479.39,0,0,0,28.24,65.45Z"/><path class="cls-5" d="M295.31,525.61c6.22-1.44,11.76,1.06,12.37,5.59s-3.93,9.36-10.15,10.8-11.76-1.06-12.37-5.58S289.09,527.05,295.31,525.61Z"/><polygon class="cls-5" points="267.52 506.88 248.75 504.16 135.61 184.45 141.63 181.28 267.52 506.88"/><path class="cls-5" d="M251.58,520s-8.9-33.06-20.49-65.77c0,0,4-10.63,13.62-6.67a523.35,523.35,0,0,0,28.48,64.55Z"/><path class="cls-5" d="M261.67,509.88c6.17-1.59,11.39-.06,11.65,3.41s-4.53,7.57-10.71,9.15-11,0-11.27-3.48S255.5,511.46,261.67,509.88Z"/></g><g id="MUSHROOMS"><path class="cls-5" d="M346.22,495.41l13.64-7.75a5,5,0,0,1,7,2.24l8.46,18.23-19.42,11-11.34-16.59A5,5,0,0,1,346.22,495.41Z"/><path class="cls-5" d="M358.33,510.92,367,506c10.89-6.2,22.66-6.05,28.85,4.84h0c6.19,10.89-1.27,26.82-12.16,33l-1.34.76c-10.89,6.19-28.4,4.46-34.59-6.43h0C341.55,527.3,347.44,517.11,358.33,510.92Z"/><path class="cls-5" d="M329.13,510.26l-12.72.2a4.05,4.05,0,0,1-4.1-4.32l1.09-16.25,18.1-.28,1.6,16.21A4,4,0,0,1,329.13,510.26Z"/><path class="cls-5" d="M326.56,494.53l-8.07.12c-10.15.16-18.45-4.54-18.61-14.69h0c-.16-10.15,11.36-18.56,21.51-18.72l1.25,0c10.15-.15,21.92,7.9,22.07,18h0C344.87,489.42,336.71,494.37,326.56,494.53Z"/><path class="cls-5" d="M386.18,471.36,375.33,478a4,4,0,0,1-5.73-1.64l-7.31-14.55,15.45-9.43,9.6,13.16A4,4,0,0,1,386.18,471.36Z"/><path class="cls-5" d="M376,459.1l-6.89,4.21c-8.66,5.28-18.2,5.46-23.49-3.21h0c-5.29-8.67.36-21.76,9-27.05l1.07-.65c8.67-5.29,22.89-4.32,28.18,4.35h0C389.17,445.41,384.65,453.82,376,459.1Z"/><path class="cls-5" d="M273.92,390.54l-7.17-5.44a2.86,2.86,0,0,1-.4-4.2l7.7-8.58,10.21,7.75-6.19,9.73A2.86,2.86,0,0,1,273.92,390.54Z"/><path class="cls-6" d="M279.36,380.65l-4.55-3.45c-5.73-4.35-8.31-10.59-4-16.32h0c4.34-5.72,14.43-5.38,20.16-1l.7.54c5.73,4.34,8.77,14,4.43,19.69h0C291.79,385.8,285.08,385,279.36,380.65Z"/><path class="cls-5" d="M295.69,457.13,281.46,446a5.52,5.52,0,0,1-1-8.08l14.68-15.7,20.25,15.81L303.76,456.1A5.52,5.52,0,0,1,295.69,457.13Z"/><path class="cls-5" d="M305.89,438.7l-9-7.05c-11.36-8.87-16.66-21.07-8.42-31.62h0c8.24-10.55,27.94-8.94,39.3-.07l1.4,1.09c11.36,8.87,17.71,27.59,9.47,38.15h0C330.37,449.75,317.25,447.57,305.89,438.7Z"/><path class="cls-5" d="M373.71,411.33l-16.27,4.06a5.33,5.33,0,0,1-6.56-4.32l-3.47-21.19,23.16-5.78,6.9,20.33A5.35,5.35,0,0,1,373.71,411.33Z"/><path class="cls-6" d="M365.7,391.89l-10.33,2.58c-13,3.24-25.05-.3-28.3-13.29h0c-3.24-13,9-27.23,22-30.48l1.6-.4c13-3.24,30.51,3.57,33.75,16.56h0C387.67,379.85,378.68,388.65,365.7,391.89Z"/></g><g id="BASKET"><path class="cls-5" d="M432.09,552.57H266.62c-40.93,0-76.28-25.31-84.74-60.68L154.52,377.43H544.19L516.82,491.89C508.37,527.26,473,552.57,432.09,552.57Z"/><line class="cls-5" x1="218.49" y1="539.69" x2="187.7" y2="377.43"/><path class="cls-5" d="M256.77,552.55a115.23,115.23,0,0,1-5-18.39L222.33,377.43"/><path class="cls-5" d="M291.59,553.07a114.76,114.76,0,0,1-5.23-18.91L257,377.43"/><path class="cls-5" d="M326.14,552.83A113.8,113.8,0,0,1,321,534.16l-29.4-156.73"/><path class="cls-5" d="M360.8,552.92a114.9,114.9,0,0,1-5.18-18.76l-29.4-156.73"/><path class="cls-5" d="M395.5,553a111.05,111.05,0,0,1-5.25-18.83l-29.4-156.73"/><path class="cls-5" d="M429.89,552.46a115.13,115.13,0,0,1-5-18.3l-29.4-156.73"/><path class="cls-5" d="M462.94,547.83a116.25,116.25,0,0,1-3.43-13.67L430.12,377.43"/><line class="cls-5" x1="493.44" y1="530.7" x2="464.75" y2="377.43"/><line class="cls-5" x1="517.6" y1="489.27" x2="499.38" y2="377.43"/></g></g></g></svg>