<svg xmlns="http://www.w3.org/2000/svg" viewBox="0 0 1051.1 1340.81"><defs><style>.cls-1,.cls-3{fill:#f7f3ef;}.cls-2{fill:#1c0e0c;}.cls-3,.cls-6{stroke:#070707;}.cls-11,.cls-3,.cls-4,.cls-5,.cls-6,.cls-8{stroke-linecap:round;stroke-linejoin:round;stroke-width:4px;}.cls-4,.cls-7{fill:#efaf00;}.cls-4,.cls-8{stroke:#000;}.cls-5,.cls-9{fill:#c48270;}.cls-11,.cls-5{stroke:#0f0f0f;}.cls-11,.cls-6,.cls-8{fill:none;}.cls-10{fill:#070707;}</style></defs><g id="Layer_2" data-name="Layer 2"><rect class="cls-1" x="-3309.55" y="-46.66" width="7197.02" height="2279.9"/></g><g id="Chars"><g id="COOK"><g id="LEGS"><g id="SHOES"><path class="cls-2" d="M734.82,1213.85c0,15.07,11.25,20.58,11.24,47.33H625.26s-2-27.6,27.16-28.44c25.07-.73,42.32-16.56,42.05-18.89S734.82,1213.85,734.82,1213.85Z"/><path class="cls-3" d="M626.93,1258.43H743.66a2.4,2.4,0,0,1,2.4,2.4v3.91a0,0,0,0,1,0,0H624.53a0,0,0,0,1,0,0v-3.91A2.4,2.4,0,0,1,626.93,1258.43Z" transform="translate(1370.59 2523.18) rotate(180)"/><path class="cls-2" d="M495.79,1213.85c.06,15.07,11.26,20.58,11.25,47.33H386.24s-2.06-27.6,27.15-28.44c25.08-.73,42.33-16.56,42.05-18.89S495.79,1213.85,495.79,1213.85Z"/><path class="cls-3" d="M387.9,1258.43H504.64a2.4,2.4,0,0,1,2.4,2.4v3.91a0,0,0,0,1,0,0H385.5a0,0,0,0,1,0,0v-3.91A2.4,2.4,0,0,1,387.9,1258.43Z" transform="translate(892.54 2523.18) rotate(180)"/></g><path id="PANTS" class="cls-3" d="M490,535.43l236.12-.25c19.66,111.77-18.57,265.87-20,284.8-4,55,22.27,89.39,35.78,145,22,90.75,16.53,211.16.26,256.8l-64,.43c-1.86-15.73-77.64-328-81.35-365.77L574.62,750.1,551.4,845.86c-18.33,56.62-10.2,56.46-7.59,113.64,4.48,98.39-13.37,220.2-39.93,261.89l-72.54-1.11c.11-170.63-6.19-335.33-4.06-367.36C427.78,832.9,452.49,669.73,490,535.43Z"/><path id="SHADOW" class="cls-3" d="M574.62,750.1c-3.61-15.2-11.64-76-17.1-78.57"/></g><g id="SHIRT"><path class="cls-4" d="M738.4,617.84s-3.41-240-53.89-332.34c-29.38-53.78-140.14-77.3-155.09-78.27-19.59-1.26-54.37-.46-111.12,18.27-50.38,16.63-57.43,62.22-35.54,116.27s100.4,193.41,100.4,193.41c-3.2,24.38-17.51,86.36-17.51,86.36S620.93,633.39,738.4,617.84Z"/><path class="cls-2" d="M549.74,211s4.28,40.73-46.34,69.27l-9-21.79,28.93-53.81Z"/><path class="cls-2" d="M401.86,232.58s16.27,56.76,63.79,60.59l-2-18.9-26.47-58.73Z"/><path class="cls-4" d="M495.42,263.93,508.84,296a15.49,15.49,0,0,1-14.93,19.6H445.54a15.78,15.78,0,0,0-14.48,22.06L532.69,562.61c2.38,5.17-4.54,61.91-4.54,61.91l80.36,0"/><circle class="cls-3" cx="463.98" cy="355.33" r="7.64"/><circle class="cls-3" cx="505.22" cy="355.33" r="7.64"/><circle class="cls-3" cx="484.85" cy="408.27" r="7.64"/><circle class="cls-3" cx="526.09" cy="408.27" r="7.64"/><circle class="cls-3" cx="507.02" cy="461.97" r="7.48"/><circle class="cls-3" cx="544.46" cy="461.48" r="7.48"/></g><g id="LEFT_HAND" data-name="LEFT HAND"><path id="HAND" class="cls-4" d="M401.86,232.58c-20.89,8-53.61,25.69-62.16,50.89s-30.18,94.14-30.18,94.14S273.69,344.28,266.93,334c0,0-1.83,20.75-44.7,21.66,0,0,23.48,163.63,111,167.54,34.58,1.55,69.57-45,74.49-128.39Z"/><path id="LINE" class="cls-3" d="M307.48,373c9.46,11.46,30,42.39,39.69,64.69"/><g id="ARM"><path class="cls-5" d="M268.72,336.12s-23.47-41.72-41.9-50.45c-6-2.87-38.21,11.47-41,14.8s-9.69,29.73-9.69,29.73S187,333.1,191,325.27c4.62-9,12.58-18.36,23.08-15.44,6,1.68,18.75,16.74,13.25,20.37s-13.88-7-21.79-8.85-13.67,4-13.67,4S203.34,331,208,340.87c2.76,5.82,9.26,17.24,26.65,14.17C257.3,351.05,268.72,336.12,268.72,336.12Z"/><path class="cls-2" d="M185.8,300.47S174,311,160.65,316.61c0,0,3.67,10.44,18.31,3.25Z"/></g><path id="CUFF" class="cls-4" d="M221.75,355.14s32-.45,47-19l12.49,14.47s-16.35,25.74-55.92,24.66Z"/><g id="SPICE"><path class="cls-3" d="M196.58,345.64a2.62,2.62,0,1,0,1.67-3.31A2.62,2.62,0,0,0,196.58,345.64Z"/><path class="cls-3" d="M170.57,372.2a2.1,2.1,0,1,0,1.34-2.66A2.1,2.1,0,0,0,170.57,372.2Z"/><path class="cls-3" d="M180.23,426.54a2.63,2.63,0,1,0,1.67-3.32A2.64,2.64,0,0,0,180.23,426.54Z"/><path class="cls-3" d="M202.11,433.3a2.89,2.89,0,1,0,1.84-3.65A2.89,2.89,0,0,0,202.11,433.3Z"/><path class="cls-3" d="M188.44,475.06a2.89,2.89,0,1,0-1-4A2.88,2.88,0,0,0,188.44,475.06Z"/><path class="cls-3" d="M179.19,460.57a3.15,3.15,0,1,0-4-2A3.16,3.16,0,0,0,179.19,460.57Z"/><path class="cls-3" d="M200.66,404.77a2.89,2.89,0,1,0,1.83-3.65A2.89,2.89,0,0,0,200.66,404.77Z"/><path class="cls-3" d="M195.34,375.79a2.63,2.63,0,1,0,1.67-3.31A2.62,2.62,0,0,0,195.34,375.79Z"/><path class="cls-3" d="M184.06,384.37a2.71,2.71,0,1,0,1.72-3.42A2.71,2.71,0,0,0,184.06,384.37Z"/><path class="cls-3" d="M186.38,366.78a2.71,2.71,0,1,0,1.72-3.42A2.71,2.71,0,0,0,186.38,366.78Z"/><path class="cls-3" d="M179.86,401.18a2.71,2.71,0,1,0,1.72-3.42A2.71,2.71,0,0,0,179.86,401.18Z"/><path class="cls-3" d="M191,449.51a2.71,2.71,0,1,0,1.72-3.42A2.71,2.71,0,0,0,191,449.51Z"/><path class="cls-3" d="M178.39,503.08a2.71,2.71,0,1,0,1.72-3.42A2.71,2.71,0,0,0,178.39,503.08Z"/><path class="cls-3" d="M198.07,480.69a2.71,2.71,0,1,0,1.72-3.42A2.71,2.71,0,0,0,198.07,480.69Z"/><circle class="cls-3" cx="165.08" cy="479.93" r="2.71"/><path class="cls-3" d="M217.06,480.24a2.71,2.71,0,1,0,1.72-3.42A2.71,2.71,0,0,0,217.06,480.24Z"/><path class="cls-3" d="M191.18,414.51a2.71,2.71,0,1,0,1.72-3.42A2.71,2.71,0,0,0,191.18,414.51Z"/><path class="cls-3" d="M166.44,436.34a2.71,2.71,0,1,0,1.72-3.42A2.71,2.71,0,0,0,166.44,436.34Z"/><path class="cls-3" d="M211.09,441.46a2.71,2.71,0,1,0,1.72-3.42A2.71,2.71,0,0,0,211.09,441.46Z"/><path class="cls-3" d="M190.71,337.37a1.81,1.81,0,1,0,1.15-2.28A1.81,1.81,0,0,0,190.71,337.37Z"/><path class="cls-3" d="M197.72,392.42a1.8,1.8,0,1,0,1.14-2.28A1.8,1.8,0,0,0,197.72,392.42Z"/><path class="cls-3" d="M197.72,392.42a1.8,1.8,0,1,0,1.14-2.28A1.8,1.8,0,0,0,197.72,392.42Z"/><path class="cls-3" d="M199.68,420.11a1.81,1.81,0,1,0,1.15-2.28A1.81,1.81,0,0,0,199.68,420.11Z"/><circle class="cls-3" cx="174.46" cy="408.25" r="1.8"/><path class="cls-3" d="M169.83,421.58A1.8,1.8,0,1,0,171,419.3,1.8,1.8,0,0,0,169.83,421.58Z"/><path class="cls-3" d="M199.39,465.94a1.8,1.8,0,1,0,1.14-2.28A1.8,1.8,0,0,0,199.39,465.94Z"/><path class="cls-3" d="M216.12,459.71a1.81,1.81,0,1,0,1.15-2.28A1.81,1.81,0,0,0,216.12,459.71Z"/><path class="cls-3" d="M176.08,484.19a1.81,1.81,0,1,0,1.15-2.28A1.81,1.81,0,0,0,176.08,484.19Z"/><circle class="cls-3" cx="194.28" cy="491.17" r="1.8" transform="translate(-320.69 608.63) rotate(-81.27)"/><path class="cls-3" d="M162.62,466a1.8,1.8,0,1,0,1.14-2.28A1.8,1.8,0,0,0,162.62,466Z"/><path class="cls-3" d="M223.37,469.54a1.8,1.8,0,1,0,1.15-2.28A1.8,1.8,0,0,0,223.37,469.54Z"/><path class="cls-3" d="M207,488.87a1.81,1.81,0,1,0,1.15-2.28A1.81,1.81,0,0,0,207,488.87Z"/><circle class="cls-3" cx="203.09" cy="508.68" r="1.8" transform="translate(-330.53 632.2) rotate(-81.27)"/><path class="cls-3" d="M218.1,498.08a1.81,1.81,0,1,0,1.15-2.28A1.81,1.81,0,0,0,218.1,498.08Z"/><path class="cls-3" d="M170.41,496.5a1.81,1.81,0,1,0,1.15-2.28A1.8,1.8,0,0,0,170.41,496.5Z"/><path class="cls-3" d="M155.73,506.72a1.81,1.81,0,1,0,1.15-2.28A1.81,1.81,0,0,0,155.73,506.72Z"/><path class="cls-3" d="M174.6,525.21a1.81,1.81,0,1,0,1.15-2.28A1.8,1.8,0,0,0,174.6,525.21Z"/><path class="cls-3" d="M177.28,438.36a1.8,1.8,0,1,0,1.14-2.28A1.8,1.8,0,0,0,177.28,438.36Z"/><circle class="cls-3" cx="203.44" cy="458.08" r="1.8"/><path class="cls-3" d="M195.39,439.52a1.81,1.81,0,1,0,1.15-2.28A1.81,1.81,0,0,0,195.39,439.52Z"/></g></g><g id="HEAD"><path id="HEAD-2" data-name="HEAD" class="cls-5" d="M410.65,191.69c-1.25-1.42-1.53,28.93,3.29,50.82,8.85,40.17,37.32,48.86,42.82,49.27,31.9,2.34,54.75-31.65,54.86-42.71s-.14-19.26-.14-19.26,21.89-12.59,11.34-25.14C516.1,196.69,469.83,177.34,410.65,191.69Z"/><g id="CAP"><path class="cls-3" d="M410.65,191.69l-6.83-29.56S455.05,138,527.24,176.35l-4.42,28.32S476.59,177.38,410.65,191.69Z"/><path class="cls-3" d="M382,143.29c6.66,12.83,18.45,20.38,21.85,18.84,18.33-8.29,44.38-7.6,53.18-7.08,34.08,37.67,119,94.43,112.57,19.67-6.42-75.15-140.31-118.49-179.85-87C382.42,93.56,366.06,112.67,382,143.29Z"/><path class="cls-6" d="M557.89,211.1c-33.23,2.05-74.91-29.74-99-54.64,0,0,0,0-.05-.05l-.55-.51c-17.77-16.72-39.46-58.37-82-42.33"/></g><g id="HAIR"><path class="cls-2" d="M461.29,188s-31.11,28.2-54.73,17.58c-26.33-11.83-3.91-30.51,2.34-21.42C417.23,196.24,433,183.89,461.29,188Z"/><path class="cls-2" d="M482.64,190.82s12,1.28,15.69,16,11.51,6.89,11.51,6.89.65-14.88,4.45-13.16A101.28,101.28,0,0,0,482.64,190.82Z"/></g></g></g><g id="COOK_S_RIGHT_HAND" data-name="COOK&apos;S RIGHT HAND"><path id="HAND-2" data-name="HAND" class="cls-7" d="M694.5,326.4c.48,23.48-16.81,182-41.07,203.57-24.81,22-132.43,36.95-218.07,44.5,0,0,7.26-33.71-25.17-39.29,0,0,117.57-54.84,148.65-57.75,0,0,25.83-131.59,42.39-161.26C626.9,270.15,693.15,261,694.5,326.4Z"/><g id="LINES"><path class="cls-8" d="M462.2,510c35.52-13.76,85.09-31,102.24-32.6,0,0,13.11-114.34,29.67-144"/><path class="cls-8" d="M703.06,325.31c2.31,74.09-26.41,190.23-59,214.09-10,7.35-171.33,32.42-182.09,33.18"/></g><path id="ARM-2" data-name="ARM" class="cls-5" d="M435.23,573.77c-5.87,5.36-36.36,25.58-52,28.45-9.82,1.81-27.82-4.55-30-5.89s-14.81-18.08-14.81-18.08,7.29-7.22,15.36-.4c10.37,8.78,20.36,4.36,26.85-1.09,2.7-2.27,5.92-8.44,2.23-11.59s-13.45,5.2-17.47,5.51c-8.17.63-10.55-3.3-10.55-3.3s16.46-16,19.74-18.4,22.67-13.8,40-13.55C428.41,535.63,448.83,561.33,435.23,573.77Z"/><path id="CUFF-2" data-name="CUFF" class="cls-4" d="M410.19,535.18,432,525.26s28.11,10.2,30,48.8l-26.63.41S431.17,544.46,410.19,535.18Z"/></g><circle class="cls-9" cx="512.73" cy="214.54" r="12.96"/><path class="cls-6" d="M504.34,218.73s3.89-11.38,11.89-10.79"/><line class="cls-6" x1="509.84" y1="213.67" x2="514.29" y2="216.88"/><polyline class="cls-6" points="442.36 220.06 435.94 242.74 449.49 249.82"/><ellipse class="cls-10" cx="462.56" cy="218.73" rx="3.8" ry="4.73"/><ellipse class="cls-10" cx="426.59" cy="225.5" rx="3.8" ry="4.73"/><path class="cls-11" d="M446.86,265a20.78,20.78,0,0,0,25.41-13.36"/></g></svg>