<svg xmlns="http://www.w3.org/2000/svg" viewBox="0 0 2000 1561.26"><defs><style>.cls-1{isolation:isolate;}.cls-11,.cls-2,.cls-3{fill:#f7f3ef;}.cls-10,.cls-11,.cls-3,.cls-4,.cls-6,.cls-8{stroke:#070707;}.cls-10,.cls-11,.cls-3,.cls-4,.cls-6,.cls-7,.cls-8{stroke-linecap:round;stroke-linejoin:round;stroke-width:4px;}.cls-4{fill:#fcbe9f;}.cls-5{fill:#1c0e0c;}.cls-6{fill:none;}.cls-7{fill:#efaf00;stroke:#000;}.cls-8{fill:#e57b07;}.cls-9{fill:#070707;}.cls-10{fill:#ea631f;}.cls-11{mix-blend-mode:multiply;}</style></defs><g class="cls-1"><g id="Layer_2" data-name="Layer 2"><rect class="cls-2" x="-33.36" y="-20.35" width="2083.04" height="1611.53"/></g><g id="Chars"><g id="WOMAN"><g id="LEGS"><path id="PANTS" class="cls-3" d="M1186.66,1123.09c-7.69,113.9-25.84,199.71-24.06,218.55,0,0,35.8,141.16,19.78,297.23,0,0-63.27,6.55-90.18,0,0,0-2.59-17.5-7.67-43.74-9.75-50.4-18.74-133.06-29.34-186.11-3.52-17.58-17.59-85.94-31.23-159.67-19.93,50.47-38.6,83.11-54.87,127.4,0,0,2.79,171.18-61.74,266.49l-101.88-6.39S834.36,1501,847.8,1382.44L934,874.61h153.91S1195.7,964.87,1186.66,1123.09Z"/><line id="SHADOW" class="cls-3" x1="1023.17" y1="1254.87" x2="1002.87" y2="1104.07"/></g><path id="SHIRT" class="cls-3" d="M1067.65,590.87c21.37,5.26,75.25,19.07,91,42.52,20.52,30.5,54.29,177.38,54.29,177.38l-58.89-17.36S1116.29,725,1113.74,725s-25.85,149.62-25.85,149.62H934L921.22,799s-32.69-26.56-30.64-42.9S893.24,735,893.24,735s-17.49,6.43-65.49,53.92L771.59,764.3s86.82-122.75,111.84-137.47,54.64-17.77,54.64-17.77Z"/><g id="HEAD"><g id="NECK"><path class="cls-4" d="M993.55,489.34s19.23,77.5,83,104.47c0,0-46.58,32.26-144.57,20.29,0,0,34.76-39.55,28.19-83.46Z"/><path class="cls-5" d="M951,599.88a17.06,17.06,0,0,1-7.73-1.56c9.5-15.54,21-40.79,17-67.68l32.21-39.91c1.31,1.8,2,2.9,2,2.9C998.94,507.61,1001.62,597.68,951,599.88Z"/></g><path id="HEAD-2" data-name="HEAD" class="cls-4" d="M993.55,489.34c4.53,14-1.71,80.67-38.7,85.21-27.81,3.41-58.59-52.44-62.58-65S893.16,467,922.91,458C962.79,445.9,993.55,489.34,993.55,489.34Z"/><g id="HAIR"><path class="cls-5" d="M907.53,474.58s27.47,23.3,86,14.76c0,0,17.09,78.77,83,104.47,0,0,42.56-48.23,13.94-81.4-18.17-21-59-2.56-59-2.56s36.32-91.46-53.84-91.89-109.52,95.3-82.44,98.85C895.3,516.81,882,489.34,907.53,474.58Z"/><path class="cls-6" d="M1094.82,504.25c-31.19-23.74-65,6-65,6"/><path class="cls-6" d="M906.67,473.73s15.35,34.47,73.9,25.93"/></g><path id="SHAWL" class="cls-7" d="M884.15,497.33s-8.95-33.63.45-49.44,52.12-47.43,82.46-49.56,96.57,34.61,96.57,34.61-55.45,2.79-65.54,71.25c0,0-25.31-57.08-70.43-47.38S884.15,497.33,884.15,497.33Z"/></g><path id="APRON" class="cls-7" d="M1050.42,581S1031,634.86,1029,674.3c0,0-68.07,9.64-83.8,1-9.79-5.39,2.69-79.91,2.69-79.91l-23.51,16.08S895.9,713.85,893.24,735s-10.83,33.91,28,64L934,874.6l-41.62,212.8s159.59,11.39,216.27-3.42-20.74-209.38-20.74-209.38l11.5-71.92s-64.8-60.34-31.74-211.81Z"/><g id="HANDS"><g id="RIGHT_HAND" data-name="RIGHT HAND"><path class="cls-3" d="M1154.43,827.66c-4.47-1.83-17.9-43,14.44-51.89,42.42-11.6,50.88,10.33,49.75,28.47C1216.46,839.2,1194.25,844,1154.43,827.66Z"/><path class="cls-3" d="M995.11,867.25l-.46-.24a3.51,3.51,0,0,1-1.48-4.74l26.73-57.91a3.52,3.52,0,0,1,4.75-1.48l6.06,3.17a3.52,3.52,0,0,1,1.49,4.75l-32.35,55A3.51,3.51,0,0,1,995.11,867.25Z"/><rect class="cls-3" x="968.78" y="860.15" width="4.52" height="105.06" transform="translate(533.95 -346.23) rotate(27.63)"/><path class="cls-3" d="M952.88,984.24c-6.3,12.06-21.59,23.6-29.49,19.47s-7.12-23.27-.81-35.33,16.56-13.62,24.31-9.56S959.19,972.19,952.88,984.24Z"/><path class="cls-4" d="M1189,836.78c-37.64,22.46-114.76,55.53-158.41,65.22-5.33,11.91-23.09,30.36-27.51,31.28-5.09,1.06-7-1.44-12-3.29-8.57-3.15-4.46-9.33-10.12-10.44s-6.93-9.64-6.93-9.64-5.33.7-8.53,9.47c-4,11-9.83,8.43-9.83,8.43s3-17.77,5.52-21.12a99.66,99.66,0,0,1,14-14.88c3.18-2.68,30.58-7.83,44.18-7.69,34.06-29.25,92.09-72.11,130.39-88C1177.26,784.79,1222.83,816.56,1189,836.78Z"/></g><g id="LEFT_HAND" data-name="LEFT HAND"><path class="cls-3" d="M757.54,818.88c-4.47-1.82-17.74-46.29,14.44-55.73s55.4,12.64,56.68,30.77C829.26,802.42,797.36,835.17,757.54,818.88Z"/><path class="cls-4" d="M789.84,852.06c-5.11-2-56.8-33.87-25.26-58.71,41.23-32.46,55.93,25.92,55.93,25.92Z"/><path class="cls-3" d="M840,829.34l-.48.2a3.5,3.5,0,0,1-4.6-1.86l-27.8-57.41a3.5,3.5,0,0,1,1.86-4.6l6.3-2.68a3.52,3.52,0,0,1,4.61,1.86l22,59.88A3.51,3.51,0,0,1,840,829.34Z"/><rect class="cls-3" x="857.55" y="824.24" width="4.52" height="105.06" transform="translate(-274.17 405.51) rotate(-22.99)"/><path class="cls-3" d="M903.61,936.2c5.31,12.53,4.54,31.67-3.66,35.15s-22.51-9.26-27.82-21.79,0-21.44,8-24.86C888.36,921.22,898.29,923.68,903.61,936.2Z"/><path class="cls-4" d="M816.83,819.48c2.73-1.77,9.55-4.88,19.09,3.72s35.52,37.58,31.86,41.24c-7,7-20.89-16.52-23.66-13.87-.79.76-.45,2.59-.72,4.52s-1.15,3.94-4.4,5.07c-4.34,1.53,0,7.09-6.06,10.43s-3.12,5-7.49,10.19c-5,5.87-32.93-11.5-37.35-20.84S805.2,827.05,816.83,819.48Z"/></g></g></g><path class="cls-6" d="M907.26,524.61s9.31,5.1,13.08-5.1"/><path class="cls-6" d="M938.88,512.69s10.37,6.24,18-5.84"/><polyline class="cls-6" points="927.85 518.04 927.85 534.33 935.26 539.43"/><path class="cls-6" d="M941.4,549.65s10.3-3.24,11.75-10.86"/><line class="cls-6" x1="941.77" y1="693.07" x2="1027.5" y2="693.07"/><line class="cls-6" x1="945.48" y1="836.64" x2="988.04" y2="836.64"/><ellipse class="cls-8" cx="1027.31" cy="511.78" rx="25.35" ry="9.59" transform="translate(-42.06 928.6) rotate(-47.78)"/><rect class="cls-2" x="379.31" y="1123.09" width="1238.72" height="457.24"/><g id="TABLE"><polyline class="cls-3" points="1628.18 1357.56 1578.16 1127.84 1619.43 1122.84 1657.9 1357.56"/><polygon class="cls-5" points="1578.16 1127.84 1619.43 1122.84 1623.48 1147.59 1581.09 1141.27 1578.16 1127.84"/><polyline class="cls-3" points="371.69 1357.56 421.71 1127.84 380.44 1122.84 341.96 1357.56"/><polygon class="cls-9" points="380.44 1122.84 421.71 1127.84 415.78 1155.08 378.73 1133.3 380.44 1122.84"/><ellipse class="cls-3" cx="999.5" cy="1071.58" rx="699.47" ry="51.52"/><path class="cls-3" d="M1699,1071.58v27.31c0,28.46-313.17,51.52-699.47,51.52-337.87,0-619.78-17.64-685.17-41.1C305,1106,300,1102.47,300,1098.89v-27.31c0,3.57,4.93,7.05,14.31,10.41q4.57,1.63,10.55,3.25c81.28,21.82,352.52,37.85,674.62,37.85s593.33-16,674.61-37.85C1690.31,1080.89,1699,1076.3,1699,1071.58Z"/><path class="cls-3" d="M1280.25,1118.62C1260,1248.75,1038.08,1326,875.44,1310.72,675.87,1291.93,568.77,1195.64,524.33,1143a31.37,31.37,0,0,1-4.47-33.6c124.73,8.5,291.58,13.69,474.9,13.69C1096.45,1123.09,1193.07,1121.49,1280.25,1118.62Z"/><path class="cls-3" d="M1487.92,1033.92l-2.33.95-205.31,83.58,0,.17c-87.18,2.87-183.8,4.47-285.49,4.47-183.32,0-350.17-5.19-474.9-13.69a31.29,31.29,0,0,1,16.87-16l171.55-68.72s4.37-.21,12.63-.56h0C791,1021.19,1140.73,1008.48,1487.92,1033.92Z"/></g><g id="LEMON"><path class="cls-3" d="M663,1088.57c7.34,6.28,15.69,9.81,24.41,7.11l7.87-2.44c5.52-1.7,9.34-5,12.61-9.28,3.14-4.07,3.82-11.55,2.17-17-3.35-11.1-16.43-17-27.5-13.55l-6.12,1.89c-8.07,2.5-12.15,6.21-14.65,11-1.29,2.44-2.06,6.12-3.74,8.36-1.52,2-3.91,3.38-3.09,7.2S658.34,1084.61,663,1088.57Z"/><path class="cls-3" d="M788.51,1035.64a2,2,0,0,1,2,2.12c-1,16.77-14.29,30-30.49,30s-29.45-13.26-30.49-30a2,2,0,0,1,2-2.12Z"/><path class="cls-3" d="M788.94,1035.64c0,16-13,24.7-28.94,24.7s-28.94-8.72-28.94-24.7Z"/><path class="cls-3" d="M765.49,1053.15a1,1,0,0,1-.76,1.28,35.12,35.12,0,0,1-9.46,0,1,1,0,0,1-.75-1.28l4.6-12.3a.94.94,0,0,1,1.77,0Z"/><path class="cls-3" d="M783.54,1036.23a19.46,19.46,0,0,1-1.73,6.88.57.57,0,0,1-.76.26l-13.12-6.68a.56.56,0,0,1,.25-1H783A.56.56,0,0,1,783.54,1036.23Z"/><path class="cls-3" d="M751.52,1037l-12.44,6.34a.7.7,0,0,1-1-.34,19.12,19.12,0,0,1-1.65-6.58.69.69,0,0,1,.7-.74h14A.7.7,0,0,1,751.52,1037Z"/><path class="cls-3" d="M779,1047.33a21,21,0,0,1-9,5.85.92.92,0,0,1-1.16-.53l-5-12.71a.91.91,0,0,1,1.27-1.15l13.67,7.13A.92.92,0,0,1,779,1047.33Z"/><path class="cls-3" d="M755.56,1040.1l-4.84,12.32a1,1,0,0,1-1.27.55,20.76,20.76,0,0,1-8.61-5.78,1,1,0,0,1,.3-1.51l13.05-6.81A1,1,0,0,1,755.56,1040.1Z"/></g><g id="GROCERY_BAG" data-name="GROCERY BAG"><g id="BAGUETTE"><path class="cls-3" d="M1580.7,878.82h0c-8,30.22-32.41,114.47-55.32,112.68C1497.47,989.32,1532,863,1532,863s27.79-111.15,55.76-110.19S1580.7,878.82,1580.7,878.82Z"/><ellipse class="cls-3" cx="1537.81" cy="934.66" rx="3.31" ry="10.06" transform="translate(536.87 2430.17) rotate(-87.5)"/><ellipse class="cls-3" cx="1577.68" cy="795.37" rx="10.06" ry="3.31"/><ellipse class="cls-3" cx="1570.56" cy="823.56" rx="13.42" ry="4.42"/><ellipse class="cls-3" cx="1559.05" cy="852.56" rx="15.06" ry="4.96"/><ellipse class="cls-3" cx="1545.64" cy="908.41" rx="4.42" ry="13.42" transform="translate(570.58 2412.9) rotate(-87.5)"/><ellipse class="cls-3" cx="1549.83" cy="885.49" rx="4.96" ry="15.06" transform="translate(597.49 2395.17) rotate(-87.5)"/></g><g id="RED_PEPPER" data-name="RED PEPPER"><path class="cls-3" d="M1431,852.06s5.59-7.42-2.93-15.14l2.92-1.06a18.48,18.48,0,0,1,8.45,12.74Z"/><path class="cls-7" d="M1442.09,916.11h0a14.92,14.92,0,0,1-18.49-7.43l-16.93-30.57c-3.91-8,1.57-18.14,9.9-21.17l.23-.09a14.91,14.91,0,0,1,19.12,8.9L1451,897A14.92,14.92,0,0,1,1442.09,916.11Z"/><path class="cls-7" d="M1471.38,905.43h0a14.91,14.91,0,0,0,9.37-17.59l-6.4-34.41c-2.13-8.6-13.2-12.75-21.52-9.71l-.24.08a14.91,14.91,0,0,0-8.9,19.12l8.58,33.61A14.91,14.91,0,0,0,1471.38,905.43Z"/><path class="cls-7" d="M1457.74,912.7h0a12.59,12.59,0,0,1-16.16-7.53l-14.5-39.75a12.61,12.61,0,0,1,7.53-16.16h0a12.6,12.6,0,0,1,16.16,7.52l14.5,39.75A12.62,12.62,0,0,1,1457.74,912.7Z"/></g><g id="PARSLEY"><path class="cls-3" d="M1390.27,880.5s-22.5-42.36-88.68-7.71"/><path class="cls-3" d="M1331.17,861.24s-13.65,3.59-13.65,7.11,6.82,1.62,6.82,1.62-9.89,4.89-9.55,8.14,7.34,0,7.34,0-4.75,9.91-1,11,3.91-6.59,3.91-6.59,4.77,3.76,6.14,2.42-3.24-10.65-3.24-10.65,4.43,5.83,7.16,3.77S1330,866.93,1331.17,861.24Z"/><path class="cls-3" d="M1307.53,869.83s-12.5-3.38-14.37,0,4.12,1.92,4.12,1.92-11.43,5.18-10.5,8.75,6.94,0,6.94,0-1,8.51,3.41,6.87S1300.73,874.17,1307.53,869.83Z"/><path class="cls-3" d="M1376.34,836.35s10-4.75,9.65-7.81-3.7,1.08-3.7,1.08,5.15-9.33,2.78-11-4.66,3.77-4.66,3.77-3.44-5.71-5.64-2.3S1378.79,830,1376.34,836.35Z"/><path class="cls-6" d="M1394,880.5s-11-41.32-59.24-38.81"/><path class="cls-3" d="M1337.36,841.13s-5.43,14.1-10.85,11.32,2.29-5.29,2.29-5.29-15.86,4-15.24-1.67,11.89-3.43,11.89-3.43-6-3.36,0-4.82S1337.36,841.13,1337.36,841.13Z"/><path class="cls-3" d="M1364.36,846.7s-1.68-13.78-7.4-13.78,1.16,8.66,1.16,8.66-6.89-5.73-8.14-1.77,7,5.88,7,5.88-5.31,6.68-1.34,6.35S1364.36,846.7,1364.36,846.7Z"/><path class="cls-3" d="M1363.53,861.18s-13.23-4.19-15.61,1,8.36,2.53,8.36,2.53-8.07,3.89-5,6.68,8.24-3.91,8.24-3.91,3.88,7.6,5.22,3.85S1363.53,861.18,1363.53,861.18Z"/><path class="cls-3" d="M1373.4,847.64s11-6.26,9-9.31-8.73,4.8-8.73,4.8-2.33-8.71-5.11-7.33S1373.4,847.64,1373.4,847.64Z"/><path class="cls-6" d="M1382.65,880s-17.85-34.64-3.7-47.57"/></g><g id="ONION"><path class="cls-3" d="M1470.57,784.84s15.22,26.76,9.82,134.94l10.74.34S1494.68,818.33,1470.57,784.84Z"/><path class="cls-3" d="M1480.39,919.78s20.58-139.1,6-173.43c0,0,22.63,34.41,4.7,173.77Z"/><path class="cls-3" d="M1480.39,919.78c6.19-49.95,50.46-115,50.46-115s-35.38,78.65-39.72,115.31Z"/><path class="cls-3" d="M1475.77,959.4s3.28-19.07,4.62-39.62c0,0,5.71-4.69,10.74.34a251.43,251.43,0,0,0,.5,42.7Z"/><ellipse class="cls-3" cx="1483.65" cy="961.69" rx="4.81" ry="8.2" transform="translate(151.33 2124.01) rotate(-74.05)"/><path class="cls-3" d="M1489.94,963.42v.05a3.38,3.38,0,0,1-2.63,2.16,8.65,8.65,0,0,1-4.46-.17c-3.35-1-5.52-3.32-5-5.39V960a3.38,3.38,0,0,1,2.63-2.16,8.64,8.64,0,0,1,4.46.17C1488.32,959,1490.49,961.35,1489.94,963.42Zm-11.17-3.12c-.41,1.53,1.56,3.48,4.33,4.27a7.75,7.75,0,0,0,4,.16,2.49,2.49,0,0,0,2-1.52v0c.41-1.52-1.56-3.47-4.33-4.26a7.75,7.75,0,0,0-4-.16,2.49,2.49,0,0,0-2,1.52Z"/><path class="cls-3" d="M1486.67,962.52v0c-.3,1.05-1.8,1.51-3.42,1.05s-2.63-1.63-2.35-2.67v0c.3-1,1.8-1.51,3.42-1h0C1485.92,960.3,1487,961.47,1486.67,962.52Zm-4.88-1.37c-.13.47.57,1.23,1.71,1.55s2.14,0,2.27-.41h0c.13-.46-.57-1.22-1.71-1.55h0c-1.14-.32-2.14-.05-2.27.42Z"/></g><g id="PACK"><polygon class="cls-3" points="1597.67 879.98 1571.12 1082.35 1559.36 1082.35 1529.02 879.98 1597.67 879.98"/><polygon class="cls-3" points="1605.16 886.53 1579.08 1083.36 1567.33 1083.36 1537.45 886.53 1605.16 886.53"/><polygon class="cls-3" points="1598.43 879.98 1571.88 1082.35 1560.12 1082.35 1529.77 879.98 1598.43 879.98"/><polygon class="cls-3" points="1560.12 1082.35 1394.84 1082.35 1368.28 879.98 1529.77 879.98 1560.12 1082.35"/></g></g><g id="YELLOW_PEPPER" data-name="YELLOW PEPPER"><path class="cls-3" d="M1304.16,979.46s7.11-4.6,2.27-14l2.86,0a17.81,17.81,0,0,1,3.15,14.1Z"/><path class="cls-10" d="M1292.78,1038.3h0a13.74,13.74,0,0,1-13.53-12.43L1274.59,994c-.78-8.13,7.25-15.13,15.42-15h.24a13.75,13.75,0,0,1,13.59,13.9l2.83,31.85A13.73,13.73,0,0,1,1292.78,1038.3Z"/><path class="cls-10" d="M1321.52,1038.62h0a13.73,13.73,0,0,0,13.8-12.13l5.68-31.76c1-8.11-7.24-15.29-15.41-15.38h-.23a13.75,13.75,0,0,0-13.9,13.59l-3.53,31.78A13.75,13.75,0,0,0,1321.52,1038.62Z"/><path class="cls-10" d="M1307.39,1040.45h0a11.63,11.63,0,0,1-11.5-11.75l.43-39a11.63,11.63,0,0,1,11.75-11.5h0a11.63,11.63,0,0,1,11.5,11.75l-.43,39A11.62,11.62,0,0,1,1307.39,1040.45Z"/></g><g id="SALAD"><g id="BOWL"><path class="cls-11" d="M1038.53,936.8a118.47,118.47,0,0,1-118.47,118.47h0A118.48,118.48,0,0,1,801.59,936.8Z"/><path class="cls-3" d="M1038.15,936.42a118.48,118.48,0,0,1-118.47,118.47h0A118.48,118.48,0,0,1,801.21,936.42Z"/></g><g id="SALAD-2" data-name="SALAD"><ellipse class="cls-3" cx="935.5" cy="1025.19" rx="20.23" ry="15.07" transform="translate(-282.06 359.06) rotate(-18.94)"/><ellipse class="cls-3" cx="933.7" cy="1025.85" rx="17.94" ry="13.64" transform="translate(-311.35 414.28) rotate(-21.53)"/><path class="cls-3" d="M937.08,1021.13c-.22,1-3.15,3.69-3.15,3.69s-1.7-2.7-1.48-3.69a2.79,2.79,0,0,1,2.72-1.8C936.45,1019.33,937.31,1020.14,937.08,1021.13Z"/><path class="cls-3" d="M930.31,1030.57c.22-1,3.15-3.69,3.15-3.69s1.7,2.69,1.48,3.69a2.78,2.78,0,0,1-2.72,1.79C930.94,1032.36,930.08,1031.56,930.31,1030.57Z"/><path class="cls-3" d="M928,1024.05c1.28,0,4.34,1.8,4.34,1.8s-3.88,1.8-5.16,1.8-2.13-.81-1.9-1.8A2.77,2.77,0,0,1,928,1024.05Z"/><path class="cls-3" d="M939.36,1027.65c-1.28,0-4.34-1.8-4.34-1.8s3.88-1.8,5.16-1.8,2.13.81,1.9,1.8A2.77,2.77,0,0,1,939.36,1027.65Z"/><circle class="cls-3" cx="904.45" cy="1018.85" r="7.48"/><circle class="cls-3" cx="964.58" cy="1005.62" r="8.96" transform="translate(-248.57 1691.14) rotate(-75.66)"/><circle class="cls-3" cx="840.49" cy="1000.15" r="8.96" transform="translate(-316.43 1607) rotate(-77.64)"/><ellipse class="cls-3" cx="863.22" cy="1014.71" rx="7.72" ry="19.27" transform="translate(-272.53 318.39) rotate(-18.1)"/><path class="cls-3" d="M862,1000.16c3.16-.27,7.65,6.72,9.52,15.83,1.46,7.08,1.38,13.5-2.6,13.84-2.17.19-5.51-4.73-8-13.72S858.05,1000.5,862,1000.16Z"/><ellipse class="cls-3" cx="914.7" cy="967.42" rx="19.27" ry="5.17" transform="translate(-371.95 1309.61) rotate(-61.5)"/><path class="cls-3" d="M905.94,978.78c-1.46-1.65,1.16-9.4,6.19-17.17,3.9-6.05,8-10.71,9.86-8.63,1,1.13-.77,6.68-5.48,14.72S907.77,980.85,905.94,978.78Z"/><path class="cls-3" d="M953.58,991.79c8.77-3.78,21.37-5.51,36.6,2.75"/><path class="cls-3" d="M988.66,993.38s-.84,10.79,3.53,10.67.15-4.13.15-4.13,9,7.46,10.37,3.62-6.63-5.89-6.63-5.89,4.92-.32,1.49-3.12S988.66,993.38,988.66,993.38Z"/><path class="cls-3" d="M969.47,988.65s5.33-8.4,9-6.64-3.43,5.25-3.43,5.25,6.23-1.59,5.82,1.37-6.33,1.65-6.33,1.65,1.37,6-1.09,4.52S969.47,988.65,969.47,988.65Z"/><path class="cls-3" d="M880.8,1023.11c1.68,7.79,8.34,19.47,32.33,24.57"/><path class="cls-3" d="M897.61,1042.55s6.59,3.06,7.75,1.66-2.17-2.88-2.17-2.88,5.52,1.31,6.46-.09-2.91-2.41-2.91-2.41,5.13-2.37,4-4-3.71,1.33-3.71,1.33-.66-3.06-1.64-3-2.21,5.29-2.21,5.29.16-3.77-1.6-3.85S900,1040.68,897.61,1042.55Z"/><path class="cls-3" d="M909.8,1046.9s3.85,5.45,5.7,4.72-1-2.11-1-2.11,6.23,1.7,7,0-2.75-2.28-2.75-2.28,3.22-3,.91-3.85S913.93,1047.42,909.8,1046.9Z"/><path class="cls-3" d="M884.76,1031.94s3.87,6,6.52,4.73-2.48-3.75-2.48-3.75,4.48,1.11,4.17-1-4.55-1.16-4.55-1.16,1-4.28-.81-3.24S884.76,1031.94,884.76,1031.94Z"/><path class="cls-3" d="M950.78,1040.47c7.7,2.07,21.13,1.48,36.62-17.54"/><path class="cls-3" d="M975.75,1034.4s5.73-4.47,5-6.14-3.56.62-3.56.62,3.69-4.32,2.87-5.79-3.47,1.49-3.47,1.49.24-5.65-1.76-5.43-.52,3.91-.52,3.91-3-.82-3.4.1,3.7,4.38,3.7,4.38-3.28-1.86-4.16-.33S975.16,1031.46,975.75,1034.4Z"/><path class="cls-3" d="M985.19,1025.54s6.6-.94,6.8-2.92-2.34-.07-2.34-.07,4.36-4.77,3.2-6.27-3.29,1.41-3.29,1.41-1.23-4.24-3-2.56S987.53,1022.1,985.19,1025.54Z"/><path class="cls-3" d="M960.45,1041s7.11-.7,7.18-3.64-4.47.49-4.47.49,3-3.47,1-4.16-3.1,3.52-3.1,3.52-3.38-2.81-3.26-.77S960.45,1041,960.45,1041Z"/><path class="cls-3" d="M884.51,992.33s7.2-8.47,5.58-11.1-2.93,2.52-2.93,2.52.85-10.64-2-11.15-2.76,7.11-2.76,7.11-5.27-5.18-5.86-1.17S881.3,987.84,884.51,992.33Z"/><path class="cls-3" d="M886.51,1003.83s7.44-10.25,4.31-12.18-6,8-6,8-5.72-7-7.68-4.56S886.51,1003.83,886.51,1003.83Z"/><path class="cls-3" d="M890.33,1010.32c-4.91-7.26-8.13-15.5-5.06-22.66"/></g></g><g id="CUTTING_BOARD" data-name="CUTTING BOARD"><g id="CUTTING_BOARD-2" data-name="CUTTING BOARD"><path class="cls-3" d="M1303.54,1050.58a2.71,2.71,0,0,1-1.75,2.57l-6.53,2.66-60.66,24.69a26.74,26.74,0,0,1-10.11,2H986.32a2.78,2.78,0,0,1-2.82-2.85,2.71,2.71,0,0,1,1.76-2.57l67.19-27.36a26.87,26.87,0,0,1,10.1-2h238.17A2.78,2.78,0,0,1,1303.54,1050.58Z"/><path class="cls-3" d="M1303.54,1050.58v8.08a2.71,2.71,0,0,1-1.75,2.57l-67.19,27.35a26.74,26.74,0,0,1-10.11,2H986.32a2.78,2.78,0,0,1-2.82-2.85v-8.08a2.78,2.78,0,0,0,2.82,2.85h238.17a26.74,26.74,0,0,0,10.11-2l60.66-24.69,6.53-2.66A2.71,2.71,0,0,0,1303.54,1050.58Z"/></g><g id="KNIFE"><path class="cls-3" d="M1115.94,1054.11l50.23-14.13a2.39,2.39,0,0,0,1.65-3l-2.07-7a2.38,2.38,0,0,0-2.94-1.65l-50.24,14.13a2.41,2.41,0,0,0-1.65,3l2.07,7A2.39,2.39,0,0,0,1115.94,1054.11Z"/><path class="cls-3" d="M1035.29,1065.59l75.42-21.22,5.07,18S1066.57,1084.3,1035.29,1065.59Z"/></g><g id="TOMATO"><ellipse class="cls-3" cx="1230.45" cy="1043.41" rx="24.21" ry="22.1"/><ellipse class="cls-3" cx="1225.95" cy="1045.05" rx="18.99" ry="19.45"/><path class="cls-3" d="M1228.52,1038.63c0,1.35-2.57,5-2.57,5s-2.56-3.67-2.56-5a2.57,2.57,0,0,1,5.13,0Z"/><path class="cls-3" d="M1223.39,1051.47c0-1.35,2.56-5,2.56-5s2.57,3.66,2.57,5a2.57,2.57,0,0,1-5.13,0Z"/><path class="cls-3" d="M1219.22,1042.6c1.41,0,5.26,2.45,5.26,2.45s-3.85,2.45-5.26,2.45a2.45,2.45,0,1,1,0-4.9Z"/><path class="cls-3" d="M1232.69,1047.5c-1.42,0-5.26-2.45-5.26-2.45s3.84-2.45,5.26-2.45a2.45,2.45,0,1,1,0,4.9Z"/><ellipse class="cls-3" cx="1204.21" cy="1046.27" rx="22.16" ry="18.05" transform="translate(-367.91 775.62) rotate(-31.22)"/><ellipse class="cls-3" cx="1202.27" cy="1047.08" rx="19.79" ry="16.22" transform="translate(-385.29 900.47) rotate(-35.78)"/><path class="cls-3" d="M1205.9,1041.3c-.24,1.22-3.38,4.52-3.38,4.52s-1.82-3.3-1.58-4.52a3,3,0,0,1,2.92-2.21A1.87,1.87,0,0,1,1205.9,1041.3Z"/><path class="cls-3" d="M1198.65,1052.87c.24-1.22,3.37-4.52,3.37-4.52s1.83,3.3,1.59,4.52a3,3,0,0,1-2.92,2.2A1.87,1.87,0,0,1,1198.65,1052.87Z"/><path class="cls-3" d="M1196.21,1044.88c1.37,0,4.64,2.2,4.64,2.2s-4.14,2.21-5.51,2.21a1.87,1.87,0,0,1-2-2.21A3,3,0,0,1,1196.21,1044.88Z"/><path class="cls-3" d="M1208.34,1049.29c-1.37,0-4.64-2.21-4.64-2.21s4.14-2.2,5.51-2.2a1.87,1.87,0,0,1,2,2.2A3,3,0,0,1,1208.34,1049.29Z"/><ellipse class="cls-3" cx="1189.62" cy="1049.82" rx="20.23" ry="15.07" transform="translate(-276.3 442.86) rotate(-18.94)"/><ellipse class="cls-3" cx="1187.81" cy="1050.48" rx="17.94" ry="13.64" transform="translate(-302.66 509.27) rotate(-21.53)"/><path class="cls-3" d="M1191.2,1045.76c-.23,1-3.16,3.69-3.16,3.69s-1.7-2.69-1.47-3.69a2.77,2.77,0,0,1,2.72-1.8C1190.57,1044,1191.42,1044.77,1191.2,1045.76Z"/><path class="cls-3" d="M1184.42,1055.2c.23-1,3.16-3.69,3.16-3.69s1.7,2.69,1.47,3.69a2.76,2.76,0,0,1-2.72,1.79C1185.05,1057,1184.2,1056.19,1184.42,1055.2Z"/><path class="cls-3" d="M1182.15,1048.68c1.27,0,4.33,1.8,4.33,1.8s-3.87,1.8-5.15,1.8-2.13-.81-1.91-1.8A2.79,2.79,0,0,1,1182.15,1048.68Z"/><path class="cls-3" d="M1193.47,1052.28c-1.27,0-4.33-1.8-4.33-1.8s3.87-1.8,5.15-1.8,2.13.81,1.91,1.8A2.79,2.79,0,0,1,1193.47,1052.28Z"/></g></g><g id="OIL"><path class="cls-3" d="M673.42,822.6h14.39a4.65,4.65,0,0,1,4.65,4.65v30.84a0,0,0,0,1,0,0H668.77a0,0,0,0,1,0,0V827.25A4.65,4.65,0,0,1,673.42,822.6Z"/><path class="cls-5" d="M685.74,858.09h5.6A26.91,26.91,0,0,1,718.25,885v150.57a8,8,0,0,1-8,8H666.88a8,8,0,0,1-8-8V885A26.91,26.91,0,0,1,685.74,858.09Z"/><path class="cls-3" d="M670.82,858.09h5.6A26.91,26.91,0,0,1,703.33,885v150.57a8,8,0,0,1-8,8H652a8,8,0,0,1-8-8V885A26.91,26.91,0,0,1,670.82,858.09Z"/><path class="cls-5" d="M714.65,887.5v143.71c0,6-3.31,9.33-8.81,9.33h-49c-5.5,0-8.8-3.71-8.8-9.72V887.5Z"/><rect class="cls-3" x="650.74" y="931.8" width="45.53" height="33.65" rx="5.46"/><path class="cls-3" d="M670.82,858.09h5.6A26.91,26.91,0,0,1,703.33,885v150.57a8,8,0,0,1-8,8H652a8,8,0,0,1-8-8V885A26.91,26.91,0,0,1,670.82,858.09Z"/></g><g id="SALT_PEPPER" data-name="SALT &amp; PEPPER"><g id="SALT"><circle class="cls-3" cx="452.11" cy="996.75" r="16.74" transform="translate(-615.43 1238.12) rotate(-78.34)"/><circle class="cls-3" cx="449.42" cy="993.84" r="17.24" transform="translate(-614.56 1233.95) rotate(-78.38)"/><path class="cls-3" d="M447.5,1007.94H464a14,14,0,0,1,14,14v32.76a4.26,4.26,0,0,1-4.26,4.26H437.72a4.26,4.26,0,0,1-4.26-4.26V1022A14,14,0,0,1,447.5,1007.94Z"/><path class="cls-5" d="M447.12,1007.94h16.54a14,14,0,0,1,14,14v32.76a4.26,4.26,0,0,1-4.26,4.26H437.34a4.26,4.26,0,0,1-4.26-4.26V1022A14,14,0,0,1,447.12,1007.94Z"/><path class="cls-3" d="M435.19,1007.94h16.54a14,14,0,0,1,14,14v32.76a4.26,4.26,0,0,1-4.26,4.26H425.41a4.26,4.26,0,0,1-4.26-4.26V1022A14,14,0,0,1,435.19,1007.94Z"/><rect class="cls-3" x="431.6" y="1026.53" width="28.6" height="17.85" rx="3.42"/><rect class="cls-3" x="428.91" y="1024.22" width="28.6" height="17.85" rx="3.42"/></g><g id="PEPPER"><circle class="cls-3" cx="529.11" cy="981.68" r="16.74" transform="translate(-477.01 500.66) rotate(-36.12)"/><circle class="cls-3" cx="526.67" cy="978.45" r="17.24" transform="translate(-517.95 1357.3) rotate(-81.64)"/><path class="cls-3" d="M524.36,992.55H540.9a14,14,0,0,1,14,14v32.76a4.26,4.26,0,0,1-4.26,4.26H514.59a4.26,4.26,0,0,1-4.26-4.26v-32.76A14,14,0,0,1,524.36,992.55Z"/><path class="cls-5" d="M524.36,992.55H540.9a14,14,0,0,1,14,14v32.76a4.26,4.26,0,0,1-4.26,4.26H514.59a4.26,4.26,0,0,1-4.26-4.26v-32.76A14,14,0,0,1,524.36,992.55Z"/><path class="cls-3" d="M512.44,992.55H529a14,14,0,0,1,14,14v32.76a4.26,4.26,0,0,1-4.26,4.26H502.66a4.26,4.26,0,0,1-4.26-4.26v-32.76A14,14,0,0,1,512.44,992.55Z"/><rect class="cls-3" x="508.91" y="1011.35" width="28.6" height="17.85" rx="3.42"/><rect class="cls-3" x="506.21" y="1009.04" width="28.6" height="17.85" rx="3.42"/></g></g><g id="SHELVES"><g id="RIGHT"><path id="TOWEL" class="cls-5" d="M1300.83,636.44V762.17h101.6V645.42c0-5-5.11-9-11.43-9Z"/><g id="SHELF"><polygon class="cls-3" points="1239.17 597.04 1264.96 597.04 1264.96 611.13 1239.17 606.78 1239.17 597.04"/><line class="cls-3" x1="1264.58" y1="640.87" x2="1675.25" y2="640.87"/><rect class="cls-3" x="1219.05" y="571.25" width="502.5" height="25.8"/><rect class="cls-3" x="1239.17" y="597.04" width="25.8" height="43.83"/><polygon class="cls-3" points="1676.03 597.04 1701.82 597.04 1701.82 611.13 1676.03 606.78 1676.03 597.04"/><rect class="cls-3" x="1676.02" y="597.04" width="25.8" height="43.83"/></g><g id="TOWEL-2" data-name="TOWEL"><path class="cls-3" d="M1391.08,636.44c-6.64,0-12,4-12,9V734.6h-94.41V645.42c0-5,5.37-9,12-9Z"/></g><g id="DISHES"><circle class="cls-3" cx="1309.28" cy="494.07" r="75.51" transform="translate(34.12 1070.51) rotate(-45)"/><circle class="cls-3" cx="1309.28" cy="494.07" r="42.08" transform="translate(397.96 1556.06) rotate(-70.04)"/><path class="cls-3" d="M1429.93,520.84h100.53a7.84,7.84,0,0,1-7.83,7.83h-84.88a7.83,7.83,0,0,1-7.82-7.83Z"/><path class="cls-3" d="M1420.67,538.23h119a9.27,9.27,0,0,1-9.27,9.27H1429.94a9.27,9.27,0,0,1-9.27-9.27Z"/><path class="cls-3" d="M1408,558.34h144.4a11.24,11.24,0,0,1-11.24,11.24H1419.23A11.25,11.25,0,0,1,1408,558.34Z"/><path class="cls-3" d="M1416.05,512.74h128.29a1.36,1.36,0,0,1,.46,2.63l-13.6,5h-102l-13.61-5A1.36,1.36,0,0,1,1416.05,512.74Z"/><path class="cls-3" d="M1429.19,520.33h102a8,8,0,0,1-7.94,7.95h-86.13a7.94,7.94,0,0,1-7.94-7.95Z"/><path class="cls-3" d="M1404.23,528.36h151.92a1.61,1.61,0,0,1,.55,3.12l-16.11,5.88h-120.8l-16.11-5.88A1.61,1.61,0,0,1,1404.23,528.36Z"/><path class="cls-3" d="M1419.79,537.36h120.8a9.4,9.4,0,0,1-9.4,9.4h-102a9.4,9.4,0,0,1-9.41-9.4Z"/><path class="cls-3" d="M1388.06,546.85h184.27a1.94,1.94,0,0,1,.67,3.77l-19.54,7.14H1406.93l-19.54-7.14A1.94,1.94,0,0,1,1388.06,546.85Z"/><path class="cls-3" d="M1406.93,557.76h146.53a11.4,11.4,0,0,1-11.41,11.4H1418.34a11.4,11.4,0,0,1-11.41-11.4Z"/></g><g id="CUPS"><path class="cls-3" d="M1458.3,647.19l32.54,32.64c4.74,4.75,4.49,12.69-.57,17.72l-12.37,12.34c-5.05,5-13,5.27-17.72.52l-32.55-32.64Z"/><path class="cls-6" d="M1464.86,653.77h0c5.75-5.74,14.78-6,20.18-.59l6.57,6.59c5.39,5.41,5.1,14.44-.65,20.18h0"/><rect class="cls-3" x="1474.77" y="640.87" width="3.85" height="13.16"/><path class="cls-3" d="M1546.26,647.19l32.55,32.64c4.73,4.75,4.48,12.69-.57,17.72l-12.38,12.34c-5,5-13,5.27-17.72.52l-32.55-32.64Z"/><path class="cls-3" d="M1546.26,647.19l32.55,32.64c4.73,4.75,4.48,12.69-.57,17.72l-12.38,12.34c-5,5-13,5.27-17.72.52l-32.55-32.64Z"/><path class="cls-6" d="M1552.82,653.77h0c5.75-5.74,14.79-6,20.18-.59l6.57,6.59c5.39,5.41,5.11,14.44-.65,20.18h0"/><path class="cls-3" d="M1531.14,675.6a3.2,3.2,0,1,1-4.53,0A3.2,3.2,0,0,1,1531.14,675.6Z"/><path class="cls-3" d="M1548.48,658.26a3.21,3.21,0,1,1-4.54,0A3.2,3.2,0,0,1,1548.48,658.26Z"/><path class="cls-3" d="M1539.81,666.93a3.2,3.2,0,1,1-4.53,0A3.2,3.2,0,0,1,1539.81,666.93Z"/><path class="cls-3" d="M1533.11,687.54a3.2,3.2,0,1,1-4.53,0A3.2,3.2,0,0,1,1533.11,687.54Z"/><path class="cls-3" d="M1551.32,669.34a3.2,3.2,0,1,1-4.53,0A3.2,3.2,0,0,1,1551.32,669.34Z"/><path class="cls-3" d="M1560.42,660.23a3.2,3.2,0,1,1-4.53,0A3.19,3.19,0,0,1,1560.42,660.23Z"/><path class="cls-3" d="M1542.22,678.44a3.2,3.2,0,1,1-4.53,0A3.2,3.2,0,0,1,1542.22,678.44Z"/><path class="cls-3" d="M1545.06,689.51a3.2,3.2,0,1,1-4.53,0A3.2,3.2,0,0,1,1545.06,689.51Z"/><path class="cls-3" d="M1562.39,672.18a3.2,3.2,0,1,1-4.53,0A3.2,3.2,0,0,1,1562.39,672.18Z"/><path class="cls-3" d="M1553.73,680.85a3.2,3.2,0,1,1-4.53,0A3.2,3.2,0,0,1,1553.73,680.85Z"/><path class="cls-3" d="M1547,701.46a3.2,3.2,0,1,1-4.53,0A3.2,3.2,0,0,1,1547,701.46Z"/><circle class="cls-3" cx="1562.97" cy="685.52" r="3.2"/><circle class="cls-3" cx="1572.08" cy="676.42" r="3.2"/><path class="cls-3" d="M1556.13,692.36a3.2,3.2,0,1,1-4.53,0A3.19,3.19,0,0,1,1556.13,692.36Z"/><path class="cls-3" d="M1559,703.43a3.2,3.2,0,1,1-4.53,0A3.2,3.2,0,0,1,1559,703.43Z"/><path class="cls-3" d="M1576.31,686.1a3.2,3.2,0,1,1-4.53,0A3.2,3.2,0,0,1,1576.31,686.1Z"/><path class="cls-3" d="M1567.65,694.77a3.21,3.21,0,1,1-4.54,0A3.2,3.2,0,0,1,1567.65,694.77Z"/><rect class="cls-3" x="1561.65" y="640.87" width="3.85" height="13.16"/><path class="cls-3" d="M1634.22,647.19l32.55,32.64c4.73,4.75,4.48,12.69-.57,17.72l-12.38,12.34c-5,5-13,5.27-17.72.52l-32.55-32.64Z"/><path class="cls-6" d="M1640.78,653.77h0c5.75-5.74,14.79-6,20.18-.59l6.57,6.59c5.4,5.41,5.11,14.44-.64,20.18h0"/><rect class="cls-3" x="1649.3" y="640.87" width="3.85" height="13.16"/></g><g id="CUTTING_BOARD-3" data-name="CUTTING BOARD"><path class="cls-3" d="M1678.55,434.36h-9.16A12.43,12.43,0,0,1,1656.85,422v-2.66a12.12,12.12,0,0,1,.93-4.67,10.78,10.78,0,0,1,1.06-2,12.31,12.31,0,0,0,.93-4.67v-1.75A12.44,12.44,0,0,0,1647.23,394h-1.78a12.43,12.43,0,0,0-12.54,12.32v1.75a12.12,12.12,0,0,0,.93,4.67,11.42,11.42,0,0,1,1.06,2,12.12,12.12,0,0,1,.93,4.67V422c0,6.8-5.61,14.32-12.54,14.32h-9.17c-8.66,0-15.68,4.89-15.68,13.41V554.89a15.55,15.55,0,0,0,15.68,15.4h64.43a15.55,15.55,0,0,0,15.68-15.4V449.77A15.54,15.54,0,0,0,1678.55,434.36Zm-32.22-30.05a3.47,3.47,0,1,1-3.53,3.47A3.5,3.5,0,0,1,1646.33,404.31Z"/><path class="cls-3" d="M1673.89,432.75h-9.16a12.54,12.54,0,0,1-12.54-12.54V417.5a12.72,12.72,0,0,1,.93-4.75,12,12,0,0,1,1.06-2,12.58,12.58,0,0,0,.93-4.76v-1.77a12.53,12.53,0,0,0-12.54-12.54h-1.77a12.53,12.53,0,0,0-12.54,12.54V406a12.58,12.58,0,0,0,.93,4.76,11.29,11.29,0,0,1,1,2,12.53,12.53,0,0,1,.94,4.75v2.71a12.55,12.55,0,0,1-12.54,12.54h-9.17a15.67,15.67,0,0,0-15.68,15.68v107a15.68,15.68,0,0,0,15.68,15.68h64.42a15.68,15.68,0,0,0,15.69-15.68v-107A15.68,15.68,0,0,0,1673.89,432.75Zm-32.21-23.52a3.54,3.54,0,1,1,3.54-3.53A3.53,3.53,0,0,1,1641.68,409.23Z"/></g></g><g id="LEFT"><g id="WINE_GLASSES" data-name="WINE GLASSES"><path class="cls-3" d="M483.84,456.17h30.09a0,0,0,0,1,0,0v40.77a15,15,0,0,1-15,15h0a15,15,0,0,1-15-15V456.17A0,0,0,0,1,483.84,456.17Z"/><line class="cls-3" x1="498.89" y1="511.91" x2="498.89" y2="559.95"/><polygon class="cls-3" points="514.79 571.25 498.89 560.2 482.98 571.25 514.79 571.25"/><path class="cls-3" d="M535.07,456.17h30.09a0,0,0,0,1,0,0v40.77a15,15,0,0,1-15,15h0a15,15,0,0,1-15-15V456.17A0,0,0,0,1,535.07,456.17Z"/><line class="cls-3" x1="550.12" y1="511.91" x2="550.12" y2="559.95"/><polygon class="cls-3" points="566.02 571.25 550.12 560.2 534.22 571.25 566.02 571.25"/><path class="cls-3" d="M586.31,456.17H616.4a0,0,0,0,1,0,0v40.77a15,15,0,0,1-15,15h0a15,15,0,0,1-15-15V456.17A0,0,0,0,1,586.31,456.17Z"/><line class="cls-3" x1="601.35" y1="511.91" x2="601.35" y2="559.95"/><polygon class="cls-3" points="617.26 571.25 601.36 560.2 585.45 571.25 617.26 571.25"/></g><g id="SHELF-2" data-name="SHELF"><line class="cls-3" x1="370.98" y1="640.87" x2="648.02" y2="640.87"/><polygon class="cls-3" points="647.76 597.04 673.56 597.04 673.56 611.13 647.76 606.78 647.76 597.04"/><polygon class="cls-3" points="345.22 597.04 371.02 597.04 371.02 611.13 345.22 606.78 345.22 597.04"/><rect class="cls-3" x="309.35" y="571.25" width="400.09" height="25.8"/><rect class="cls-3" x="345.22" y="597.04" width="25.8" height="43.83"/><rect class="cls-3" x="647.76" y="597.04" width="25.8" height="43.83"/></g><g id="PLANT"><path class="cls-8" d="M348.47,514.14h91a0,0,0,0,1,0,0v10.48a45.48,45.48,0,0,1-45.48,45.48h0a45.48,45.48,0,0,1-45.48-45.48V514.14a0,0,0,0,1,0,0Z"/><path class="cls-3" d="M389.34,514.14S393,449.21,415,418.56"/><path class="cls-7" d="M397.2,462.3s3.67-28.25,31-29.9C428.22,432.4,432.08,462.87,397.2,462.3Z"/><path class="cls-7" d="M401.86,445s15.49-30.41-7.91-42.27C394,402.74,380.11,431.25,401.86,445Z"/><path class="cls-7" d="M342.2,468.64s-1.4-34.09-27.61-33C314.59,435.67,316.5,467.31,342.2,468.64Z"/><path class="cls-7" d="M391.77,491.12s10.75-34.5-13.31-46.11C378.46,445,366.19,479.32,391.77,491.12Z"/><path class="cls-7" d="M390.67,504.62s-3.55-31.87,24.42-36.56C415.09,468.06,421.3,500,390.67,504.62Z"/><path class="cls-7" d="M414.24,419.55s-3.55-31.86,24.42-36.55C438.66,383,444.87,414.89,414.24,419.55Z"/><line class="cls-3" x1="341.55" y1="468.06" x2="375.52" y2="514.14"/><path class="cls-7" d="M357.75,490s-15.87-20.47-7-42.68C350.78,447.35,370.32,462.32,357.75,490Z"/><path class="cls-7" d="M360.33,493.54s-18.78,12.68-36.57-10.72C323.76,482.82,345.15,473,360.33,493.54Z"/><path class="cls-7" d="M375.52,514s-14.92,14.08-34.25-4.21C341.27,509.8,358.93,497.84,375.52,514Z"/><path class="cls-7" d="M375.52,514.14s-13.87-15.83-4-32C371.54,482.16,387.41,498,375.52,514.14Z"/><path class="cls-7" d="M415,514.1s4-23.37,25.09-26.23C440.13,487.87,443.71,514.1,415,514.1Z"/></g><g id="KITCHEN_SET" data-name="KITCHEN SET"><rect class="cls-3" x="499.34" y="683.84" width="3.32" height="93.27"/><path class="cls-3" d="M513.06,821.9H488.94a6.14,6.14,0,0,1-5.93-7.13l1.74-33.42a6.06,6.06,0,0,1,5.93-5.27h20.63a6.07,6.07,0,0,1,5.94,5.27L519,814.77A6.14,6.14,0,0,1,513.06,821.9Z"/><line class="cls-3" x1="501" y1="785.5" x2="501" y2="813.9"/><line class="cls-3" x1="508.38" y1="787.87" x2="508.38" y2="811.54"/><line class="cls-3" x1="493.62" y1="787.87" x2="493.62" y2="811.54"/><path class="cls-3" d="M505.36,643.67l-1.47,38.6A2.87,2.87,0,0,1,501,685h0a2.86,2.86,0,0,1-2.86-2.75l-1.46-34.67a8.69,8.69,0,0,0-8.69-8.69h0A4,4,0,0,1,492,635h4.73A8.69,8.69,0,0,1,505.36,643.67Z"/><rect class="cls-3" x="393.9" y="683.84" width="3.32" height="97.38"/><path class="cls-3" d="M357.27,810c8.16,11.69,23.3,14.34,34.63,5.9h0c11.33-8.43,12.23-24.75,4.06-36.45Z"/><path class="cls-3" d="M399.8,643.67l-1.47,38.6a2.87,2.87,0,0,1-2.87,2.76h0a2.87,2.87,0,0,1-2.87-2.75l-1.46-34.67a8.69,8.69,0,0,0-8.68-8.69h0a3.94,3.94,0,0,1,3.94-3.94h4.72A8.69,8.69,0,0,1,399.8,643.67Z"/><rect class="cls-3" x="556.06" y="683.84" width="3.32" height="93.27"/><path class="cls-3" d="M569.9,788.87l-2,33.52h-.39l-3-31.19a7,7,0,0,0-2.19-4.48,6.62,6.62,0,0,0-4.53-1.8,6.84,6.84,0,0,0-6.72,6.22l-3.19,31.25h-.13l-2-33.52a12.26,12.26,0,0,1,12.05-12.45,11.84,11.84,0,0,1,8.53,3.64A12.69,12.69,0,0,1,569.9,788.87Z"/><path class="cls-3" d="M562.08,643.67l-1.47,38.6a2.87,2.87,0,0,1-2.87,2.76h0a2.86,2.86,0,0,1-2.86-2.75l-1.46-34.67a8.69,8.69,0,0,0-8.68-8.69h0a3.94,3.94,0,0,1,3.93-3.94h4.73A8.69,8.69,0,0,1,562.08,643.67Z"/><rect class="cls-3" x="445.28" y="683.84" width="3.32" height="73.57"/><path class="cls-3" d="M462.63,797.26c1,15.5-6.06,25.12-15.68,25.12-8.54,0-16.91-11.06-15.69-25.12,1.2-13.82,9.2-40.88,15.69-40.88S461.74,783.41,462.63,797.26Z"/><path class="cls-3" d="M456.74,798.49c.62,14.74-5.24,23.89-9.8,23.89-3.67,0-10.55-10.52-9.79-23.89.75-13.15,5.74-41.22,9.79-41.22S456.18,785.32,456.74,798.49Z"/><path class="cls-3" d="M450.61,643.67l-1.47,38.6a2.87,2.87,0,0,1-2.87,2.76h0a2.87,2.87,0,0,1-2.87-2.75l-1.46-34.67a8.68,8.68,0,0,0-8.68-8.69h0A4,4,0,0,1,437.2,635h4.73A8.69,8.69,0,0,1,450.61,643.67Z"/><line class="cls-3" x1="446.94" y1="757.27" x2="446.94" y2="822.38"/></g><g id="OVEN_MITT" data-name="OVEN MITT"><path class="cls-3" d="M677.2,673.72a8.94,8.94,0,0,0-4.69-2.79l-29.7-6.34-6.42-7-40.7,37.3,36.46,39.78c12.36,13.49,31.45,16.83,42.85,7.05,6-5.16,8.76-12.83,8.32-21a37.55,37.55,0,0,0-10.1-23l-5.86-6.39c-1.53-1.68-1.19-4.11.67-4.65l8.49-2.49a4.57,4.57,0,0,0,1.55-.94C680.37,681.21,680.15,676.93,677.2,673.72Z"/><path class="cls-8" d="M673.52,675.65a8.94,8.94,0,0,0-4.69-2.79l-29.7-6.34-6.42-7L592,696.82l36.46,39.78c12.36,13.49,31.45,16.83,42.86,7,6-5.16,8.75-12.83,8.31-21a37.53,37.53,0,0,0-10.1-23l-5.85-6.39c-1.54-1.68-1.2-4.11.66-4.65l8.49-2.5a4.4,4.4,0,0,0,1.55-.93C676.69,683.14,676.47,678.86,673.52,675.65Z"/><path class="cls-3" d="M624.7,643.36c.11,2.34,4.68,9.5,4.68,9.5s3.91-7.53,3.81-9.88a4.25,4.25,0,0,0-8.49.38Z"/><path class="cls-8" d="M628.47,654,586.13,692.8a1.81,1.81,0,0,0-.11,2.56l3,3.27a1.81,1.81,0,0,0,2.56.11L634,659.94a1.82,1.82,0,0,0,.11-2.57l-3-3.26A1.83,1.83,0,0,0,628.47,654Z"/></g></g></g><g id="PICTURE"><rect class="cls-5" x="689.93" y="334.09" width="146.36" height="146.36"/><rect class="cls-3" x="683.44" y="327.61" width="146.36" height="146.36"/><rect class="cls-3" x="706.75" y="350.92" width="99.74" height="99.74"/><path class="cls-3" d="M757.16,378.49s2.74-9.08-3.64-11.84"/><path class="cls-7" d="M770.67,392.75a25,25,0,0,0,3.77,9.56,21.42,21.42,0,1,1-35.82.27,26.48,26.48,0,0,0,4-9.83l.13-.75c.16-.89.25-1.79.33-2.7a12.33,12.33,0,0,1,12.27-11.2h2.63a12.32,12.32,0,0,1,12.27,11.2c.08.91.17,1.81.33,2.7Z"/><path class="cls-3" d="M758.33,378s-.67-8.32,11.29-12.08C769.62,365.93,771.28,380.89,758.33,378Z"/></g></g></g></svg>