<svg xmlns="http://www.w3.org/2000/svg" viewBox="0 0 700 700"><defs><style>.cls-1,.cls-2{fill:#f7f3ef;}.cls-2,.cls-4,.cls-6{stroke:#070707;}.cls-2,.cls-3,.cls-4,.cls-6{stroke-linecap:round;stroke-linejoin:round;stroke-width:4px;}.cls-3{fill:#efaf00;stroke:#000;}.cls-4{fill:none;}.cls-5{fill:#1c0e0c;}.cls-6{fill:#ea631f;}</style></defs><g id="Layer_2" data-name="Layer 2"><rect class="cls-1" x="-21.39" y="-1552.83" width="7197.02" height="2279.9"/></g><g id="Chars"><g id="GROCERY_BAG" data-name="GROCERY BAG"><g id="BAGUETTE"><path class="cls-2" d="M514.73,288.85h0c-11.23,42.39-45.46,160.57-77.6,158.06-39.14-3.05,9.33-180.3,9.33-180.3s39-155.9,78.22-154.56S514.73,288.85,514.73,288.85Z"/><ellipse class="cls-2" cx="454.56" cy="367.17" rx="4.65" ry="14.12" transform="translate(67.89 805.26) rotate(-87.5)"/><ellipse class="cls-2" cx="510.49" cy="171.79" rx="14.12" ry="4.65"/><ellipse class="cls-2" cx="500.51" cy="211.34" rx="18.82" ry="6.19"/><ellipse class="cls-2" cx="484.36" cy="252.02" rx="21.13" ry="6.95"/><ellipse class="cls-2" cx="465.55" cy="330.36" rx="6.19" ry="18.82" transform="translate(115.17 781.04) rotate(-87.5)"/><ellipse class="cls-2" cx="471.43" cy="298.21" rx="6.95" ry="21.13" transform="translate(152.91 756.17) rotate(-87.5)"/></g><g id="RED_PEPPER" data-name="RED PEPPER"><path class="cls-2" d="M304.72,251.31s7.84-10.4-4.12-21.23l4.1-1.49c10.93,7.18,11.86,17.88,11.86,17.88Z"/><path class="cls-3" d="M320.3,341.16h0a20.92,20.92,0,0,1-25.94-10.43l-23.74-42.87c-5.49-11.16,2.2-25.45,13.88-29.7l.33-.13a20.92,20.92,0,0,1,26.81,12.49l21.14,43.82A20.92,20.92,0,0,1,320.3,341.16Z"/><path class="cls-3" d="M361.39,326.17h0a20.92,20.92,0,0,0,13.14-24.67l-9-48.26c-3-12.07-18.52-17.89-30.2-13.63l-.33.12a20.92,20.92,0,0,0-12.49,26.81l12,47.15A20.91,20.91,0,0,0,361.39,326.17Z"/><path class="cls-3" d="M342.25,336.37h0a17.68,17.68,0,0,1-22.67-10.55l-20.33-55.76a17.69,17.69,0,0,1,10.55-22.68h0a17.69,17.69,0,0,1,22.68,10.56l20.33,55.76A17.67,17.67,0,0,1,342.25,336.37Z"/></g><g id="PARSLEY"><path class="cls-4" d="M247.61,291.2s-31.55-59.42-124.38-10.81"/><path class="cls-2" d="M164.71,264.19s-19.14,5-19.14,10,9.57,2.27,9.57,2.27-13.88,6.85-13.4,11.42,10.29,0,10.29,0-6.66,13.89-1.42,15.49,5.48-9.24,5.48-9.24,6.7,5.28,8.62,3.4-4.55-14.94-4.55-14.94,6.22,8.18,10.05,5.29S163,272.18,164.71,264.19Z"/><path class="cls-2" d="M131.56,276.24s-17.54-4.74-20.17,0,5.79,2.69,5.79,2.69-16,7.27-14.73,12.27,9.73,0,9.73,0-1.47,11.95,4.79,9.65S122,282.33,131.56,276.24Z"/><path class="cls-2" d="M228.07,229.27s14.09-6.66,13.54-11-5.2,1.52-5.2,1.52,7.24-13.09,3.91-15.4-6.53,5.28-6.53,5.28-4.84-8-7.92-3.22S231.51,220.41,228.07,229.27Z"/><path class="cls-4" d="M252.81,291.2s-15.44-57.95-83.09-54.44"/><path class="cls-2" d="M173.4,236s-7.62,19.77-15.23,15.87,3.22-7.42,3.22-7.42S139.14,250,140,242.1s16.67-4.81,16.67-4.81-8.41-4.72,0-6.77S173.4,236,173.4,236Z"/><path class="cls-2" d="M211.27,243.8s-2.35-19.33-10.38-19.33,1.63,12.14,1.63,12.14-9.66-8-11.42-2.48,9.79,8.24,9.79,8.24-7.45,9.38-1.88,8.91S211.27,243.8,211.27,243.8Z"/><path class="cls-2" d="M210.11,264.11s-18.57-5.88-21.9,1.43,11.73,3.55,11.73,3.55-11.32,5.46-7,9.36S204.5,273,204.5,273s5.44,10.66,7.33,5.41S210.11,264.11,210.11,264.11Z"/><path class="cls-2" d="M224,245.12s15.44-8.78,12.57-13.06-12.25,6.73-12.25,6.73-3.27-12.22-7.17-10.28S224,245.12,224,245.12Z"/><path class="cls-4" d="M236.93,290.48s-25.05-48.6-5.19-66.73"/></g><g id="ONION"><path class="cls-2" d="M360.25,157S381.6,194.56,374,346.31l15.06.48S394.07,204,360.25,157Z"/><path class="cls-2" d="M374,346.31S402.89,151.19,382.5,103c0,0,31.73,48.26,6.59,243.75Z"/><path class="cls-2" d="M374,346.31C382.71,276.24,444.8,185,444.8,185s-49.62,110.34-55.71,161.76Z"/><path class="cls-2" d="M367.54,401.88s4.61-26.74,6.49-55.57c0,0,8-6.58,15.06.48a351.92,351.92,0,0,0,.7,59.88Z"/><ellipse class="cls-2" cx="378.6" cy="405.09" rx="6.75" ry="11.51" transform="translate(-114.93 657.82) rotate(-74.05)"/><path class="cls-2" d="M387.42,407.52l0,.06c-.41,1.46-1.72,2.54-3.68,3a12.19,12.19,0,0,1-6.25-.24c-4.71-1.34-7.75-4.66-7-7.56l0-.06c.41-1.46,1.72-2.54,3.68-3a12.23,12.23,0,0,1,6.26.24C385.15,401.3,388.2,404.62,387.42,407.52Zm-15.67-4.37c-.57,2.14,2.2,4.87,6.07,6a10.82,10.82,0,0,0,5.58.23,3.48,3.48,0,0,0,2.75-2.13v0c.58-2.14-2.19-4.87-6.07-6a10.82,10.82,0,0,0-5.58-.23,3.48,3.48,0,0,0-2.75,2.13Z"/><path class="cls-2" d="M382.83,406.26v0c-.42,1.47-2.52,2.12-4.79,1.47s-3.69-2.29-3.3-3.75v0c.42-1.48,2.52-2.13,4.79-1.48h0C381.78,403.15,383.22,404.79,382.83,406.26ZM376,404.34c-.17.65.81,1.72,2.41,2.17s3,.07,3.18-.58h0c.17-.65-.82-1.71-2.41-2.17h0c-1.6-.45-3-.07-3.18.58Z"/></g><g id="PACK"><polygon class="cls-2" points="538.53 290.48 501.29 574.34 484.8 574.34 442.23 290.48 538.53 290.48"/><polygon class="cls-2" points="549.05 299.66 512.46 575.76 495.97 575.76 454.06 299.66 549.05 299.66"/><polygon class="cls-2" points="539.6 290.48 502.35 574.34 485.86 574.34 443.3 290.48 539.6 290.48"/><polygon class="cls-2" points="485.86 574.34 254.02 574.34 216.77 290.48 443.3 290.48 485.86 574.34"/></g></g><g id="YELLOW_PEPPER" data-name="YELLOW PEPPER"><path class="cls-5" d="M258,474.32s13.71-5.78,8.23-23.58l4.95.94A31.29,31.29,0,0,1,272.31,477Z"/><path class="cls-5" d="M220.28,572.59h0a24.14,24.14,0,0,1-19.59-25.65l1.72-56.55c1.14-14.31,17.19-23.95,31.29-21.29l.41.08a24.13,24.13,0,0,1,19.24,28.2l-4.87,56A24.14,24.14,0,0,1,220.28,572.59Z"/><path class="cls-5" d="M269.89,582h0a24.15,24.15,0,0,0,27.59-16.74L317.05,512c4.15-13.74-7.83-28.67-21.93-31.33l-.4-.08a24.16,24.16,0,0,0-28.21,19.25l-15.86,53.88A24.14,24.14,0,0,0,269.89,582Z"/><path class="cls-5" d="M244.89,580.79h0a20.42,20.42,0,0,1-16.28-23.85l12.71-67.33a20.41,20.41,0,0,1,23.85-16.27h0a20.42,20.42,0,0,1,16.28,23.85l-12.71,67.33A20.41,20.41,0,0,1,244.89,580.79Z"/></g><g id="YELLOW_PEPPER-2" data-name="YELLOW PEPPER"><path class="cls-2" d="M245.76,466.43s13.71-5.78,8.23-23.58l4.95.94a31.26,31.26,0,0,1,1.12,25.33Z"/><path class="cls-6" d="M208,564.7h0a24.14,24.14,0,0,1-19.59-25.65l1.72-56.55c1.14-14.31,17.19-23.95,31.29-21.29l.4.08a24.13,24.13,0,0,1,19.25,28.2l-4.87,56A24.15,24.15,0,0,1,208,564.7Z"/><path class="cls-6" d="M257.64,574.06h0a24.14,24.14,0,0,0,27.59-16.74l19.57-53.18c4.15-13.74-7.83-28.67-21.93-31.33l-.4-.08A24.14,24.14,0,0,0,254.26,492L238.4,545.86A24.13,24.13,0,0,0,257.64,574.06Z"/><path class="cls-6" d="M232.64,572.9h0a20.42,20.42,0,0,1-16.28-23.85l12.71-67.33a20.42,20.42,0,0,1,23.85-16.28h0A20.44,20.44,0,0,1,269.2,489.3l-12.71,67.33A20.41,20.41,0,0,1,232.64,572.9Z"/></g></g></svg>