<svg xmlns="http://www.w3.org/2000/svg" viewBox="0 0 1051.1 1340.81"><defs><style>.cls-1,.cls-2{fill:#f7f3ef;}.cls-2,.cls-6,.cls-7{stroke:#070707;}.cls-2,.cls-3,.cls-5,.cls-6,.cls-7{stroke-linecap:round;stroke-linejoin:round;stroke-width:4px;}.cls-3{fill:#efaf00;stroke:#000;}.cls-4{fill:#1c0e0c;}.cls-5,.cls-9{fill:#c48270;}.cls-5{stroke:#0f0f0f;}.cls-6{fill:#ea631f;}.cls-7{fill:none;}.cls-8{fill:#f1bb26;}</style></defs><g id="Layer_2" data-name="Layer 2"><rect class="cls-1" x="-21.39" y="-46.66" width="7197.02" height="2279.9"/></g><g id="Chars"><ellipse class="cls-2" cx="739.91" cy="608.89" rx="205.51" ry="26.89"/><g id="GIRL"><g id="CHAIR"><path class="cls-2" d="M344.78,844.19l-41.6,359.74a4.16,4.16,0,0,0,4.33,4.46h0a4.29,4.29,0,0,0,4.28-3.27L379.4,844.19Z"/><path class="cls-2" d="M504.25,844.19l41.6,352.8a4.17,4.17,0,0,1-4.33,4.46h0a4.29,4.29,0,0,1-4.28-3.27l-67.61-354Z"/><rect class="cls-2" x="311.11" y="822.11" width="223.53" height="22.08" rx="6.61"/></g><g id="LEGS"><g id="RIGHT_LEG" data-name="RIGHT LEG"><path id="SHOES" class="cls-3" d="M316.35,799.66A97.33,97.33,0,0,0,303,794.39c-13.52-3.72-18.33,3.29-18.33,3.29l13.7,80s15.07-.77,18.16-22.62c3.22-22.81,8.29-30.65,8.29-30.65Z"/><path id="LEG" class="cls-4" d="M554.82,726C549,795.07,530.71,822.67,509,822.67a3.79,3.79,0,0,1-.81-.09c-139.34-1.65-203.66,3.71-205-6.21-1.11-7.88,43.08-45.14,93.33-57,46.37-11,50.18,2.86,76.78-7.23-1.77-7.28-3.33-15-4.62-23.06,5.88.32,11.43.56,16.68.72C521.74,730.85,543.51,728.18,554.82,726Z"/></g><g id="LEFT_LEG" data-name="LEFT LEG"><path id="SHOES-2" data-name="SHOES" class="cls-3" d="M244.59,800a97.71,97.71,0,0,0-14.22-1.77c-14-.23-16.92,7.77-16.92,7.77l33.24,74s14.41-4.52,11.94-26.44c-2.58-22.89.36-31.75.36-31.75Z"/><path id="LEG-2" data-name="LEG" class="cls-5" d="M485.3,729.76c-2.73,66.32-12.45,92.91-46.76,92.91a4,4,0,0,1-.82-.09c-94.06-1.12-153.93,1-183.34-.61-14.15-.76-10.81-18.85-9.79-22,0,0,31.18-28.79,81.41-40.69,46.37-11,54.61,2.62,77.51-4.34a296.4,296.4,0,0,1-6.36-32.92C433.16,726.86,462.18,729.06,485.3,729.76Z"/></g></g><path id="DRESS" class="cls-2" d="M420.56,371.22c-10.35,7.86-27.77,21.31-34.94,43.52,18.44,3.23,44.73,14.09,55,20.86,0,0-4.61,13.63-9.1,21.69-52.76,94.56-52.76,262.19-52.76,262.19,142.55,21.1,186.07,4,186.07,4,2.12-86.64-11.27-247.37-21.39-329.77a128.82,128.82,0,0,0,26.41,4.58c-2.69-43.77,7.6-57.58,7.6-57.58-16.71-5.32-43.25-5.64-56.38-4.33-8.19.36-16.88,1.39-16.88,1.39C499.55,338.35,440.27,356.24,420.56,371.22Z"/><path id="APRON" class="cls-3" d="M518.88,334.62c50.66,62.11,46.26,312.18,46.26,312.18l-66.86.17a49.5,49.5,0,0,1-49.48-44.84c-6.49-70.69-42.54-76.07-42.54-76.07l5.54-15.27s62.14-13,58.76-74.34c-3-54-37.37-76-37.37-76s10-5.38,17.85-6.71,30.37,40.47,36.25,44.32c1.52,1,21.61-4.13,39.38-10.93,0,0-18.49-46.59-22-49.77S518.88,334.62,518.88,334.62Z"/><g id="HANDS"><g id="RIGHT_HAND" data-name="RIGHT HAND"><path id="HAND" class="cls-5" d="M736.6,295.15c5.18.88,9.66,10.71,10.3,11.92s3,7.69,3,7.69-5.26,3.13-7.93-1.75c-3.15-5.78-5.92-5.57-10.33-4.88-1.83.29-3.77,1.41-3,3.83s7.89,1.53,9.8,2.45c2.92,1.41,3.14,4.91,3.14,4.91s-11.1,1-13.23,1.18c-1.64.15-10.34-2.09-17.58-5.63-11.29,15.88-44.13,58.21-81.32,70.67-25.8,8.65-46.59,9.28-59.91,8.16-1.6-37.22,6.49-51,7.69-52.81,13.48.46,28.36.12,42.35-2.24,20-3.37,51-30.45,82.47-39C704.71,299.24,722.21,292.72,736.6,295.15Z"/><g id="CHERRY"><path class="cls-2" d="M732.71,334.52s14.73-6.43,8.6-20.28"/><circle class="cls-6" cx="730.58" cy="340.42" r="8.16"/></g><path id="SHADOW" class="cls-4" d="M580.71,341s-7.09,19.76,2.29,53.08a121,121,0,0,1-13.41-.38c-1.6-37.21,6.49-51,7.69-52.8Z"/></g><g id="LEFT_HAND" data-name="LEFT HAND"><path id="HAND-2" data-name="HAND" class="cls-5" d="M501.54,567.1s-7.07,4.54-13.32,5.62c-8.12,1.4-22.32-3.48-26.42-8.49-45.09-6.1-83.06-64.75-83.06-75.4,0-13,2.75-45.38,16.27-72,16.68,4.41,36.85,13.08,45.8,18.77-9.26,23.51-11.6,47.41-12.53,49.55-1.42,3.27,29.73,59,33.72,64.56,11.89-2.19,15,1,16.42,3.92s2,11.43,17.26,9.23C499.84,562.28,501.54,567.1,501.54,567.1Z"/><path id="SHADOW-2" data-name="SHADOW" class="cls-4" d="M440.6,435.6c-1.48,3.66-3,7.33-4.61,10.94-9.73-8.07-26.26-14.6-47.88-15.31,2.19-4.85,4.51-9.68,6.9-14.39C412.08,421.35,432,429.92,440.6,435.6Z"/><g id="CHERRY-2" data-name="CHERRY"><path class="cls-2" d="M500.18,554.71a1.1,1.1,0,0,1-.9.46h0a1,1,0,0,1-1-1,.92.92,0,0,1,.1-.44,76.72,76.72,0,0,0-2.61-11.6c-2,7.08-9.72,10.09-9.82,10.12a1,1,0,0,1-.37.07,1,1,0,0,1-.36-2c.42-.16,8.91-3.47,8.91-11.54a12.49,12.49,0,0,0-.27-2.57l0-.09a1,1,0,0,1-.06-.33,16.16,16.16,0,0,0-.55-1.82,1,1,0,0,1,1.95-.71,19.3,19.3,0,0,1,.7,2.4,111.32,111.32,0,0,1,3.37,11.47C500.81,553.8,500.45,554.32,500.18,554.71Z"/><ellipse class="cls-6" cx="498.8" cy="557.73" rx="5.77" ry="5.89"/><ellipse class="cls-6" cx="483.54" cy="554.87" rx="7.16" ry="7.31"/></g><line class="cls-7" x1="439.77" y1="434.96" x2="451.93" y2="413.21"/></g></g><g id="HEAD"><g id="NECK"><path class="cls-5" d="M457,318s7.56,21.29-8,38.09c0,0,33.31,4.6,57.75-15.3,0,0-9.7-13.44-7.64-37.46Z"/><path class="cls-4" d="M506.84,340.78c-2,1.53-4.11,3.13-4.95,3.63-16.37,9.6-37.62-6.06-43-15.33A40.59,40.59,0,0,0,457,318l42.12-14.67C497.32,324.77,505,338.28,506.84,340.78Z"/></g><path id="HAIR" class="cls-4" d="M444.72,311C423.2,296,417.28,278.57,420,263.92a16.49,16.49,0,0,1-2.55.1c-2.47-.1-7.54,1.2-9.16-.6s-1.93-4.78-.24-6.51a95.79,95.79,0,0,1-13.34,0c-5.11-.35-9.6-3.22-10.83-8-.91-3.5,1.56-7.18,4.85-8.95a21.33,21.33,0,0,1,8.59-2.07,13.61,13.61,0,0,0-13.15-.18,1,1,0,0,1-1-1.83,15.1,15.1,0,0,1,9.12-1.76,12,12,0,0,1-3-7.15,20.12,20.12,0,0,1,5.74-15.2c3.68-3.55,9.43-5.4,14.65-5.54a13.16,13.16,0,0,1,10.69,4.9c-.69-4,1.36-10.12,4.05-12,6-4.22,14.36-.5,15.78,3.44.46,1.3.59,2.83,1.37,3.91,1.38-1.93,3.1-4,5.19-4.82,7.79-3.17,14.21,1.55,14.93,5.51.61,3.34-1.25,6.72-4.08,8.83a5.56,5.56,0,0,1,5.61,1.77c1.69,2.11,1.79,5,1.27,7.65a17.32,17.32,0,0,1-1.41,4.24c1.85-.56,4.92-2.19,5.44-7a1,1,0,1,1,2.06.23,9.58,9.58,0,0,1-6.09,8.4c18.07,0,31.17,9,37.35,29.43C509.72,287,444.72,311,444.72,311Z"/><path id="SCRUNCHY" class="cls-8" d="M419.36,264.14a1.41,1.41,0,0,1-.45-.07,1.45,1.45,0,0,1-.94-1.82,56,56,0,0,1,8.84-15.83c8.32-10.54,19.38-16.5,32-17.25a1.45,1.45,0,0,1,.17,2.9c-11.89.71-21.91,6.11-29.81,16.07a53.74,53.74,0,0,0-8.41,15A1.46,1.46,0,0,1,419.36,264.14Z"/><path id="HEAD-2" data-name="HEAD" class="cls-5" d="M461.12,271.69c0,15.85-5.71,25.14-16.67,25.49,0,0-11-3-12.15,3.92-1,6,8.73,9,11.67,9.72,4.9,4.32,34.2,28.78,57.36,15.74,25.83-14.53,7.12-89.1-28.17-77C471.14,250.26,461.16,253.36,461.12,271.69Z"/></g><path class="cls-7" d="M439.77,436s-9.64,35.29-12.3,46.56"/></g><circle class="cls-9" cx="441.45" cy="301.61" r="12.31"/><path class="cls-7" d="M436.68,295.74s5.79-2.64,10.86,4.21"/><line class="cls-7" x1="442.11" y1="296.73" x2="437.84" y2="301.61"/><ellipse class="cls-4" cx="479.62" cy="283.86" rx="3.71" ry="4.4" transform="translate(-57.65 135.7) rotate(-15.2)"/><ellipse class="cls-4" cx="503.31" cy="276.69" rx="2.85" ry="4.4" transform="translate(-54.94 141.66) rotate(-15.2)"/><path class="cls-7" d="M494.38,281s9.55,2.83,8.93,5.82a13.33,13.33,0,0,1-3.28,5.66"/><path class="cls-7" d="M477.92,299.17s7.05,8.05,21.24,4.17"/><g id="CAKE"><g id="CAKE-2" data-name="CAKE"><path class="cls-2" d="M650.32,414.86H836.45a20,20,0,0,1,20,20v64.6a0,0,0,0,1,0,0H630.32a0,0,0,0,1,0,0v-64.6A20,20,0,0,1,650.32,414.86Z"/><path class="cls-2" d="M818,380.71v34.15H672.38V380.71a16,16,0,0,1,16-15.95H802a15.94,15.94,0,0,1,15.89,14.58C818,379.79,818,380.25,818,380.71Z"/><path class="cls-3" d="M846.59,417.22V439a13.72,13.72,0,0,1-27.44,0v-2.57a14,14,0,0,0-27.93,0v30.67a16.06,16.06,0,1,1-32.11,0V447.45a10.1,10.1,0,0,0-10.1-10.1h-.3a9.79,9.79,0,0,0-9.79,9.79v10.63a12.44,12.44,0,0,1-24.88,0V432.18c0-5.56-4.5-9.3-10.06-9.3h-.31c-5.39,0-9.76,3.6-9.76,9v19.49a10.19,10.19,0,0,1-10.19,10.19h-.3a9.89,9.89,0,0,1-9.89-9.89v-4.13a14.5,14.5,0,1,0-29,0V459a13.06,13.06,0,0,1-13.07,13.06V433.43A17.41,17.41,0,0,1,648.88,416H840.21A17.36,17.36,0,0,1,846.59,417.22Z"/><path class="cls-2" d="M694.76,485.25s15.5-2.56,13-17.15"/><circle class="cls-6" cx="691.33" cy="490.32" r="7.97" transform="translate(173.19 1161.05) rotate(-87.66)"/><path class="cls-2" d="M714.12,487s-7.12-4.11-6.9-11.11"/><circle class="cls-6" cx="715.29" cy="491.94" r="6.57" transform="translate(-151.95 531.14) rotate(-37.11)"/><path class="cls-2" d="M855.34,471.74a3.35,3.35,0,0,1-3.35-3.35v-3.93a3.36,3.36,0,1,1,6.71,0v3.93A3.35,3.35,0,0,1,855.34,471.74Z"/><path class="cls-2" d="M810.78,444.69a4,4,0,0,1-3.95-3.95v-3.93a3.95,3.95,0,1,1,7.89,0v3.93A3.94,3.94,0,0,1,810.78,444.69Z"/><path class="cls-2" d="M640.05,487.35a4,4,0,0,1-3.95-4v-3.93a3.95,3.95,0,0,1,7.9,0v3.93A4,4,0,0,1,640.05,487.35Z"/><path class="cls-3" d="M672.38,379.34a7.83,7.83,0,0,0,2.66,4.87,10,10,0,0,0,6.57,2.39c5.13,0,9.29-3.66,9.29-8.17V376.9a7.81,7.81,0,0,1,2.77-5.87,10.05,10.05,0,0,1,6.68-2.44c5.22,0,9.45,3.72,9.45,8.31v18.26a9,9,0,0,0,3.18,6.76,11.7,11.7,0,0,0,7.69,2.8c6,0,10.87-4.28,10.87-9.56V383.47c0-3.33,3.06-6,6.83-6h.21c3.65,0,6.62,2.61,6.62,5.83v6.32a7,7,0,0,0,2.47,5.24,9,9,0,0,0,6,2.16c4.65,0,8.42-3.31,8.42-7.4V374.38c0-3.31,3.05-5.53,6.81-5.53h.21c3.65,0,6.6,2.14,6.6,5.35v11.6c0,3.35,3.09,6.07,6.9,6.07h.21c3.7,0,6.69-2.64,6.69-5.89v-2.46a8.13,8.13,0,0,1,2.87-6.1,10.52,10.52,0,0,1,6.94-2.53c5.42,0,9.81,3.87,9.81,8.63v6.85a7.35,7.35,0,0,0,2.59,5.5,9.51,9.51,0,0,0,6.26,2.27V380.71A16,16,0,0,0,802,364.76H688.27A15.94,15.94,0,0,0,672.38,379.34Z"/><path class="cls-2" d="M785,402.44s13.51-2.24,11.34-15"/><circle class="cls-6" cx="781.96" cy="406.86" r="6.95"/><path class="cls-2" d="M801.83,404s-6.21-3.58-6-9.69"/><path class="cls-6" d="M797.16,407.63a5.73,5.73,0,1,0,6.34-5.05A5.73,5.73,0,0,0,797.16,407.63Z"/></g><g id="STAND"><path class="cls-2" d="M706.22,586H769.3a11.78,11.78,0,0,1,11.78,11.78v2.6a0,0,0,0,1,0,0H694.44a0,0,0,0,1,0,0v-2.6A11.78,11.78,0,0,1,706.22,586Z"/><path class="cls-2" d="M704.69,586h0a12.57,12.57,0,0,0,12.56-12.56V532.16a12.56,12.56,0,0,0-12.56-12.56h66.14a12.56,12.56,0,0,0-12.56,12.56v41.28A12.57,12.57,0,0,0,770.83,586H704.69Z"/><path class="cls-2" d="M758.27,529.79c-.11-4.42,5.63-10.19,12.56-10.19H704.69a12.56,12.56,0,0,1,12.56,12.56v9.69Z"/><path class="cls-2" d="M704.69,586h0a12.57,12.57,0,0,0,12.56-12.56V532.16a12.56,12.56,0,0,0-12.56-12.56h66.14a12.56,12.56,0,0,0-12.56,12.56v41.28A12.57,12.57,0,0,0,770.83,586H704.69Z"/><path class="cls-2" d="M855.46,519.6H620.06a21.92,21.92,0,0,1-20.61-14.86l-1.85-5.27H877.92l-1.85,5.27A21.93,21.93,0,0,1,855.46,519.6Z"/></g></g></g></svg>