<svg xmlns="http://www.w3.org/2000/svg" viewBox="0 0 700 700"><defs><style>.cls-1,.cls-3,.cls-6{fill:#f7f3ef;}.cls-2{fill:#1c0e0c;}.cls-3,.cls-4,.cls-5,.cls-6{stroke:#070707;}.cls-3,.cls-4,.cls-5,.cls-6,.cls-7{stroke-linecap:round;stroke-linejoin:round;stroke-width:4px;}.cls-4{fill:none;}.cls-5{fill:#ea631f;}.cls-6{opacity:0.5;}.cls-7{fill:#efaf00;stroke:#000;}</style></defs><g id="Layer_2" data-name="Layer 2"><rect class="cls-1" x="-1477.17" y="-1552.83" width="7197.02" height="2279.9"/></g><g id="Chars"><ellipse class="cls-2" cx="316.09" cy="498.37" rx="281.41" ry="30.59"/><g id="ROLLING_PIN" data-name="ROLLING PIN"><rect class="cls-3" x="333.76" y="537.96" width="43.46" height="17.15" rx="7.62" transform="translate(710.98 1093.06) rotate(-180)"/><path class="cls-3" d="M357.11,511.5H591.88a31.39,31.39,0,0,1,31.39,31.39v7.88a31.39,31.39,0,0,1-31.39,31.39H357.11a0,0,0,0,1,0,0V511.5A0,0,0,0,1,357.11,511.5Z" transform="translate(980.39 1093.65) rotate(-180)"/><ellipse class="cls-3" cx="623.27" cy="546.71" rx="27.8" ry="35.22"/><rect class="cls-3" x="621.86" y="537.96" width="43.46" height="17.15" rx="7.62" transform="translate(1287.17 1093.06) rotate(-180)"/></g><g id="BERRIES"><path class="cls-3" d="M320.19,456.76a1.13,1.13,0,0,1-.17,2.1c-37.54,10.73-83.46,17.05-133,17.05-49.78,0-95.87-6.37-133.49-17.18a1.13,1.13,0,0,1-.3-2c12.13-8.13,86.69-10.58,133.79-10.58C233.13,446.13,306.5,450.52,320.19,456.76Z"/><path class="cls-4" d="M216.16,449.19s19.63-3.11,14.62-22.08"/><circle class="cls-5" cx="212.21" cy="456.3" r="10.56" transform="translate(-267.65 304.74) rotate(-47.53)"/><path class="cls-3" d="M241.92,449.25s-9.89-4.59-10.42-13.86"/><circle class="cls-5" cx="244.05" cy="455.61" r="8.71" transform="translate(-219.21 226.42) rotate(-35.5)"/><path class="cls-3" d="M131.72,479.46s19.63-3.12,14.63-22.09"/><circle class="cls-3" cx="127.78" cy="486.56" r="10.56" transform="translate(-181 89.42) rotate(-23.15)"/><path class="cls-3" d="M157.48,479.52s-9.88-4.6-10.41-13.87"/><circle class="cls-3" cx="159.61" cy="485.87" r="8.71" transform="translate(-141.63 72.59) rotate(-17.9)"/><path class="cls-3" d="M196.7,476.37s19.35,5.74,27.63-12"/><circle class="cls-5" cx="189.65" cy="476.17" r="10.56" transform="translate(-277.55 265.39) rotate(-44)"/><path class="cls-3" d="M227.1,491.45s19.34,5.74,27.63-12"/><circle class="cls-3" cx="220.05" cy="491.25" r="10.56" transform="translate(-283.19 682.31) rotate(-86.66)"/><circle class="cls-3" cx="270.36" cy="484.73" r="10.56" transform="translate(-273.22 596.88) rotate(-72.51)"/><path class="cls-3" d="M233.69,466.37s-8.75-6.5-7.39-15.69"/><circle class="cls-5" cx="234.49" cy="473.02" r="8.71" transform="translate(-52.21 29.7) rotate(-6.52)"/><path class="cls-3" d="M284.61,465s-10.78-1.6-13.93-10.33"/><circle class="cls-5" cx="288.46" cy="470.5" r="8.71"/><path class="cls-3" d="M112.84,459.87s-9.74-6.63-8.69-16.6"/><circle class="cls-5" cx="114" cy="467.01" r="9.42" transform="translate(-219.42 120.71) rotate(-30.2)"/><circle class="cls-5" cx="256.66" cy="469.01" r="6.62" transform="translate(-246.49 649.82) rotate(-81.08)"/><circle class="cls-5" cx="134.4" cy="464.3" r="6.62" transform="translate(-172.22 90.64) rotate(-23.23)"/><circle class="cls-5" cx="83.51" cy="468.04" r="9.09" transform="translate(-349.08 270.8) rotate(-55.37)"/><path class="cls-3" d="M192.56,493.86a6.62,6.62,0,1,0,7.94-5A6.63,6.63,0,0,0,192.56,493.86Z"/><circle class="cls-5" cx="165.04" cy="463.22" r="8.71" transform="translate(-326.36 481.77) rotate(-72.55)"/><circle class="cls-3" cx="100.62" cy="482.64" r="8.71" transform="translate(-54.17 14.55) rotate(-6.52)"/><circle class="cls-3" cx="178.04" cy="498.37" r="8.71" transform="translate(-350.78 518.78) rotate(-72.55)"/><path class="cls-6" d="M320.84,458.69C320.07,488.48,261.3,511.5,187,511.5S53.89,488,53.12,458.16c38,11.16,83.22,17.23,133.86,17.23S282.87,469.84,320.84,458.69Z"/><path class="cls-3" d="M320.84,458.69C320.07,488.48,261.3,511.5,187,511.5S53.89,488,53.12,458.16c38,11.16,83.22,17.23,133.86,17.23S282.87,469.84,320.84,458.69Z"/></g><g id="CAKE"><g id="CAKE-2" data-name="CAKE"><path class="cls-3" d="M286.85,239.64H533.57a26.52,26.52,0,0,1,26.52,26.52v85.63a0,0,0,0,1,0,0H260.33a0,0,0,0,1,0,0V266.16A26.52,26.52,0,0,1,286.85,239.64Z"/><path class="cls-3" d="M509.1,194.37v45.27h-193V194.37a21.13,21.13,0,0,1,21.14-21.14H488A21.13,21.13,0,0,1,509,192.56C509.07,193.16,509.1,193.76,509.1,194.37Z"/><path class="cls-7" d="M547,242.77v28.85a18.19,18.19,0,1,1-36.38,0v-3.4a18.51,18.51,0,1,0-37,0v40.65a21.29,21.29,0,0,1-42.57,0v-26a13.38,13.38,0,0,0-13.38-13.38h-.41a13,13,0,0,0-13,13v14.09a16.48,16.48,0,1,1-33,0V262.59c0-7.36-6-12.32-13.35-12.32h-.4c-7.15,0-12.94,4.78-12.94,11.93V288a13.5,13.5,0,0,1-13.51,13.5h-.4a13.1,13.1,0,0,1-13.1-13.11V283a19.22,19.22,0,0,0-38.44,0v15.26a17.31,17.31,0,0,1-17.32,17.31V264.25a23.09,23.09,0,0,1,23.08-23.08H538.55A23.06,23.06,0,0,1,547,242.77Z"/><path class="cls-3" d="M345.76,332.94s20.54-3.39,17.24-22.73"/><circle class="cls-5" cx="341.2" cy="339.67" r="10.56" transform="translate(-15.87 662.62) rotate(-87)"/><path class="cls-3" d="M371.41,335.29s-9.43-5.45-9.14-14.73"/><circle class="cls-5" cx="372.97" cy="341.81" r="8.71" transform="translate(-128.45 274.57) rotate(-34.87)"/><path class="cls-3" d="M558.61,315a4.44,4.44,0,0,1-4.44-4.45v-5.21a4.45,4.45,0,1,1,8.89,0v5.21A4.45,4.45,0,0,1,558.61,315Z"/><path class="cls-3" d="M499.54,279.18a5.24,5.24,0,0,1-5.23-5.24v-5.21a5.23,5.23,0,1,1,10.46,0v5.21A5.24,5.24,0,0,1,499.54,279.18Z"/><path class="cls-3" d="M273.23,335.72a5.23,5.23,0,0,1-5.23-5.23v-5.21a5.24,5.24,0,1,1,10.47,0v5.21A5.24,5.24,0,0,1,273.23,335.72Z"/><path class="cls-7" d="M316.09,192.56a10.3,10.3,0,0,0,3.53,6.45,13.15,13.15,0,0,0,8.7,3.17c6.8,0,12.31-4.85,12.31-10.83v-2a10.39,10.39,0,0,1,3.67-7.79,13.38,13.38,0,0,1,8.86-3.23c6.92,0,12.53,4.93,12.53,11v24.19a11.94,11.94,0,0,0,4.22,9,15.48,15.48,0,0,0,10.18,3.71c8,0,14.41-5.68,14.41-12.67V198c0-4.4,4.06-8,9.06-8h.27c4.85,0,8.79,3.46,8.79,7.73v8.38a9.24,9.24,0,0,0,3.27,6.94,11.91,11.91,0,0,0,7.89,2.87c6.16,0,11.16-4.39,11.16-9.81V186c0-4.39,4-7.33,9-7.33h.27c4.84,0,8.76,2.84,8.76,7.09v15.38c0,4.45,4.09,8,9.14,8h.27c4.9,0,8.87-3.49,8.87-7.8V198.1a10.78,10.78,0,0,1,3.81-8.09,13.92,13.92,0,0,1,9.2-3.35c7.19,0,13,5.12,13,11.44v9.08a9.68,9.68,0,0,0,3.43,7.28,12.51,12.51,0,0,0,8.29,3V194.37a21.13,21.13,0,0,0-21.14-21.14H337.15A21.13,21.13,0,0,0,316.09,192.56Z"/><path class="cls-3" d="M465.31,223.17s17.91-3,15-19.82"/><circle class="cls-5" cx="461.34" cy="229.04" r="9.21" transform="translate(-51.56 181.81) rotate(-21.14)"/><path class="cls-3" d="M487.68,225.22s-8.23-4.75-8-12.85"/><path class="cls-5" d="M481.49,230.05a7.6,7.6,0,1,0,8.4-6.69A7.6,7.6,0,0,0,481.49,230.05Z"/></g><g id="STAND"><path class="cls-3" d="M360.94,466.49h83.62a15.62,15.62,0,0,1,15.62,15.62v3.45a0,0,0,0,1,0,0H345.33a0,0,0,0,1,0,0V482.1A15.62,15.62,0,0,1,360.94,466.49Z"/><path class="cls-3" d="M358.91,466.49h0a16.65,16.65,0,0,0,16.65-16.65V395.13a16.64,16.64,0,0,0-16.65-16.65h87.68a16.65,16.65,0,0,0-16.65,16.65v54.71a16.66,16.66,0,0,0,16.65,16.65H358.91Z"/><path class="cls-3" d="M429.94,392c-.15-5.87,7.46-13.51,16.65-13.51H358.91a16.64,16.64,0,0,1,16.65,16.65V408Z"/><path class="cls-3" d="M358.91,466.49h0a16.65,16.65,0,0,0,16.65-16.65V395.13a16.64,16.64,0,0,0-16.65-16.65h87.68a16.65,16.65,0,0,0-16.65,16.65v54.71a16.66,16.66,0,0,0,16.65,16.65H358.91Z"/><path class="cls-3" d="M558.77,378.48h-312a29.07,29.07,0,0,1-27.32-19.7l-2.44-7H588.54l-2.45,7A29.07,29.07,0,0,1,558.77,378.48Z"/></g></g><g id="CHERRY"><path class="cls-4" d="M418.08,150.42s19.52-8.52,11.39-26.88"/><circle class="cls-5" cx="415.25" cy="158.24" r="10.81"/></g></g></svg>