<svg xmlns="http://www.w3.org/2000/svg" viewBox="0 0 1316.07 1704.64"><defs><style>.cls-1,.cls-2{fill:#f7f3ef;}.cls-2,.cls-3{stroke:#070707;}.cls-2,.cls-3,.cls-4{stroke-linecap:round;stroke-linejoin:round;stroke-width:4px;}.cls-3{fill:none;}.cls-4{fill:#efaf00;stroke:#000;}.cls-5{fill:#1c0e0c;}</style></defs><g id="Layer_2" data-name="Layer 2"><rect class="cls-1" x="-4474.24" y="-46.66" width="7197.02" height="2279.9"/></g><g id="Chars"><g id="KITCHEN_STOVE" data-name="KITCHEN STOVE"><line id="FLOOR" class="cls-2" x1="1193.01" y1="1590.76" x2="116.56" y2="1590.76"/><g id="TILE"><polyline class="cls-3" points="310.76 466.75 310.76 593.76 200.79 593.76"/><polyline class="cls-3" points="420.74 466.75 420.74 593.76 310.76 593.76 310.76 466.75"/><polyline class="cls-3" points="200.79 720.77 310.76 720.77 310.76 593.76 200.79 593.76"/><rect class="cls-3" x="310.76" y="593.76" width="109.97" height="127.01"/><polyline class="cls-3" points="530.71 466.75 530.71 593.76 420.74 593.76 420.74 466.75"/><polyline class="cls-3" points="640.68 466.75 640.68 593.76 530.71 593.76 530.71 466.75"/><rect class="cls-3" x="420.74" y="593.76" width="109.97" height="127.01"/><rect class="cls-3" x="530.71" y="593.76" width="109.97" height="127.01"/><polyline class="cls-3" points="200.79 720.77 310.76 720.77 310.76 847.78 200.79 847.78"/><rect class="cls-3" x="310.76" y="720.77" width="109.97" height="127.01"/><polyline class="cls-3" points="200.79 847.78 310.76 847.78 310.76 974.79 200.79 974.79"/><rect class="cls-3" x="310.76" y="847.78" width="109.97" height="127.01"/><rect class="cls-3" x="420.74" y="720.77" width="109.97" height="127.01"/><rect class="cls-3" x="530.71" y="720.77" width="109.97" height="127.01"/><rect class="cls-3" x="420.74" y="847.78" width="109.97" height="127.01"/><rect class="cls-3" x="530.71" y="847.78" width="109.97" height="127.01"/><polyline class="cls-3" points="750.66 466.75 750.66 593.76 640.68 593.76 640.68 466.75"/><polyline class="cls-3" points="750.66 466.75 750.66 593.76 860.63 593.76 860.63 466.75"/><rect class="cls-3" x="640.68" y="593.76" width="109.97" height="127.01"/><rect class="cls-3" x="750.66" y="593.76" width="109.97" height="127.01"/><polyline class="cls-3" points="970.61 466.75 970.61 593.76 860.63 593.76 860.63 466.75"/><polyline class="cls-3" points="1080.58 593.76 970.61 593.76 970.61 720.77 1080.58 720.77"/><polyline class="cls-3" points="1080.58 593.76 970.61 593.76 970.61 466.75"/><rect class="cls-3" x="860.63" y="593.76" width="109.97" height="127.01"/><rect class="cls-3" x="640.68" y="720.77" width="109.97" height="127.01"/><rect class="cls-3" x="750.66" y="720.77" width="109.97" height="127.01"/><rect class="cls-3" x="640.68" y="847.78" width="109.97" height="127.01"/><rect class="cls-3" x="750.66" y="847.78" width="109.97" height="127.01"/><rect class="cls-3" x="860.63" y="720.77" width="109.97" height="127.01"/><polyline class="cls-3" points="1080.58 847.78 970.61 847.78 970.61 974.79 1080.58 974.79"/><polyline class="cls-3" points="1080.58 847.78 970.61 847.78 970.61 720.77 1080.58 720.77"/><rect class="cls-3" x="860.63" y="847.78" width="109.97" height="127.01"/></g><g id="POT"><path class="cls-2" d="M516.8,775.09H721.48a0,0,0,0,1,0,0V926.43a28.66,28.66,0,0,1-28.66,28.66H545.47a28.66,28.66,0,0,1-28.66-28.66V775.09A0,0,0,0,1,516.8,775.09Z"/><path class="cls-2" d="M721.48,790.06h23.87l25.69-16a4,4,0,0,0,1.28-4.57h0a4.72,4.72,0,0,0-7.26-1.72l-23,13.84H721.48Z"/><path class="cls-2" d="M516.79,790.06H492.91l-25.68-16a4,4,0,0,1-1.28-4.57h0a4.72,4.72,0,0,1,7.26-1.72l23,13.84h20.55Z"/><path class="cls-2" d="M721.48,774.82H516.8c9.92-14,52-24.55,102.34-24.55S711.56,760.81,721.48,774.82Z"/><path class="cls-2" d="M636,732H604.58c-3,0-5.13,2.82-4,5.42l5.56,12.93H634.4L640,737.4C641.08,734.8,639,732,636,732Z"/></g><g id="FRYING_PAN" data-name="FRYING PAN"><path class="cls-2" d="M404.63,955.09h-116c-18.95,0-35.91-12.56-42.54-31.52l-7.69-22H454.86l-7.69,22C440.54,942.53,423.58,955.09,404.63,955.09Z"/><rect class="cls-2" x="231.5" y="892.75" width="230.27" height="8.84" rx="4.3"/><polygon class="cls-2" points="531.36 909.11 452.39 909.11 455.06 901.6 531.36 901.6 531.36 909.11"/><rect class="cls-2" x="530.03" y="896.51" width="88.36" height="15.93" rx="7.21"/><path class="cls-2" d="M830.68,485.75C641.55,490.52,569,586.55,611.3,682.42,686.21,852,389.21,817.5,356.82,851.7,330,880.05,389.76,893,389.76,893H334.63S242.36,858,281.57,793.84s151.57-53.38,151.57-119.1S227.8,585.78,284.74,486Z"/></g><g id="STOVE_HOOD" data-name="STOVE HOOD"><rect class="cls-2" x="171.87" y="421.84" width="940.97" height="63.22" rx="10.35"/><polygon class="cls-2" points="998.41 421.22 286.3 421.22 525.57 223.48 759.15 223.48 998.41 421.22"/><rect class="cls-2" x="526.41" y="87.52" width="231.9" height="135.96"/></g><g id="NOTES"><path class="cls-2" d="M942.3,554.63H860a18.4,18.4,0,0,1-18.4-18.39V449.81H923.9v86.43A18.4,18.4,0,0,0,942.3,554.63Z"/><line class="cls-2" x1="927.67" y1="463.26" x2="912.81" y2="446.23"/><line class="cls-2" x1="838.63" y1="463.26" x2="853.49" y2="446.23"/><line class="cls-2" x1="866.59" y1="477.11" x2="901.52" y2="477.11"/><line class="cls-2" x1="866.59" y1="494.78" x2="901.52" y2="494.78"/><line class="cls-2" x1="866.59" y1="512.45" x2="901.52" y2="512.45"/><line class="cls-2" x1="866.59" y1="530.12" x2="901.52" y2="530.12"/><rect class="cls-4" x="953.22" y="461.88" width="59.94" height="61.49"/><rect class="cls-2" x="977.72" y="455.54" width="10.67" height="11.59"/></g><g id="COOKER"><rect class="cls-2" x="168.86" y="974.79" width="943.9" height="549.34"/><rect class="cls-2" x="168.86" y="1018" width="943.9" height="107.74"/><rect class="cls-2" x="795.73" y="1125.74" width="317.12" height="398.38"/><rect class="cls-2" x="828.43" y="1146.33" width="252.39" height="321.32"/><rect class="cls-2" x="202.42" y="1146.33" width="554.46" height="321.32"/><polygon class="cls-2" points="1112.75 1590.76 1081.56 1590.76 1080.82 1524.13 1112.75 1524.13 1112.75 1590.76"/><polygon class="cls-2" points="168.86 1590.76 200.05 1590.76 200.79 1524.13 168.86 1524.13 168.86 1590.76"/><rect class="cls-2" x="763.37" y="1524.13" width="31.93" height="66.64"/><polygon class="cls-5" points="1070 1154.88 1070 1239.28 838.89 1418.13 838.89 1154.88 1070 1154.88"/><polygon class="cls-5" points="1070 1288.4 1070 1332.54 916.87 1457.08 847.61 1457.08 1070 1288.4"/><rect class="cls-2" x="858.22" y="1165.38" width="192.8" height="19.93" rx="7.68"/><circle class="cls-2" cx="918.33" cy="1071.33" r="18.51" transform="translate(-285.99 1806.65) rotate(-80.8)"/><circle class="cls-2" cx="976.96" cy="1071.33" r="18.51" transform="translate(-289.63 1776.99) rotate(-76.76)"/><line class="cls-2" x1="918.33" y1="1071.33" x2="918.33" y2="1052.83"/><line class="cls-2" x1="976.96" y1="1071.33" x2="976.96" y2="1052.83"/><circle class="cls-2" cx="289.85" cy="1071.33" r="18.51" transform="translate(-672.65 518.74) rotate(-45)"/><circle class="cls-2" cx="348.49" cy="1071.33" r="18.51" transform="translate(-655.48 560.21) rotate(-45)"/><circle class="cls-2" cx="447.89" cy="1071.33" r="18.51" transform="translate(-697.54 1261.98) rotate(-76.76)"/><circle class="cls-2" cx="506.53" cy="1071.33" r="18.51" transform="translate(-609.19 671.95) rotate(-45)"/><circle class="cls-2" cx="605.93" cy="1071.33" r="18.51" transform="translate(-575.7 1415.81) rotate(-76.76)"/><circle class="cls-2" cx="664.56" cy="1071.33" r="18.51" transform="translate(-530.49 1472.89) rotate(-76.76)"/><line class="cls-2" x1="605.93" y1="1071.33" x2="619.94" y2="1083.41"/><line class="cls-2" x1="664.56" y1="1071.33" x2="664.56" y2="1052.83"/><line class="cls-2" x1="289.85" y1="1071.33" x2="306.19" y2="1062.64"/><line class="cls-2" x1="348.49" y1="1071.33" x2="348.49" y2="1052.83"/><line class="cls-2" x1="447.89" y1="1071.33" x2="447.89" y2="1052.83"/><line class="cls-2" x1="506.53" y1="1071.33" x2="506.53" y2="1052.83"/><polygon class="cls-5" points="611.82 1154.88 212.23 1445.57 212.23 1154.88 611.82 1154.88"/><polygon class="cls-5" points="665.43 1154.88 738.62 1154.88 310.45 1454.95 237.26 1454.95 665.43 1154.88"/><rect class="cls-2" x="226.69" y="1165.38" width="500.06" height="19.93" rx="6.83"/><polyline class="cls-2" points="553.98 974.79 574.21 958.68 670.61 958.68 690.84 974.79"/><line class="cls-2" x1="622.41" y1="958.68" x2="622.41" y2="974.79"/><polyline class="cls-2" points="883.74 974.79 903.97 958.68 1000.36 958.68 1020.59 974.79"/><line class="cls-2" x1="952.16" y1="958.68" x2="952.16" y2="974.79"/><polyline class="cls-2" points="276.82 974.79 297.05 958.68 393.45 958.68 413.68 974.79"/><line class="cls-2" x1="345.25" y1="958.68" x2="345.25" y2="974.79"/></g></g></g></svg>