<svg xmlns="http://www.w3.org/2000/svg" viewBox="0 0 700 700"><defs><style>.cls-1,.cls-3{fill:#f7f3ef;}.cls-2{fill:#e57b07;}.cls-2,.cls-3{stroke:#070707;}.cls-2,.cls-3,.cls-4{stroke-linecap:round;stroke-linejoin:round;stroke-width:4px;}.cls-4{fill:#efaf00;stroke:#000;}</style></defs><g id="Layer_2" data-name="Layer 2"><rect class="cls-1" x="-2946.5" y="-1552.83" width="7197.02" height="2279.9"/></g><g id="Chars"><path class="cls-2" d="M330.34,481.6H143.59c-30.51,0-57.81-20.22-68.49-50.74L62.72,395.47h348.5l-12.39,35.39C388.15,461.38,360.85,481.6,330.34,481.6Z"/><rect class="cls-2" x="51.59" y="381.24" width="370.75" height="14.24" rx="6.93"/><polygon class="cls-2" points="534.39 407.57 407.25 407.57 411.54 395.47 534.39 395.47 534.39 407.57"/><rect class="cls-2" x="532.25" y="387.28" width="142.26" height="25.66" rx="11.6"/><path class="cls-3" d="M202.87,167.9c-51.87,18.83-32.52,47.49-61.69,89.67-10.43,15.08-8.51,31.26-2.2,38.39,6.65,7.52,12.34,21.94,54.84,20.29,42.09-1.62,57.87-29.39,99.56-35.33,14.61-2.08,31.57-5.84,37.67-19.27,4.37-9.61,1.36-20.91-2.89-30.57-8.15-18.55-21.08-35.41-38.46-45.82C268.29,172.44,242.91,153.37,202.87,167.9Z"/><circle class="cls-4" cx="230.57" cy="233.99" r="30.58"/><line class="cls-3" x1="233.5" y1="324.89" x2="233.5" y2="369.81"/><line class="cls-3" x1="253.79" y1="307.88" x2="253.79" y2="352.81"/><line class="cls-3" x1="273.53" y1="312.82" x2="273.53" y2="357.74"/><circle class="cls-3" cx="315.13" cy="311.56" r="3.06"/><circle class="cls-3" cx="187.94" cy="349.51" r="5.22"/></g></svg>