<svg xmlns="http://www.w3.org/2000/svg" viewBox="0 0 700 700"><defs><style>.cls-1,.cls-2{fill:#f7f3ef;}.cls-2,.cls-3{stroke:#070707;}.cls-2,.cls-3,.cls-5{stroke-linecap:round;stroke-linejoin:round;stroke-width:4px;}.cls-3{fill:#e57b07;}.cls-4{fill:#efaf00;}.cls-5{fill:none;stroke:#000;}</style></defs><g id="Layer_2" data-name="Layer 2"><rect class="cls-1" x="-2213.42" y="-1552.83" width="7197.02" height="2279.9"/></g><g id="Chars"><g id="WINE"><path class="cls-2" d="M282,219.67h0a60.91,60.91,0,0,1,60.91,60.91V575.66a24.78,24.78,0,0,1-24.78,24.78H245.83A24.78,24.78,0,0,1,221,575.66V280.58A60.91,60.91,0,0,1,282,219.67Z"/><path class="cls-2" d="M342.87,287.3V572.93c0,15.19-11.1,27.51-24.78,27.51H245.83c-13.69,0-24.78-12.32-24.78-27.51V287.3c0-30.32,18-56,42.73-64.56v-97.9c0-5.5,4-10,9-10h18.4c5,0,9,4.47,9,10v97.9A60,60,0,0,1,325,239.49,71.29,71.29,0,0,1,342.87,287.3Z"/><path class="cls-2" d="M230.15,566.07V287.68H333.77V566.07c0,12.56-8.79,22.75-19.63,22.75H249.77C238.94,588.82,230.15,578.63,230.15,566.07Z"/><path class="cls-3" d="M342.87,287.3V572.93a28.81,28.81,0,0,1-8.49,20.73c-6.52,6.32-16.74,3.5-20.17-5.31L312.13,583c-5.2-13.36-17.06-22-30.17-22h0c-13.11,0-25,8.65-30.17,22l-2.07,5.34c-3.43,8.81-13.65,11.63-20.17,5.32a28.82,28.82,0,0,1-8.5-20.74V287.3c0-30.32,18-56,42.73-64.56v-97.9c0-5.5,4-10,9-10h18.4c5,0,9,4.47,9,10v97.9A60,60,0,0,1,325,239.49,71.29,71.29,0,0,1,342.87,287.3Z"/><rect class="cls-2" x="246.75" y="334.2" width="70.43" height="146.37"/><path class="cls-2" d="M272.31,112.72h19.31a10.44,10.44,0,0,1,10.44,10.44v33.4a0,0,0,0,1,0,0H261.86a0,0,0,0,1,0,0v-33.4A10.44,10.44,0,0,1,272.31,112.72Z"/></g><g id="GLASS_OF_WINE" data-name="GLASS OF WINE"><path class="cls-2" d="M452.77,455.49h0c-10.78,0-19.52,9.7-19.52,21.67v86c0,10.53,6.07,19.87,15.07,23.2l20,7.38c1.59.58,1.21,3.2-.47,3.2H391.92c-1.68,0-2.06-2.62-.46-3.2l20-7.38c9-3.33,15.07-12.67,15.07-23.2v-86c0-12-8.74-21.67-19.51-21.67h45.78Z"/><path class="cls-2" d="M454.19,455.49H405.56c-15.14,0-27-14.46-25.6-31.2l9.79-116.36H470l9.79,116.36C481.19,441,469.33,455.49,454.19,455.49Z"/><path class="cls-3" d="M449.68,445.94H410.07c-12.33,0-22-11.77-20.85-25.41L391.88,389h76l2.65,31.51C471.67,434.17,462,445.94,449.68,445.94Z"/></g><circle class="cls-4" cx="493.83" cy="246.81" r="43.47"/><circle class="cls-5" cx="493.83" cy="246.81" r="43.47"/></g></svg>