<svg xmlns="http://www.w3.org/2000/svg" xmlns:xlink="http://www.w3.org/1999/xlink" viewBox="0 0 2000 1561.26"><defs><style>.cls-1,.cls-12,.cls-2,.cls-4{fill:#f7f3ef;}.cls-1,.cls-12,.cls-13,.cls-3,.cls-4,.cls-8{stroke:#070707;}.cls-1,.cls-12,.cls-13,.cls-3,.cls-4,.cls-5,.cls-7,.cls-8{stroke-linecap:round;stroke-linejoin:round;stroke-width:4px;}.cls-3{fill:none;}.cls-4{opacity:0.7;}.cls-5{fill:#efaf00;stroke:#000;}.cls-6{fill:#1c0e0c;}.cls-10,.cls-7{fill:#c48270;}.cls-7{stroke:#0f0f0f;}.cls-8{fill:#ea631f;}.cls-9{fill:#f1bb26;}.cls-11{clip-path:url(#clip-path);}.cls-12{opacity:0.5;}.cls-13{fill:#e57b07;}</style><clipPath id="clip-path"><path id="DRESS" class="cls-1" d="M1592.62,1392.4s-32.32-124.65-23.4-248.35c7.88-109.14,29.11-192.95-12.56-310.75l-.28.12c-27.7-77.77-69.47-120.13-69.47-120.13-14.14-53.44,35.77-156.67,35.63-198.59-.09-28-49.77-44.8-49.77-44.8L1342.69,485l-8.78,3s-20.5,53.44-30.68,77.42c-18.45,43.47,20.06,72.92,25.3,76.06s14.16,71.83,14.16,71.83c-44,124.8-60.83,235-60.83,235C1256.8,1089,1274,1396.51,1274,1396.51s39,12.17,156.53,11.49S1592.62,1392.4,1592.62,1392.4Z"/></clipPath></defs><g id="Layer_2" data-name="Layer 2"><rect class="cls-2" x="-39.29" y="-20.35" width="2083.04" height="1611.53"/></g><g id="Chars"><line class="cls-3" x1="283.89" y1="832.1" x2="1753.71" y2="832.1"/><g id="WINDOW"><line class="cls-1" x1="1255.41" y1="208.5" x2="1753.71" y2="208.5"/><rect class="cls-1" x="1307.69" y="237.82" width="373.88" height="521.35"/><rect class="cls-1" x="1323.05" y="252.3" width="341.4" height="490.7"/><path class="cls-4" d="M1500,208.5h219.93V802.31h-96s-4.07-124.85,36.46-169.36C1660.34,633,1496.23,415.11,1500,208.5Z"/><path class="cls-1" d="M1500,208.5h219.93V802.31h-96s-4.07-124.85,36.46-169.36C1660.34,633,1496.23,415.11,1500,208.5Z"/><path class="cls-1" d="M1720.72,625.23h3.68a3.93,3.93,0,0,1,3.93,3.93h0a3.93,3.93,0,0,1-3.93,3.93h-72.68"/><path class="cls-1" d="M1684.49,609h0A12.05,12.05,0,0,1,1696.54,621v0a12.05,12.05,0,0,1-12.05,12.05h-12.05a0,0,0,0,1,0,0V621A12.05,12.05,0,0,1,1684.49,609Z"/><path class="cls-1" d="M1664.45,617.11h0a8,8,0,0,1,8,8v8h-8a8,8,0,0,1-8-8h0A8,8,0,0,1,1664.45,617.11Z"/><path class="cls-1" d="M1672.44,633.09V659a6,6,0,0,0,6,6h0a6,6,0,0,0,6-6"/><path class="cls-1" d="M1668.77,633.09v12.55a5.64,5.64,0,0,1-5.65,5.64h-.6a5.64,5.64,0,0,1-5.65-5.64h0"/></g><g id="GIRL"><g id="CHAIR"><path class="cls-1" d="M499.31,1213.59l-41.6,359.73a4.16,4.16,0,0,0,4.33,4.46h0a4.29,4.29,0,0,0,4.28-3.27l67.61-360.92Z"/><path class="cls-1" d="M658.78,1213.59l41.6,352.8a4.17,4.17,0,0,1-4.33,4.46h0a4.29,4.29,0,0,1-4.28-3.27l-67.61-354Z"/><rect class="cls-1" x="465.64" y="1191.51" width="223.53" height="22.08" rx="6.61"/></g><g id="LEGS"><g id="RIGHT_LEG" data-name="RIGHT LEG"><path id="SHOES" class="cls-5" d="M470.88,1169.06a97.33,97.33,0,0,0-13.33-5.27c-13.52-3.73-18.33,3.29-18.33,3.29l13.7,80s15.07-.77,18.16-22.61c3.22-22.81,8.29-30.66,8.29-30.66Z"/><path id="LEG" class="cls-6" d="M709.35,1095.38c-5.81,69.09-24.11,96.68-45.83,96.68a3.25,3.25,0,0,1-.81-.09c-139.34-1.65-203.66,3.72-205-6.2-1.11-7.88,43.08-45.14,93.33-57,46.37-11,50.18,2.87,76.78-7.22-1.77-7.29-3.33-15-4.62-23.07,5.88.33,11.43.56,16.68.72C676.27,1100.24,698,1097.58,709.35,1095.38Z"/></g><g id="LEFT_LEG" data-name="LEFT LEG"><path id="SHOES-2" data-name="SHOES" class="cls-5" d="M399.12,1169.41a96.81,96.81,0,0,0-14.22-1.76c-14-.23-16.92,7.76-16.92,7.76l33.24,74s14.41-4.52,11.94-26.44c-2.58-22.89.36-31.75.36-31.75Z"/><path id="LEG-2" data-name="LEG" class="cls-7" d="M639.83,1099.15c-2.73,66.32-12.45,92.91-46.76,92.91a3.38,3.38,0,0,1-.82-.09c-94.06-1.11-153.93,1-183.34-.61-14.15-.76-10.81-18.85-9.79-21.94,0,0,31.18-28.79,81.41-40.7,46.37-11,54.61,2.63,77.51-4.33a296.59,296.59,0,0,1-6.36-32.93C587.69,1096.26,616.71,1098.46,639.83,1099.15Z"/></g></g><path id="DRESS-2" data-name="DRESS" class="cls-1" d="M575.09,740.61c-10.35,7.86-27.77,21.31-34.94,43.53,18.44,3.23,44.73,14.09,55,20.86,0,0-4.61,13.63-9.1,21.69-52.76,94.55-52.76,262.18-52.76,262.18,142.55,21.11,186.07,4,186.07,4,2.12-86.65-11.27-247.37-21.39-329.78a128.15,128.15,0,0,0,26.41,4.58c-2.69-43.76,7.6-57.57,7.6-57.57-16.71-5.33-43.25-5.64-56.38-4.34-8.19.36-16.88,1.4-16.88,1.4C654.08,707.75,594.8,725.64,575.09,740.61Z"/><path id="APRON" class="cls-5" d="M673.41,704c50.66,62.11,46.26,312.18,46.26,312.18l-66.86.17a49.51,49.51,0,0,1-49.48-44.84c-6.49-70.7-42.54-76.07-42.54-76.07l5.54-15.27s62.14-13,58.76-74.35c-3-54-37.37-76-37.37-76s10-5.38,17.85-6.71,30.37,40.47,36.25,44.32c1.52,1,21.61-4.14,39.38-10.93,0,0-18.49-46.6-22-49.78S673.41,704,673.41,704Z"/><g id="HANDS"><g id="RIGHT_HAND" data-name="RIGHT HAND"><path id="HAND" class="cls-7" d="M891.13,664.55c5.18.88,9.66,10.7,10.3,11.91s3,7.69,3,7.69-5.26,3.13-7.93-1.74c-3.15-5.79-5.92-5.58-10.33-4.89-1.83.3-3.77,1.41-3,3.83s7.89,1.53,9.8,2.46c2.92,1.41,3.14,4.91,3.14,4.91l-13.23,1.17c-1.64.15-10.34-2.08-17.58-5.62-11.29,15.87-44.13,58.21-81.32,70.67-25.8,8.64-46.59,9.27-59.91,8.15-1.6-37.22,6.49-51,7.69-52.81,13.48.47,28.36.13,42.35-2.23,20-3.37,51-30.45,82.47-39C859.24,668.64,876.74,662.12,891.13,664.55Z"/><g id="CHERRY"><path class="cls-1" d="M887.24,703.92s14.73-6.43,8.6-20.28"/><circle class="cls-8" cx="885.11" cy="709.82" r="8.16"/></g><path id="SHADOW" class="cls-6" d="M735.24,710.38s-7.09,19.76,2.29,53.09a123.54,123.54,0,0,1-13.41-.38c-1.6-37.22,6.49-51,7.69-52.81Z"/></g><g id="LEFT_HAND" data-name="LEFT HAND"><path id="HAND-2" data-name="HAND" class="cls-7" d="M656.07,936.49S649,941,642.75,942.12c-8.12,1.4-22.32-3.48-26.42-8.5-45.09-6.09-83.06-64.74-83.06-75.39,0-13,2.75-45.38,16.27-72,16.68,4.4,36.85,13.07,45.8,18.77-9.26,23.5-11.6,47.4-12.53,49.54-1.42,3.27,29.73,59,33.72,64.57,11.89-2.19,15,1,16.42,3.91s2,11.43,17.26,9.24C654.37,931.67,656.07,936.49,656.07,936.49Z"/><path id="SHADOW-2" data-name="SHADOW" class="cls-6" d="M595.13,805c-1.48,3.66-3,7.32-4.61,10.94-9.73-8.07-26.26-14.6-47.88-15.32,2.19-4.84,4.51-9.68,6.9-14.38C566.61,790.75,586.52,799.31,595.13,805Z"/><g id="CHERRY-2" data-name="CHERRY"><path class="cls-1" d="M654.71,924.1a1.09,1.09,0,0,1-.9.47h0a1,1,0,0,1-1-1.05.92.92,0,0,1,.1-.44,76.74,76.74,0,0,0-2.61-11.61c-2,7.09-9.72,10.09-9.82,10.13a1.24,1.24,0,0,1-.37.06,1,1,0,0,1-.36-2c.42-.16,8.91-3.48,8.91-11.54a12.42,12.42,0,0,0-.27-2.57l0-.09a1,1,0,0,1-.06-.33,16.3,16.3,0,0,0-.55-1.83,1,1,0,0,1,1.95-.71,18.94,18.94,0,0,1,.7,2.41,111.32,111.32,0,0,1,3.37,11.47C655.34,923.2,655,923.72,654.71,924.1Z"/><ellipse class="cls-8" cx="653.33" cy="927.13" rx="5.77" ry="5.89"/><ellipse class="cls-8" cx="638.07" cy="924.27" rx="7.16" ry="7.31"/></g><line class="cls-3" x1="594.3" y1="804.35" x2="606.46" y2="782.6"/></g></g><g id="HEAD"><g id="NECK"><path class="cls-7" d="M611.57,687.4s7.56,21.3-8,38.09c0,0,33.31,4.6,57.75-15.3,0,0-9.7-13.43-7.64-37.46Z"/><path class="cls-6" d="M661.37,710.18c-2,1.53-4.11,3.13-5,3.62-16.37,9.6-37.62-6-43-15.33a40.69,40.69,0,0,0-1.82-11.07l42.12-14.67C651.85,694.17,659.53,707.67,661.37,710.18Z"/></g><path id="HAIR" class="cls-6" d="M599.25,680.37c-21.52-14.93-27.44-32.4-24.75-47a16.49,16.49,0,0,1-2.55.1c-2.47-.1-7.54,1.2-9.16-.6s-1.93-4.78-.24-6.51a95.79,95.79,0,0,1-13.34,0c-5.11-.34-9.6-3.22-10.83-8-.91-3.51,1.56-7.18,4.85-9a21.16,21.16,0,0,1,8.59-2.07,13.56,13.56,0,0,0-13.15-.18,1,1,0,0,1-1-1.83,15,15,0,0,1,9.12-1.76,12,12,0,0,1-3-7.16,20.13,20.13,0,0,1,5.74-15.2c3.68-3.54,9.43-5.4,14.65-5.53a13.15,13.15,0,0,1,10.69,4.89c-.69-4,1.36-10.11,4-12,6-4.21,14.36-.5,15.78,3.44.46,1.3.59,2.84,1.37,3.91,1.38-1.93,3.1-4,5.19-4.81,7.79-3.17,14.21,1.55,14.93,5.5.61,3.35-1.25,6.73-4.08,8.84a5.52,5.52,0,0,1,5.61,1.77c1.69,2.1,1.79,5,1.27,7.65a17.32,17.32,0,0,1-1.41,4.24c1.85-.56,4.92-2.2,5.44-7a1,1,0,1,1,2.06.23,9.55,9.55,0,0,1-6.09,8.39c18.07,0,31.17,9,37.35,29.44C664.25,656.4,599.25,680.37,599.25,680.37Z"/><path id="SCRUNCHY" class="cls-9" d="M573.89,633.54a1.41,1.41,0,0,1-.45-.07,1.46,1.46,0,0,1-.94-1.83,56.12,56.12,0,0,1,8.84-15.83c8.32-10.53,19.38-16.5,32-17.24a1.45,1.45,0,0,1,.17,2.9c-11.89.7-21.91,6.11-29.81,16.07a53.76,53.76,0,0,0-8.41,15A1.45,1.45,0,0,1,573.89,633.54Z"/><path id="HEAD-2" data-name="HEAD" class="cls-7" d="M615.65,641.08c0,15.86-5.71,25.14-16.67,25.49,0,0-11-3-12.15,3.93-1,6,8.73,9,11.67,9.71,4.9,4.33,34.2,28.78,57.36,15.75,25.83-14.53,7.12-89.1-28.17-77C625.67,619.65,615.69,622.75,615.65,641.08Z"/></g><path class="cls-3" d="M594.3,805.41S584.66,840.7,582,852"/></g><circle class="cls-10" cx="595.98" cy="671" r="12.31"/><path class="cls-3" d="M591.21,665.13s5.79-2.64,10.86,4.21"/><line class="cls-3" x1="596.64" y1="666.13" x2="592.37" y2="671"/><ellipse class="cls-6" cx="634.15" cy="653.25" rx="3.71" ry="4.4" transform="translate(-149.11 189.15) rotate(-15.2)"/><ellipse class="cls-6" cx="657.84" cy="646.08" rx="2.85" ry="4.4" transform="translate(-146.4 195.11) rotate(-15.2)"/><path class="cls-3" d="M648.91,650.39s9.55,2.83,8.93,5.82a13.34,13.34,0,0,1-3.28,5.65"/><path class="cls-3" d="M632.45,668.56s7,8.06,21.24,4.17"/><g id="WOMAN"><g id="LEFT_HAND-2" data-name="LEFT HAND"><path class="cls-7" d="M1311.73,713.82c-54.9-3.54-113.67-82.76-132.57-110.38-8.76,4.76-21.77,11.18-32.5,11.54-3.79.13-5-8.5-5-8.5-2.09-.78-3.69-4.42-3.58-8.06,0,0-4.22-2.12-4-8a12,12,0,0,1-4.46-6.59c-1.3-5.66,12.75-11.36,14.54-12.42,3.45-2-1.24-1.71-3.68-4.6-6.81-8.06-2.38-12-2.38-12s7.4,5,14.23,6.33,15.69,3.9,17.95,5.26a87.62,87.62,0,0,1,15.73,12.87c27.56,19,99.38,60.29,99.38,60.29,2.86-141.68,30.63-146.88,48.45-151.59C1333.91,488,1378.27,718.11,1311.73,713.82Z"/><path class="cls-3" d="M1115.11,580.77l36,56.13a12.11,12.11,0,0,1-3.67,16.74l-35.63,22.82a12.12,12.12,0,0,1-16.74-3.67l-29.56-46.15-11-7c2.14,2,20.35-6.87,35.44-16.54s26.16-19.49,25.2-22.3Z"/><path class="cls-3" d="M1115,580.59a.54.54,0,0,1,.1.2c1,2.81-10.1,12.63-25.2,22.3s-33.3,18.59-35.44,16.54a.8.8,0,0,1-.15-.17c-1.61-2.52,14.28-15.57,29.76-25.48S1113.38,578.07,1115,580.59Z"/><path class="cls-3" d="M1124.32,574.88h0c6.55-4.2,18.44,0,19.84,7.64l6.9,54.38L1121,590A11,11,0,0,1,1124.32,574.88Z"/><path class="cls-10" d="M1163.13,600.53c1.54,5.83-3.86,8.88-17.18,13.21,0,0-.52.36-6-12.09-8-18.33-7.09-21.41-7.09-21.41,7.32-2.69,14.59-4.41,17.21-5.19C1155.54,573.42,1162.14,596.76,1163.13,600.53Z"/><path class="cls-7" d="M1157.05,600.55s4.54-3,6.08,0c2.73,5.37-4.47,8.65-17.78,13"/><path class="cls-7" d="M1141.83,605.76c15-4.3,19-7.15,19-7.15,2.11-.83.51-9.7-3.79-8"/><path class="cls-7" d="M1138,597.35c15.78-4.82,19-6.73,19-6.73,2.29-.71,1-9.49-4.55-7.71"/><path class="cls-7" d="M1132.88,580.24c.88,2.38,14.58-4.43,17.21-5.19,3.7-1.08,7.09,6.23,2.42,7.86a102.19,102.19,0,0,1-18.21,6.56"/></g><g id="LEGS-2" data-name="LEGS"><g id="RIGHT_LEG-2" data-name="RIGHT LEG"><path class="cls-7" d="M1539.54,1571.89c5.63,8.43,8.44,8.95,7.41,18.4H1482.3s.52-10.74,11-14.32,23.34-28.7,20.68-39.43v0c-8.4-32.74-19.94-85.1-29.44-130,31.76-1.59,55.64-4.26,72.77-6.84-3.76,52.51-14.47,109.24-22.89,141.7h0C1533.93,1546.29,1533.93,1563.46,1539.54,1571.89Z"/></g><g id="LEFT_LEG-2" data-name="LEFT LEG"><path class="cls-7" d="M1347.9,1534.05c-2.4,6.43-1.92,19.4.73,26.32,4.6,12,8.43,29.92-7.71,29.92h-88.64s-2-11.75,21.46-15.08c22.69-3.2,52-16.44,51.83-39.11-4.75-33-10.51-87.21-15.06-133.31,17.1,2,40.93,3.89,73,4.75-8.89,46.64-23.93,95.39-35.58,126.39Z"/><path id="SHOES-3" data-name="SHOES" class="cls-5" d="M1348.62,1560.37s13.36,29.92-6,29.92h-90.29s-3.63-11.32,19.82-15.08c3.26-.52,12.59-2.31,12.59-2.31s-2.9,8.37,17.74,7.46S1332.36,1561.84,1348.62,1560.37Z"/></g></g><g id="DRESS-3" data-name="DRESS"><path id="DRESS-4" data-name="DRESS" class="cls-2" d="M1592.62,1392.4s-32.32-124.65-23.4-248.35c7.88-109.14,29.11-192.95-12.56-310.75l-.28.12c-27.7-77.77-69.47-120.13-69.47-120.13-14.14-53.44,35.77-156.67,35.63-198.59-.09-28-49.77-44.8-49.77-44.8L1342.69,485l-8.78,3s-20.5,53.44-30.68,77.42c-18.45,43.47,20.06,72.92,25.3,76.06s14.16,71.83,14.16,71.83c-44,124.8-60.83,235-60.83,235C1256.8,1089,1274,1396.51,1274,1396.51s39,12.17,156.53,11.49S1592.62,1392.4,1592.62,1392.4Z"/><g class="cls-11"><line class="cls-1" x1="1290.26" y1="532.78" x2="1556.63" y2="532.78"/><line class="cls-1" x1="1290.26" y1="583.12" x2="1556.63" y2="583.12"/><line class="cls-1" x1="1290.26" y1="633.46" x2="1556.63" y2="633.46"/><line class="cls-1" x1="1290.26" y1="683.8" x2="1556.63" y2="683.8"/><line class="cls-1" x1="1290.26" y1="734.14" x2="1556.63" y2="734.14"/><line class="cls-1" x1="1290.26" y1="784.48" x2="1556.63" y2="784.48"/><line class="cls-1" x1="1290.26" y1="834.82" x2="1556.63" y2="834.82"/><line class="cls-1" x1="1290.26" y1="885.16" x2="1585.56" y2="885.16"/><line class="cls-1" x1="1265.81" y1="935.5" x2="1585.56" y2="935.5"/><line class="cls-1" x1="1252.76" y1="985.84" x2="1647.58" y2="985.84"/><line class="cls-1" x1="1252.76" y1="1036.18" x2="1647.58" y2="1036.18"/><line class="cls-1" x1="1252.76" y1="1086.52" x2="1647.58" y2="1086.52"/><line class="cls-1" x1="1252.76" y1="1136.86" x2="1647.58" y2="1136.86"/><line class="cls-1" x1="1252.76" y1="1187.2" x2="1647.58" y2="1187.2"/><line class="cls-1" x1="1252.76" y1="1237.55" x2="1647.58" y2="1237.55"/><line class="cls-1" x1="1252.76" y1="1287.89" x2="1647.58" y2="1287.89"/><line class="cls-1" x1="1252.76" y1="1338.23" x2="1690.46" y2="1338.23"/><line class="cls-1" x1="1216.51" y1="1388.57" x2="1690.46" y2="1388.57"/><line class="cls-1" x1="1350.81" y1="469.9" x2="1350.81" y2="1426.9"/><line class="cls-1" x1="1396.28" y1="469.9" x2="1396.28" y2="1426.9"/><line class="cls-1" x1="1441.74" y1="469.9" x2="1441.74" y2="1426.9"/><line class="cls-1" x1="1487.21" y1="469.9" x2="1487.21" y2="1426.9"/><line class="cls-1" x1="1532.68" y1="469.9" x2="1532.68" y2="1426.9"/><line class="cls-1" x1="1305.34" y1="469.9" x2="1305.34" y2="1426.9"/></g><path id="DRESS-5" data-name="DRESS" class="cls-3" d="M1592.62,1392.4s-32.32-124.65-23.4-248.35c7.88-109.14,29.11-192.95-12.56-310.75l-.28.12c-27.7-77.77-69.47-120.13-69.47-120.13-14.14-53.44,35.77-156.67,35.63-198.59-.09-28-49.77-44.8-49.77-44.8L1342.69,485l-8.78,3s-20.5,53.44-30.68,77.42c-18.45,43.47,20.06,72.92,25.3,76.06s14.16,71.83,14.16,71.83c-44,124.8-60.83,235-60.83,235C1256.8,1089,1274,1396.51,1274,1396.51s39,12.17,156.53,11.49S1592.62,1392.4,1592.62,1392.4Z"/></g><g id="APRON-2" data-name="APRON"><path class="cls-6" d="M1393.35,929c-43,0-65.82-8.92-77.48-20.22,12.25,6.78,32.46,11.66,65.24,12.33,97,2,107.06-150,107.91-194.54C1491,760.77,1495.5,929,1393.35,929Z"/><path id="_x3C_äÓÌÚÛ__x3E_" data-name="_x3C_äÓÌÚÛ_x3E_" class="cls-5" d="M1489.05,714.43s5.74,209-107.94,206.68c-104-2.12-81.55-46.61-79.51-59.7,7.35-47.24,43.22-147,43.22-147S1386,729.13,1489.05,714.43Z"/></g><g id="RIGHT_HAND-2" data-name="RIGHT HAND"><path class="cls-7" d="M1576.78,676.37c-7.76,55.86-132.21,174.51-135.4,177.54l.11.32s-9.62,19-19.19,19-18.5-5.17-23.54.17-10.24,14-14.08,14.79A20.65,20.65,0,0,1,1371,886.4s3.29-8,6.69-15.73c-3.06,2.85-7.21,9.15-9.53,11.64-3.5,3.74-6.6.34-6.6.34s6.72-12.81,9.3-16.2,10.4-8.55,14.66-10.16c4.73-2.54,29.86-16,45.29-20.13,19.21-38.79,65.63-129.67,92.16-157.83,0,0-44.28-111.23-46.38-142.67S1485,477.34,1502,485C1542.58,503.17,1579.75,655,1576.78,676.37Z"/><path class="cls-3" d="M1376.48,886.42s8.86-20.15,12-22.25c5.45-3.7,12.55-8.58,12.55-8.58"/><path class="cls-3" d="M1381.87,887.27s8.54-17.24,11.63-19.34l12.55-8.58"/></g><g id="HEAD-3" data-name="HEAD"><g id="HAIR-2" data-name="HAIR"><path class="cls-6" d="M1319.11,324.61s-40.09-10.07-52.27,18.95,20.47,35.43,19.26,51c-.72,9.17,3.83,34.53,30.22,15.35,25.35-18.43,125,68.48,156.45,60s55-58,30.26-76.11-39.7,7.08-48-.78-4.28-21.36-24.37-24.77c-18.22-3.09-26.32,13.76-26.32,13.76s11.62-55.64-18-72.14S1330.3,302.38,1319.11,324.61Z"/><path class="cls-3" d="M1503.65,386.67c-25.73-16.67-37.26,6.91-45.94-.47s-7.45-19.9-27.7-22.17c-18.35-2.07-26.69,18.37-26.69,18.37"/></g><g id="NECK-2" data-name="NECK"><path class="cls-7" d="M1393.64,386.85s17.3,72.82,79.13,83c0,0-90.81,48-130.08,15.06,0,0,29.47-15.76,12.7-60.61Z"/><path class="cls-6" d="M1391.75,389.14c2,7.19,5.14,66.62-34,77.09,3.6-9.55,4.64-23.18-2.34-41.88Z"/></g><path id="HEAD-4" data-name="HEAD" class="cls-7" d="M1396,363.26c7.5,2.21,3.28,26.33-3.24,29.85,2,7.26-8.87,43.88-44.82,54.53-10.24,3-31.43-26.73-35.58-36.58-6.07-14.34-11.61-27.58-12.64-32.92-1.66-8.63-2.07-27.95,22.59-32,21.61-3.54,28.6,40.69,63.56,25.28C1385.89,371.44,1388.44,361,1396,363.26Z"/></g></g><polyline class="cls-3" points="1322.85 389.14 1322.85 407.52 1331.05 411.06"/><path class="cls-3" d="M1335.58,422.71s9.81,2.07,14.17-9.2"/><ellipse class="cls-6" cx="1336.49" cy="385.16" rx="3.13" ry="4.14" transform="translate(-32.52 630.83) rotate(-26.25)"/><ellipse class="cls-6" cx="1313.41" cy="396.54" rx="3.13" ry="4.14" transform="translate(-57.57 448.46) rotate(-18.97)"/><path class="cls-3" d="M1304.34,382.68a6.08,6.08,0,0,1,6.76-3.55"/><circle class="cls-10" cx="1388.74" cy="374.58" r="14.55"/><path class="cls-3" d="M1383.21,383.46s-1.69-5.73-.13-10.9a10.59,10.59,0,0,1,8.11-7.55"/><line class="cls-3" x1="1391.19" y1="376.33" x2="1383.08" y2="372.56"/><circle class="cls-1" cx="1399.55" cy="390.9" r="6.77"/><path class="cls-3" d="M1327,372.81s1.89-6.65,10.31-4.55"/><rect class="cls-2" x="205.67" y="970.94" width="1594.68" height="590.33"/><g id="TABLE"><polyline class="cls-1" points="1719.66 1368.27 1662.64 1055.99 1709.68 1048.63 1753.54 1368.27"/><polygon class="cls-6" points="1662.64 1055.99 1709.68 1048.63 1714.3 1085.01 1665.97 1075.73 1662.64 1055.99"/><polyline class="cls-1" points="287.36 1368.27 344.38 1055.99 297.34 1048.63 253.48 1368.27"/><polygon class="cls-6" points="297.34 1048.63 344.38 1055.99 337.62 1096.03 295.38 1064.01 297.34 1048.63"/><ellipse class="cls-1" cx="1003.01" cy="991.85" rx="797.34" ry="58.73"/><path class="cls-1" d="M1800.35,991.85V1023c0,32.43-357,58.72-797.34,58.72-385.14,0-706.5-20.11-781-46.85-10.69-3.83-16.3-7.8-16.3-11.87V991.85c0,4.08,5.61,8,16.3,11.88,3.48,1.24,7.5,2.48,12,3.7,92.65,24.87,401.85,43.15,769,43.15s676.36-18.28,769-43.15C1790.48,1002.47,1800.35,997.25,1800.35,991.85Z"/><path class="cls-1" d="M1323.05,1045.48c-23.11,148.34-276.06,236.43-461.46,219C634.1,1243,512,1133.28,461.35,1073.27a35.76,35.76,0,0,1-5.08-38.3c142.18,9.69,332.37,15.61,541.33,15.61C1113.53,1050.58,1223.67,1048.76,1323.05,1045.48Z"/><path class="cls-1" d="M1559.77,948.93l-2.65,1.08-234,95.28,0,.19c-99.38,3.28-209.52,5.1-325.45,5.1-209,0-399.15-5.92-541.33-15.61a35.58,35.58,0,0,1,19.22-18.19l195.56-78.34s5-.24,14.39-.64h0C765.33,934.41,1164,919.93,1559.77,948.93Z"/></g><g id="BOWL"><path class="cls-1" d="M1230.44,804.94a67.9,67.9,0,0,1-85.7,8.54c2.33-4.25,25.26,6.28,43.69-8.23C1221.09,779.52,1229.55,802.18,1230.44,804.94Z"/><rect class="cls-1" x="1120.01" y="722.25" width="2.96" height="65.76" transform="translate(-195.33 1061.64) rotate(-47.06)"/><path class="cls-1" d="M1181.2,791.53c10.75,8.78,12.74,19.26,6.88,25.56-5.2,5.59-17.53,4.33-26-5-8.32-9.2-21.15-30.91-17.2-35.15S1171.6,783.68,1181.2,791.53Z"/><path class="cls-1" d="M1178.41,796.13c10,8.57,12.45,18,9.67,21-2.23,2.4-13.31.5-21.6-8.14s-23.47-28.86-21-31.51S1169.46,788.48,1178.41,796.13Z"/><path class="cls-1" d="M1073.38,705.87l24.37,24.47a2.58,2.58,0,0,1,.06,3.56h0a2.58,2.58,0,0,1-3.55.2l-23.58-20.16a7.76,7.76,0,0,0-11,.39h0a3.52,3.52,0,0,1-.17-5l2.87-3.09A7.77,7.77,0,0,1,1073.38,705.87Z"/><line class="cls-1" x1="1145.48" y1="777.44" x2="1188.08" y2="817.09"/><path class="cls-3" d="M1259.1,752.5a77,77,0,0,1-76.89,77.13h0a77,77,0,0,1-77.13-76.89Z"/></g><g id="ROLLING_PIN" data-name="ROLLING PIN"><rect class="cls-1" x="763.27" y="996.77" width="32.78" height="12.94" rx="5.75" transform="translate(1559.32 2006.48) rotate(-180)"/><path class="cls-1" d="M780.88,976.81H958a23.68,23.68,0,0,1,23.68,23.68v5.95A23.68,23.68,0,0,1,958,1030.12H780.88a0,0,0,0,1,0,0V976.81A0,0,0,0,1,780.88,976.81Z" transform="translate(1762.56 2006.93) rotate(-180)"/><ellipse class="cls-1" cx="981.67" cy="1003.38" rx="20.97" ry="26.57"/><rect class="cls-1" x="980.61" y="996.77" width="32.78" height="12.94" rx="5.75" transform="translate(1994 2006.48) rotate(-180)"/></g><g id="PICTURE"><rect class="cls-6" x="728.53" y="239.58" width="146.7" height="146.7"/><rect class="cls-1" x="737.43" y="229.92" width="146.7" height="146.7"/><rect class="cls-1" x="760.79" y="253.29" width="99.97" height="99.97"/><path class="cls-1" d="M811.31,280.92s2.74-9.1-3.65-11.86"/><path class="cls-5" d="M824.85,295.21a24.92,24.92,0,0,0,3.79,9.58,21.48,21.48,0,1,1-35.9.28,26.79,26.79,0,0,0,4-9.86l.13-.75c.16-.89.25-1.8.33-2.7a12.34,12.34,0,0,1,12.3-11.23h2.63a12.34,12.34,0,0,1,12.3,11.23c.09.9.18,1.81.33,2.7Z"/><path class="cls-1" d="M812.48,280.44s-.67-8.34,11.32-12.11C823.8,268.33,825.46,283.32,812.48,280.44Z"/></g><g id="KITCHEN_SET" data-name="KITCHEN SET"><rect class="cls-1" x="413.66" y="660.39" width="3.5" height="98.28" transform="translate(713.43 1475.81) rotate(-170.9)"/><path class="cls-1" d="M418.1,612.4l25.09,4a6.46,6.46,0,0,1,5,8.4l-7.38,34.49a6.39,6.39,0,0,1-7.05,4.5l-21.46-3.44a6.39,6.39,0,0,1-5.3-6.47l3.76-35.07A6.46,6.46,0,0,1,418.1,612.4Z"/><line class="cls-1" x1="424.58" y1="652.27" x2="429.31" y2="622.72"/><line class="cls-1" x1="417.3" y1="648.58" x2="421.24" y2="623.95"/><line class="cls-1" x1="432.65" y1="651.04" x2="436.59" y2="626.41"/><path class="cls-1" d="M396.41,799.12l8-39.92a3,3,0,0,1,3.45-2.39h0a3,3,0,0,1,2.52,3.33l-4.26,36.33A9.16,9.16,0,0,0,413.67,807h0a4.15,4.15,0,0,1-4.75,3.44L404,809.6A9.14,9.14,0,0,1,396.41,799.12Z"/><path class="cls-1" d="M438,683.38a23.43,23.43,0,0,1,17.15-12.61c13.66-2.12,25.57,7.1,27.28,21L437.47,700,393.3,783.59a3,3,0,0,1,.21.49,2.82,2.82,0,0,1-.13,2.09l-14.61,30.7a8.51,8.51,0,0,0,3.55,11.49,3.84,3.84,0,0,1-2.28,1.88,3.8,3.8,0,0,1-2.94-.27L373,827.81a8.51,8.51,0,0,1-3.54-11.5l18.94-32.76a2.79,2.79,0,0,1,1.95-1.35l44.3-83.82.09,0A29,29,0,0,1,438,683.38Z"/><rect class="cls-1" x="425.09" y="685.8" width="3.25" height="95.38" transform="translate(461.22 1581.38) rotate(-152.14)"/><path class="cls-1" d="M495.33,683.93c-1.72-13.87-13.63-23.09-27.3-21h0c-13.66,2.12-21.92,15.84-20.2,29.71Z"/><path class="cls-1" d="M382.37,808.5l18.94-32.75a2.81,2.81,0,0,1,3.75-1.08h0a2.8,2.8,0,0,1,1.22,3.69l-14.61,30.7a8.51,8.51,0,0,0,3.55,11.49h0a3.86,3.86,0,0,1-5.22,1.61L385.91,820A8.51,8.51,0,0,1,382.37,808.5Z"/><path class="cls-1" d="M405.84,788l0,.06,14,32-2,1-17.54-27.57a6.11,6.11,0,0,0-3.47-2.6,5.71,5.71,0,0,0-4.2.39,5.93,5.93,0,0,0-2.72,7.46l11.84,30.53-1.75.89L382.3,800a13.52,13.52,0,0,1,4-17.2l-41.43-81.2a3.88,3.88,0,0,1-3.49-2L324.08,669a7.8,7.8,0,0,0-10.49-3.4l-.89.45-.46-.89a5,5,0,0,1,2.18-6.71l4.27-2.18a9.81,9.81,0,0,1,13.18,4.27l0,0,16.46,35.53a3.88,3.88,0,0,1-.46,4l41.41,81.14a13,13,0,0,1,8.73-.07A13.74,13.74,0,0,1,405.84,788Z"/><rect class="cls-1" x="370.14" y="684.41" width="3.5" height="98.28" transform="translate(-245.35 190.03) rotate(-21.75)"/><path class="cls-1" d="M406.61,785.94l11.15,33.59-.39.15-15.08-29.37a7.45,7.45,0,0,0-3.9-3.52,6.94,6.94,0,0,0-5.13,0,7.2,7.2,0,0,0-4.15,8.71l9.07,31.83-.12,0-15-32A12.91,12.91,0,0,1,390,778.47a12.42,12.42,0,0,1,9.76.24A13.26,13.26,0,0,1,406.61,785.94Z"/><path class="cls-1" d="M342.26,646.89l13.64,38.36a3,3,0,0,1-1.73,3.82h0a3,3,0,0,1-3.88-1.57l-15-33.37A9.15,9.15,0,0,0,323.43,649h0a4.16,4.16,0,0,1,2.32-5.4l4.62-1.84A9.15,9.15,0,0,1,342.26,646.89Z"/><rect class="cls-1" x="389.26" y="668.47" width="3.5" height="77.53" transform="translate(912.54 1324.54) rotate(168.74)"/><path class="cls-1" d="M359,631.26c-4.22-15.81,1.1-27.2,11-29.18,8.83-1.76,19.75,7.95,21.38,22.73,1.6,14.53-1.1,44.14-7.8,45.47S362.79,645.39,359,631.26Z"/><path class="cls-1" d="M364.86,628.78c-3.68-15.1.5-25.77,5.21-26.71,3.79-.75,13.07,8.7,15,22.68,1.93,13.74,2.54,43.79-1.65,44.62S368.14,642.28,364.86,628.78Z"/><path class="cls-1" d="M403,787.52l-6.42-40.2a3,3,0,0,1,2.4-3.44h0a3,3,0,0,1,3.52,2.25l8.65,35.54a9.14,9.14,0,0,0,10.75,7.19h0a4.15,4.15,0,0,1-3.26,4.88l-4.88,1A9.15,9.15,0,0,1,403,787.52Z"/><line class="cls-1" x1="383.46" y1="669.37" x2="370.07" y2="602.07"/><rect class="cls-1" x="360.69" y="732.45" width="75.01" height="97.67"/><line class="cls-1" x1="360.69" y1="742.61" x2="435.71" y2="742.61"/><line class="cls-1" x1="360.69" y1="752.27" x2="435.71" y2="752.27"/><line class="cls-1" x1="360.69" y1="761.92" x2="435.71" y2="761.92"/><line class="cls-1" x1="360.69" y1="771.58" x2="435.71" y2="771.58"/><line class="cls-1" x1="360.69" y1="781.23" x2="435.71" y2="781.23"/><line class="cls-1" x1="360.69" y1="790.89" x2="435.71" y2="790.89"/><line class="cls-1" x1="360.69" y1="800.55" x2="435.71" y2="800.55"/><line class="cls-1" x1="360.69" y1="810.2" x2="435.71" y2="810.2"/><line class="cls-1" x1="360.69" y1="819.86" x2="435.71" y2="819.86"/></g><g id="EGGS"><g id="EGGS-2" data-name="EGGS"><path class="cls-1" d="M1370.35,988.52c-11.28,6.44-22.82,6.61-28.11-5.18-4.79-10.68,2.34-20.85,14.82-24.44,14.8-4.26,25-1.68,28.12,5.18C1388.38,971.23,1383.66,980.93,1370.35,988.52Z"/><ellipse class="cls-1" cx="1419.27" cy="982.91" rx="16.81" ry="24.36"/><ellipse class="cls-1" cx="1462.19" cy="982.91" rx="16.81" ry="24.36"/></g><g id="PACK"><path class="cls-1" d="M1602.13,978.76l-13,31.64a13.28,13.28,0,0,1-12.28,8.23H1462.74l16.35-39.87Z"/><path class="cls-1" d="M1486.85,978.76l-12,31.64a12.3,12.3,0,0,1-11.35,8.23h-2.08a12.34,12.34,0,0,1-11.45-8.48l-2.91-8.14a6.57,6.57,0,0,0-6.11-4.53h0a6.59,6.59,0,0,0-6.12,4.53l-2.91,8.14a12.33,12.33,0,0,1-11.44,8.48h-2.08a12.31,12.31,0,0,1-11.36-8.23l-12-31.64Z"/><path class="cls-1" d="M1644.73,951.49l-6.58,16.58a17.24,17.24,0,0,1-15.94,10.69H1487.15L1508.37,927h130.7l4.57,7.5A19.44,19.44,0,0,1,1644.73,951.49Z"/><path class="cls-1" d="M1514,951.49l-6.57,16.58a17.25,17.25,0,0,1-15.94,10.69h-4.37L1508.37,927h0l4.56,7.5A19.44,19.44,0,0,1,1514,951.49Z"/></g></g><g id="CUPCAKES"><path class="cls-1" d="M511.51,1016.5H495.82a10.24,10.24,0,0,1-10-8.27L479.5,976h48.33l-6.28,32.19A10.23,10.23,0,0,1,511.51,1016.5Z"/><path class="cls-1" d="M531.63,974c0,6.11-12.55,7-28,7s-28,0-28-7c0-8,12.55-9.79,28-9.79S531.63,967,531.63,974Z"/><path class="cls-1" d="M521.8,961.55c0,6.11-8.21,9.39-18.34,9.39s-18.34-2.37-18.34-9.39c0-4.58,4.63-7.79,11.22-9.11h0c.42-.11,7.1-1.95,7.1-6,0-4.47-5.54-5.69-5.54-5.69s14.32-3.58,12.67,11.73C517.18,954,521.8,957.37,521.8,961.55Z"/><path class="cls-1" d="M497,960.11c1.38,1.27,1.94,2.91,1.26,3.66s-2.37.31-3.75-1-2-2.91-1.26-3.66S495.57,958.83,497,960.11Z"/><path class="cls-1" d="M501.57,973.26c1.8.55,3,1.78,2.72,2.75s-2,1.31-3.8.75-3-1.78-2.72-2.75S499.77,972.71,501.57,973.26Z"/><path class="cls-1" d="M509.35,964.52c-1.6,1-3.32,1.12-3.86.26s.31-2.36,1.91-3.36,3.32-1.12,3.86-.26S510.94,963.52,509.35,964.52Z"/><path class="cls-1" d="M503.8,957.27c-1.59,1-3.19,1.33-3.56.73s.61-1.89,2.2-2.9,3.19-1.32,3.57-.72S505.4,956.27,503.8,957.27Z"/><path class="cls-1" d="M518.41,972c-1.6,1-3.2,1.33-3.57.73s.61-1.9,2.2-2.9,3.19-1.32,3.57-.73S520,971,518.41,972Z"/><ellipse class="cls-1" cx="487.62" cy="972.41" rx="1.28" ry="3.41" transform="translate(-563.39 1252.99) rotate(-78.32)"/><path class="cls-1" d="M380.75,989.08H366.39a9.8,9.8,0,0,1-9.62-7.93l-5.86-30h45.33l-5.86,30A9.8,9.8,0,0,1,380.75,989.08Z"/><path class="cls-1" d="M397.27,950.58c0,5.73-9.18,8.8-23.7,8.8s-24.81-2.22-24.81-8.8c0-7.53,10.29-9.91,24.81-9.91S397.27,944,397.27,950.58Z"/><path class="cls-1" d="M370.8,948.78c-5.73.07-12.36.13-14.95-6.07-3.06-7.31,6.23-14.93,16.22-11,2.79,1.1,4.83,1.51,6.31-.76,1.6-2.46-1.26-6.13-5.36-4.82,0,0,6.17-2.76,10.72,1.22C390.46,933.22,391.8,948.53,370.8,948.78Z"/><path class="cls-1" d="M369.09,945.57c-1.73-.36-3-1.17-2.89-1.82s1.65-.89,3.37-.53,3,1.17,2.89,1.82S370.82,945.93,369.09,945.57Z"/><path class="cls-1" d="M364,939.57c-.88,1.53-2.06,2.5-2.63,2.17s-.33-1.84.56-3.37,2.06-2.5,2.63-2.17S364.91,938,364,939.57Z"/><path class="cls-1" d="M385.76,949.4c-.89,1.53-2.07,2.5-2.64,2.17s-.32-1.84.56-3.37,2.06-2.5,2.64-2.17S386.64,947.87,385.76,949.4Z"/><path class="cls-1" d="M372.74,939.06c-1.5.94-3,1.24-3.35.68S370,938,371.46,937s3-1.25,3.35-.69S374.23,938.12,372.74,939.06Z"/><path class="cls-1" d="M375.52,953c-1.49.94-3,1.25-3.34.69s.57-1.78,2.06-2.72,3-1.25,3.35-.68S377,952.08,375.52,953Z"/><path class="cls-1" d="M378,942.58c-1.73-.35-3-1.17-2.89-1.82s1.65-.89,3.37-.53,3,1.18,2.89,1.82S379.73,942.94,378,942.58Z"/><path class="cls-1" d="M359.6,951.57c-1.73-.36-3-1.17-2.88-1.82s1.64-.89,3.37-.53,3,1.17,2.89,1.82S361.33,951.93,359.6,951.57Z"/><path class="cls-1" d="M443.28,989.08h-15.4a9.18,9.18,0,0,1-9-7.42l-5.95-30.52h45.32l-5.95,30.52A9.18,9.18,0,0,1,443.28,989.08Z"/><path class="cls-1" d="M461.87,950.58c0,5.73-11.77,8.8-26.29,8.8s-26.29-2.22-26.29-8.8c0-7.53,11.77-9.17,26.29-9.17S461.87,944,461.87,950.58Z"/><path class="cls-1" d="M434.93,950.24c-4.92.18-15.64,0-16.94-6.61-1.48-7.59,8.56-11.44,15.47-9.78,2.91.69,9.8,1.52,10.47-1.34.58-2.44-.49-4.06-3.33-3.65,0,0,4.37-6.26,10-.85C458,935.07,457.81,949.39,434.93,950.24Z"/><path class="cls-1" d="M436.75,937.63c1.29,1.2,1.82,2.74,1.18,3.44s-2.22.29-3.52-.91-1.82-2.73-1.18-3.43S435.45,936.44,436.75,937.63Z"/><path class="cls-1" d="M432.7,944.19c1.69.52,2.83,1.67,2.56,2.58s-1.88,1.23-3.56.71-2.83-1.67-2.56-2.58S431,943.67,432.7,944.19Z"/><path class="cls-1" d="M428.28,941.68c-1.5.94-3,1.25-3.35.69s.57-1.78,2.07-2.72,3-1.24,3.34-.68S429.77,940.74,428.28,941.68Z"/><path class="cls-1" d="M438.4,954c-1.72.42-3.23.23-3.39-.41s1.11-1.5,2.83-1.92,3.23-.23,3.38.42S440.12,953.56,438.4,954Z"/><path class="cls-1" d="M443.51,945.41c-1.5.94-3,1.25-3.35.68s.57-1.77,2.07-2.71,3-1.25,3.34-.69S445,944.47,443.51,945.41Z"/><path class="cls-1" d="M445.41,939.22c-1.73-.36-3-1.17-2.89-1.82s1.64-.89,3.37-.53,3,1.17,2.89,1.82S447.14,939.58,445.41,939.22Z"/><path class="cls-1" d="M421.54,952.21c-1.59-.77-2.64-1.88-2.35-2.47s1.81-.46,3.4.32,2.64,1.88,2.35,2.47S423.12,953,421.54,952.21Z"/><path class="cls-1" d="M448.5,951.64c-1.58-.77-2.64-1.88-2.35-2.48s1.82-.45,3.4.32,2.64,1.89,2.35,2.48S450.09,952.41,448.5,951.64Z"/></g><g id="BERRIES"><path class="cls-1" d="M762.27,962.75a.85.85,0,0,1-.12,1.58c-28.32,8.1-63,12.86-100.37,12.86s-72.32-4.8-100.7-13a.85.85,0,0,1-.23-1.53c9.15-6.13,65.4-8,100.93-8C696.6,954.72,751.94,958,762.27,962.75Z"/><path class="cls-1" d="M683.79,957s14.81-2.35,11-16.66"/><circle class="cls-8" cx="680.82" cy="962.39" r="7.97" transform="translate(-479.98 756.78) rotate(-44.68)"/><path class="cls-1" d="M703.22,957.08s-7.45-3.46-7.85-10.46"/><circle class="cls-8" cx="704.83" cy="961.88" r="6.57" transform="translate(-473.71 780.12) rotate(-45)"/><path class="cls-1" d="M620.09,979.87s14.81-2.35,11-16.66"/><circle class="cls-1" cx="617.12" cy="985.23" r="7.97" transform="translate(-357.41 351.34) rotate(-24.9)"/><path class="cls-1" d="M639.52,979.92s-7.45-3.47-7.85-10.47"/><circle class="cls-1" cx="641.13" cy="984.71" r="6.57" transform="translate(-295.59 275.31) rotate(-19.79)"/><path class="cls-1" d="M669.11,977.54s14.6,4.33,20.85-9.09"/><circle class="cls-8" cx="663.79" cy="977.39" r="7.97" transform="translate(-512.05 862.03) rotate(-50.21)"/><path class="cls-1" d="M692,988.91s14.6,4.34,20.85-9.08"/><circle class="cls-1" cx="686.73" cy="988.76" r="7.97" transform="translate(-336.4 1623.16) rotate(-87.02)"/><circle class="cls-1" cx="724.68" cy="983.85" r="7.97" transform="matrix(0.34, -0.94, 0.94, 0.34, -445.81, 1334.65)"/><path class="cls-1" d="M697,970s-6.6-4.9-5.58-11.83"/><circle class="cls-8" cx="697.62" cy="975.01" r="6.57" transform="translate(-118.07 96.39) rotate(-7.29)"/><path class="cls-1" d="M735.43,969s-8.13-1.21-10.5-7.8"/><circle class="cls-8" cx="738.34" cy="973.11" r="6.57"/><path class="cls-1" d="M605.85,965.09s-7.35-5-6.56-12.52"/><circle class="cls-8" cx="606.73" cy="970.48" r="7.1" transform="translate(-448.29 526.77) rotate(-35.18)"/><circle class="cls-8" cx="714.34" cy="971.99" r="4.99" transform="translate(-350.65 1538.41) rotate(-81.69)"/><circle class="cls-8" cx="622.11" cy="968.44" r="4.99"/><circle class="cls-8" cx="583.72" cy="971.25" r="6.86" transform="translate(-549.43 966.3) rotate(-58.74)"/><path class="cls-1" d="M666,990.73a5,5,0,1,0,6-3.74A5,5,0,0,0,666,990.73Z"/><circle class="cls-8" cx="645.23" cy="967.62" r="6.57" transform="translate(-456.4 1340.48) rotate(-75)"/><circle class="cls-1" cx="596.63" cy="982.27" r="6.57" transform="translate(-119.8 83.63) rotate(-7.29)"/><circle class="cls-1" cx="655.04" cy="994.13" r="6.57" transform="translate(-474.74 1369.6) rotate(-75)"/><path class="cls-12" d="M762.77,964.2c-.59,22.48-44.92,39.84-101,39.84s-100.4-17.76-101-40.24c28.65,8.42,62.78,13,101,13S734.12,972.62,762.77,964.2Z"/><path class="cls-1" d="M762.77,964.2c-.59,22.48-44.92,39.84-101,39.84s-100.4-17.76-101-40.24c28.65,8.42,62.78,13,101,13S734.12,972.62,762.77,964.2Z"/></g><g id="RECIPES"><path class="cls-1" d="M1050.7,886l6.92-5.38s57.45-9.26,75.28-6.62,15.81,12,15.81,12Z"/><path class="cls-1" d="M1148.71,886s9.43-9.4,42.11-9.73A181,181,0,0,1,1250.1,886Z"/><path class="cls-13" d="M1201.82,1018.66H1092.66L1039.59,886h96.69a2.85,2.85,0,0,1,2.64,1.79l.71,1.77h10.55Z"/><path class="cls-13" d="M1317.57,1018.66h-115.8L1150.08,889.4a2.52,2.52,0,0,1,2.33-3.45H1264.5Z"/><path class="cls-13" d="M1200.81,1022.22h-7a1.71,1.71,0,0,1-1.59-1.09l-1-2.47-51.64-129.15h10.66l52.12,130.35A1.72,1.72,0,0,1,1200.81,1022.22Z"/><line class="cls-1" x1="1153.57" y1="929.32" x2="1137.78" y2="1023.84"/><line class="cls-1" x1="1186.03" y1="1024.63" x2="1091.37" y2="1024.63"/></g><g id="SHELF"><g id="SHELF-2" data-name="SHELF"><polygon class="cls-1" points="342.93 511.71 317.07 511.71 317.07 525.83 342.93 521.47 342.93 511.71"/><line class="cls-1" x1="342.54" y1="555.63" x2="1058.16" y2="555.63"/><rect class="cls-1" x="296.9" y="485.85" width="807.67" height="25.85"/><rect class="cls-1" x="317.07" y="511.71" width="25.85" height="43.93"/><polygon class="cls-1" points="1084.8 511.71 1058.94 511.71 1058.94 525.83 1084.8 521.47 1084.8 511.71"/><rect class="cls-1" x="1058.94" y="511.71" width="25.85" height="43.93"/></g><g id="DISHES"><path class="cls-1" d="M917.34,425.85h120.49a9.38,9.38,0,0,1-9.38,9.38H926.72a9.38,9.38,0,0,1-9.38-9.38Z"/><path class="cls-1" d="M906.24,446.69h142.69a11.11,11.11,0,0,1-11.11,11.11H917.35a11.11,11.11,0,0,1-11.11-11.11Z"/><path class="cls-1" d="M891.05,470.79h173.07a13.47,13.47,0,0,1-13.47,13.47H904.52a13.47,13.47,0,0,1-13.47-13.47Z"/><path class="cls-1" d="M900.71,416.14h153.75a1.62,1.62,0,0,1,.56,3.15l-16.3,5.95H916.45l-16.3-5.95A1.62,1.62,0,0,1,900.71,416.14Z"/><path class="cls-1" d="M916.45,425.24h122.27a9.52,9.52,0,0,1-9.52,9.52H926a9.52,9.52,0,0,1-9.52-9.52Z"/><path class="cls-1" d="M886.54,434.86h182.08a1.93,1.93,0,0,1,.67,3.74l-19.31,7H905.19l-19.31-7A1.93,1.93,0,0,1,886.54,434.86Z"/><path class="cls-1" d="M905.19,445.65H1050a11.28,11.28,0,0,1-11.27,11.27H916.46a11.28,11.28,0,0,1-11.27-11.27Z"/><path class="cls-1" d="M867.16,457H1088a2.34,2.34,0,0,1,.8,4.53l-23.42,8.55H889.78l-23.42-8.55A2.34,2.34,0,0,1,867.16,457Z"/><path class="cls-1" d="M889.78,470.1h175.61a13.67,13.67,0,0,1-13.67,13.67H903.45a13.67,13.67,0,0,1-13.67-13.67Z"/></g><g id="CUPS"><path class="cls-1" d="M655.31,448.9c0,15.71,10.61,28.44,23.69,28.44s23.7-12.73,23.7-28.44Z"/><path class="cls-1" d="M687.53,484.22a6.88,6.88,0,0,0-6.89-6.88h-3.28a6.89,6.89,0,0,0-6.89,6.88Z"/><path class="cls-3" d="M702.52,448.91a6.53,6.53,0,0,1,8.38-2.72,7,7,0,0,1,3.56,9.22c-1.48,3.71-11.15,7.28-15.22,8.5"/><path class="cls-1" d="M722.82,448.9c0,15.71,10.61,28.44,23.69,28.44s23.7-12.73,23.7-28.44Z"/><path class="cls-1" d="M755,484.22a6.88,6.88,0,0,0-6.88-6.88h-3.29a6.88,6.88,0,0,0-6.88,6.88Z"/><path class="cls-3" d="M770,448.91a6.54,6.54,0,0,1,8.38-2.72,7,7,0,0,1,3.56,9.22c-1.48,3.71-11.15,7.28-15.21,8.5"/><path class="cls-1" d="M790.33,448.9c0,15.71,10.61,28.44,23.7,28.44s23.69-12.73,23.69-28.44Z"/><path class="cls-1" d="M822.55,484.22a6.88,6.88,0,0,0-6.88-6.88h-3.29a6.88,6.88,0,0,0-6.88,6.88Z"/><path class="cls-3" d="M837.55,448.91a6.53,6.53,0,0,1,8.38-2.72,7,7,0,0,1,3.56,9.22c-1.49,3.71-11.16,7.28-15.22,8.5"/></g><g id="TEAPOT"><path class="cls-1" d="M600,421.8c3.48-10.13,14.63-16.57,27.11-13.69s20.08,16.09,17,29.52-37.22,29.7-50.41,36"/><path class="cls-1" d="M500.58,470.16c-14,0-19.25-11.07-24.95-25.37-5.46-13.71-13.78-31.47-27.24-37.37h17.46l28.92,19.2Z"/><path class="cls-1" d="M572.87,404.48H524.65c2.37-7.37,12.26-12.9,24.11-12.9S570.5,397.11,572.87,404.48Z"/><circle class="cls-1" cx="549.91" cy="385.49" r="6.09"/><rect class="cls-1" x="490.79" y="404.11" width="116.12" height="79.76" rx="39.88"/><circle class="cls-1" cx="521.93" cy="411.09" r="4.03"/><circle class="cls-1" cx="535.25" cy="411.09" r="4.03"/><path class="cls-1" d="M512.5,411.08a4,4,0,0,1-7.38,2.25,39.68,39.68,0,0,1,6.68-4.5A4,4,0,0,1,512.5,411.08Z"/><circle class="cls-1" cx="548.58" cy="411.09" r="4.03"/><circle class="cls-1" cx="561.9" cy="411.09" r="4.03"/><circle class="cls-1" cx="575.22" cy="411.09" r="4.03"/><path class="cls-1" d="M592.47,413.33a4,4,0,0,1-7.37-2.25,4,4,0,0,1,.69-2.25A39.28,39.28,0,0,1,592.47,413.33Z"/><circle class="cls-1" cx="515.6" cy="421.94" r="4.03"/><circle class="cls-1" cx="528.88" cy="421.94" r="4.03"/><circle class="cls-1" cx="542.16" cy="421.94" r="4.03"/><circle class="cls-1" cx="555.44" cy="421.94" r="4.03"/><circle class="cls-1" cx="568.71" cy="421.94" r="4.03"/><circle class="cls-1" cx="581.99" cy="421.94" r="4.03"/><circle class="cls-1" cx="595.27" cy="421.94" r="4.03"/><circle class="cls-1" cx="502.32" cy="421.94" r="4.03"/><circle class="cls-1" cx="509" cy="432.79" r="4.03"/><circle class="cls-1" cx="522.27" cy="432.79" r="4.03"/><circle class="cls-1" cx="535.55" cy="432.79" r="4.03"/><circle class="cls-1" cx="548.83" cy="432.79" r="4.03"/><circle class="cls-1" cx="562.11" cy="432.79" r="4.03"/><circle class="cls-1" cx="575.39" cy="432.79" r="4.03"/><circle class="cls-1" cx="588.66" cy="432.79" r="4.03"/><circle class="cls-1" cx="601.88" cy="432.79" r="4.03"/><circle class="cls-1" cx="495.72" cy="432.79" r="4.03"/><circle class="cls-1" cx="515.6" cy="443.65" r="4.03"/><circle class="cls-1" cx="528.88" cy="443.65" r="4.03"/><circle class="cls-1" cx="542.16" cy="443.65" r="4.03"/><circle class="cls-1" cx="555.44" cy="443.65" r="4.03"/><circle class="cls-1" cx="568.71" cy="443.65" r="4.03"/><circle class="cls-1" cx="581.99" cy="443.65" r="4.03"/><circle class="cls-1" cx="595.27" cy="443.65" r="4.03"/><circle class="cls-1" cx="502.32" cy="443.65" r="4.03"/><circle class="cls-1" cx="509" cy="454.5" r="4.03"/><circle class="cls-1" cx="522.27" cy="454.5" r="4.03"/><circle class="cls-1" cx="535.55" cy="454.5" r="4.03"/><circle class="cls-1" cx="548.83" cy="454.5" r="4.03"/><circle class="cls-1" cx="562.11" cy="454.5" r="4.03"/><circle class="cls-1" cx="575.39" cy="454.5" r="4.03"/><circle class="cls-1" cx="588.66" cy="454.5" r="4.03"/><circle class="cls-1" cx="601.88" cy="454.5" r="4.03"/><circle class="cls-1" cx="495.72" cy="454.5" r="4.03"/><circle class="cls-1" cx="515.6" cy="465.36" r="4.03"/><circle class="cls-1" cx="528.88" cy="465.36" r="4.03"/><circle class="cls-1" cx="542.16" cy="465.36" r="4.03"/><circle class="cls-1" cx="555.44" cy="465.36" r="4.03"/><circle class="cls-1" cx="568.71" cy="465.36" r="4.03"/><circle class="cls-1" cx="581.99" cy="465.36" r="4.03"/><circle class="cls-1" cx="595.27" cy="465.36" r="4.03"/><circle class="cls-1" cx="502.32" cy="465.36" r="4.03"/><path class="cls-1" d="M513,476.21a4,4,0,0,1-1.25,2.92,40,40,0,0,1-6.52-4.39,4,4,0,0,1,7.77,1.47Z"/><circle class="cls-1" cx="522.24" cy="476.21" r="4.03"/><circle class="cls-1" cx="535.52" cy="476.21" r="4.03"/><circle class="cls-1" cx="548.8" cy="476.21" r="4.03"/><circle class="cls-1" cx="562.07" cy="476.21" r="4.03"/><circle class="cls-1" cx="575.35" cy="476.21" r="4.03"/><path class="cls-1" d="M592.38,474.74a40,40,0,0,1-6.52,4.39,4,4,0,1,1,6.52-4.39Z"/></g><g id="OVEN_MITT" data-name="OVEN MITT"><path class="cls-1" d="M993.07,587.68a9.13,9.13,0,0,0-4.71-2.79l-29.76-6.35-6.43-7-40.8,37.39,36.54,39.87c12.38,13.52,31.52,16.86,43,7.06,6-5.17,8.78-12.86,8.34-21a37.63,37.63,0,0,0-10.12-23l-5.87-6.4c-1.55-1.69-1.2-4.12.66-4.66l8.51-2.5a4.52,4.52,0,0,0,1.56-.94C996.24,595.2,996,590.9,993.07,587.68Z"/><line class="cls-1" x1="958.09" y1="578.24" x2="917.29" y2="615.62"/><line class="cls-1" x1="965.7" y1="579.98" x2="921.64" y2="620.36"/><line class="cls-1" x1="973.98" y1="581.87" x2="926.37" y2="625.49"/><line class="cls-1" x1="981.58" y1="583.58" x2="931.11" y2="629.83"/><line class="cls-1" x1="989.21" y1="585.7" x2="935.45" y2="634.97"/><line class="cls-1" x1="994.26" y1="590.19" x2="939.8" y2="640.1"/><line class="cls-1" x1="985.4" y1="607.79" x2="944.53" y2="645.23"/><line class="cls-1" x1="990.13" y1="612.52" x2="949.27" y2="649.97"/><line class="cls-1" x1="993.66" y1="617.61" x2="953.61" y2="654.31"/><line class="cls-1" x1="996.95" y1="623.19" x2="959.54" y2="657.47"/><line class="cls-1" x1="998.61" y1="630.21" x2="965.85" y2="660.23"/><line class="cls-1" x1="999.24" y1="638.42" x2="974.15" y2="661.42"/><path class="cls-1" d="M946.21,556.15c.1,2.35,4.68,9.52,4.68,9.52s3.93-7.55,3.82-9.9a4.25,4.25,0,0,0-8.5.38Z"/><path class="cls-1" d="M949.49,566.77l-42.44,38.89a1.83,1.83,0,0,0-.11,2.58l3,3.27a1.82,1.82,0,0,0,2.57.11L955,572.73a1.83,1.83,0,0,0,.11-2.58l-3-3.27A1.82,1.82,0,0,0,949.49,566.77Z"/></g><g id="PAPER_TOWELS" data-name="PAPER TOWELS"><rect class="cls-1" x="726.46" y="559.61" width="96.67" height="65.49"/><path class="cls-1" d="M823.13,556.86c0,14.33-6.56,25.94-14.67,25.94s-14.67-11.61-14.67-25.94,6.57-25.93,14.67-25.93S823.13,542.54,823.13,556.86Z"/><path class="cls-1" d="M816,556.86c0,6.23-2.85,11.27-6.37,11.27s-6.38-5-6.38-11.27,2.86-11.27,6.38-11.27S816,550.64,816,556.86Z"/><path class="cls-1" d="M808.46,582.8H711.79c-8.11,0-14.67-11.61-14.67-25.94s6.56-25.93,14.67-25.93h96.67c-8.1,0-14.67,11.61-14.67,25.93S800.36,582.8,808.46,582.8Z"/><line class="cls-1" x1="825.39" y1="555.63" x2="804.26" y2="555.63"/></g><g id="PLANT"><path class="cls-1" d="M343.54,433.27h82.93a0,0,0,0,1,0,0v9.56A41.47,41.47,0,0,1,385,484.29h0a41.47,41.47,0,0,1-41.47-41.47v-9.56a0,0,0,0,1,0,0Z"/><path class="cls-1" d="M380.8,433.27s3.31-59.2,23.44-87.15"/><path class="cls-5" d="M388,386s3.35-25.76,28.29-27.26C416.26,358.74,419.78,386.52,388,386Z"/><path class="cls-5" d="M392.22,370.24s14.12-27.73-7.21-38.54C385,331.7,372.39,357.69,392.22,370.24Z"/><path class="cls-5" d="M337.83,391.78s-1.28-31.08-25.18-30C312.65,361.73,314.39,390.57,337.83,391.78Z"/><path class="cls-5" d="M383,412.29s9.8-31.46-12.13-42.05C370.89,370.24,359.69,401.53,383,412.29Z"/><path class="cls-5" d="M382,424.59s-3.24-29.06,22.27-33.33C404.29,391.26,410,420.34,382,424.59Z"/><path class="cls-5" d="M403.51,347S400.27,318,425.78,313.7C425.78,313.7,431.44,342.78,403.51,347Z"/><line class="cls-1" x1="337.23" y1="391.26" x2="368.2" y2="433.27"/><path class="cls-5" d="M352,411.29s-14.47-18.67-6.36-38.92C345.64,372.37,363.46,386,352,411.29Z"/><path class="cls-5" d="M354.36,414.49s-17.13,11.56-33.35-9.78C321,404.71,340.51,395.71,354.36,414.49Z"/><path class="cls-5" d="M368.2,433.16S354.6,446,337,429.32C337,429.32,353.08,418.41,368.2,433.16Z"/><path class="cls-5" d="M368.2,433.27s-12.64-14.43-3.62-29.16C364.58,404.11,379.05,418.52,368.2,433.27Z"/><path class="cls-5" d="M404.24,433.23s3.61-21.3,22.87-23.91C427.11,409.32,430.38,433.23,404.24,433.23Z"/></g></g><g id="CAKE"><g id="CAKE-2" data-name="CAKE"><path class="cls-1" d="M817.79,775.45h186.13a20,20,0,0,1,20,20v64.6a0,0,0,0,1,0,0H797.78a0,0,0,0,1,0,0v-64.6A20,20,0,0,1,817.79,775.45Z"/><path class="cls-1" d="M985.45,741.29v34.16H839.85V741.29a15.93,15.93,0,0,1,15.94-15.94H969.51a15.93,15.93,0,0,1,15.88,14.58C985.43,740.38,985.45,740.83,985.45,741.29Z"/><path class="cls-5" d="M1014.05,777.81v21.76a13.72,13.72,0,1,1-27.44,0V797a14,14,0,0,0-27.92,0v30.67a16.06,16.06,0,0,1-32.12,0V808a10.09,10.09,0,0,0-10.09-10.09h-.31a9.79,9.79,0,0,0-9.79,9.79v10.62a12.44,12.44,0,1,1-24.87,0V792.76c0-5.56-4.51-9.29-10.07-9.29h-.3c-5.39,0-9.76,3.6-9.76,9V812a10.19,10.19,0,0,1-10.19,10.18h-.31a9.88,9.88,0,0,1-9.88-9.88v-4.14a14.5,14.5,0,1,0-29,0v11.51a13.06,13.06,0,0,1-13.06,13.06V794a17.41,17.41,0,0,1,17.41-17.41h191.32A17.28,17.28,0,0,1,1014.05,777.81Z"/><path class="cls-1" d="M862.23,845.84s15.49-2.57,13-17.16"/><circle class="cls-8" cx="858.79" cy="850.91" r="7.97" transform="translate(-26.47 1674.25) rotate(-87.66)"/><path class="cls-1" d="M881.58,847.61s-7.12-4.12-6.89-11.12"/><circle class="cls-8" cx="882.76" cy="852.53" r="6.57" transform="translate(-335.58 705.19) rotate(-37.11)"/><path class="cls-1" d="M1022.81,832.33a3.36,3.36,0,0,1-3.36-3.36V825a3.36,3.36,0,0,1,6.71,0V829A3.35,3.35,0,0,1,1022.81,832.33Z"/><path class="cls-1" d="M978.24,805.27a3.94,3.94,0,0,1-4-3.94v-3.94a4,4,0,0,1,7.9,0v3.94A3.94,3.94,0,0,1,978.24,805.27Z"/><path class="cls-1" d="M807.52,847.93a3.94,3.94,0,0,1-3.95-3.94v-3.94a3.95,3.95,0,1,1,7.89,0V844A3.93,3.93,0,0,1,807.52,847.93Z"/><path class="cls-5" d="M839.85,739.93a7.72,7.72,0,0,0,2.66,4.86,9.92,9.92,0,0,0,6.56,2.4c5.14,0,9.29-3.66,9.29-8.17v-1.53a7.81,7.81,0,0,1,2.77-5.87,10.07,10.07,0,0,1,6.68-2.44c5.22,0,9.45,3.72,9.45,8.31v18.25a9,9,0,0,0,3.18,6.76,11.65,11.65,0,0,0,7.69,2.8c6,0,10.87-4.28,10.87-9.55v-11.7c0-3.32,3.06-6,6.84-6h.2c3.66,0,6.63,2.61,6.63,5.83v6.33a7,7,0,0,0,2.46,5.23,9,9,0,0,0,6,2.17c4.64,0,8.41-3.31,8.41-7.4V735c0-3.31,3.06-5.53,6.82-5.53h.2c3.65,0,6.61,2.15,6.61,5.36v11.6c0,3.35,3.09,6.06,6.9,6.06h.2c3.7,0,6.69-2.63,6.69-5.88v-2.46A8.13,8.13,0,0,1,959.8,738a10.48,10.48,0,0,1,6.93-2.52c5.43,0,9.82,3.86,9.82,8.63V751a7.3,7.3,0,0,0,2.59,5.49,9.44,9.44,0,0,0,6.25,2.28V741.29a15.93,15.93,0,0,0-15.94-15.94H855.73A15.93,15.93,0,0,0,839.85,739.93Z"/><path class="cls-1" d="M952.42,763s13.51-2.23,11.34-14.95"/><circle class="cls-8" cx="949.42" cy="767.45" r="6.95"/><path class="cls-1" d="M969.29,764.57s-6.2-3.59-6-9.69"/><path class="cls-8" d="M964.62,768.21a5.73,5.73,0,1,0,6.34-5.05A5.73,5.73,0,0,0,964.62,768.21Z"/><path class="cls-5" d="M1053.84,618.44a46.46,46.46,0,0,0-11.72,5.32c-10,6.24-12.47,17.58-14.52,28.71-2.33,12.68-1.77,47.24-1.27,61.37.59,16.41,1.05,29.37-2.52,36a7.63,7.63,0,0,1-6.8,3.94H1010c-.56,0-.92.33-.92.54v1.32c0,.21.36.53.92.53h1.22a7.26,7.26,0,1,1,0,14.5H997.55c-.56,0-.93.33-.93.54v.24c0,.21.37.54.93.54h12a17.68,17.68,0,0,1,17.66,17.66V811a3.36,3.36,0,1,1-6.71,0V789.69a11,11,0,0,0-11-11h-12a7.46,7.46,0,0,1-7.64-7.25v-.24a7.46,7.46,0,0,1,7.64-7.25h13.62c.56,0,.93-.32.93-.54s-.37-.53-.93-.53H1010a7.47,7.47,0,0,1-7.64-7.25v-1.32a7.46,7.46,0,0,1,7.64-7.25H1017a1,1,0,0,0,.88-.39c2.72-5.08,2.24-18.47,1.74-32.64-.52-14.47-1.1-49.42,1.37-62.82,3-16,9.91-27,17.13-30.42C1047.89,616.28,1053.84,618.44,1053.84,618.44Z"/></g><g id="STAND"><path class="cls-1" d="M873.68,946.58h63.08a11.78,11.78,0,0,1,11.78,11.78V961a0,0,0,0,1,0,0H861.9a0,0,0,0,1,0,0v-2.6A11.78,11.78,0,0,1,873.68,946.58Z"/><path class="cls-1" d="M872.15,946.58h0A12.56,12.56,0,0,0,884.71,934V892.75a12.56,12.56,0,0,0-12.56-12.56H938.3a12.56,12.56,0,0,0-12.56,12.56V934a12.56,12.56,0,0,0,12.56,12.56H872.15Z"/><path class="cls-1" d="M925.74,890.38c-.12-4.43,5.62-10.19,12.56-10.19H872.15a12.56,12.56,0,0,1,12.56,12.56v9.69Z"/><path class="cls-1" d="M872.15,946.58h0A12.56,12.56,0,0,0,884.71,934V892.75a12.56,12.56,0,0,0-12.56-12.56H938.3a12.56,12.56,0,0,0-12.56,12.56V934a12.56,12.56,0,0,0,12.56,12.56H872.15Z"/><path class="cls-1" d="M1022.93,880.19H787.52a21.94,21.94,0,0,1-20.61-14.86l-1.84-5.27h280.31l-1.84,5.27A21.94,21.94,0,0,1,1022.93,880.19Z"/></g></g><path class="cls-3" d="M1574.87,330.36s39.9,154.18,97.57,262"/><line class="cls-3" x1="1672.44" y1="423.75" x2="1696.54" y2="589.19"/></g></svg>