<svg xmlns="http://www.w3.org/2000/svg" viewBox="0 0 700 700"><defs><style>.cls-1,.cls-4{fill:#f7f3ef;}.cls-2{fill:none;}.cls-2,.cls-3,.cls-4{stroke:#070707;}.cls-2,.cls-3,.cls-4,.cls-5{stroke-linecap:round;stroke-linejoin:round;stroke-width:4px;}.cls-3{fill:#e57b07;}.cls-5{fill:#efaf00;stroke:#000;}</style></defs><g id="Layer_2" data-name="Layer 2"><rect class="cls-1" x="-3676.76" y="-1552.83" width="7197.02" height="2279.9"/></g><g id="Chars"><path class="cls-2" d="M347.78,258.21s20.28-33.67,52.45-23.45"/><path class="cls-2" d="M359.71,243.71s13-.83,10.16,5.58c-1.78,4.05-18,1.41-18,1.41s.55-17.8,7.68-17.65C365.24,233.16,359.71,243.71,359.71,243.71Z"/><path class="cls-2" d="M369.49,236.84s11.87,1.31,7.57,5.11c-2.18,1.93-15.59.35-15.59.35s6-15.84,11.81-16.33S369.49,236.84,369.49,236.84Z"/><path class="cls-2" d="M384.89,232.67s9.26,3.16,6.05,6.22c-1.56,1.48-14.11-4.44-14.11-4.44s5.67-10.22,11.18-8.57C391.65,227,384.89,232.67,384.89,232.67Z"/><path class="cls-2" d="M389,232.56s20.38-5.53,19.3,3C407.53,241.93,389,232.56,389,232.56Z"/><path class="cls-2" d="M344,274.73s3.5-38.61-29.1-47.49"/><path class="cls-2" d="M338.93,245.47s-10.55-5.29-9.3.14c.64,2.77,12.62,8.67,12.62,8.67s4.53-16.29.08-19.79S338.93,245.47,338.93,245.47Z"/><path class="cls-2" d="M328.75,233.76s-9.51-2.37-8.7,1.87c.39,2.06,14.27,3.93,14.27,3.93s1.47-11.46-4.06-13.06C326.61,225.44,328.75,233.76,328.75,233.76Z"/><path class="cls-2" d="M325.4,231.45s-13.45-15.51-17.66-7.94C304.56,229.22,325.4,231.45,325.4,231.45Z"/><path class="cls-2" d="M342.11,256.25s19.76-36.65-5.77-57.78"/><path class="cls-2" d="M349,223.77s-6.22-8.17-7.53-2.76c-.66,2.76,7.52,12.91,7.52,12.91s11.18-11,7.32-18.34C353.69,210.68,349,223.77,349,223.77Z"/><path class="cls-2" d="M346,210s-7.54-6-8.73-1.81c-.57,2,11.16,9.28,11.16,9.28s6.5-9.76,2.21-13.43C347.78,201.56,346,210,346,210Z"/><path class="cls-2" d="M344,206.51s-5.19-19.43-12.41-14.28C326.11,196.11,344,206.51,344,206.51Z"/><path class="cls-3" d="M276.27,465.3h0a7.63,7.63,0,0,1-5.54-9l43.86-186.2c2.71-11.05,14.77-17.61,26.27-14.28l5.81,1.69c11.5,3.33,17.62,15.16,13.32,25.76L286.16,460.8A8.22,8.22,0,0,1,276.27,465.3Z"/><path class="cls-2" d="M416.18,288.27s20.28-33.66,52.44-23.45"/><path class="cls-2" d="M428.1,273.77s13-.83,10.16,5.59c-1.78,4-18,1.41-18,1.41s.54-17.8,7.67-17.66C433.63,263.23,428.1,273.77,428.1,273.77Z"/><path class="cls-2" d="M437.89,266.9s11.86,1.32,7.56,5.11c-2.18,1.93-15.58.35-15.58.35s6-15.84,11.8-16.33S437.89,266.9,437.89,266.9Z"/><path class="cls-2" d="M453.29,262.73s9.25,3.16,6,6.22c-1.55,1.49-14.1-4.44-14.1-4.44s5.66-10.22,11.17-8.57C460.05,257,453.29,262.73,453.29,262.73Z"/><path class="cls-2" d="M457.44,262.63s20.37-5.54,19.3,3C475.93,272,457.44,262.63,457.44,262.63Z"/><path class="cls-2" d="M412.37,304.8s3.51-38.62-29.1-47.49"/><path class="cls-2" d="M407.32,275.54s-10.55-5.3-9.29.14c.64,2.76,12.62,8.66,12.62,8.66s4.52-16.29.08-19.78S407.32,275.54,407.32,275.54Z"/><path class="cls-2" d="M397.15,263.83s-9.51-2.37-8.71,1.87c.39,2.06,14.27,3.92,14.27,3.92s1.47-11.45-4.06-13.06C395,255.5,397.15,263.83,397.15,263.83Z"/><path class="cls-2" d="M393.8,261.51s-13.46-15.51-17.67-7.94C373,259.28,393.8,261.51,393.8,261.51Z"/><path class="cls-2" d="M410.5,286.31s19.76-36.64-5.76-57.77"/><path class="cls-2" d="M417.35,253.83s-6.22-8.17-7.53-2.75c-.67,2.75,7.52,12.91,7.52,12.91s11.17-11,7.31-18.35C422.09,240.74,417.35,253.83,417.35,253.83Z"/><path class="cls-2" d="M414.36,240s-7.54-6-8.72-1.81c-.58,2,11.15,9.29,11.15,9.29s6.5-9.77,2.21-13.44C416.17,231.62,414.36,240,414.36,240Z"/><path class="cls-2" d="M412.37,236.57s-5.19-19.43-12.41-14.28C394.51,226.18,412.37,236.57,412.37,236.57Z"/><path class="cls-3" d="M344.66,495.36h0a7.61,7.61,0,0,1-5.53-9L383,300.19c2.71-11.05,14.77-17.61,26.27-14.27l5.82,1.69c11.5,3.33,17.61,15.16,13.31,25.75l-73.83,177.5A8.21,8.21,0,0,1,344.66,495.36Z"/><rect class="cls-4" x="238.62" y="241.29" width="5.32" height="299.95" transform="translate(-156 160.02) rotate(-28.14)"/><rect class="cls-4" x="246.71" y="236.96" width="5.32" height="299.95" transform="translate(-153 163.33) rotate(-28.14)"/><rect class="cls-4" x="262.9" y="228.3" width="5.32" height="299.95" transform="translate(-147.01 169.94) rotate(-28.14)"/><rect class="cls-4" x="279.08" y="219.64" width="5.32" height="299.95" transform="translate(-141.01 176.55) rotate(-28.14)"/><rect class="cls-4" x="254.8" y="232.63" width="5.32" height="299.95" transform="translate(-150 166.63) rotate(-28.14)"/><rect class="cls-4" x="270.99" y="223.97" width="5.32" height="299.95" transform="translate(-144.01 173.24) rotate(-28.14)"/><rect class="cls-4" x="287.18" y="215.32" width="5.32" height="299.95" transform="translate(-138.01 179.86) rotate(-28.14)"/><rect class="cls-4" x="299.32" y="234.79" width="5.32" height="299.95" transform="translate(-145.76 187.88) rotate(-28.14)"/><rect class="cls-4" x="307.41" y="230.46" width="5.32" height="299.95" transform="translate(-142.77 191.19) rotate(-28.14)"/><rect class="cls-4" x="315.5" y="226.14" width="5.32" height="299.95" transform="translate(-139.77 194.49) rotate(-28.14)"/><rect class="cls-4" x="323.6" y="221.81" width="5.32" height="299.95" transform="translate(-136.77 197.8) rotate(-28.14)"/><g id="POT"><path class="cls-4" d="M174.1,302.36H483.3a0,0,0,0,1,0,0V531a43.3,43.3,0,0,1-43.3,43.3H217.4A43.3,43.3,0,0,1,174.1,531V302.36a0,0,0,0,1,0,0Z"/><path class="cls-4" d="M483.3,325h36.07l38.8-24.12a6,6,0,0,0,1.93-6.9h0c-1.65-4.17-7.33-5.51-11-2.6l-34.8,20.91h-31Z"/><path class="cls-4" d="M174.08,325H138L99.2,300.85a6,6,0,0,1-1.93-6.9h0c1.65-4.17,7.34-5.51,11-2.6L143,312.26h31Z"/><path class="cls-4" d="M483.3,234.8,195.63,121.44c21.71-14.21,86.64-5.72,157.44,22.17S477.12,209.6,483.3,234.8Z"/><path class="cls-4" d="M386.82,127.21l-44.1-17.38c-4.27-1.68-8.76,1.12-8.63,5.4l.65,21.26,39.73,15.66,15-15.11C392.46,134,391.09,128.89,386.82,127.21Z"/></g><g id="SAUCES"><path class="cls-4" d="M627.86,322.46h-5.59a6.87,6.87,0,0,1,.71,3v5.11a4.66,4.66,0,0,1-4.65,4.66H590.06a4.66,4.66,0,0,1-4.66-4.66V325.5a6.87,6.87,0,0,1,.71-3h-5.83v-9.77a6.85,6.85,0,0,1,6.85-6.86H621a6.85,6.85,0,0,1,6.86,6.86Z"/><path class="cls-4" d="M650.18,454.11l-5.85,86.07a14.29,14.29,0,0,1-14.07,13.51H577.88a14.28,14.28,0,0,1-14.07-13.51L558,454.11Z"/><path class="cls-3" d="M660.83,429.4l-8.32,118.86A17,17,0,0,1,635.59,564h-63a17,17,0,0,1-16.92-15.78L547.31,429.4a27.68,27.68,0,0,1,11.54-24.5,31.8,31.8,0,0,0,13.66-26.06l-.36-44.67a11.21,11.21,0,0,1,11.2-11.71h41.43A11.21,11.21,0,0,1,636,334.17l-.37,44.67a31.85,31.85,0,0,0,13.67,26.06A27.7,27.7,0,0,1,660.83,429.4Z"/><path class="cls-4" d="M633.18,501.53c-.89,5-13.63,11.19-29.2,11.19s-28.31-6.24-29.21-11.19l.12-62.57c1.6-4.74,14-10.71,29.09-10.71s27.49,6,29.09,10.71Z"/><path class="cls-4" d="M85.09,405.72v2.14a4.44,4.44,0,0,0,4.43,4.44h0V419a4.61,4.61,0,0,0,4.61,4.6H103a4.6,4.6,0,0,0,4.61-4.6V412.3h0a4.43,4.43,0,0,0,4.43-4.44v-2.14a4.43,4.43,0,0,0-4.43-4.43H89.52A4.44,4.44,0,0,0,85.09,405.72Z"/><path class="cls-4" d="M54.58,520.08c0,11.37,6.88,28.68,13.17,38.86a7.94,7.94,0,0,0,6.76,3.78h44.66a8,8,0,0,0,6.82-3.87c6.27-10.48,13.15-29,13.15-40.37,0-22.8-10.36-39.74-28.07-46.6V427l9.62-14.72h-38v59.58C64.94,478.74,54.58,497.29,54.58,520.08Z"/><path class="cls-2" d="M82.66,423.64H70a12.47,12.47,0,0,0-11.71,16.72L71.94,478"/><path class="cls-4" d="M61.27,520.42c0,9.57,5.8,24.14,11.09,32.71a6.68,6.68,0,0,0,5.69,3.18h37.59a6.71,6.71,0,0,0,5.74-3.26c5.28-8.82,11.07-24.42,11.07-34a51.69,51.69,0,0,0-2.68-17H64.3A54.08,54.08,0,0,0,61.27,520.42Z"/><path class="cls-4" d="M558.46,450.07V558.3a5.22,5.22,0,0,1-5.23,5.22H512a5.21,5.21,0,0,1-5.22-5.22V450.07a15.63,15.63,0,0,1,12.67-15.37V408.88h26.34V434.7A15.64,15.64,0,0,1,558.46,450.07Z"/><path class="cls-5" d="M550.87,465.63v85.65c0,3.14-2.23,5.68-5,5.68H519.34c-2.75,0-5-2.54-5-5.68V465.63Z"/><rect class="cls-4" x="513.56" y="404.84" width="38.12" height="8.38" rx="2.4"/></g></g></svg>