<svg width="1920" height="1080" viewBox="0 0 1920 1080" fill="none" xmlns="http://www.w3.org/2000/svg">
<g clip-path="url(#clip0_70:3)">
<rect width="1920" height="1080" fill="#F5E6D5"/>
<path d="M0 1080L-0.5 363.5L1871 1080H0Z" fill="#F9B686"/>
<path d="M1401.03 477.534C1435.26 721.387 1265.32 946.811 1021.47 981.034C777.613 1015.26 552.189 845.318 517.966 601.466C483.743 357.613 653.682 132.189 897.534 97.9658C1141.39 63.7431 1366.81 233.682 1401.03 477.534Z" fill="url(#paint0_radial_70:3)"/>
<path d="M1348.44 484.163C1378.64 699.334 1228.69 898.245 1013.52 928.443C798.347 958.64 599.436 808.689 569.239 593.518C539.041 378.347 688.992 179.436 904.163 149.238C1119.33 119.041 1318.25 268.992 1348.44 484.163Z" fill="url(#paint1_radial_70:3)"/>
<path fill-rule="evenodd" clip-rule="evenodd" d="M784.514 296.32C781.1 290.32 773.468 288.224 767.468 291.638C740.461 307.007 705.983 337.507 683.343 371.017C672.002 387.803 663.078 406.149 660.033 424.396C656.931 442.989 659.935 461.839 672.942 477.876C680.688 487.426 689.725 493.708 700.137 495.864C710.464 498.003 720.358 495.712 729.167 491.574C746.093 483.625 762.589 467.061 777.245 451.515C780.146 448.438 782.993 445.381 785.793 442.373C797.952 429.316 809.23 417.204 820.172 408.603C834.11 397.648 842.167 396.596 847.846 399.573C858.9 405.368 863.505 411.508 865.004 416.678C866.481 421.773 865.764 428.773 860.003 438.142C848.119 457.467 818.068 481.178 768.402 504.158C715.168 528.788 665.266 583.519 653.564 644.263C647.633 675.048 651.551 707.426 669.956 737.591C688.267 767.601 720.264 794.37 768.656 815.461C840.996 846.989 930.308 849.824 1020.24 803.543C1109.96 757.369 1199.24 662.895 1273.5 501.734C1276.39 495.464 1273.65 488.039 1267.38 485.15C1261.11 482.26 1253.69 485.001 1250.8 491.271C1178.06 649.109 1092.08 738.454 1008.8 781.314C925.724 824.067 844.287 821.152 778.645 792.543C733.537 772.884 706.221 749.028 691.298 724.57C676.469 700.266 673.231 674.331 678.112 648.992C688.035 597.485 731.633 548.716 778.899 526.847C829.733 503.327 865.432 477.038 881.298 451.238C889.411 438.044 893.07 423.7 889.015 409.717C884.983 395.809 874.151 385.136 859.454 377.431C839.383 366.909 819.628 377.232 804.723 388.948C792.093 398.876 779.11 412.836 766.908 425.958C764.249 428.817 761.628 431.636 759.055 434.365C743.837 450.506 730.458 463.348 718.54 468.946C712.927 471.582 708.657 472.099 705.207 471.384C701.841 470.687 697.488 468.453 692.359 462.128C684.765 452.765 682.511 441.582 684.692 428.511C686.931 415.095 693.832 400.147 704.058 385.013C724.551 354.681 756.174 326.83 779.833 313.366C785.833 309.952 787.929 302.32 784.514 296.32Z" fill="url(#paint2_linear_70:3)" stroke="#E8BE8A" stroke-width="4.51539" stroke-linecap="round"/>
<path fill-rule="evenodd" clip-rule="evenodd" d="M1141.14 260.32C1144.55 254.32 1152.19 252.224 1158.19 255.638C1185.19 271.007 1219.67 301.507 1242.31 335.017C1253.65 351.803 1262.58 370.149 1265.62 388.396C1268.72 406.989 1265.72 425.839 1252.71 441.876C1244.97 451.426 1235.93 457.708 1225.52 459.864C1215.19 462.003 1205.3 459.712 1196.49 455.574C1179.56 447.625 1163.06 431.061 1148.41 415.515C1145.51 412.438 1142.66 409.381 1139.86 406.373C1127.7 393.316 1116.42 381.204 1105.48 372.603C1091.54 361.648 1083.49 360.596 1077.81 363.573C1066.75 369.368 1062.15 375.508 1060.65 380.678C1059.17 385.773 1059.89 392.773 1065.65 402.142C1077.53 421.467 1107.59 445.178 1157.25 468.158C1210.49 492.788 1260.39 547.519 1272.09 608.263C1278.02 639.048 1274.1 671.426 1255.7 701.591C1237.39 731.601 1205.39 758.37 1157 779.461C1084.66 810.989 995.345 813.824 905.415 767.543C815.693 721.369 726.416 626.895 652.15 465.734C649.261 459.464 652.002 452.039 658.272 449.15C664.541 446.26 671.966 449.001 674.856 455.271C747.59 613.109 833.572 702.454 916.855 745.314C999.929 788.067 1081.37 785.152 1147.01 756.543C1192.12 736.884 1219.43 713.028 1234.36 688.57C1249.18 664.266 1252.42 638.331 1247.54 612.992C1237.62 561.485 1194.02 512.716 1146.75 490.847C1095.92 467.327 1060.22 441.038 1044.36 415.238C1036.24 402.044 1032.58 387.7 1036.64 373.717C1040.67 359.809 1051.5 349.136 1066.2 341.431C1086.27 330.909 1106.02 341.232 1120.93 352.948C1133.56 362.876 1146.54 376.836 1158.75 389.958C1161.4 392.817 1164.03 395.636 1166.6 398.365C1181.82 414.506 1195.2 427.348 1207.11 432.946C1212.73 435.582 1217 436.099 1220.45 435.384C1223.81 434.687 1228.17 432.453 1233.29 426.128C1240.89 416.765 1243.14 405.582 1240.96 392.511C1238.72 379.095 1231.82 364.147 1221.6 349.013C1201.1 318.681 1169.48 290.83 1145.82 277.366C1139.82 273.952 1137.72 266.32 1141.14 260.32Z" fill="url(#paint3_linear_70:3)" stroke="#E8BE8A" stroke-width="4.51539" stroke-linecap="round"/>
<path fill-rule="evenodd" clip-rule="evenodd" d="M1014.56 554.173C1021.37 555.31 1025.97 561.752 1024.83 568.562C1022.36 583.332 1020.96 601.084 1019.41 620.598C1019.18 623.59 1018.94 626.624 1018.69 629.695C1016.85 652.434 1014.62 676.873 1010.07 699.468C1005.55 721.932 998.528 743.766 986.412 760.71C973.933 778.162 956.154 790.208 931.64 792.45C918.819 793.623 906.483 789.246 895.661 782.917C884.763 776.545 874.398 767.613 865.09 758.057C846.472 738.944 830.665 715.85 821.761 700.897C818.23 694.965 820.175 687.293 826.107 683.761C832.039 680.23 839.711 682.175 843.242 688.107C851.506 701.987 866.171 723.338 882.998 740.613C891.413 749.252 900.013 756.501 908.281 761.337C916.626 766.217 923.658 768.076 929.363 767.554C945.85 766.046 957.342 758.383 966.076 746.169C975.173 733.447 981.31 715.655 985.56 694.536C989.784 673.548 991.932 650.445 993.769 627.684C994.01 624.699 994.246 621.713 994.481 618.735C996.011 599.369 997.511 580.374 1000.17 564.442C1001.31 557.633 1007.75 553.035 1014.56 554.173Z" fill="url(#paint4_linear_70:3)" stroke="#E8BE8A" stroke-width="4.51539" stroke-linecap="round"/>
<path fill-rule="evenodd" clip-rule="evenodd" d="M871.562 247.173C878.371 248.31 882.969 254.752 881.831 261.562C879.364 276.332 877.958 294.084 876.413 313.598C876.176 316.59 875.936 319.624 875.688 322.695C873.853 345.434 871.616 369.873 867.069 392.468C862.548 414.932 855.528 436.766 843.412 453.71C830.933 471.162 813.154 483.208 788.64 485.45C775.819 486.623 763.483 482.246 752.661 475.917C741.763 469.545 731.398 460.613 722.09 451.057C703.472 431.944 687.665 408.85 678.761 393.897C675.23 387.965 677.175 380.293 683.107 376.761C689.039 373.23 696.711 375.175 700.242 381.107C708.506 394.987 723.171 416.338 739.998 433.613C748.413 442.252 757.013 449.501 765.281 454.337C773.626 459.217 780.658 461.076 786.363 460.554C802.85 459.046 814.342 451.383 823.076 439.169C832.173 426.447 838.31 408.655 842.56 387.536C846.784 366.548 848.932 343.445 850.769 320.684C851.01 317.699 851.246 314.713 851.481 311.735C853.011 292.369 854.511 273.374 857.173 257.442C858.31 250.633 864.752 246.035 871.562 247.173Z" fill="url(#paint5_linear_70:3)" stroke="#E8BE8A" stroke-width="4.51539" stroke-linecap="round"/>
<path fill-rule="evenodd" clip-rule="evenodd" d="M960.562 510.173C967.371 511.31 971.969 517.752 970.831 524.562C968.364 539.332 966.958 557.084 965.413 576.598C965.176 579.59 964.936 582.624 964.688 585.695C962.853 608.434 960.616 632.873 956.069 655.468C951.548 677.932 944.528 699.766 932.412 716.71C919.933 734.162 902.154 746.208 877.64 748.45C864.819 749.623 852.483 745.246 841.661 738.917C830.763 732.545 820.398 723.613 811.09 714.057C792.472 694.944 776.665 671.85 767.761 656.897C764.23 650.965 766.175 643.293 772.107 639.761C778.039 636.23 785.711 638.175 789.242 644.107C797.506 657.987 812.171 679.338 828.998 696.613C837.413 705.252 846.013 712.501 854.281 717.337C862.626 722.217 869.658 724.076 875.363 723.554C891.85 722.046 903.342 714.383 912.076 702.169C921.173 689.447 927.31 671.655 931.56 650.536C935.784 629.548 937.932 606.445 939.769 583.684C940.01 580.699 940.246 577.713 940.481 574.735C942.011 555.369 943.511 536.374 946.173 520.442C947.31 513.633 953.752 509.035 960.562 510.173Z" fill="url(#paint6_linear_70:3)" stroke="#E8BE8A" stroke-width="4.51539" stroke-linecap="round"/>
<path fill-rule="evenodd" clip-rule="evenodd" d="M1059.88 253.822C905.909 207.298 786.672 307.586 691.991 395.217C686.924 399.907 679.016 399.601 674.326 394.534C669.637 389.468 669.943 381.559 675.009 376.87C768.328 290.5 897.878 178.755 1067.12 229.891C1139.75 251.837 1181.51 289.881 1213.4 337.633C1229.13 361.201 1242.44 387.084 1255.82 414.07C1258 418.466 1260.19 422.893 1262.38 427.348C1273.76 450.42 1285.53 474.283 1299.39 498.91C1302.78 504.926 1300.65 512.548 1294.63 515.935C1288.62 519.322 1280.99 517.191 1277.61 511.176C1263.38 485.899 1251.27 461.336 1239.89 438.261C1237.71 433.843 1235.56 429.48 1233.43 425.177C1220.06 398.221 1207.37 373.621 1192.6 351.517C1163.49 307.925 1126.25 273.876 1059.88 253.822Z" fill="url(#paint7_linear_70:3)" stroke="#E8BE8A" stroke-width="4.51539" stroke-linecap="round"/>
<path fill-rule="evenodd" clip-rule="evenodd" d="M1231.86 481.876C1210.24 471.534 1185.29 470.132 1162.45 485.217C1129.15 507.215 1111.83 547.683 1105.65 593.306C1099.5 638.687 1104.77 686.655 1114.1 719.914C1115.97 726.561 1112.09 733.461 1105.44 735.326C1098.8 737.191 1091.9 733.315 1090.03 726.668C1079.86 690.424 1074.23 639.01 1080.88 589.949C1087.49 541.131 1106.68 492.098 1148.67 464.357C1180.34 443.442 1214.88 446.041 1242.65 459.324C1269.94 472.385 1292.22 496.433 1300.44 521.376C1302.6 527.933 1299.03 535 1292.48 537.16C1285.92 539.32 1278.85 535.756 1276.69 529.199C1270.91 511.642 1253.94 492.441 1231.86 481.876Z" fill="url(#paint8_linear_70:3)" stroke="#E8BE8A" stroke-width="4.51539" stroke-linecap="round"/>
<path fill-rule="evenodd" clip-rule="evenodd" d="M1180.05 523.173C1187.19 524.312 1192.01 530.764 1190.82 537.584C1188.23 552.376 1186.76 570.155 1185.14 589.699C1184.89 592.695 1184.64 595.734 1184.38 598.809C1182.45 621.583 1180.11 646.058 1175.34 668.687C1170.6 691.185 1163.23 713.052 1150.53 730.022C1137.44 747.5 1118.79 759.564 1093.08 761.809C1079.64 762.984 1066.7 758.6 1055.35 752.262C1043.92 745.88 1033.05 736.935 1023.29 727.365C1003.76 708.223 987.185 685.094 977.847 670.118C974.143 664.177 976.184 656.494 982.405 652.957C988.626 649.42 996.672 651.369 1000.38 657.309C1009.04 671.21 1024.42 692.593 1042.07 709.895C1050.9 718.547 1059.91 725.806 1068.59 730.649C1077.34 735.536 1084.71 737.398 1090.7 736.876C1107.99 735.366 1120.04 727.691 1129.2 715.458C1138.74 702.717 1145.18 684.899 1149.63 663.748C1154.06 642.728 1156.32 619.59 1158.24 596.795C1158.49 593.805 1158.74 590.815 1158.99 587.833C1160.59 568.437 1162.17 549.414 1164.96 533.458C1166.15 526.639 1172.91 522.034 1180.05 523.173Z" fill="url(#paint9_linear_70:3)" stroke="#E8BE8A" stroke-width="4.51539" stroke-linecap="round"/>
<path fill-rule="evenodd" clip-rule="evenodd" d="M1116.33 312.535C1137.15 325.463 1150.39 344.969 1155.74 353.798C1159.32 359.701 1157.44 367.388 1151.53 370.967C1145.63 374.546 1137.94 372.662 1134.36 366.759C1129.71 359.087 1118.95 343.593 1103.14 333.772C1088.19 324.487 1068.35 319.889 1042.47 333.791C1036.9 336.781 1029.12 343.454 1019.81 354.141C1010.69 364.61 1000.75 378.167 990.76 393.983C970.771 425.628 951 465.61 937.278 506.537C923.497 547.643 916.168 588.666 920.02 622.775C923.816 656.389 938.218 682.283 967.521 696.538C986.286 705.668 1005.42 703.86 1025.67 693.782C1046.35 683.494 1067.3 664.939 1087.83 642.245C1108.25 619.673 1127.52 593.845 1145.08 569.749C1147.47 566.466 1149.84 563.204 1152.18 559.98C1166.77 539.897 1180.27 521.31 1191.72 508.46C1214.25 483.192 1237.04 474.918 1257.01 476.244C1276.19 477.518 1290.53 487.528 1297.24 494.8C1301.92 499.873 1301.61 507.781 1296.53 512.464C1291.46 517.146 1283.55 516.83 1278.87 511.757C1275.58 508.196 1266.92 501.957 1255.35 501.189C1244.57 500.473 1228.86 504.364 1210.39 525.095C1199.84 536.928 1187.21 554.303 1172.5 574.555C1170.15 577.792 1167.74 581.102 1165.28 584.475C1147.7 608.593 1127.76 635.373 1106.37 659.017C1085.09 682.539 1061.64 703.808 1036.81 716.164C1011.55 728.731 984.068 732.39 956.584 719.019C917.637 700.072 899.664 665.301 895.178 625.58C890.748 586.354 899.232 541.371 913.575 498.59C927.978 455.631 948.644 413.846 969.624 380.632C980.118 364.02 990.801 349.375 1000.96 337.718C1010.92 326.279 1021.08 316.902 1030.64 311.768C1065.26 293.169 1094.66 299.07 1116.33 312.535Z" fill="url(#paint10_linear_70:3)" stroke="#E8BE8A" stroke-width="4.51539" stroke-linecap="round"/>
<path fill-rule="evenodd" clip-rule="evenodd" d="M996.333 282.535C1017.15 295.463 1030.39 314.969 1035.74 323.798C1039.32 329.701 1037.44 337.388 1031.53 340.967C1025.63 344.546 1017.94 342.662 1014.36 336.759C1009.71 329.087 998.953 313.593 983.142 303.772C968.195 294.487 948.345 289.889 922.467 303.791C916.901 306.781 909.117 313.454 899.806 324.141C890.685 334.61 880.751 348.167 870.76 363.983C850.771 395.628 831 435.61 817.278 476.537C803.497 517.643 796.168 558.666 800.02 592.775C803.816 626.389 818.218 652.283 847.521 666.538C866.286 675.668 885.418 673.86 905.672 663.782C926.347 653.494 947.298 634.939 967.827 612.245C988.245 589.673 1007.52 563.845 1025.08 539.749C1027.47 536.466 1029.84 533.204 1032.18 529.98C1046.77 509.897 1060.27 491.31 1071.72 478.46C1094.25 453.192 1117.04 444.918 1137.01 446.244C1156.19 447.518 1170.53 457.528 1177.24 464.8C1181.92 469.873 1181.61 477.781 1176.53 482.464C1171.46 487.146 1163.55 486.83 1158.87 481.757C1155.58 478.196 1146.92 471.957 1135.35 471.189C1124.57 470.473 1108.86 474.364 1090.39 495.095C1079.84 506.928 1067.21 524.303 1052.5 544.555C1050.15 547.792 1047.74 551.102 1045.28 554.475C1027.7 578.593 1007.76 605.373 986.367 629.017C965.088 652.539 941.642 673.808 916.809 686.164C891.554 698.731 864.068 702.39 836.584 689.019C797.637 670.072 779.664 635.301 775.178 595.58C770.748 556.354 779.232 511.371 793.575 468.59C807.978 425.631 828.644 383.846 849.624 350.632C860.118 334.02 870.801 319.375 880.957 307.718C890.923 296.279 901.077 286.902 910.636 281.768C945.257 263.169 974.656 269.07 996.333 282.535Z" fill="url(#paint11_linear_70:3)" stroke="#E8BE8A" stroke-width="4.51539" stroke-linecap="round"/>
<path fill-rule="evenodd" clip-rule="evenodd" d="M896.562 539.173C903.371 540.31 907.969 546.752 906.831 553.562C904.364 568.332 902.958 586.084 901.413 605.598C901.176 608.59 900.936 611.624 900.688 614.695C898.853 637.434 896.616 661.873 892.069 684.468C887.548 706.932 880.528 728.766 868.412 745.71C855.933 763.162 838.154 775.208 813.64 777.45C800.819 778.623 788.483 774.246 777.661 767.917C766.763 761.545 756.398 752.613 747.09 743.057C728.472 723.944 712.665 700.85 703.761 685.897C700.23 679.965 702.175 672.293 708.107 668.761C714.039 665.23 721.711 667.175 725.242 673.107C733.506 686.987 748.171 708.338 764.998 725.613C773.413 734.252 782.013 741.501 790.281 746.337C798.626 751.217 805.658 753.076 811.363 752.554C827.85 751.046 839.342 743.383 848.076 731.169C857.173 718.447 863.31 700.655 867.56 679.536C871.784 658.548 873.932 635.445 875.769 612.684C876.01 609.699 876.246 606.713 876.481 603.735C878.011 584.369 879.511 565.374 882.173 549.442C883.31 542.633 889.752 538.035 896.562 539.173Z" fill="url(#paint12_linear_70:3)" stroke="#E8BE8A" stroke-width="4.51539" stroke-linecap="round"/>
<path fill-rule="evenodd" clip-rule="evenodd" d="M1172.56 445.173C1179.37 446.31 1183.97 452.752 1182.83 459.562C1180.36 474.332 1178.96 492.084 1177.41 511.598C1177.18 514.59 1176.94 517.624 1176.69 520.695C1174.85 543.434 1172.62 567.873 1168.07 590.468C1163.55 612.932 1156.53 634.766 1144.41 651.71C1131.93 669.162 1114.15 681.208 1089.64 683.45C1076.82 684.623 1064.48 680.246 1053.66 673.917C1042.76 667.545 1032.4 658.613 1023.09 649.057C1004.47 629.944 988.665 606.85 979.761 591.897C976.23 585.965 978.175 578.293 984.107 574.761C990.039 571.23 997.711 573.175 1001.24 579.107C1009.51 592.987 1024.17 614.338 1041 631.613C1049.41 640.252 1058.01 647.501 1066.28 652.337C1074.63 657.217 1081.66 659.076 1087.36 658.554C1103.85 657.046 1115.34 649.383 1124.08 637.169C1133.17 624.447 1139.31 606.655 1143.56 585.536C1147.78 564.548 1149.93 541.445 1151.77 518.684C1152.01 515.699 1152.25 512.713 1152.48 509.735C1154.01 490.369 1155.51 471.374 1158.17 455.442C1159.31 448.633 1165.75 444.035 1172.56 445.173Z" fill="url(#paint13_linear_70:3)" stroke="#E8BE8A" stroke-width="4.51539" stroke-linecap="round"/>
<path fill-rule="evenodd" clip-rule="evenodd" d="M988.222 402.535C967.409 415.463 954.167 434.969 948.814 443.798C945.235 449.701 947.119 457.388 953.023 460.967C958.926 464.546 966.613 462.662 970.192 456.759C974.843 449.087 985.602 433.593 1001.41 423.772C1016.36 414.487 1036.21 409.889 1062.09 423.791C1067.65 426.781 1075.44 433.454 1084.75 444.141C1093.87 454.61 1103.8 468.167 1113.79 483.983C1133.78 515.628 1153.55 555.61 1167.28 596.537C1181.06 637.643 1188.39 678.666 1184.53 712.775C1180.74 746.389 1166.34 772.283 1137.03 786.538C1118.27 795.668 1099.14 793.86 1078.88 783.782C1058.21 773.494 1037.26 754.939 1016.73 732.245C996.309 709.673 977.039 683.845 959.474 659.749C957.081 656.466 954.712 653.204 952.37 649.98C937.784 629.897 924.284 611.31 912.831 598.46C890.309 573.192 867.514 564.918 847.546 566.244C828.361 567.518 814.027 577.528 807.315 584.8C802.632 589.873 802.949 597.781 808.021 602.464C813.094 607.146 821.002 606.83 825.685 601.757C828.972 598.196 837.639 591.957 849.203 591.189C859.986 590.473 875.691 594.364 894.168 615.095C904.716 626.928 917.34 644.303 932.056 664.555C934.408 667.792 936.813 671.102 939.272 674.475C956.853 698.593 976.8 725.373 998.188 749.017C1019.47 772.539 1042.91 793.808 1067.75 806.164C1093 818.731 1120.49 822.39 1147.97 809.019C1186.92 790.072 1204.89 755.301 1209.38 715.58C1213.81 676.354 1205.32 631.371 1190.98 588.59C1176.58 545.631 1155.91 503.846 1134.93 470.632C1124.44 454.02 1113.75 439.375 1103.6 427.718C1093.63 416.279 1083.48 406.902 1073.92 401.768C1039.3 383.169 1009.9 389.07 988.222 402.535Z" fill="url(#paint14_linear_70:3)" stroke="#E8BE8A" stroke-width="4.51539" stroke-linecap="round"/>
<path fill-rule="evenodd" clip-rule="evenodd" d="M1034.29 551.45C1059.66 573.691 1080.23 607.365 1089.68 638.048C1091.72 644.646 1088.02 651.642 1081.42 653.675C1074.82 655.708 1067.83 652.008 1065.79 645.41C1057.58 618.76 1039.4 589.178 1017.81 570.249C995.999 551.126 974.576 545.644 956.279 556.879C947.285 562.402 943.399 571.462 943.426 586.58C943.452 600.69 946.904 617.193 950.798 635.803C951.229 637.865 951.666 639.953 952.104 642.066C956.31 662.354 960.593 684.872 958.818 705.37C956.977 726.637 948.504 746.728 926.894 760.313C891.191 782.755 848.512 780.638 816.523 752.931C784.932 725.568 765.853 675.23 770.768 604.856C771.249 597.97 777.222 592.777 784.109 593.258C790.995 593.739 796.188 599.711 795.707 606.598C791.124 672.224 809.253 713.559 832.891 734.033C856.131 754.163 886.704 756.047 913.589 739.147C926.977 730.731 932.566 718.76 933.911 703.214C935.324 686.899 931.919 667.854 927.624 647.141C927.185 645.021 926.734 642.878 926.281 640.719C922.492 622.693 918.457 603.493 918.426 586.625C918.391 567.18 923.692 547.552 943.198 535.575C975.401 515.8 1009.14 529.403 1034.29 551.45Z" fill="url(#paint15_linear_70:3)" stroke="#E8BE8A" stroke-width="4.51539" stroke-linecap="round"/>
<path fill-rule="evenodd" clip-rule="evenodd" d="M1038.88 329.822C884.909 283.298 765.672 383.586 670.991 471.217C665.924 475.907 658.016 475.601 653.326 470.534C648.637 465.468 648.943 457.559 654.009 452.87C747.328 366.5 876.878 254.755 1046.12 305.891C1118.75 327.837 1160.51 365.881 1192.4 413.633C1208.13 437.201 1221.44 463.084 1234.82 490.07C1237 494.466 1239.19 498.893 1241.38 503.348C1252.76 526.42 1264.53 550.283 1278.39 574.91C1281.78 580.926 1279.65 588.548 1273.63 591.935C1267.62 595.322 1259.99 593.191 1256.61 587.176C1242.38 561.899 1230.27 537.336 1218.89 514.261C1216.71 509.843 1214.56 505.48 1212.43 501.177C1199.06 474.221 1186.37 449.621 1171.6 427.517C1142.49 383.925 1105.25 349.876 1038.88 329.822Z" fill="url(#paint16_linear_70:3)" stroke="#E8BE8A" stroke-width="4.51539" stroke-linecap="round"/>
<path fill-rule="evenodd" clip-rule="evenodd" d="M1038.88 306.822C884.909 260.298 765.672 360.586 670.991 448.217C665.924 452.907 658.016 452.601 653.326 447.534C648.637 442.468 648.943 434.559 654.009 429.87C747.328 343.5 876.878 231.755 1046.12 282.891C1118.75 304.837 1160.51 342.881 1192.4 390.633C1208.13 414.201 1221.44 440.084 1234.82 467.07C1237 471.466 1239.19 475.893 1241.38 480.348C1252.76 503.42 1264.53 527.283 1278.39 551.91C1281.78 557.926 1279.65 565.548 1273.63 568.935C1267.62 572.322 1259.99 570.191 1256.61 564.176C1242.38 538.899 1230.27 514.336 1218.89 491.261C1216.71 486.843 1214.56 482.48 1212.43 478.177C1199.06 451.221 1186.37 426.621 1171.6 404.517C1142.49 360.925 1105.25 326.876 1038.88 306.822Z" fill="url(#paint17_linear_70:3)" stroke="#E8BE8A" stroke-width="4.51539" stroke-linecap="round"/>
<path fill-rule="evenodd" clip-rule="evenodd" d="M895.292 458.45C920.66 480.691 941.23 514.365 950.684 545.048C952.717 551.646 949.017 558.642 942.42 560.675C935.822 562.708 928.826 559.008 926.793 552.41C918.581 525.76 900.401 496.178 878.811 477.249C856.999 458.126 835.576 452.644 817.279 463.879C808.285 469.402 804.399 478.462 804.426 493.58C804.452 507.69 807.904 524.193 811.798 542.803C812.229 544.865 812.666 546.953 813.104 549.066C817.31 569.354 821.593 591.872 819.818 612.37C817.977 633.637 809.504 653.728 787.894 667.313C752.191 689.755 709.512 687.638 677.523 659.931C645.932 632.568 626.853 582.23 631.768 511.856C632.249 504.97 638.222 499.777 645.109 500.258C651.995 500.739 657.188 506.711 656.707 513.598C652.124 579.224 670.253 620.559 693.891 641.033C717.131 661.163 747.704 663.047 774.589 646.147C787.977 637.731 793.566 625.76 794.911 610.214C796.324 593.899 792.919 574.854 788.624 554.141C788.185 552.021 787.734 549.878 787.281 547.719C783.492 529.693 779.457 510.493 779.426 493.625C779.391 474.18 784.692 454.552 804.198 442.575C836.401 422.8 870.145 436.403 895.292 458.45Z" fill="url(#paint18_linear_70:3)" stroke="#E8BE8A" stroke-width="4.51539" stroke-linecap="round"/>
<path fill-rule="evenodd" clip-rule="evenodd" d="M924.333 318.535C945.146 331.463 958.387 350.969 963.74 359.798C967.319 365.701 965.435 373.388 959.532 376.967C953.629 380.546 945.942 378.662 942.362 372.759C937.711 365.087 926.953 349.593 911.142 339.772C896.195 330.487 876.345 325.889 850.467 339.791C844.901 342.781 837.117 349.454 827.806 360.141C818.685 370.61 808.751 384.167 798.76 399.983C778.771 431.628 759 471.61 745.278 512.537C731.497 553.643 724.168 594.666 728.02 628.775C731.816 662.389 746.218 688.283 775.521 702.538C794.286 711.668 813.418 709.86 833.672 699.782C854.347 689.494 875.298 670.939 895.827 648.245C916.245 625.673 935.515 599.845 953.081 575.749C955.474 572.466 957.843 569.204 960.184 565.98C974.771 545.897 988.27 527.31 999.724 514.46C1022.25 489.192 1045.04 480.918 1065.01 482.244C1084.19 483.518 1098.53 493.528 1105.24 500.8C1109.92 505.873 1109.61 513.781 1104.53 518.464C1099.46 523.146 1091.55 522.83 1086.87 517.757C1083.58 514.196 1074.92 507.957 1063.35 507.189C1052.57 506.473 1036.86 510.364 1018.39 531.095C1007.84 542.928 995.214 560.303 980.499 580.555C978.147 583.792 975.742 587.102 973.283 590.475C955.702 614.593 935.755 641.373 914.367 665.017C893.088 688.539 869.642 709.808 844.809 722.164C819.554 734.731 792.068 738.39 764.584 725.019C725.637 706.072 707.664 671.301 703.178 631.58C698.748 592.354 707.232 547.371 721.575 504.59C735.978 461.631 756.644 419.846 777.624 386.632C788.118 370.02 798.801 355.375 808.957 343.718C818.923 332.279 829.077 322.902 838.636 317.768C873.257 299.169 902.656 305.07 924.333 318.535Z" fill="url(#paint19_linear_70:3)" stroke="#E8BE8A" stroke-width="4.51539" stroke-linecap="round"/>
<path fill-rule="evenodd" clip-rule="evenodd" d="M922.292 508.45C947.66 530.691 968.23 564.365 977.684 595.048C979.717 601.646 976.017 608.642 969.42 610.675C962.822 612.708 955.826 609.008 953.793 602.41C945.581 575.76 927.401 546.178 905.811 527.249C883.999 508.126 862.576 502.644 844.279 513.879C835.285 519.402 831.399 528.462 831.426 543.58C831.452 557.69 834.904 574.193 838.798 592.803C839.229 594.865 839.666 596.953 840.104 599.066C844.31 619.354 848.593 641.872 846.818 662.37C844.977 683.637 836.504 703.728 814.894 717.313C779.191 739.755 736.512 737.638 704.523 709.931C672.932 682.568 653.853 632.23 658.768 561.856C659.249 554.97 665.222 549.777 672.109 550.258C678.995 550.739 684.188 556.711 683.707 563.598C679.124 629.224 697.253 670.559 720.891 691.033C744.131 711.163 774.704 713.047 801.589 696.147C814.977 687.731 820.566 675.76 821.911 660.214C823.324 643.899 819.919 624.854 815.624 604.141C815.185 602.021 814.734 599.878 814.281 597.719C810.492 579.693 806.457 560.493 806.426 543.625C806.391 524.18 811.692 504.552 831.198 492.575C863.401 472.8 897.145 486.403 922.292 508.45Z" fill="url(#paint20_linear_70:3)" stroke="#E8BE8A" stroke-width="4.51539" stroke-linecap="round"/>
<path fill-rule="evenodd" clip-rule="evenodd" d="M1164.29 400.45C1189.66 422.691 1210.23 456.365 1219.68 487.048C1221.72 493.646 1218.02 500.642 1211.42 502.675C1204.82 504.708 1197.83 501.008 1195.79 494.41C1187.58 467.76 1169.4 438.178 1147.81 419.249C1126 400.126 1104.58 394.644 1086.28 405.879C1077.29 411.402 1073.4 420.462 1073.43 435.58C1073.45 449.69 1076.9 466.193 1080.8 484.803C1081.23 486.865 1081.67 488.953 1082.1 491.066C1086.31 511.354 1090.59 533.872 1088.82 554.37C1086.98 575.637 1078.5 595.728 1056.89 609.313C1021.19 631.755 978.512 629.638 946.523 601.931C914.932 574.568 895.853 524.23 900.768 453.856C901.249 446.97 907.222 441.777 914.109 442.258C920.995 442.739 926.188 448.711 925.707 455.598C921.124 521.224 939.253 562.559 962.891 583.033C986.131 603.163 1016.7 605.047 1043.59 588.147C1056.98 579.731 1062.57 567.76 1063.91 552.214C1065.32 535.899 1061.92 516.854 1057.62 496.141C1057.18 494.021 1056.73 491.878 1056.28 489.719C1052.49 471.693 1048.46 452.493 1048.43 435.625C1048.39 416.18 1053.69 396.552 1073.2 384.575C1105.4 364.8 1139.14 378.403 1164.29 400.45Z" fill="url(#paint21_linear_70:3)" stroke="#E8BE8A" stroke-width="4.51539" stroke-linecap="round"/>
<path fill-rule="evenodd" clip-rule="evenodd" d="M1098 390.119C1086.49 400.34 1074.67 410.827 1062.98 420.304C1034.27 443.589 1003.42 459.024 976.375 466.199C962.857 469.786 949.995 471.386 938.644 470.693C927.438 470.008 916.778 467.024 908.604 460.439C903.604 456.411 902.506 448.667 906.151 443.142C909.796 437.617 916.803 436.403 921.803 440.431C925.205 443.172 931.076 445.432 939.881 445.97C948.54 446.499 959.169 445.3 971.144 442.123C995.087 435.77 1023.24 421.823 1049.73 400.341C1061.04 391.171 1072.16 381.297 1083.43 371.288C1089.18 366.181 1094.98 361.039 1100.85 355.937C1117.91 341.128 1135.42 326.907 1152.93 317.004C1170.43 307.104 1188.98 300.907 1207.87 303.652C1227.09 306.446 1244.79 318.212 1260.88 340.125C1291.22 381.452 1301.27 425.931 1297.1 469.232C1292.96 512.172 1274.94 553.18 1250.37 588.581C1225.76 624.026 1194.17 654.459 1161.94 676.309C1129.89 698.034 1096.23 711.932 1067.45 712.888C1017.65 714.541 987.786 697.76 970.852 673.774C954.398 650.469 951.948 632.809 951.948 616.424C951.948 609.587 956.964 604.044 963.151 604.044C969.338 604.044 974.353 609.587 974.353 616.424C974.353 630.742 976.621 641.695 988.516 658.543C999.931 674.711 1022.05 689.623 1066.77 688.139C1090.2 687.361 1120 675.695 1150.22 655.204C1180.26 634.838 1209.76 606.404 1232.59 573.51C1255.46 540.573 1271.24 503.771 1274.82 466.611C1278.37 429.812 1270.04 391.902 1243.48 355.727C1230.09 337.487 1217.19 329.981 1204.95 328.201C1192.37 326.373 1178.59 330.303 1163.14 339.045C1147.68 347.785 1131.61 360.724 1114.69 375.408C1109.24 380.147 1103.65 385.101 1098 390.119Z" fill="url(#paint22_linear_70:3)" stroke="#E8BE8A" stroke-width="4.51539" stroke-linecap="round"/>
<path fill-rule="evenodd" clip-rule="evenodd" d="M1001.86 271.876C980.243 261.534 955.29 260.132 932.453 275.217C899.15 297.215 881.834 337.683 875.651 383.306C869.5 428.687 874.769 476.655 884.101 509.914C885.966 516.561 882.09 523.461 875.443 525.326C868.796 527.191 861.896 523.315 860.031 516.668C849.861 480.424 844.228 429.01 850.877 379.949C857.493 331.131 876.677 282.098 918.674 254.357C950.337 233.442 984.884 236.041 1012.65 249.324C1039.94 262.385 1062.22 286.433 1070.44 311.376C1072.6 317.933 1069.03 325 1062.48 327.16C1055.92 329.32 1048.85 325.756 1046.69 319.199C1040.91 301.642 1023.94 282.441 1001.86 271.876Z" fill="url(#paint23_linear_70:3)" stroke="#E8BE8A" stroke-width="4.51539" stroke-linecap="round"/>
<path fill-rule="evenodd" clip-rule="evenodd" d="M829.333 287.535C850.146 300.463 863.387 319.969 868.74 328.798C872.319 334.701 870.435 342.388 864.532 345.967C858.629 349.546 850.942 347.662 847.362 341.759C842.711 334.087 831.953 318.593 816.142 308.772C801.195 299.487 781.345 294.889 755.467 308.791C749.901 311.781 742.117 318.454 732.806 329.141C723.685 339.61 713.751 353.167 703.76 368.983C683.771 400.628 664 440.61 650.278 481.537C636.497 522.643 629.168 563.666 633.02 597.775C636.816 631.389 651.218 657.283 680.521 671.538C699.286 680.668 718.418 678.86 738.672 668.782C759.347 658.494 780.298 639.939 800.827 617.245C821.245 594.673 840.515 568.845 858.081 544.749C860.474 541.466 862.843 538.204 865.184 534.98C879.771 514.897 893.27 496.31 904.724 483.46C927.246 458.192 950.041 449.918 970.008 451.244C989.194 452.518 1003.53 462.528 1010.24 469.8C1014.92 474.873 1014.61 482.781 1009.53 487.464C1004.46 492.146 996.552 491.83 991.87 486.757C988.582 483.196 979.916 476.957 968.352 476.189C957.569 475.473 941.864 479.364 923.386 500.095C912.839 511.928 900.214 529.303 885.499 549.555C883.147 552.792 880.742 556.102 878.283 559.475C860.702 583.593 840.755 610.373 819.367 634.017C798.088 657.539 774.642 678.808 749.809 691.164C724.554 703.731 697.068 707.39 669.584 694.019C630.637 675.072 612.664 640.301 608.178 600.58C603.748 561.354 612.232 516.371 626.575 473.59C640.978 430.631 661.644 388.846 682.624 355.632C693.118 339.02 703.801 324.375 713.957 312.718C723.923 301.279 734.077 291.902 743.636 286.768C778.257 268.169 807.656 274.07 829.333 287.535Z" fill="url(#paint24_linear_70:3)" stroke="#E8BE8A" stroke-width="4.51539" stroke-linecap="round"/>
<path fill-rule="evenodd" clip-rule="evenodd" d="M837.514 292.32C834.1 286.32 826.468 284.224 820.468 287.638C793.461 303.007 758.983 333.507 736.343 367.017C725.002 383.803 716.078 402.149 713.033 420.396C709.931 438.989 712.935 457.839 725.942 473.876C733.688 483.426 742.725 489.708 753.137 491.864C763.464 494.003 773.358 491.712 782.167 487.574C799.093 479.625 815.589 463.061 830.245 447.515C833.146 444.438 835.993 441.381 838.793 438.373C850.952 425.316 862.23 413.204 873.172 404.603C887.11 393.648 895.167 392.596 900.846 395.573C911.9 401.368 916.505 407.508 918.004 412.678C919.481 417.773 918.764 424.773 913.003 434.142C901.119 453.467 871.068 477.178 821.402 500.158C768.168 524.788 718.266 579.519 706.564 640.263C700.633 671.048 704.551 703.426 722.956 733.591C741.267 763.601 773.264 790.37 821.656 811.461C893.996 842.989 983.308 845.824 1073.24 799.543C1162.96 753.369 1252.24 658.895 1326.5 497.734C1329.39 491.464 1326.65 484.039 1320.38 481.15C1314.11 478.26 1306.69 481.001 1303.8 487.271C1231.06 645.109 1145.08 734.454 1061.8 777.314C978.724 820.067 897.287 817.152 831.645 788.543C786.537 768.884 759.221 745.028 744.298 720.57C729.469 696.266 726.231 670.331 731.112 644.992C741.035 593.485 784.633 544.716 831.899 522.847C882.733 499.327 918.432 473.038 934.298 447.238C942.411 434.044 946.07 419.7 942.015 405.717C937.983 391.809 927.151 381.136 912.454 373.431C892.383 362.909 872.628 373.232 857.723 384.948C845.093 394.876 832.11 408.836 819.908 421.958C817.249 424.817 814.628 427.636 812.055 430.365C796.837 446.506 783.458 459.348 771.54 464.946C765.927 467.582 761.657 468.099 758.207 467.384C754.841 466.687 750.488 464.453 745.359 458.128C737.765 448.765 735.511 437.582 737.692 424.511C739.931 411.095 746.832 396.147 757.058 381.013C777.551 350.681 809.174 322.83 832.833 309.366C838.833 305.952 840.929 298.32 837.514 292.32Z" fill="url(#paint25_linear_70:3)" stroke="#E8BE8A" stroke-width="4.51539" stroke-linecap="round"/>
<path fill-rule="evenodd" clip-rule="evenodd" d="M1178.05 556.173C1185.19 557.312 1190.01 563.764 1188.82 570.584C1186.23 585.376 1184.76 603.155 1183.14 622.699C1182.89 625.695 1182.64 628.734 1182.38 631.809C1180.45 654.583 1178.11 679.058 1173.34 701.687C1168.6 724.185 1161.23 746.052 1148.53 763.022C1135.44 780.5 1116.79 792.564 1091.08 794.809C1077.64 795.984 1064.7 791.6 1053.35 785.262C1041.92 778.88 1031.05 769.935 1021.29 760.365C1001.76 741.223 985.185 718.094 975.847 703.118C972.143 697.177 974.184 689.494 980.405 685.957C986.626 682.42 994.672 684.369 998.376 690.309C1007.04 704.21 1022.42 725.593 1040.07 742.895C1048.9 751.547 1057.91 758.806 1066.59 763.649C1075.34 768.536 1082.71 770.398 1088.7 769.876C1105.99 768.366 1118.04 760.691 1127.2 748.458C1136.74 735.717 1143.18 717.899 1147.63 696.748C1152.06 675.728 1154.32 652.59 1156.24 629.795C1156.49 626.805 1156.74 623.815 1156.99 620.833C1158.59 601.437 1160.17 582.414 1162.96 566.458C1164.15 559.639 1170.91 555.034 1178.05 556.173Z" fill="url(#paint26_linear_70:3)" stroke="#E8BE8A" stroke-width="4.51539" stroke-linecap="round"/>
<path fill-rule="evenodd" clip-rule="evenodd" d="M1009.33 354.535C1030.15 367.463 1043.39 386.969 1048.74 395.798C1052.32 401.701 1050.44 409.388 1044.53 412.967C1038.63 416.546 1030.94 414.662 1027.36 408.759C1022.71 401.087 1011.95 385.593 996.142 375.772C981.195 366.487 961.345 361.889 935.467 375.791C929.901 378.781 922.117 385.454 912.806 396.141C903.685 406.61 893.751 420.167 883.76 435.983C863.771 467.628 844 507.61 830.278 548.537C816.497 589.643 809.168 630.666 813.02 664.775C816.816 698.389 831.218 724.283 860.521 738.538C879.286 747.668 898.418 745.86 918.672 735.782C939.347 725.494 960.298 706.939 980.827 684.245C1001.25 661.673 1020.52 635.845 1038.08 611.749C1040.47 608.466 1042.84 605.204 1045.18 601.98C1059.77 581.897 1073.27 563.31 1084.72 550.46C1107.25 525.192 1130.04 516.918 1150.01 518.244C1169.19 519.518 1183.53 529.528 1190.24 536.8C1194.92 541.873 1194.61 549.781 1189.53 554.464C1184.46 559.146 1176.55 558.83 1171.87 553.757C1168.58 550.196 1159.92 543.957 1148.35 543.189C1137.57 542.473 1121.86 546.364 1103.39 567.095C1092.84 578.928 1080.21 596.303 1065.5 616.555C1063.15 619.792 1060.74 623.102 1058.28 626.475C1040.7 650.593 1020.76 677.373 999.367 701.017C978.088 724.539 954.642 745.808 929.809 758.164C904.554 770.731 877.068 774.39 849.584 761.019C810.637 742.072 792.664 707.301 788.178 667.58C783.748 628.354 792.232 583.371 806.575 540.59C820.978 497.631 841.644 455.846 862.624 422.632C873.118 406.02 883.801 391.375 893.957 379.718C903.923 368.279 914.077 358.902 923.636 353.768C958.257 335.169 987.656 341.07 1009.33 354.535Z" fill="url(#paint27_linear_70:3)" stroke="#E8BE8A" stroke-width="4.51539" stroke-linecap="round"/>
<path fill-rule="evenodd" clip-rule="evenodd" d="M1131.14 306.32C1134.55 300.32 1142.19 298.224 1148.19 301.638C1175.19 317.007 1209.67 347.507 1232.31 381.017C1243.65 397.803 1252.58 416.149 1255.62 434.396C1258.72 452.989 1255.72 471.839 1242.71 487.876C1234.97 497.426 1225.93 503.708 1215.52 505.864C1205.19 508.003 1195.3 505.712 1186.49 501.574C1169.56 493.625 1153.06 477.061 1138.41 461.515C1135.51 458.438 1132.66 455.381 1129.86 452.373C1117.7 439.316 1106.42 427.204 1095.48 418.603C1081.54 407.648 1073.49 406.596 1067.81 409.573C1056.75 415.368 1052.15 421.508 1050.65 426.678C1049.17 431.773 1049.89 438.773 1055.65 448.142C1067.53 467.467 1097.59 491.178 1147.25 514.158C1200.49 538.788 1250.39 593.519 1262.09 654.263C1268.02 685.048 1264.1 717.426 1245.7 747.591C1227.39 777.601 1195.39 804.37 1147 825.461C1074.66 856.989 985.345 859.824 895.415 813.543C805.693 767.369 716.416 672.895 642.15 511.734C639.261 505.464 642.002 498.039 648.272 495.15C654.541 492.26 661.966 495.001 664.856 501.271C737.59 659.109 823.572 748.454 906.855 791.314C989.929 834.067 1071.37 831.152 1137.01 802.543C1182.12 782.884 1209.43 759.028 1224.36 734.57C1239.18 710.266 1242.42 684.331 1237.54 658.992C1227.62 607.485 1184.02 558.716 1136.75 536.847C1085.92 513.327 1050.22 487.038 1034.36 461.238C1026.24 448.044 1022.58 433.7 1026.64 419.717C1030.67 405.809 1041.5 395.136 1056.2 387.431C1076.27 376.909 1096.02 387.232 1110.93 398.948C1123.56 408.876 1136.54 422.836 1148.75 435.958C1151.4 438.817 1154.03 441.636 1156.6 444.365C1171.82 460.506 1185.2 473.348 1197.11 478.946C1202.73 481.582 1207 482.099 1210.45 481.384C1213.81 480.687 1218.17 478.453 1223.29 472.128C1230.89 462.765 1233.14 451.582 1230.96 438.511C1228.72 425.095 1221.82 410.147 1211.6 395.013C1191.1 364.681 1159.48 336.83 1135.82 323.366C1129.82 319.952 1127.72 312.32 1131.14 306.32Z" fill="url(#paint28_linear_70:3)" stroke="#E8BE8A" stroke-width="4.51539" stroke-linecap="round"/>
<path fill-rule="evenodd" clip-rule="evenodd" d="M992.468 375.963C979.619 386.283 966.436 396.871 953.396 406.44C921.355 429.95 886.932 445.534 856.756 452.779C841.673 456.4 827.322 458.016 814.656 457.316C802.152 456.625 790.258 453.612 781.137 446.963C775.559 442.896 774.333 435.077 778.4 429.498C782.467 423.92 790.286 422.694 795.865 426.761C799.661 429.529 806.212 431.811 816.036 432.354C825.698 432.888 837.558 431.678 850.92 428.47C877.636 422.056 909.047 407.973 938.606 386.284C951.225 377.024 963.633 367.055 976.213 356.949C982.631 351.793 989.093 346.601 995.651 341.45C1014.68 326.497 1034.22 312.138 1053.76 302.14C1073.29 292.143 1093.99 285.887 1115.06 288.659C1136.5 291.479 1156.25 303.359 1174.21 325.485C1208.07 367.211 1219.28 412.121 1214.63 455.841C1210.01 499.197 1189.9 540.601 1162.48 576.346C1135.02 612.133 1099.78 642.861 1063.81 664.923C1028.05 686.858 990.492 700.891 958.376 701.856C902.807 703.525 869.49 686.581 850.594 662.363C832.235 638.833 829.501 610.905 829.501 594.361C829.501 587.458 835.097 581.861 842.001 581.861C848.904 581.861 854.501 587.458 854.501 594.361C854.501 608.818 857.031 629.973 870.304 646.985C883.041 663.309 907.723 678.366 957.626 676.867C983.76 676.082 1017.01 664.303 1050.74 643.613C1084.26 623.051 1117.16 594.341 1142.65 561.128C1168.16 527.873 1185.77 490.715 1189.77 453.195C1193.72 416.04 1184.43 377.762 1154.79 341.238C1139.85 322.821 1125.46 315.242 1111.8 313.445C1097.77 311.6 1082.39 315.568 1065.15 324.394C1047.91 333.219 1029.97 346.283 1011.09 361.109C1005 365.894 998.776 370.896 992.468 375.963Z" fill="url(#paint29_linear_70:3)" stroke="#E8BE8A" stroke-width="4.51539" stroke-linecap="round"/>
<path fill-rule="evenodd" clip-rule="evenodd" d="M889.856 419.876C868.243 409.534 843.29 408.132 820.453 423.217C787.15 445.215 769.834 485.683 763.651 531.306C757.5 576.687 762.769 624.655 772.101 657.914C773.966 664.561 770.09 671.461 763.443 673.326C756.796 675.191 749.896 671.315 748.031 664.668C737.861 628.424 732.228 577.01 738.877 527.949C745.493 479.131 764.677 430.098 806.674 402.357C838.337 381.442 872.884 384.041 900.646 397.324C927.942 410.385 950.22 434.433 958.438 459.376C960.598 465.933 957.034 473 950.477 475.16C943.92 477.32 936.853 473.756 934.693 467.199C928.909 449.642 911.936 430.441 889.856 419.876Z" fill="url(#paint30_linear_70:3)" stroke="#E8BE8A" stroke-width="4.51539" stroke-linecap="round"/>
<path fill-rule="evenodd" clip-rule="evenodd" d="M896.856 576.876C875.243 566.534 850.29 565.132 827.453 580.217C794.15 602.215 776.834 642.683 770.651 688.306C764.5 733.687 769.769 781.655 779.101 814.914C780.966 821.561 777.09 828.461 770.443 830.326C763.796 832.191 756.896 828.315 755.031 821.668C744.861 785.424 739.228 734.01 745.877 684.949C752.493 636.131 771.677 587.098 813.674 559.357C845.337 538.442 879.884 541.041 907.646 554.324C934.942 567.385 957.22 591.433 965.438 616.376C967.598 622.933 964.034 630 957.477 632.16C950.92 634.32 943.853 630.756 941.693 624.199C935.909 606.642 918.936 587.441 896.856 576.876Z" fill="url(#paint31_linear_70:3)" stroke="#E8BE8A" stroke-width="4.51539" stroke-linecap="round"/>
<path fill-rule="evenodd" clip-rule="evenodd" d="M1014.05 416.173C1021.19 417.312 1026.01 423.764 1024.82 430.584C1022.23 445.376 1020.76 463.155 1019.14 482.699C1018.89 485.695 1018.64 488.734 1018.38 491.809C1016.45 514.583 1014.11 539.058 1009.34 561.687C1004.6 584.185 997.234 606.052 984.526 623.022C971.439 640.5 952.793 652.564 927.084 654.809C913.637 655.984 900.7 651.6 889.351 645.262C877.921 638.88 867.05 629.935 857.289 620.365C837.763 601.223 821.185 578.094 811.847 563.118C808.143 557.177 810.184 549.494 816.405 545.957C822.626 542.42 830.672 544.369 834.376 550.309C843.042 564.21 858.423 585.593 876.07 602.895C884.895 611.547 893.914 618.806 902.586 623.649C911.338 628.536 918.712 630.398 924.696 629.876C941.987 628.366 954.039 620.691 963.199 608.458C972.74 595.717 979.176 577.899 983.633 556.748C988.063 535.728 990.316 512.59 992.242 489.795C992.495 486.805 992.742 483.815 992.989 480.833C994.593 461.437 996.167 442.414 998.958 426.458C1000.15 419.639 1006.91 415.034 1014.05 416.173Z" fill="url(#paint32_linear_70:3)" stroke="#E8BE8A" stroke-width="4.51539" stroke-linecap="round"/>
<path d="M1211 571.413C1211 709.093 1114.37 768 960.801 768C798.825 768 705 698.025 705 560.345C705 422.666 825.631 310 946.797 310C1067.96 310 1211 433.733 1211 571.413Z" fill="url(#paint33_radial_70:3)"/>
<path fill-rule="evenodd" clip-rule="evenodd" d="M935 364C939.418 364 943 360.418 943 356C943 351.582 939.418 348 935 348C930.582 348 927 351.582 927 356C927 360.418 930.582 364 935 364ZM996 394C1000.42 394 1004 390.418 1004 386C1004 381.582 1000.42 378 996 378C991.582 378 988 381.582 988 386C988 390.418 991.582 394 996 394ZM882 428C886.418 428 890 424.418 890 420C890 415.582 886.418 412 882 412C877.582 412 874 415.582 874 420C874 424.418 877.582 428 882 428ZM869 456C873.418 456 877 452.418 877 448C877 443.582 873.418 440 869 440C864.582 440 861 443.582 861 448C861 452.418 864.582 456 869 456ZM968 491C968 495.418 964.418 499 960 499C955.582 499 952 495.418 952 491C952 486.582 955.582 483 960 483C964.418 483 968 486.582 968 491ZM840 619C844.418 619 848 615.418 848 611C848 606.582 844.418 603 840 603C835.582 603 832 606.582 832 611C832 615.418 835.582 619 840 619ZM952 594C952 598.418 948.418 602 944 602C939.582 602 936 598.418 936 594C936 589.582 939.582 586 944 586C948.418 586 952 589.582 952 594ZM1071 618C1075.42 618 1079 614.418 1079 610C1079 605.582 1075.42 602 1071 602C1066.58 602 1063 605.582 1063 610C1063 614.418 1066.58 618 1071 618ZM1134 534C1134 538.418 1130.42 542 1126 542C1121.58 542 1118 538.418 1118 534C1118 529.582 1121.58 526 1126 526C1130.42 526 1134 529.582 1134 534ZM900 689C900 693.418 896.418 697 892 697C887.582 697 884 693.418 884 689C884 684.582 887.582 681 892 681C896.418 681 900 684.582 900 689ZM1063 697C1067.42 697 1071 693.418 1071 689C1071 684.582 1067.42 681 1063 681C1058.58 681 1055 684.582 1055 689C1055 693.418 1058.58 697 1063 697ZM759 594C759 598.418 755.418 602 751 602C746.582 602 743 598.418 743 594C743 589.582 746.582 586 751 586C755.418 586 759 589.582 759 594Z" fill="#E44155"/>
<path fill-rule="evenodd" clip-rule="evenodd" d="M939.394 413.212C943.315 413.212 946.494 410.031 946.494 406.106C946.494 402.181 943.315 399 939.394 399C935.473 399 932.294 402.181 932.294 406.106C932.294 410.031 935.473 413.212 939.394 413.212ZM993.529 439.86C997.45 439.86 1000.63 436.678 1000.63 432.754C1000.63 428.829 997.45 425.648 993.529 425.648C989.608 425.648 986.43 428.829 986.43 432.754C986.43 436.678 989.608 439.86 993.529 439.86ZM892.358 470.06C896.279 470.06 899.458 466.879 899.458 462.954C899.458 459.03 896.279 455.848 892.358 455.848C888.437 455.848 885.258 459.03 885.258 462.954C885.258 466.879 888.437 470.06 892.358 470.06ZM880.821 494.931C884.742 494.931 887.921 491.75 887.921 487.825C887.921 483.901 884.742 480.719 880.821 480.719C876.9 480.719 873.721 483.901 873.721 487.825C873.721 491.75 876.9 494.931 880.821 494.931ZM968.68 526.02C968.68 529.945 965.502 533.126 961.581 533.126C957.659 533.126 954.481 529.945 954.481 526.02C954.481 522.096 957.659 518.914 961.581 518.914C965.502 518.914 968.68 522.096 968.68 526.02ZM855.084 639.716C859.005 639.716 862.184 636.535 862.184 632.61C862.184 628.686 859.005 625.504 855.084 625.504C851.163 625.504 847.985 628.686 847.985 632.61C847.985 636.535 851.163 639.716 855.084 639.716ZM954.481 617.51C954.481 621.435 951.302 624.616 947.381 624.616C943.46 624.616 940.281 621.435 940.281 617.51C940.281 613.585 943.46 610.404 947.381 610.404C951.302 610.404 954.481 613.585 954.481 617.51ZM1060.09 638.828C1064.01 638.828 1067.19 635.647 1067.19 631.722C1067.19 627.798 1064.01 624.616 1060.09 624.616C1056.17 624.616 1052.99 627.798 1052.99 631.722C1052.99 635.647 1056.17 638.828 1060.09 638.828ZM1116 564.215C1116 568.139 1112.82 571.321 1108.9 571.321C1104.98 571.321 1101.8 568.139 1101.8 564.215C1101.8 560.29 1104.98 557.109 1108.9 557.109C1112.82 557.109 1116 560.29 1116 564.215ZM908.332 701.894C908.332 705.819 905.154 709 901.233 709C897.312 709 894.133 705.819 894.133 701.894C894.133 697.969 897.312 694.788 901.233 694.788C905.154 694.788 908.332 697.969 908.332 701.894ZM1052.99 709C1056.91 709 1060.09 705.819 1060.09 701.894C1060.09 697.969 1056.91 694.788 1052.99 694.788C1049.07 694.788 1045.89 697.969 1045.89 701.894C1045.89 705.819 1049.07 709 1052.99 709ZM783.199 617.51C783.199 621.435 780.021 624.616 776.1 624.616C772.179 624.616 769 621.435 769 617.51C769 613.585 772.179 610.404 776.1 610.404C780.021 610.404 783.199 613.585 783.199 617.51Z" fill="#E47B59"/>
<path d="M910.786 523.624L892.98 544.578C865.663 576.725 817.458 580.64 785.311 553.323L764.356 535.517L782.163 514.562C809.48 482.416 857.685 478.501 889.832 505.818L910.786 523.624Z" fill="url(#paint34_linear_70:3)"/>
<path opacity="0.5" fill-rule="evenodd" clip-rule="evenodd" d="M766.474 533.024L909.772 522.762L910.786 523.624L892.979 544.578C865.662 576.725 817.457 580.64 785.31 553.323L764.356 535.516L766.474 533.024Z" fill="#529D6A"/>
<path d="M963.301 711.006L955.581 684.614C943.737 644.125 966.958 601.7 1007.45 589.857L1033.84 582.136L1041.56 608.529C1053.4 649.018 1030.18 691.442 989.693 703.286L963.301 711.006Z" fill="url(#paint35_linear_70:3)"/>
<path opacity="0.5" fill-rule="evenodd" clip-rule="evenodd" d="M1034.76 585.276L964.579 710.633L963.302 711.006L955.582 684.614C943.738 644.125 966.96 601.7 1007.45 589.857L1033.84 582.136L1034.76 585.276Z" fill="#529D6A"/>
<path d="M1015.79 388.309L1042.94 392.671C1084.59 399.363 1112.93 438.554 1106.24 480.206L1101.88 507.356L1074.73 502.993C1033.07 496.301 1004.73 457.11 1011.43 415.459L1015.79 388.309Z" fill="url(#paint36_linear_70:3)"/>
<path opacity="0.5" fill-rule="evenodd" clip-rule="evenodd" d="M1098.64 506.839L1015.58 389.624L1015.79 388.311L1042.94 392.673C1084.59 399.365 1112.93 438.556 1106.24 480.207L1101.87 507.357L1098.64 506.839Z" fill="#529D6A"/>
<path fill-rule="evenodd" clip-rule="evenodd" d="M1578.57 283.247L1490.49 220.294L1493.03 216.746L1581.11 279.698C1593.85 288.805 1605.68 298.928 1616.52 309.923L1609.94 266.77L1614.25 266.112L1621.77 315.395C1660.37 356.794 1685.37 409.614 1692.5 466.673L1693.27 472.854L1717.28 402.774L1721.4 404.187L1694.5 482.716L1711.12 615.683L1745.15 569.343L1748.66 571.925L1711.65 622.334L1677.76 758.647L1673.53 757.595L1707.42 621.257L1692.63 502.918L1653.98 490.081L1655.36 485.942L1692.03 498.123L1688.17 467.214C1681.9 417.063 1661.6 370.24 1630.27 331.782L1630.58 334.837L1566.73 341.314L1566.29 336.974L1629.29 330.584C1626.59 327.314 1623.82 324.105 1620.96 320.961L1618.27 321.372L1617.66 317.391C1605.86 304.862 1592.79 293.411 1578.57 283.247Z" fill="#C14752"/>
<path d="M1367.74 197.397L1393.93 181.798C1434.11 157.868 1487.81 173.732 1513.88 217.232L1530.87 245.588L1504.68 261.187C1464.5 285.117 1410.8 269.253 1384.73 225.753L1367.74 197.397Z" fill="url(#paint37_linear_70:3)"/>
<path opacity="0.5" fill-rule="evenodd" clip-rule="evenodd" d="M1527.75 247.445L1368.56 198.771L1367.74 197.4L1393.93 181.801C1434.11 157.87 1487.81 173.734 1513.88 217.234L1530.87 245.59L1527.75 247.445Z" fill="#529D6A"/>
<path d="M1613.85 292.707L1590.59 269.434C1554.9 233.729 1551.86 176.818 1583.8 142.32L1604.62 119.832L1627.88 143.105C1663.57 178.81 1666.61 235.721 1634.67 270.219L1613.85 292.707Z" fill="url(#paint38_linear_70:3)"/>
<path opacity="0.5" fill-rule="evenodd" clip-rule="evenodd" d="M1607.39 122.6L1614.86 291.619L1613.85 292.706L1590.59 269.433C1554.9 233.728 1551.86 176.818 1583.8 142.319L1604.62 119.831L1607.39 122.6Z" fill="#529D6A"/>
<path d="M1618.24 334.427L1594.03 312.225C1556.9 278.164 1502.28 279.836 1472.03 315.958L1452.32 339.504L1476.53 361.706C1513.66 395.767 1568.28 394.095 1598.52 357.973L1618.24 334.427Z" fill="url(#paint39_linear_70:3)"/>
<path opacity="0.5" fill-rule="evenodd" clip-rule="evenodd" d="M1455.2 342.144L1617.28 335.565L1618.24 334.426L1594.03 312.224C1556.9 278.163 1502.28 279.835 1472.03 315.957L1452.32 339.504L1455.2 342.144Z" fill="#529D6A"/>
<path d="M1682.74 495.585L1666.95 466.556C1642.72 422.021 1589.59 403.709 1548.28 425.655L1521.35 439.961L1537.14 468.99C1561.37 513.525 1614.5 531.836 1655.81 509.89L1682.74 495.585Z" fill="url(#paint40_linear_70:3)"/>
<path opacity="0.5" fill-rule="evenodd" clip-rule="evenodd" d="M1523.23 443.413L1681.44 496.276L1682.74 495.584L1666.95 466.555C1642.72 422.02 1589.59 403.709 1548.28 425.655L1521.35 439.96L1523.23 443.413Z" fill="#529D6A"/>
<path d="M1706.72 442.889L1688.44 415.353C1660.39 373.109 1669.12 317.717 1707.94 291.632L1733.24 274.629L1751.53 302.165C1779.58 344.409 1770.85 399.801 1732.03 425.886L1706.72 442.889Z" fill="url(#paint41_linear_70:3)"/>
<path opacity="0.5" fill-rule="evenodd" clip-rule="evenodd" d="M1735.42 277.906L1707.95 442.068L1706.72 442.89L1688.44 415.354C1660.39 373.11 1669.12 317.718 1707.94 291.634L1733.24 274.63L1735.42 277.906Z" fill="#529D6A"/>
<path d="M1723.39 604.69L1713.27 573.395C1697.75 525.385 1721.89 476.212 1767.2 463.565L1796.73 455.321L1806.85 486.616C1822.37 534.627 1798.23 583.799 1752.92 596.447L1723.39 604.69Z" fill="url(#paint42_linear_70:3)"/>
<path opacity="0.5" fill-rule="evenodd" clip-rule="evenodd" d="M1797.93 459.042L1724.82 604.29L1723.39 604.689L1713.27 573.394C1697.75 525.383 1721.89 476.21 1767.2 463.563L1796.73 455.319L1797.93 459.042Z" fill="#529D6A"/>
<path d="M244.851 908.23L130.998 1080.87L77.9981 1080.87L216.98 889.561C220.554 884.513 221.591 878.096 219.789 872.179L212.435 848.026C207.233 830.942 209.912 812.428 219.743 797.519L235.998 772.868L375.488 594.723C377.563 592.073 381.333 591.474 384.127 593.351C387.089 595.341 387.862 599.364 385.847 602.31L260.776 785.116C258.489 788.459 259.598 793.047 263.159 794.976C266.204 796.625 270.001 795.735 271.995 792.904L398.878 612.79C400.861 609.975 404.73 609.259 407.589 611.18C410.467 613.113 411.257 617.001 409.36 619.903L287.522 806.39C285.621 809.3 286.412 813.198 289.298 815.136C292.153 817.054 296.017 816.351 298.012 813.549L426.229 633.572C428.335 630.616 432.583 630.239 435.176 632.777C437.201 634.759 437.535 637.898 435.973 640.26L314.065 824.68C312.137 827.597 312.923 831.523 315.825 833.472C318.667 835.381 322.509 834.699 324.521 831.93L456.23 650.644C457.329 649.13 459.203 648.386 461.042 648.733C464.296 649.348 465.985 652.976 464.36 655.862L352.528 854.506L337.867 874.996C326.093 891.453 306.817 900.866 286.599 900.032L262.513 899.039C255.41 898.746 248.686 902.245 244.851 908.23Z" fill="url(#paint43_linear_70:3)"/>
<path d="M547 214C547 302.918 474.918 375 386 375C297.082 375 225 302.918 225 214C225 125.082 297.082 53 386 53C474.918 53 547 125.082 547 214Z" fill="url(#paint44_radial_70:3)"/>
<path fill-rule="evenodd" clip-rule="evenodd" d="M386 367C470.5 367 539 298.5 539 214C539 129.5 470.5 61 386 61C301.5 61 233 129.5 233 214C233 298.5 301.5 367 386 367ZM386 375C474.918 375 547 302.918 547 214C547 125.082 474.918 53 386 53C297.082 53 225 125.082 225 214C225 302.918 297.082 375 386 375Z" fill="white"/>
<path d="M464 337.5C464 380.854 428.854 416 385.5 416C342.146 416 307 380.854 307 337.5C307 294.146 342.146 259 385.5 259C428.854 259 464 294.146 464 337.5Z" fill="url(#paint45_radial_70:3)"/>
<path fill-rule="evenodd" clip-rule="evenodd" d="M385.5 408C424.436 408 456 376.436 456 337.5C456 298.564 424.436 267 385.5 267C346.564 267 315 298.564 315 337.5C315 376.436 346.564 408 385.5 408ZM385.5 416C428.854 416 464 380.854 464 337.5C464 294.146 428.854 259 385.5 259C342.146 259 307 294.146 307 337.5C307 380.854 342.146 416 385.5 416Z" fill="white"/>
<circle cx="385.5" cy="213.5" r="118.5" fill="#6C1C51"/>
<path d="M1462.73 851.382C1428.08 814.972 1429.52 757.371 1465.93 722.728C1502.34 688.084 1559.94 689.516 1594.58 725.926C1629.22 762.336 1627.79 819.937 1591.38 854.58C1554.97 889.224 1497.37 887.792 1462.73 851.382Z" fill="url(#paint46_linear_70:3)"/>
<path d="M1472.09 842.98C1442.1 811.454 1443.34 761.581 1474.86 731.585C1506.39 701.589 1556.26 702.828 1586.26 734.354C1616.26 765.88 1615.02 815.753 1583.49 845.749C1551.96 875.746 1502.09 874.506 1472.09 842.98Z" fill="#F9747C"/>
<path fill-rule="evenodd" clip-rule="evenodd" d="M1545.05 795.131C1539.66 795.407 1535.26 799.52 1534.61 804.876L1530.92 835.215C1528.81 852.617 1549.83 862.922 1562.29 850.591L1587.88 825.266C1599.96 813.317 1590.89 792.777 1573.92 793.648L1545.05 795.131ZM1512.06 782.171C1517.45 781.894 1521.85 777.782 1522.5 772.425L1526.19 742.086C1528.3 724.684 1507.28 714.379 1494.82 726.71L1469.23 752.035C1457.15 763.984 1466.22 784.524 1483.19 783.653L1512.06 782.171ZM1509.7 795.159C1515.06 795.81 1519.17 800.218 1519.45 805.607L1520.93 834.477C1521.8 851.442 1501.26 860.51 1489.31 848.436L1463.99 822.847C1451.66 810.387 1461.96 789.363 1479.36 791.475L1509.7 795.159ZM1545.94 780.397C1540.57 779.853 1536.38 775.526 1535.99 770.144L1533.82 739.659C1532.58 722.174 1554.09 712.927 1565.92 725.862L1590.22 752.427C1601.68 764.961 1591.6 785.025 1574.7 783.312L1545.94 780.397Z" fill="url(#paint47_linear_70:3)"/>
<path fill-rule="evenodd" clip-rule="evenodd" d="M1531.19 814.351C1529.64 829.762 1548.32 838.781 1559.43 827.789L1565.92 821.361C1576.66 810.733 1568.79 792.541 1553.85 792.925C1554.45 790.141 1554.61 787.28 1554.34 784.45L1554.54 784.47C1569.72 786.003 1578.77 767.973 1568.47 756.71L1562.3 749.967C1552.15 738.868 1534.07 745.941 1533.43 760.283C1531.04 759.702 1528.59 759.443 1526.14 759.507C1524.31 746.753 1508.04 740.295 1497.98 750.25L1491.49 756.678C1481.8 766.263 1487.25 781.999 1499.38 784.714C1499.16 787.245 1499.29 789.801 1499.77 792.306C1485.41 792.233 1477.45 809.944 1488.03 820.635L1494.46 827.13C1505.2 837.979 1523.65 829.835 1522.88 814.591L1522.87 814.397C1525.63 814.8 1528.43 814.785 1531.19 814.351Z" fill="#F9747C"/>
<path fill-rule="evenodd" clip-rule="evenodd" d="M1567.33 832.527C1565.93 831.047 1565.38 829.277 1566.12 828.572C1566.86 827.868 1568.61 828.497 1570.01 829.977C1571.42 831.458 1571.96 833.228 1571.22 833.932C1570.48 834.636 1568.74 834.007 1567.33 832.527ZM1579.66 817.396C1577.7 816.819 1576.35 815.556 1576.64 814.576C1576.93 813.597 1578.75 813.27 1580.71 813.848C1582.67 814.426 1584.02 815.688 1583.73 816.668C1583.44 817.648 1581.62 817.974 1579.66 817.396ZM1552.47 839.617C1551.47 839.857 1551.06 841.661 1551.54 843.647C1552.02 845.633 1553.21 847.048 1554.2 846.809C1555.19 846.569 1555.61 844.765 1555.13 842.779C1554.65 840.793 1553.46 839.378 1552.47 839.617Z" fill="#F2C76C"/>
<path fill-rule="evenodd" clip-rule="evenodd" d="M1484.24 827.57C1485.72 826.159 1487.49 825.614 1488.19 826.353C1488.9 827.092 1488.27 828.834 1486.79 830.245C1485.31 831.656 1483.55 832.201 1482.84 831.462C1482.13 830.723 1482.76 828.981 1484.24 827.57ZM1499.39 839.872C1499.96 837.911 1501.23 836.555 1502.21 836.841C1503.19 837.128 1503.51 838.95 1502.94 840.911C1502.37 842.872 1501.11 844.228 1500.13 843.941C1499.15 843.655 1498.82 841.832 1499.39 839.872ZM1477.12 812.714C1476.88 811.722 1475.08 811.308 1473.09 811.791C1471.11 812.274 1469.69 813.471 1469.93 814.463C1470.17 815.456 1471.98 815.869 1473.96 815.386C1475.95 814.903 1477.36 813.706 1477.12 812.714Z" fill="#F2C76C"/>
<path fill-rule="evenodd" clip-rule="evenodd" d="M1476.88 759.459C1478.84 760.036 1480.19 761.299 1479.9 762.279C1479.61 763.258 1477.79 763.584 1475.83 763.007C1473.87 762.429 1472.52 761.166 1472.8 760.187C1473.09 759.207 1474.92 758.881 1476.88 759.459ZM1489.2 744.328C1490.61 745.808 1491.15 747.578 1490.41 748.282C1489.67 748.987 1487.93 748.358 1486.52 746.877C1485.12 745.397 1484.57 743.627 1485.31 742.923C1486.05 742.218 1487.8 742.847 1489.2 744.328ZM1504.07 737.237C1505.06 736.998 1505.48 735.194 1505 733.208C1504.52 731.221 1503.33 729.806 1502.34 730.046C1501.34 730.285 1500.93 732.09 1501.41 734.076C1501.89 736.062 1503.08 737.477 1504.07 737.237Z" fill="#F2C76C"/>
<path fill-rule="evenodd" clip-rule="evenodd" d="M1557.15 736.984C1556.57 738.944 1555.31 740.301 1554.33 740.014C1553.35 739.727 1553.02 737.905 1553.6 735.944C1554.17 733.983 1555.43 732.627 1556.41 732.914C1557.39 733.201 1557.72 735.023 1557.15 736.984ZM1572.3 749.285C1570.82 750.697 1569.05 751.241 1568.35 750.502C1567.64 749.763 1568.27 748.021 1569.75 746.61C1571.22 745.199 1572.99 744.654 1573.7 745.393C1574.4 746.132 1573.78 747.874 1572.3 749.285ZM1579.42 764.141C1579.66 765.134 1581.46 765.547 1583.45 765.064C1585.43 764.581 1586.85 763.384 1586.6 762.392C1586.36 761.4 1584.56 760.986 1582.57 761.469C1580.59 761.953 1579.17 763.149 1579.42 764.141Z" fill="#F2C76C"/>
<path d="M1551.72 1021.87C1501.98 1014.69 1467.48 968.54 1474.66 918.798C1481.85 869.056 1527.99 834.556 1577.74 841.741C1627.48 848.925 1661.98 895.073 1654.79 944.814C1647.61 994.556 1601.46 1029.06 1551.72 1021.87Z" fill="url(#paint48_linear_70:3)"/>
<path d="M1553.88 1009.48C1510.81 1003.26 1480.94 963.299 1487.16 920.229C1493.38 877.16 1533.34 847.289 1576.41 853.509C1619.48 859.73 1649.35 899.687 1643.13 942.756C1636.91 985.825 1596.95 1015.7 1553.88 1009.48Z" fill="#F9747C"/>
<path fill-rule="evenodd" clip-rule="evenodd" d="M1581.62 926.753C1577.56 930.303 1576.64 936.261 1579.44 940.872L1595.31 966.991C1604.41 981.973 1627.31 977.066 1629.47 959.671L1633.91 923.944C1636.01 907.087 1616.18 896.555 1603.39 907.732L1581.62 926.753ZM1547.68 936.977C1551.74 933.426 1552.66 927.468 1549.86 922.857L1533.99 896.738C1524.89 881.757 1501.99 886.663 1499.83 904.059L1495.38 939.786C1493.29 956.643 1513.12 967.175 1525.91 955.998L1547.68 936.977ZM1553.86 948.64C1558.47 945.838 1564.43 946.759 1567.98 950.822L1587 972.591C1598.18 985.383 1587.64 1005.21 1570.79 1003.12L1535.06 998.671C1517.67 996.506 1512.76 973.612 1527.74 964.509L1553.86 948.64ZM1573.21 914.625C1568.65 917.517 1562.68 916.715 1559.05 912.723L1538.49 890.111C1526.69 877.141 1537.88 856.571 1555.17 859.417L1590.7 865.263C1607.46 868.021 1611.95 890.021 1597.61 899.127L1573.21 914.625Z" fill="url(#paint49_linear_70:3)"/>
<path fill-rule="evenodd" clip-rule="evenodd" d="M1582.61 950.43C1590.93 963.498 1611.19 959.031 1613.11 943.525L1614.24 934.456C1616.11 919.463 1598.67 910.036 1587.17 919.581C1585.92 917.022 1584.28 914.671 1582.31 912.615L1582.48 912.511C1595.36 904.323 1591.32 884.557 1576.26 882.078L1567.24 880.594C1552.4 878.152 1542.56 894.894 1550.93 906.561C1548.7 907.58 1546.61 908.892 1544.73 910.455C1535.4 901.566 1518.62 906.554 1516.87 920.598L1515.75 929.666C1514.06 943.187 1528.08 952.182 1539.29 946.816C1540.68 948.94 1542.36 950.868 1544.29 952.54C1532.96 961.362 1537.66 980.204 1552.59 982.06L1561.66 983.189C1576.8 985.073 1586.27 967.258 1576.23 955.759L1576.1 955.613C1578.52 954.224 1580.72 952.476 1582.61 950.43Z" fill="#F9747C"/>
<path fill-rule="evenodd" clip-rule="evenodd" d="M1622.26 942.359C1620.23 942.066 1618.71 941.01 1618.86 939.999C1619.01 938.988 1620.76 938.405 1622.79 938.697C1624.81 938.989 1626.33 940.046 1626.18 941.057C1626.04 942.068 1624.28 942.651 1622.26 942.359ZM1622.59 922.844C1620.69 923.602 1618.84 923.447 1618.46 922.499C1618.09 921.551 1619.32 920.167 1621.21 919.409C1623.11 918.65 1624.96 918.805 1625.34 919.754C1625.71 920.702 1624.48 922.086 1622.59 922.844ZM1614.96 957.126C1614.33 957.928 1615.12 959.603 1616.72 960.867C1618.33 962.131 1620.14 962.505 1620.77 961.703C1621.4 960.9 1620.61 959.225 1619.01 957.961C1617.4 956.697 1615.59 956.323 1614.96 957.126Z" fill="#F2C76C"/>
<path fill-rule="evenodd" clip-rule="evenodd" d="M1553.89 989.856C1554.18 987.834 1555.24 986.311 1556.25 986.455C1557.26 986.6 1557.85 988.356 1557.56 990.379C1557.27 992.401 1556.21 993.924 1555.2 993.78C1554.19 993.635 1553.61 991.879 1553.89 989.856ZM1573.41 990.151C1572.65 988.255 1572.8 986.41 1573.75 986.029C1574.7 985.649 1576.08 986.877 1576.84 988.773C1577.6 990.669 1577.45 992.514 1576.51 992.895C1575.56 993.275 1574.17 992.047 1573.41 990.151ZM1539.11 982.584C1538.31 981.953 1536.64 982.745 1535.38 984.352C1534.12 985.96 1533.74 987.774 1534.55 988.404C1535.35 989.035 1537.03 988.243 1538.29 986.636C1539.55 985.029 1539.92 983.215 1539.11 982.584Z" fill="#F2C76C"/>
<path fill-rule="evenodd" clip-rule="evenodd" d="M1505.98 940.889C1507.88 940.131 1509.73 940.285 1510.11 941.234C1510.48 942.182 1509.25 943.566 1507.36 944.324C1505.46 945.082 1503.61 944.927 1503.24 943.979C1502.86 943.031 1504.09 941.647 1505.98 940.889ZM1506.31 921.374C1508.34 921.666 1509.86 922.722 1509.71 923.733C1509.56 924.744 1507.81 925.327 1505.78 925.035C1503.76 924.743 1502.24 923.687 1502.39 922.676C1502.53 921.665 1504.29 921.082 1506.31 921.374ZM1513.61 906.607C1514.24 905.805 1513.45 904.129 1511.85 902.865C1510.24 901.601 1508.43 901.227 1507.8 902.03C1507.17 902.832 1507.96 904.507 1509.56 905.771C1511.17 907.035 1512.98 907.409 1513.61 906.607Z" fill="#F2C76C"/>
<path fill-rule="evenodd" clip-rule="evenodd" d="M1555.16 873.58C1555.92 875.476 1555.77 877.321 1554.82 877.702C1553.88 878.083 1552.49 876.855 1551.73 874.959C1550.97 873.063 1551.12 871.218 1552.07 870.837C1553.01 870.456 1554.4 871.684 1555.16 873.58ZM1574.68 873.875C1574.39 875.898 1573.33 877.421 1572.32 877.276C1571.31 877.132 1570.73 875.376 1571.01 873.353C1571.3 871.33 1572.36 869.808 1573.37 869.952C1574.38 870.096 1574.96 871.853 1574.68 873.875ZM1589.46 881.148C1590.26 881.778 1591.93 880.987 1593.19 879.379C1594.46 877.772 1594.83 875.958 1594.02 875.327C1593.22 874.697 1591.55 875.488 1590.28 877.096C1589.02 878.703 1588.65 880.517 1589.46 881.148Z" fill="#F2C76C"/>
<path fill-rule="evenodd" clip-rule="evenodd" d="M155.082 342.464L181.624 297.841L178.159 295.781L151.618 340.404C137.28 364.508 129.896 391.559 129.553 418.729L113.963 374.973L110.166 376.325L129.269 429.943L129.8 429.754C130.853 448.034 135.104 466.196 142.581 483.375L110.099 449.422L107.187 452.208L148.254 495.136L176.875 551.06L180.463 549.224L150.377 490.437C144.323 478.607 139.91 466.201 137.13 453.535L180.447 403.677L177.404 401.034L136.122 448.55C129.463 412.537 135.859 374.782 155.082 342.464Z" fill="#B43945"/>
<circle r="28.6882" transform="matrix(-0.722587 0.69128 0.69128 0.722587 163.802 317.568)" fill="url(#paint50_radial_70:3)"/>
<circle r="28.6882" transform="matrix(-0.722587 0.69128 0.69128 0.722587 176.867 396.278)" fill="url(#paint51_radial_70:3)"/>
<circle r="28.6882" transform="matrix(-0.722587 0.69128 0.69128 0.722587 101.832 367.197)" fill="url(#paint52_radial_70:3)"/>
<circle r="28.6882" transform="matrix(-0.722587 0.69128 0.69128 0.722587 90.7054 448.662)" fill="url(#paint53_radial_70:3)"/>
</g>
<defs>
<radialGradient id="paint0_radial_70:3" cx="0" cy="0" r="1" gradientUnits="userSpaceOnUse" gradientTransform="translate(959.5 539.5) rotate(80.7113) scale(357.035)">
<stop stop-color="#DDE5EF"/>
<stop offset="1" stop-color="#F8F9FA"/>
</radialGradient>
<radialGradient id="paint1_radial_70:3" cx="0" cy="0" r="1" gradientUnits="userSpaceOnUse" gradientTransform="translate(958.841 538.841) rotate(84.2286) scale(579.634)">
<stop stop-color="#E8EDF3"/>
<stop offset="1" stop-color="#F8F9FA"/>
</radialGradient>
<linearGradient id="paint2_linear_70:3" x1="962.827" y1="290" x2="962.827" y2="838.78" gradientUnits="userSpaceOnUse">
<stop stop-color="#F1D8BB"/>
<stop offset="1" stop-color="#F2DEA5"/>
</linearGradient>
<linearGradient id="paint3_linear_70:3" x1="962.827" y1="254" x2="962.827" y2="802.78" gradientUnits="userSpaceOnUse">
<stop stop-color="#F1D8BB"/>
<stop offset="1" stop-color="#F2DEA5"/>
</linearGradient>
<linearGradient id="paint4_linear_70:3" x1="922.502" y1="554" x2="922.502" y2="792.64" gradientUnits="userSpaceOnUse">
<stop stop-color="#F1D8BB"/>
<stop offset="1" stop-color="#F2DEA5"/>
</linearGradient>
<linearGradient id="paint5_linear_70:3" x1="779.502" y1="247" x2="779.502" y2="485.64" gradientUnits="userSpaceOnUse">
<stop stop-color="#F1D8BB"/>
<stop offset="1" stop-color="#F2DEA5"/>
</linearGradient>
<linearGradient id="paint6_linear_70:3" x1="868.502" y1="510" x2="868.502" y2="748.64" gradientUnits="userSpaceOnUse">
<stop stop-color="#F1D8BB"/>
<stop offset="1" stop-color="#F2DEA5"/>
</linearGradient>
<linearGradient id="paint7_linear_70:3" x1="986.001" y1="217" x2="986.001" y2="517.545" gradientUnits="userSpaceOnUse">
<stop stop-color="#F1D8BB"/>
<stop offset="1" stop-color="#F2DEA5"/>
</linearGradient>
<linearGradient id="paint8_linear_70:3" x1="1189.53" y1="449" x2="1189.53" y2="735.794" gradientUnits="userSpaceOnUse">
<stop stop-color="#F1D8BB"/>
<stop offset="1" stop-color="#F2DEA5"/>
</linearGradient>
<linearGradient id="paint9_linear_70:3" x1="1083.5" y1="523" x2="1083.5" y2="762" gradientUnits="userSpaceOnUse">
<stop stop-color="#F1D8BB"/>
<stop offset="1" stop-color="#F2DEA5"/>
</linearGradient>
<linearGradient id="paint10_linear_70:3" x1="1097.28" y1="300" x2="1097.28" y2="727.47" gradientUnits="userSpaceOnUse">
<stop stop-color="#F1D8BB"/>
<stop offset="1" stop-color="#F2DEA5"/>
</linearGradient>
<linearGradient id="paint11_linear_70:3" x1="977.277" y1="270" x2="977.277" y2="697.47" gradientUnits="userSpaceOnUse">
<stop stop-color="#F1D8BB"/>
<stop offset="1" stop-color="#F2DEA5"/>
</linearGradient>
<linearGradient id="paint12_linear_70:3" x1="804.502" y1="539" x2="804.502" y2="777.64" gradientUnits="userSpaceOnUse">
<stop stop-color="#F1D8BB"/>
<stop offset="1" stop-color="#F2DEA5"/>
</linearGradient>
<linearGradient id="paint13_linear_70:3" x1="1080.5" y1="445" x2="1080.5" y2="683.64" gradientUnits="userSpaceOnUse">
<stop stop-color="#F1D8BB"/>
<stop offset="1" stop-color="#F2DEA5"/>
</linearGradient>
<linearGradient id="paint14_linear_70:3" x1="1007.28" y1="390" x2="1007.28" y2="817.47" gradientUnits="userSpaceOnUse">
<stop stop-color="#F1D8BB"/>
<stop offset="1" stop-color="#F2DEA5"/>
</linearGradient>
<linearGradient id="paint15_linear_70:3" x1="930.121" y1="526" x2="930.121" y2="775.597" gradientUnits="userSpaceOnUse">
<stop stop-color="#F1D8BB"/>
<stop offset="1" stop-color="#F2DEA5"/>
</linearGradient>
<linearGradient id="paint16_linear_70:3" x1="965.001" y1="293" x2="965.001" y2="593.545" gradientUnits="userSpaceOnUse">
<stop stop-color="#F1D8BB"/>
<stop offset="1" stop-color="#F2DEA5"/>
</linearGradient>
<linearGradient id="paint17_linear_70:3" x1="965.001" y1="270" x2="965.001" y2="570.545" gradientUnits="userSpaceOnUse">
<stop stop-color="#F1D8BB"/>
<stop offset="1" stop-color="#F2DEA5"/>
</linearGradient>
<linearGradient id="paint18_linear_70:3" x1="791.121" y1="433" x2="791.121" y2="682.597" gradientUnits="userSpaceOnUse">
<stop stop-color="#F1D8BB"/>
<stop offset="1" stop-color="#F2DEA5"/>
</linearGradient>
<linearGradient id="paint19_linear_70:3" x1="905.277" y1="306" x2="905.277" y2="733.47" gradientUnits="userSpaceOnUse">
<stop stop-color="#F1D8BB"/>
<stop offset="1" stop-color="#F2DEA5"/>
</linearGradient>
<linearGradient id="paint20_linear_70:3" x1="818.121" y1="483" x2="818.121" y2="732.597" gradientUnits="userSpaceOnUse">
<stop stop-color="#F1D8BB"/>
<stop offset="1" stop-color="#F2DEA5"/>
</linearGradient>
<linearGradient id="paint21_linear_70:3" x1="1060.12" y1="375" x2="1060.12" y2="624.597" gradientUnits="userSpaceOnUse">
<stop stop-color="#F1D8BB"/>
<stop offset="1" stop-color="#F2DEA5"/>
</linearGradient>
<linearGradient id="paint22_linear_70:3" x1="1101" y1="303" x2="1101" y2="713" gradientUnits="userSpaceOnUse">
<stop stop-color="#F1D8BB"/>
<stop offset="1" stop-color="#F2DEA5"/>
</linearGradient>
<linearGradient id="paint23_linear_70:3" x1="959.534" y1="239" x2="959.534" y2="525.794" gradientUnits="userSpaceOnUse">
<stop stop-color="#F1D8BB"/>
<stop offset="1" stop-color="#F2DEA5"/>
</linearGradient>
<linearGradient id="paint24_linear_70:3" x1="810.277" y1="275" x2="810.277" y2="702.47" gradientUnits="userSpaceOnUse">
<stop stop-color="#F1D8BB"/>
<stop offset="1" stop-color="#F2DEA5"/>
</linearGradient>
<linearGradient id="paint25_linear_70:3" x1="1015.83" y1="286" x2="1015.83" y2="834.78" gradientUnits="userSpaceOnUse">
<stop stop-color="#F1D8BB"/>
<stop offset="1" stop-color="#F2DEA5"/>
</linearGradient>
<linearGradient id="paint26_linear_70:3" x1="1081.5" y1="556" x2="1081.5" y2="795" gradientUnits="userSpaceOnUse">
<stop stop-color="#F1D8BB"/>
<stop offset="1" stop-color="#F2DEA5"/>
</linearGradient>
<linearGradient id="paint27_linear_70:3" x1="990.277" y1="342" x2="990.277" y2="769.47" gradientUnits="userSpaceOnUse">
<stop stop-color="#F1D8BB"/>
<stop offset="1" stop-color="#F2DEA5"/>
</linearGradient>
<linearGradient id="paint28_linear_70:3" x1="952.827" y1="300" x2="952.827" y2="848.78" gradientUnits="userSpaceOnUse">
<stop stop-color="#F1D8BB"/>
<stop offset="1" stop-color="#F2DEA5"/>
</linearGradient>
<linearGradient id="paint29_linear_70:3" x1="995.815" y1="288" x2="995.815" y2="701.969" gradientUnits="userSpaceOnUse">
<stop stop-color="#F1D8BB"/>
<stop offset="1" stop-color="#F2DEA5"/>
</linearGradient>
<linearGradient id="paint30_linear_70:3" x1="847.534" y1="387" x2="847.534" y2="673.794" gradientUnits="userSpaceOnUse">
<stop stop-color="#F1D8BB"/>
<stop offset="1" stop-color="#F2DEA5"/>
</linearGradient>
<linearGradient id="paint31_linear_70:3" x1="854.534" y1="544" x2="854.534" y2="830.794" gradientUnits="userSpaceOnUse">
<stop stop-color="#F1D8BB"/>
<stop offset="1" stop-color="#F2DEA5"/>
</linearGradient>
<linearGradient id="paint32_linear_70:3" x1="917.5" y1="416" x2="917.5" y2="655" gradientUnits="userSpaceOnUse">
<stop stop-color="#F1D8BB"/>
<stop offset="1" stop-color="#F2DEA5"/>
</linearGradient>
<radialGradient id="paint33_radial_70:3" cx="0" cy="0" r="1" gradientUnits="userSpaceOnUse" gradientTransform="translate(937 548) rotate(90.1868) scale(460.002 450.134)">
<stop stop-color="#F07261"/>
<stop offset="1" stop-color="#E62151"/>
</radialGradient>
<linearGradient id="paint34_linear_70:3" x1="802.012" y1="523.633" x2="901.416" y2="509.049" gradientUnits="userSpaceOnUse">
<stop stop-color="#64B581"/>
<stop offset="1" stop-color="#8DE691"/>
</linearGradient>
<linearGradient id="paint35_linear_70:3" x1="1023.07" y1="620.127" x2="980.627" y2="711.188" gradientUnits="userSpaceOnUse">
<stop stop-color="#64B581"/>
<stop offset="1" stop-color="#8DE691"/>
</linearGradient>
<linearGradient id="paint36_linear_70:3" x1="1072.19" y1="481.317" x2="1008.18" y2="403.878" gradientUnits="userSpaceOnUse">
<stop stop-color="#64B581"/>
<stop offset="1" stop-color="#8DE691"/>
</linearGradient>
<linearGradient id="paint37_linear_70:3" x1="1486.04" y1="242.903" x2="1371.87" y2="226.573" gradientUnits="userSpaceOnUse">
<stop stop-color="#64B581"/>
<stop offset="1" stop-color="#8DE691"/>
</linearGradient>
<linearGradient id="paint38_linear_70:3" x1="1617.01" y1="165.307" x2="1622.88" y2="283.8" gradientUnits="userSpaceOnUse">
<stop stop-color="#64B581"/>
<stop offset="1" stop-color="#8DE691"/>
</linearGradient>
<linearGradient id="paint39_linear_70:3" x1="1496.81" y1="348.522" x2="1610.49" y2="344.432" gradientUnits="userSpaceOnUse">
<stop stop-color="#64B581"/>
<stop offset="1" stop-color="#8DE691"/>
</linearGradient>
<linearGradient id="paint40_linear_70:3" x1="1561.12" y1="464.338" x2="1672.26" y2="500.793" gradientUnits="userSpaceOnUse">
<stop stop-color="#64B581"/>
<stop offset="1" stop-color="#8DE691"/>
</linearGradient>
<linearGradient id="paint41_linear_70:3" x1="1736.15" y1="321.1" x2="1716.18" y2="436.094" gradientUnits="userSpaceOnUse">
<stop stop-color="#64B581"/>
<stop offset="1" stop-color="#8DE691"/>
</linearGradient>
<linearGradient id="paint42_linear_70:3" x1="1786.48" y1="499.673" x2="1735.41" y2="601.628" gradientUnits="userSpaceOnUse">
<stop stop-color="#64B581"/>
<stop offset="1" stop-color="#8DE691"/>
</linearGradient>
<linearGradient id="paint43_linear_70:3" x1="560.88" y1="670.5" x2="89.4982" y2="1075.87" gradientUnits="userSpaceOnUse">
<stop stop-color="#FAFBFB"/>
<stop offset="1" stop-color="#DEEBF2"/>
</linearGradient>
<radialGradient id="paint44_radial_70:3" cx="0" cy="0" r="1" gradientUnits="userSpaceOnUse" gradientTransform="translate(379.5 214) rotate(91.7241) scale(149.568)">
<stop stop-color="#D3DDEA" stop-opacity="0.33"/>
<stop offset="1" stop-color="#F8F9FA" stop-opacity="0.79"/>
</radialGradient>
<radialGradient id="paint45_radial_70:3" cx="0" cy="0" r="1" gradientUnits="userSpaceOnUse" gradientTransform="translate(382.331 337.5) rotate(91.7241) scale(72.9259)">
<stop stop-color="#D3DDEA" stop-opacity="0.33"/>
<stop offset="1" stop-color="#F8F9FA" stop-opacity="0.79"/>
</radialGradient>
<linearGradient id="paint46_linear_70:3" x1="1624.26" y1="847.81" x2="1437.9" y2="776.455" gradientUnits="userSpaceOnUse">
<stop stop-color="#E23B45"/>
<stop offset="1" stop-color="#F4616A"/>
</linearGradient>
<linearGradient id="paint47_linear_70:3" x1="1600.64" y1="832.463" x2="1460.98" y2="777.004" gradientUnits="userSpaceOnUse">
<stop stop-color="#E23B45"/>
<stop offset="1" stop-color="#F4616A"/>
</linearGradient>
<linearGradient id="paint48_linear_70:3" x1="1676.44" y1="919.161" x2="1485.87" y2="978.349" gradientUnits="userSpaceOnUse">
<stop stop-color="#E23B45"/>
<stop offset="1" stop-color="#F4616A"/>
</linearGradient>
<linearGradient id="paint49_linear_70:3" x1="1648.39" y1="921.71" x2="1504.34" y2="964.51" gradientUnits="userSpaceOnUse">
<stop stop-color="#E23B45"/>
<stop offset="1" stop-color="#F4616A"/>
</linearGradient>
<radialGradient id="paint50_radial_70:3" cx="0" cy="0" r="1" gradientUnits="userSpaceOnUse" gradientTransform="translate(26.75 28.6882) rotate(100.968) scale(50.9411 60.3832)">
<stop stop-color="#F0D36D"/>
<stop offset="0.40243" stop-color="#F2C76C"/>
<stop offset="1" stop-color="#F0864C"/>
</radialGradient>
<radialGradient id="paint51_radial_70:3" cx="0" cy="0" r="1" gradientUnits="userSpaceOnUse" gradientTransform="translate(26.75 28.6882) rotate(100.968) scale(50.9411 60.3832)">
<stop stop-color="#F0D36D"/>
<stop offset="0.40243" stop-color="#F2C76C"/>
<stop offset="1" stop-color="#F0864C"/>
</radialGradient>
<radialGradient id="paint52_radial_70:3" cx="0" cy="0" r="1" gradientUnits="userSpaceOnUse" gradientTransform="translate(26.75 28.6882) rotate(100.968) scale(50.9411 60.3832)">
<stop stop-color="#F0D36D"/>
<stop offset="0.40243" stop-color="#F2C76C"/>
<stop offset="1" stop-color="#F0864C"/>
</radialGradient>
<radialGradient id="paint53_radial_70:3" cx="0" cy="0" r="1" gradientUnits="userSpaceOnUse" gradientTransform="translate(26.75 28.6882) rotate(100.968) scale(50.9411 60.3832)">
<stop stop-color="#F0D36D"/>
<stop offset="0.40243" stop-color="#F2C76C"/>
<stop offset="1" stop-color="#F0864C"/>
</radialGradient>
<clipPath id="clip0_70:3">
<rect width="1920" height="1080" fill="white"/>
</clipPath>
</defs>
</svg>
