<svg width="1920" height="1080" viewBox="0 0 1920 1080" fill="none" xmlns="http://www.w3.org/2000/svg">
<g clip-path="url(#clip0_51:723)">
<rect width="1920" height="1080" fill="#FFF2EC"/>
<path d="M0 816L1919.5 130.5L1920 1080H0V816Z" fill="#D55561"/>
<path fill-rule="evenodd" clip-rule="evenodd" d="M0.0877686 1068.28L213.262 990.773L88.8265 784.309L91.7089 783.28L216.135 989.728L491.331 889.675L367.784 684.687L370.666 683.657L494.204 888.63L743.971 797.822L621.232 594.174L624.114 593.145L746.844 796.777L953.957 721.477L831.89 518.943L834.773 517.914L956.831 720.432L1183.63 637.974L1062.3 436.659L1065.18 435.63L1186.5 636.929L1424.79 550.296L1304.23 350.261L1307.11 349.231L1427.66 549.251L1656.92 465.899L1537.1 267.095L1539.98 266.066L1659.79 464.854L1846.73 396.887L1727.51 199.095L1730.39 198.066L1849.61 395.843L1919.71 370.354L1919.72 373.545L1851.19 398.461L1919.79 512.273L1919.79 518.089L1848.31 399.505L1661.37 467.472L1793.27 686.324L1919.86 640.302L1919.86 643.494L1794.85 688.943L1919.99 896.574L1919.99 902.391L1791.98 689.987L1562.72 773.34L1694.62 992.192L1920 910.251L1920 913.442L1696.2 994.81L1747.54 1080H1744.04L1693.33 995.855L1461.89 1080H1450.04L1318.69 862.062L1091.89 944.521L1173.54 1080H1170.04L1089.02 945.565L881.902 1020.87L917.542 1080H914.039L879.029 1021.91L719.255 1080H710.475L877.451 1019.29L745.549 800.44L495.782 891.249L609.542 1080H606.04L492.909 892.293L217.714 992.347L270.542 1080H267.039L214.841 993.391L0.0877686 1071.47V1068.28ZM1453.46 1079.87L1691.75 993.237L1559.84 774.385L1321.56 861.018L1453.46 1079.87ZM880.324 1018.25L748.422 799.396L955.535 724.095L1087.44 942.947L880.324 1018.25ZM1090.31 941.902L958.409 723.05L1185.21 640.592L1317.11 859.444L1090.31 941.902ZM1319.98 858.4L1188.08 639.548L1426.36 552.914L1558.27 771.766L1319.98 858.4ZM1561.14 770.722L1429.24 551.87L1658.5 468.517L1790.4 687.369L1561.14 770.722Z" fill="#EFB3B9"/>
<path d="M1389.6 479.47C1425.25 733.479 1248.24 968.293 994.226 1003.94C740.217 1039.59 505.403 862.573 469.755 608.564C434.107 354.554 611.124 119.741 865.133 84.0924C1119.14 48.4443 1353.96 225.461 1389.6 479.47Z" fill="url(#paint0_radial_51:723)"/>
<path fill-rule="evenodd" clip-rule="evenodd" d="M1358.71 477.117C1324.23 240.953 1105.4 76.7073 868.742 109.92C631.276 143.247 465.787 362.768 499.114 600.235C532.44 837.702 751.962 1003.19 989.429 969.864C1089.08 955.879 1176.05 909.108 1240.98 841.983L922.695 540.789L1358.71 477.117Z" fill="url(#paint1_radial_51:723)"/>
<path fill-rule="evenodd" clip-rule="evenodd" d="M1300.2 484.734C1270.41 280.66 1082.08 144.21 877.583 172.91C672.383 201.708 529.381 391.4 558.179 596.6C586.977 801.8 776.67 944.801 981.87 916.003C1067.98 903.919 1144.73 862.757 1200.84 804.753L925.946 544.056L1300.2 484.734Z" fill="url(#paint2_radial_51:723)"/>
<path fill-rule="evenodd" clip-rule="evenodd" d="M1282.85 487.055C1254.41 292.258 1074.64 162.01 879.435 189.405C683.561 216.895 547.058 397.965 574.547 593.838C602.036 789.71 783.108 926.211 978.981 898.722C1061.18 887.187 1134.44 847.896 1188 792.528L935.097 552.688C931.214 549.006 933.242 542.47 938.527 541.632L1282.85 487.055Z" fill="url(#paint3_radial_51:723)"/>
<circle cx="764.479" cy="308.865" r="45.1701" transform="rotate(-7.98883 764.479 308.865)" fill="url(#paint4_linear_51:723)"/>
<circle cx="965.491" cy="262.037" r="45.1701" transform="rotate(-7.98883 965.491 262.037)" fill="url(#paint5_linear_51:723)"/>
<circle cx="1145.03" cy="360.647" r="54.3884" transform="rotate(-7.98883 1145.03 360.647)" fill="url(#paint6_linear_51:723)"/>
<circle cx="972.745" cy="439.747" r="45.1701" transform="rotate(-7.98883 972.745 439.747)" fill="url(#paint7_linear_51:723)"/>
<circle cx="850.825" cy="502.935" r="52.0838" transform="rotate(-7.98883 850.825 502.935)" fill="url(#paint8_linear_51:723)"/>
<path d="M785.349 554.025C784.147 549.662 779.941 546.829 775.446 547.353L743.644 551.065C718.251 554.029 697.992 576.538 709.51 599.362C713.119 606.513 717.998 613.519 724.594 619.449C732.658 626.697 742.48 631.299 752.516 634.155C781.444 642.387 801.258 611.77 793.269 582.774L785.349 554.025Z" fill="#F5E6D5"/>
<path fill-rule="evenodd" clip-rule="evenodd" d="M769.406 603.292C768.084 614.771 752.024 616.293 748.57 605.267L748.396 604.711C748.143 603.905 747.286 603.457 746.48 603.709C745.675 603.961 745.227 604.819 745.479 605.624L745.653 606.18C750.094 620.357 770.743 618.4 772.442 603.642L774.313 587.398C776.189 571.101 759.407 559.102 744.593 566.148L728.335 573.88C715.856 579.816 718.941 598.384 732.669 599.965L739.795 600.785C740.633 600.882 741.391 600.28 741.488 599.442C741.584 598.604 740.983 597.846 740.144 597.749L733.019 596.928C722.342 595.699 719.942 581.257 729.648 576.64L745.906 568.908C758.552 562.893 772.878 573.136 771.276 587.048L769.406 603.292Z" fill="url(#paint9_linear_51:723)"/>
<path d="M879.042 398.025C882.394 401.066 887.463 401.207 890.979 398.357L915.849 378.192C935.707 362.091 940.763 332.232 918.813 319.124C911.936 315.018 904.063 311.713 895.317 310.238C884.625 308.435 873.867 309.808 863.861 312.771C835.022 321.309 834.685 357.777 856.959 377.987L879.042 398.025Z" fill="#F5E6D5"/>
<path fill-rule="evenodd" clip-rule="evenodd" d="M866.124 347.879C861.093 337.478 873.842 327.592 882.663 335.054L883.108 335.43C883.753 335.976 884.717 335.895 885.262 335.251C885.807 334.606 885.727 333.642 885.082 333.097L884.637 332.721C873.295 323.126 856.904 335.836 863.372 349.21L870.491 363.93C877.634 378.698 898.232 379.846 906.97 365.962L916.56 350.725C923.92 339.03 911.371 325.001 898.931 331.017L892.474 334.14C891.714 334.507 891.396 335.421 891.763 336.181C892.131 336.941 893.045 337.259 893.805 336.891L900.262 333.769C909.937 329.089 919.698 340.001 913.973 349.097L904.384 364.334C896.924 376.186 879.34 375.206 873.243 362.6L866.124 347.879Z" fill="url(#paint10_linear_51:723)"/>
<path d="M925.484 808.537C928.835 811.579 933.905 811.719 937.42 808.869L962.29 788.704C982.149 772.603 987.204 742.744 965.254 729.637C958.377 725.53 950.505 722.226 941.759 720.751C931.067 718.948 920.308 720.321 910.302 723.283C881.463 731.822 881.126 768.29 903.4 788.5L925.484 808.537Z" fill="#F5E6D5"/>
<path fill-rule="evenodd" clip-rule="evenodd" d="M912.565 758.392C907.535 747.99 920.283 738.104 929.105 745.567L929.55 745.943C930.194 746.488 931.158 746.408 931.703 745.763C932.248 745.119 932.168 744.154 931.524 743.609L931.079 743.233C919.737 733.639 903.346 746.349 909.814 759.722L916.933 774.443C924.075 789.211 944.674 790.358 953.412 776.474L963.001 761.238C970.362 749.543 957.813 735.513 945.372 741.529L938.915 744.652C938.155 745.02 937.837 745.934 938.205 746.693C938.572 747.453 939.486 747.771 940.246 747.404L946.703 744.281C956.379 739.602 966.139 750.513 960.414 759.61L950.825 774.846C943.366 786.698 925.781 785.719 919.684 773.112L912.565 758.392Z" fill="url(#paint11_linear_51:723)"/>
<path d="M1043.47 329.899C1043.63 333.275 1046.24 336.027 1049.6 336.38L1073.38 338.874C1092.37 340.866 1110.81 327.775 1106.15 309.26C1104.69 303.459 1102.28 297.556 1098.44 292.157C1093.75 285.557 1087.34 280.598 1080.5 276.876C1060.76 266.148 1041.32 285.22 1042.4 307.655L1043.47 329.899Z" fill="#F5E6D5"/>
<path fill-rule="evenodd" clip-rule="evenodd" d="M1063.14 296.604C1065.98 288.456 1077.94 289.973 1078.65 298.572L1078.69 299.006C1078.74 299.634 1079.29 300.101 1079.92 300.049C1080.55 299.996 1081.01 299.445 1080.96 298.817L1080.92 298.383C1080.01 287.327 1064.64 285.377 1060.99 295.853L1056.97 307.385C1052.94 318.953 1063.21 330.441 1075.15 327.728L1088.26 324.751C1098.33 322.466 1099.11 308.431 1089.37 305.035L1084.31 303.272C1083.72 303.065 1083.07 303.379 1082.86 303.974C1082.65 304.569 1082.97 305.22 1083.56 305.428L1088.62 307.19C1096.2 309.832 1095.59 320.748 1087.76 322.525L1074.65 325.502C1064.45 327.818 1055.68 318.012 1059.13 308.136L1063.14 296.604Z" fill="url(#paint12_linear_51:723)"/>
<path d="M751.64 429.376C754.982 428.738 757.358 425.758 757.236 422.358L756.371 398.307C755.68 379.103 740.036 362.568 722.241 369.823C716.666 372.096 711.123 375.329 706.283 379.914C700.366 385.519 696.327 392.601 693.582 399.948C685.671 421.126 707.417 437.816 729.624 433.578L751.64 429.376Z" fill="#F5E6D5"/>
<path fill-rule="evenodd" clip-rule="evenodd" d="M715.688 414.462C707.167 412.78 706.995 400.656 715.464 398.732L715.891 398.635C716.51 398.494 716.897 397.879 716.757 397.26C716.616 396.642 716.001 396.254 715.382 396.395L714.955 396.492C704.066 398.965 704.288 414.554 715.243 416.716L727.301 419.096C739.398 421.484 749.4 409.633 745.013 398.109L740.199 385.462C736.504 375.755 722.406 376.948 720.394 387.138L719.35 392.427C719.227 393.05 719.632 393.654 720.255 393.777C720.877 393.9 721.481 393.495 721.604 392.872L722.648 387.583C724.213 379.657 735.178 378.729 738.052 386.28L742.866 398.927C746.611 408.764 738.072 418.881 727.746 416.842L715.688 414.462Z" fill="url(#paint13_linear_51:723)"/>
<circle cx="843.928" cy="815.28" r="45.1701" transform="rotate(-7.98883 843.928 815.28)" fill="url(#paint14_linear_51:723)"/>
<circle cx="1040.59" cy="787.214" r="53.0057" transform="rotate(-7.98883 1040.59 787.214)" fill="url(#paint15_linear_51:723)"/>
<circle cx="900.753" cy="663.02" r="45.1701" transform="rotate(-7.98883 900.753 663.02)" fill="url(#paint16_linear_51:723)"/>
<circle cx="653.345" cy="492.019" r="45.1701" transform="rotate(-7.98883 653.345 492.019)" fill="url(#paint17_linear_51:723)"/>
<circle cx="687.809" cy="684.527" r="53.4666" transform="rotate(-7.98883 687.809 684.527)" fill="url(#paint18_linear_51:723)"/>
<path d="M625.392 406.535L653.818 403.015C697.428 397.615 737.158 428.59 742.558 472.2L746.078 500.626L717.652 504.146C674.042 509.546 634.312 478.571 628.912 434.961L625.392 406.535Z" fill="url(#paint19_linear_51:723)"/>
<path opacity="0.5" fill-rule="evenodd" clip-rule="evenodd" d="M742.696 501.046L625.561 407.911L625.391 406.536L653.817 403.016C697.427 397.616 737.157 428.591 742.558 472.201L746.078 500.627L742.696 501.046Z" fill="#529D6A"/>
<path d="M690.791 724.326L701.82 697.891C718.739 657.336 765.331 638.175 805.886 655.095L832.321 666.123L821.293 692.559C804.373 733.114 757.781 752.274 717.226 735.355L690.791 724.326Z" fill="url(#paint20_linear_51:723)"/>
<path opacity="0.5" fill-rule="evenodd" clip-rule="evenodd" d="M831.01 669.269L692.07 724.861L690.791 724.327L701.82 697.892C718.739 657.337 765.332 638.176 805.887 655.096L832.322 666.124L831.01 669.269Z" fill="#529D6A"/>
<path d="M988.771 795.674L966.83 777.262C933.168 749.015 928.778 698.829 957.025 665.167L975.437 643.226L997.379 661.638C1031.04 689.884 1035.43 740.071 1007.18 773.732L988.771 795.674Z" fill="url(#paint21_linear_51:723)"/>
<path opacity="0.5" fill-rule="evenodd" clip-rule="evenodd" d="M978.048 645.415L989.663 794.613L988.772 795.674L966.83 777.262C933.169 749.015 928.779 698.829 957.026 665.167L975.438 643.225L978.048 645.415Z" fill="#529D6A"/>
<path d="M1043.6 425.615L1067.83 410.326C1104.99 386.872 1154.12 397.983 1177.58 435.143L1192.87 459.365L1168.65 474.654C1131.49 498.108 1082.35 486.997 1058.89 449.837L1043.6 425.615Z" fill="url(#paint22_linear_51:723)"/>
<path opacity="0.5" fill-rule="evenodd" clip-rule="evenodd" d="M1189.99 461.185L1044.34 426.788L1043.61 425.616L1067.83 410.328C1104.99 386.873 1154.13 397.984 1177.58 435.144L1192.87 459.367L1189.99 461.185Z" fill="#529D6A"/>
<path d="M803.417 306.384L814.446 279.949C831.365 239.393 877.957 220.233 918.512 237.152L944.947 248.181L933.919 274.616C916.999 315.171 870.407 334.332 829.852 317.412L803.417 306.384Z" fill="url(#paint23_linear_51:723)"/>
<path opacity="0.5" fill-rule="evenodd" clip-rule="evenodd" d="M943.636 251.326L804.696 306.918L803.417 306.385L814.446 279.95C831.365 239.395 877.957 220.234 918.513 237.153L944.948 248.182L943.636 251.326Z" fill="#529D6A"/>
<path fill-rule="evenodd" clip-rule="evenodd" d="M1306.39 871.839C1407.3 778.504 1462.35 638.894 1441.8 492.46C1441.44 489.916 1441.07 487.379 1440.67 484.852L1011.88 562.715C1008.22 563.369 1006.8 567.862 1009.42 570.499L1306.39 871.839Z" fill="url(#paint24_radial_51:723)"/>
<path fill-rule="evenodd" clip-rule="evenodd" d="M1267 831.772C1352.73 752.475 1401.63 630.307 1384.17 505.897C1383.86 503.735 1383.02 497.464 1382.68 495.316L1013.35 561.119C1008.23 562.032 1006.24 568.315 1009.9 572.012L1267 831.772Z" fill="url(#paint25_radial_51:723)"/>
<path fill-rule="evenodd" clip-rule="evenodd" d="M1255.73 819.856C1337.66 743.924 1384.38 626.917 1367.65 507.745C1367.36 505.674 1366.62 500.139 1366.3 498.081L1013.34 560.945C1008.22 561.857 1006.23 568.145 1009.89 571.84L1255.73 819.856Z" fill="url(#paint26_radial_51:723)"/>
<ellipse cx="1246.45" cy="705.264" rx="54.3884" ry="53.9275" transform="rotate(-7.98883 1246.45 705.264)" fill="url(#paint27_linear_51:723)"/>
<path d="M1305.28 544.356C1304.08 539.993 1299.87 537.16 1295.38 537.684L1263.58 541.396C1238.18 544.36 1217.92 566.869 1229.44 589.693C1233.05 596.844 1237.93 603.851 1244.53 609.78C1252.59 617.028 1262.41 621.63 1272.45 624.486C1301.38 632.718 1321.19 602.101 1313.2 573.105L1305.28 544.356Z" fill="#F5E6D5"/>
<path fill-rule="evenodd" clip-rule="evenodd" d="M1289.34 593.624C1288.02 605.102 1271.96 606.624 1268.5 595.598L1268.33 595.042C1268.07 594.236 1267.22 593.788 1266.41 594.04C1265.61 594.293 1265.16 595.15 1265.41 595.955L1265.58 596.511C1270.03 610.688 1290.67 608.731 1292.37 593.973L1294.24 577.729C1296.12 561.432 1279.34 549.433 1264.52 556.479L1248.27 564.211C1235.79 570.147 1238.87 588.715 1252.6 590.296L1259.73 591.116C1260.56 591.213 1261.32 590.612 1261.42 589.773C1261.52 588.935 1260.91 588.177 1260.08 588.08L1252.95 587.26C1242.27 586.03 1239.87 571.588 1249.58 566.971L1265.84 559.239C1278.48 553.224 1292.81 563.467 1291.21 577.379L1289.34 593.624Z" fill="url(#paint28_linear_51:723)"/>
<circle cx="1147.31" cy="595.836" r="45.1701" transform="rotate(-7.98883 1147.31 595.836)" fill="url(#paint29_linear_51:723)"/>
<path d="M1159.98 557.218L1187 566.733C1228.44 581.33 1250.21 626.764 1235.61 668.211L1226.1 695.228L1199.08 685.713C1157.63 671.116 1135.87 625.683 1150.46 584.235L1159.98 557.218Z" fill="url(#paint30_linear_51:723)"/>
<path opacity="0.5" fill-rule="evenodd" clip-rule="evenodd" d="M1222.88 694.097L1159.52 558.526L1159.98 557.219L1187 566.734C1228.44 581.332 1250.21 626.765 1235.61 668.212L1226.1 695.229L1222.88 694.097Z" fill="#529D6A"/>
<path fill-rule="evenodd" clip-rule="evenodd" d="M366.322 201.401L448.38 150.663L445.646 146.241L363.588 196.979C344.062 209.053 326.199 223.221 310.238 239.113L318.098 189.92L312.965 189.1L303.941 245.577C263.777 288.077 236.69 341.898 226.881 400.533L200.795 324.932L195.881 326.628L225.231 411.688L207.168 549.962L170.298 498.697L166.078 501.732L206.495 557.929L243.482 704.635L248.523 703.365L211.536 556.659L227.665 433.187L269.602 422.774L268.35 417.728L228.388 427.652L230.465 411.755C237.815 355.483 261.294 303.282 297.16 260.946L364.881 272.524L365.757 267.4L301.135 256.352C319.853 235.168 341.747 216.596 366.322 201.401Z" fill="#C14752"/>
<path d="M582.506 136.002L553.896 117.435C510.005 88.949 451.332 101.438 422.846 145.329L404.278 173.939L432.888 192.507C476.78 220.992 535.452 208.504 563.938 164.612L582.506 136.002Z" fill="url(#paint31_linear_51:723)"/>
<path opacity="0.5" fill-rule="evenodd" clip-rule="evenodd" d="M407.682 176.149L581.609 137.388L582.507 136.004L553.897 117.436C510.005 88.9505 451.333 101.439 422.847 145.331L404.279 173.94L407.682 176.149Z" fill="#529D6A"/>
<path d="M313.607 217.125L339.026 194.385C378.023 159.497 381.354 99.6024 346.467 60.6058L323.726 35.1864L298.306 57.9273C259.31 92.8147 255.979 152.709 290.866 191.706L313.607 217.125Z" fill="url(#paint32_linear_51:723)"/>
<path opacity="0.5" fill-rule="evenodd" clip-rule="evenodd" d="M320.7 37.8902L312.505 215.895L313.605 217.124L339.024 194.383C378.021 159.496 381.352 99.6011 346.465 60.6045L323.724 35.1851L320.7 37.8902Z" fill="#529D6A"/>
<path d="M308.804 260.857L335.254 239.323C375.832 206.288 435.507 212.402 468.542 252.98L490.075 279.43L463.625 300.964C423.048 333.999 363.373 327.884 330.338 287.307L308.804 260.857Z" fill="url(#paint33_linear_51:723)"/>
<path opacity="0.5" fill-rule="evenodd" clip-rule="evenodd" d="M486.93 281.993L309.847 262.137L308.805 260.858L335.255 239.325C375.833 206.289 435.508 212.404 468.543 252.981L490.077 279.431L486.93 281.993Z" fill="#529D6A"/>
<path d="M238.305 426.019L255.564 396.601C282.043 351.471 340.093 336.35 385.224 362.829L414.641 380.088L397.382 409.506C370.903 454.636 312.853 469.757 267.722 443.278L238.305 426.019Z" fill="url(#paint34_linear_51:723)"/>
<path opacity="0.5" fill-rule="evenodd" clip-rule="evenodd" d="M412.589 383.588L239.728 426.854L238.305 426.019L255.565 396.602C282.044 351.471 340.094 336.351 385.225 362.829L414.642 380.089L412.589 383.588Z" fill="#529D6A"/>
<path d="M212.111 368.425L232.092 340.784C262.745 298.378 253.218 239.152 210.813 208.499L183.171 188.518L163.19 216.159C132.537 258.565 142.064 317.791 184.469 348.444L212.111 368.425Z" fill="url(#paint35_linear_51:723)"/>
<path opacity="0.5" fill-rule="evenodd" clip-rule="evenodd" d="M180.794 191.805L210.773 367.458L212.11 368.425L232.091 340.783C262.745 298.378 253.218 239.152 210.812 208.498L183.171 188.517L180.794 191.805Z" fill="#529D6A"/>
<path d="M193.869 538.073L204.931 505.81C221.902 456.314 195.534 402.432 146.038 385.461L113.775 374.4L102.713 406.663C85.7422 456.159 112.11 510.041 161.606 527.011L193.869 538.073Z" fill="url(#paint36_linear_51:723)"/>
<path opacity="0.5" fill-rule="evenodd" clip-rule="evenodd" d="M112.458 378.237L192.308 537.538L193.868 538.073L204.93 505.809C221.901 456.313 195.533 402.431 146.037 385.461L113.774 374.399L112.458 378.237Z" fill="#529D6A"/>
<path d="M356.411 914.234L328.47 907.928C285.605 898.254 258.699 855.663 268.373 812.798L274.679 784.857L302.62 791.163C345.485 800.837 372.391 843.428 362.717 886.293L356.411 914.234Z" fill="url(#paint37_linear_51:723)"/>
<path opacity="0.5" fill-rule="evenodd" clip-rule="evenodd" d="M278.004 785.606L356.717 912.882L356.412 914.233L328.471 907.927C285.606 898.253 258.7 855.662 268.374 812.797L274.68 784.856L278.004 785.606Z" fill="#529D6A"/>
<path d="M390.022 978.231L390.119 949.588C390.267 905.645 426.01 870.143 469.952 870.291L498.596 870.388L498.499 899.032C498.351 942.974 462.608 978.476 418.665 978.328L390.022 978.231Z" fill="url(#paint38_linear_51:723)"/>
<path opacity="0.5" fill-rule="evenodd" clip-rule="evenodd" d="M498.585 873.796L391.409 978.237L390.023 978.232L390.12 949.589C390.268 905.646 426.011 870.144 469.953 870.292L498.597 870.389L498.585 873.796Z" fill="#529D6A"/>
<path d="M1553.66 877.108L1495.52 503.094C1494.05 493.654 1505.39 487.728 1512.31 494.322L1800.22 768.936C1820.61 788.39 1829.27 817.142 1823 844.622L1797.48 956.441L1884 1080H1787.87L1735.85 987.331L1605.43 940.026C1577.98 930.072 1558.14 905.956 1553.66 877.108Z" fill="url(#paint39_linear_51:723)"/>
<path fill-rule="evenodd" clip-rule="evenodd" d="M1449.65 154.638L1383.05 147.767L1383.58 142.596L1450.19 149.467C1486.17 153.179 1519.85 166.354 1548.23 186.909L1514.94 137.1L1519.27 134.212L1560.06 195.246L1559.45 195.65C1577.56 210.808 1593.09 229.185 1605.11 250.143L1594.97 190.397L1600.09 189.527L1612.92 265.066L1648.77 337.727L1644.11 340.027L1606.42 263.648C1598.84 248.277 1589.39 234.163 1578.42 221.538L1493.49 227.999L1493.09 222.816L1574.04 216.658C1541.89 182.051 1497.9 159.615 1449.65 154.638Z" fill="#B43945"/>
<circle cx="1417.18" cy="144.504" r="37" transform="rotate(-9.63416 1417.18 144.504)" fill="url(#paint40_radial_51:723)"/>
<circle cx="1488.58" cy="218.599" r="37" transform="rotate(-9.63416 1488.58 218.599)" fill="url(#paint41_radial_51:723)"/>
<circle cx="1516.23" cy="118.561" r="37" transform="rotate(-9.63416 1516.23 118.561)" fill="url(#paint42_radial_51:723)"/>
<circle cx="1609.11" cy="169.739" r="37" transform="rotate(-9.63416 1609.11 169.739)" fill="url(#paint43_radial_51:723)"/>
<path d="M1824.45 357.408C1823.03 352.236 1818.04 348.878 1812.71 349.5L1775.02 353.899C1744.92 357.412 1720.91 384.093 1734.56 411.147C1738.84 419.623 1744.62 427.927 1752.44 434.955C1762 443.547 1773.64 449.001 1785.54 452.387C1819.82 462.145 1843.31 425.853 1833.84 391.484L1824.45 357.408Z" fill="#F5E6D5"/>
<path fill-rule="evenodd" clip-rule="evenodd" d="M1805.55 415.805C1803.99 429.411 1784.95 431.215 1780.86 418.145L1780.65 417.486C1780.35 416.532 1779.33 416 1778.38 416.299C1777.43 416.598 1776.89 417.615 1777.19 418.569L1777.4 419.228C1782.66 436.032 1807.14 433.712 1809.15 416.22L1811.37 396.965C1813.59 377.648 1793.7 363.425 1776.14 371.777L1756.87 380.942C1742.08 387.978 1745.74 409.987 1762.01 411.861L1770.46 412.834C1771.45 412.948 1772.35 412.235 1772.46 411.241C1772.58 410.247 1771.86 409.349 1770.87 409.234L1762.42 408.262C1749.77 406.805 1746.92 389.686 1758.43 384.214L1777.7 375.048C1792.69 367.919 1809.67 380.061 1807.77 396.551L1805.55 415.805Z" fill="url(#paint44_linear_51:723)"/>
<path d="M1804.25 487.043L1766.49 504.393C1745.03 514.255 1736.74 540.471 1748.63 560.88L1749.48 562.332C1755.21 572.17 1764.87 579.098 1776.02 581.38L1811.74 588.686C1823.9 591.173 1836.53 587.872 1845.92 579.75L1847.74 578.178C1864.09 564.031 1866.24 539.446 1852.59 522.674L1828.11 492.591C1822.35 485.517 1812.53 483.235 1804.25 487.043Z" fill="url(#paint45_linear_51:723)"/>
<path d="M1676.65 363.996L1651.11 396.772C1636.59 415.403 1641.29 442.493 1661.24 455.141L1662.66 456.041C1672.27 462.139 1684.03 463.848 1694.99 460.742L1730.06 450.796C1742.01 447.408 1751.7 438.667 1756.3 427.135L1757.19 424.903C1765.21 404.817 1755.8 381.999 1735.97 373.389L1700.39 357.944C1692.02 354.312 1682.25 356.801 1676.65 363.996Z" fill="url(#paint46_linear_51:723)"/>
</g>
<defs>
<radialGradient id="paint0_radial_51:723" cx="0" cy="0" r="1" gradientUnits="userSpaceOnUse" gradientTransform="translate(929.68 544.017) rotate(82.0112) scale(390.053)">
<stop stop-color="#D3DDEA"/>
<stop offset="1" stop-color="#F8F9FA"/>
</radialGradient>
<radialGradient id="paint1_radial_51:723" cx="0" cy="0" r="1" gradientUnits="userSpaceOnUse" gradientTransform="translate(927.164 526.199) rotate(109.896) scale(498.558 590.965)">
<stop stop-color="#F6E5BB"/>
<stop offset="0.790659" stop-color="#F9B97E"/>
<stop offset="1" stop-color="#CA6919"/>
</radialGradient>
<radialGradient id="paint2_radial_51:723" cx="0" cy="0" r="1" gradientUnits="userSpaceOnUse" gradientTransform="translate(905.751 565.973) rotate(107.446) scale(355.23 421.071)">
<stop stop-color="#F0D36D"/>
<stop offset="0.40243" stop-color="#F2C76C"/>
<stop offset="1" stop-color="#F47835"/>
</radialGradient>
<radialGradient id="paint3_radial_51:723" cx="0" cy="0" r="1" gradientUnits="userSpaceOnUse" gradientTransform="translate(905.244 547.427) rotate(102.841) scale(406.357 481.677)">
<stop stop-color="#F0D36D"/>
<stop offset="0.40243" stop-color="#F2C76C"/>
<stop offset="1" stop-color="#F0864C"/>
</radialGradient>
<linearGradient id="paint4_linear_51:723" x1="764.479" y1="439.305" x2="774.099" y2="274.754" gradientUnits="userSpaceOnUse">
<stop stop-color="#F2BA5D"/>
<stop offset="1" stop-color="#D55561"/>
</linearGradient>
<linearGradient id="paint5_linear_51:723" x1="965.491" y1="392.477" x2="975.111" y2="227.926" gradientUnits="userSpaceOnUse">
<stop stop-color="#F2BA5D"/>
<stop offset="1" stop-color="#D55561"/>
</linearGradient>
<linearGradient id="paint6_linear_51:723" x1="1145.03" y1="517.707" x2="1156.61" y2="319.574" gradientUnits="userSpaceOnUse">
<stop stop-color="#F2BA5D"/>
<stop offset="1" stop-color="#D55561"/>
</linearGradient>
<linearGradient id="paint7_linear_51:723" x1="972.745" y1="570.187" x2="982.365" y2="405.635" gradientUnits="userSpaceOnUse">
<stop stop-color="#F2BA5D"/>
<stop offset="1" stop-color="#D55561"/>
</linearGradient>
<linearGradient id="paint8_linear_51:723" x1="850.825" y1="653.341" x2="861.918" y2="463.603" gradientUnits="userSpaceOnUse">
<stop stop-color="#F2BA5D"/>
<stop offset="1" stop-color="#D55561"/>
</linearGradient>
<linearGradient id="paint9_linear_51:723" x1="691.934" y1="634.03" x2="700.561" y2="558.428" gradientUnits="userSpaceOnUse">
<stop stop-color="#A58F78"/>
<stop offset="1" stop-color="#F5E6D5"/>
</linearGradient>
<linearGradient id="paint10_linear_51:723" x1="915.091" y1="280.434" x2="948.291" y2="348.902" gradientUnits="userSpaceOnUse">
<stop stop-color="#A58F78"/>
<stop offset="1" stop-color="#F5E6D5"/>
</linearGradient>
<linearGradient id="paint11_linear_51:723" x1="961.533" y1="690.946" x2="994.732" y2="759.414" gradientUnits="userSpaceOnUse">
<stop stop-color="#A58F78"/>
<stop offset="1" stop-color="#F5E6D5"/>
</linearGradient>
<linearGradient id="paint12_linear_51:723" x1="1124.62" y1="286.871" x2="1105.98" y2="340.552" gradientUnits="userSpaceOnUse">
<stop stop-color="#A58F78"/>
<stop offset="1" stop-color="#F5E6D5"/>
</linearGradient>
<linearGradient id="paint13_linear_51:723" x1="697.325" y1="354.565" x2="753.45" y2="365.584" gradientUnits="userSpaceOnUse">
<stop stop-color="#A58F78"/>
<stop offset="1" stop-color="#F5E6D5"/>
</linearGradient>
<linearGradient id="paint14_linear_51:723" x1="843.928" y1="945.72" x2="853.548" y2="781.168" gradientUnits="userSpaceOnUse">
<stop stop-color="#F2BA5D"/>
<stop offset="1" stop-color="#D55561"/>
</linearGradient>
<linearGradient id="paint15_linear_51:723" x1="1040.59" y1="940.282" x2="1051.88" y2="747.186" gradientUnits="userSpaceOnUse">
<stop stop-color="#F2BA5D"/>
<stop offset="1" stop-color="#D55561"/>
</linearGradient>
<linearGradient id="paint16_linear_51:723" x1="900.753" y1="793.46" x2="910.373" y2="628.908" gradientUnits="userSpaceOnUse">
<stop stop-color="#F2BA5D"/>
<stop offset="1" stop-color="#D55561"/>
</linearGradient>
<linearGradient id="paint17_linear_51:723" x1="653.345" y1="622.459" x2="662.965" y2="457.907" gradientUnits="userSpaceOnUse">
<stop stop-color="#F2BA5D"/>
<stop offset="1" stop-color="#D55561"/>
</linearGradient>
<linearGradient id="paint18_linear_51:723" x1="687.809" y1="838.926" x2="699.196" y2="644.15" gradientUnits="userSpaceOnUse">
<stop stop-color="#F2BA5D"/>
<stop offset="1" stop-color="#D55561"/>
</linearGradient>
<linearGradient id="paint19_linear_51:723" x1="708.822" y1="483.198" x2="622.305" y2="424.318" gradientUnits="userSpaceOnUse">
<stop stop-color="#64B581"/>
<stop offset="1" stop-color="#8DE691"/>
</linearGradient>
<linearGradient id="paint20_linear_51:723" x1="798.722" y1="689.848" x2="704.708" y2="735.819" gradientUnits="userSpaceOnUse">
<stop stop-color="#64B581"/>
<stop offset="1" stop-color="#8DE691"/>
</linearGradient>
<linearGradient id="paint21_linear_51:723" x1="988.059" y1="682.372" x2="1003.89" y2="785.82" gradientUnits="userSpaceOnUse">
<stop stop-color="#64B581"/>
<stop offset="1" stop-color="#8DE691"/>
</linearGradient>
<linearGradient id="paint22_linear_51:723" x1="1151.74" y1="459.459" x2="1048.38" y2="443.019" gradientUnits="userSpaceOnUse">
<stop stop-color="#64B581"/>
<stop offset="1" stop-color="#8DE691"/>
</linearGradient>
<linearGradient id="paint23_linear_51:723" x1="911.348" y1="271.906" x2="817.334" y2="317.877" gradientUnits="userSpaceOnUse">
<stop stop-color="#64B581"/>
<stop offset="1" stop-color="#8DE691"/>
</linearGradient>
<radialGradient id="paint24_radial_51:723" cx="0" cy="0" r="1" gradientUnits="userSpaceOnUse" gradientTransform="translate(1247.42 690.182) rotate(75.5482) scale(284.831 370.463)">
<stop stop-color="#F6E5BB"/>
<stop offset="0.498119" stop-color="#F9B97E"/>
<stop offset="1" stop-color="#CA6919"/>
</radialGradient>
<radialGradient id="paint25_radial_51:723" cx="0" cy="0" r="1" gradientUnits="userSpaceOnUse" gradientTransform="translate(1145.25 640.808) rotate(55.224) scale(212.727 282.487)">
<stop stop-color="#F0D36D"/>
<stop offset="0.40243" stop-color="#F2C76C"/>
<stop offset="0.999208" stop-color="#F47835"/>
</radialGradient>
<radialGradient id="paint26_radial_51:723" cx="0" cy="0" r="1" gradientUnits="userSpaceOnUse" gradientTransform="translate(1057.62 594.769) rotate(39.8361) scale(346.92 472.868)">
<stop stop-color="#F0D36D"/>
<stop offset="0.521338" stop-color="#F2C76C"/>
<stop offset="1" stop-color="#E77B40"/>
</radialGradient>
<linearGradient id="paint27_linear_51:723" x1="1246.45" y1="860.993" x2="1257.84" y2="664.527" gradientUnits="userSpaceOnUse">
<stop stop-color="#F2BA5D"/>
<stop offset="1" stop-color="#D55561"/>
</linearGradient>
<linearGradient id="paint28_linear_51:723" x1="1211.87" y1="624.361" x2="1220.49" y2="548.759" gradientUnits="userSpaceOnUse">
<stop stop-color="#A58F78"/>
<stop offset="1" stop-color="#F5E6D5"/>
</linearGradient>
<linearGradient id="paint29_linear_51:723" x1="1147.31" y1="726.276" x2="1156.93" y2="561.725" gradientUnits="userSpaceOnUse">
<stop stop-color="#F2BA5D"/>
<stop offset="1" stop-color="#D55561"/>
</linearGradient>
<linearGradient id="paint30_linear_51:723" x1="1200.51" y1="663.025" x2="1149.29" y2="571.763" gradientUnits="userSpaceOnUse">
<stop stop-color="#64B581"/>
<stop offset="1" stop-color="#8DE691"/>
</linearGradient>
<linearGradient id="paint31_linear_51:723" x1="453.25" y1="174.67" x2="576.554" y2="156.653" gradientUnits="userSpaceOnUse">
<stop stop-color="#64B581"/>
<stop offset="1" stop-color="#8DE691"/>
</linearGradient>
<linearGradient id="paint32_linear_51:723" x1="310.181" y1="82.2529" x2="295.239" y2="205.968" gradientUnits="userSpaceOnUse">
<stop stop-color="#64B581"/>
<stop offset="1" stop-color="#8DE691"/>
</linearGradient>
<linearGradient id="paint33_linear_51:723" x1="441.466" y1="285.417" x2="316.94" y2="280.749" gradientUnits="userSpaceOnUse">
<stop stop-color="#64B581"/>
<stop offset="1" stop-color="#8DE691"/>
</linearGradient>
<linearGradient id="paint34_linear_51:723" x1="371.187" y1="402.681" x2="252.877" y2="441.815" gradientUnits="userSpaceOnUse">
<stop stop-color="#64B581"/>
<stop offset="1" stop-color="#8DE691"/>
</linearGradient>
<linearGradient id="paint35_linear_51:723" x1="179.982" y1="237.391" x2="191.785" y2="361.444" gradientUnits="userSpaceOnUse">
<stop stop-color="#64B581"/>
<stop offset="1" stop-color="#8DE691"/>
</linearGradient>
<linearGradient id="paint36_linear_51:723" x1="124.961" y1="422.082" x2="172.391" y2="537.316" gradientUnits="userSpaceOnUse">
<stop stop-color="#64B581"/>
<stop offset="1" stop-color="#8DE691"/>
</linearGradient>
<linearGradient id="paint37_linear_51:723" x1="303.841" y1="813.863" x2="365.332" y2="898.544" gradientUnits="userSpaceOnUse">
<stop stop-color="#64B581"/>
<stop offset="1" stop-color="#8DE691"/>
</linearGradient>
<linearGradient id="paint38_linear_51:723" x1="476.604" y1="905.146" x2="407.273" y2="983.538" gradientUnits="userSpaceOnUse">
<stop stop-color="#64B581"/>
<stop offset="1" stop-color="#8DE691"/>
</linearGradient>
<linearGradient id="paint39_linear_51:723" x1="1647" y1="740.5" x2="1986.53" y2="951.206" gradientUnits="userSpaceOnUse">
<stop stop-color="#FAFBFB"/>
<stop offset="1" stop-color="#CFE7F4"/>
</linearGradient>
<radialGradient id="paint40_radial_51:723" cx="0" cy="0" r="1" gradientUnits="userSpaceOnUse" gradientTransform="translate(1414.68 144.504) rotate(100.968) scale(65.7001 77.8779)">
<stop stop-color="#F0D36D"/>
<stop offset="0.40243" stop-color="#F2C76C"/>
<stop offset="1" stop-color="#F0864C"/>
</radialGradient>
<radialGradient id="paint41_radial_51:723" cx="0" cy="0" r="1" gradientUnits="userSpaceOnUse" gradientTransform="translate(1486.08 218.599) rotate(100.968) scale(65.7001 77.8779)">
<stop stop-color="#F0D36D"/>
<stop offset="0.40243" stop-color="#F2C76C"/>
<stop offset="1" stop-color="#F0864C"/>
</radialGradient>
<radialGradient id="paint42_radial_51:723" cx="0" cy="0" r="1" gradientUnits="userSpaceOnUse" gradientTransform="translate(1513.73 118.561) rotate(100.968) scale(65.7001 77.8779)">
<stop stop-color="#F0D36D"/>
<stop offset="0.40243" stop-color="#F2C76C"/>
<stop offset="1" stop-color="#F0864C"/>
</radialGradient>
<radialGradient id="paint43_radial_51:723" cx="0" cy="0" r="1" gradientUnits="userSpaceOnUse" gradientTransform="translate(1606.61 169.739) rotate(100.968) scale(65.7001 77.8779)">
<stop stop-color="#F0D36D"/>
<stop offset="0.40243" stop-color="#F2C76C"/>
<stop offset="1" stop-color="#F0864C"/>
</radialGradient>
<linearGradient id="paint44_linear_51:723" x1="1713.73" y1="452.239" x2="1723.95" y2="362.627" gradientUnits="userSpaceOnUse">
<stop stop-color="#A58F78"/>
<stop offset="1" stop-color="#F5E6D5"/>
</linearGradient>
<linearGradient id="paint45_linear_51:723" x1="1750.34" y1="641.435" x2="1801.73" y2="487.507" gradientUnits="userSpaceOnUse">
<stop offset="0.438968" stop-color="#A58F78"/>
<stop offset="1" stop-color="#CFBDAA"/>
</linearGradient>
<linearGradient id="paint46_linear_51:723" x1="1732.74" y1="518.434" x2="1689.82" y2="390.082" gradientUnits="userSpaceOnUse">
<stop offset="0.229506" stop-color="#A58F78"/>
<stop offset="1" stop-color="#CFBDAA"/>
</linearGradient>
<clipPath id="clip0_51:723">
<rect width="1920" height="1080" fill="white"/>
</clipPath>
</defs>
</svg>
