<svg width="1920" height="1080" viewBox="0 0 1920 1080" fill="none" xmlns="http://www.w3.org/2000/svg">
<g clip-path="url(#clip0_57:126)">
<rect width="1920" height="1080" fill="#FBF4E1"/>
<path d="M2 1080V165L1823.5 1080H2Z" fill="#F0D17D"/>
<path opacity="0.3" fill-rule="evenodd" clip-rule="evenodd" d="M454.481 392.296L237.343 283.221L2 515.249V838.404L454.481 392.296ZM424.681 1080H96.9091L679.691 505.427L896.83 614.503L424.681 1080ZM1140.97 1080H789.315L1154.83 744.106L1382.2 858.321L1140.97 1080ZM1821.16 1080H1505.7L1618.02 976.782L1818.5 1077.49L1821.16 1080Z" fill="#F8FAFD"/>
<path d="M1545 543.5C1545 785.125 1349.12 981 1107.5 981C865.875 981 670 785.125 670 543.5C670 301.875 865.875 106 1107.5 106C1349.12 106 1545 301.875 1545 543.5Z" fill="#5DAF91"/>
<path fill-rule="evenodd" clip-rule="evenodd" d="M1107.5 959.368C1337.18 959.368 1523.37 773.178 1523.37 543.5C1523.37 313.822 1337.18 127.632 1107.5 127.632C877.822 127.632 691.632 313.822 691.632 543.5C691.632 773.178 877.822 959.368 1107.5 959.368ZM1107.5 981C1349.12 981 1545 785.125 1545 543.5C1545 301.875 1349.12 106 1107.5 106C865.875 106 670 301.875 670 543.5C670 785.125 865.875 981 1107.5 981Z" fill="#81C6AD"/>
<path d="M1497.41 543.5C1497.41 758.842 1322.84 933.411 1107.5 933.411C892.159 933.411 717.59 758.842 717.59 543.5C717.59 328.159 892.159 153.59 1107.5 153.59C1322.84 153.59 1497.41 328.159 1497.41 543.5Z" fill="url(#paint0_radial_57:126)"/>
<path d="M1066 251.172C1088.92 240.093 1116.57 246.441 1131.72 266.894C1210.72 373.564 1248.61 455.859 1286.69 588.909C1293.83 613.85 1281.71 640.201 1258.35 651.493L1243.88 658.49C1213.54 673.161 1177.18 656.858 1166.95 624.742C1152.57 579.566 1131.59 518.792 1110.24 474.794C1089.3 431.647 1055.37 378.619 1029.27 339.895C1010.43 311.937 1020.23 273.304 1050.58 258.628L1066 251.172Z" fill="url(#paint1_linear_57:126)"/>
<path d="M1102.29 368.154C1127.58 370.972 1147.62 391.069 1149.55 416.446C1159.65 548.797 1147.91 638.633 1109.33 771.539C1102.1 796.453 1077.81 812.308 1052.03 809.435L1036.05 807.656C1002.56 803.924 980.456 770.768 988.894 738.137C1000.76 692.236 1015.36 629.621 1020.7 581.009C1025.94 533.337 1025.45 470.387 1023.97 423.712C1022.9 390.013 1051.76 362.524 1085.27 366.258L1102.29 368.154Z" fill="url(#paint2_linear_57:126)"/>
<path d="M865.766 294.793C865.766 268.99 884.026 246.669 909.442 242.213C1054.35 216.807 1153.89 218.579 1305.48 242.856C1331.41 247.008 1350.31 269.555 1350.31 295.813V312.129C1350.31 345.513 1320.38 371.053 1287.3 366.627C1235.6 359.713 1162.13 351.458 1106.42 351.532C1051.75 351.605 979.766 359.743 928.81 366.588C895.713 371.034 865.766 345.492 865.766 312.097V294.793Z" fill="url(#paint3_linear_57:126)"/>
<path d="M1451.55 613.464C1464.29 635.902 1459.43 664.329 1439.53 680.752C1326.06 774.389 1238.62 821.996 1094.81 875.727C1070.21 884.917 1042.64 874.644 1029.67 851.81L1021.62 837.621C1005.13 808.59 1018.55 771.602 1049.51 759.114C1097.88 739.605 1165.85 710.507 1214.26 682.938C1261.76 655.886 1320.35 613.266 1361.28 582.156C1387.87 561.949 1426.52 569.375 1443.01 598.416L1451.55 613.464Z" fill="url(#paint4_linear_57:126)"/>
<path d="M784.348 709.421C760.052 700.731 745.185 676.02 749.548 650.589C774.429 505.591 809.623 412.457 883.534 277.901C896.175 254.887 923.772 244.679 948.496 253.522L963.858 259.017C995.292 270.26 1009.26 307.043 993.949 336.709C970.03 383.054 937.512 449.457 918.82 501.936C900.479 553.431 883.897 623.955 873.181 674.239C866.22 706.9 832.085 726.495 800.641 715.249L784.348 709.421Z" fill="url(#paint5_linear_57:126)"/>
<path d="M932.525 754.848C908.229 746.158 893.361 721.447 897.725 696.016C922.606 551.018 957.8 457.884 1031.71 323.328C1044.35 300.314 1071.95 290.105 1096.67 298.949L1112.04 304.443C1143.47 315.687 1157.44 352.47 1142.13 382.136C1118.21 428.481 1085.69 494.884 1067 547.363C1048.66 598.858 1032.07 669.382 1021.36 719.666C1014.4 752.327 980.262 771.922 948.817 760.675L932.525 754.848Z" fill="url(#paint6_linear_57:126)"/>
<path d="M1230.4 281.456C1253.32 270.377 1280.98 276.725 1296.12 297.178C1375.12 403.848 1413.01 486.143 1451.09 619.193C1458.23 644.134 1446.11 670.485 1422.75 681.777L1408.28 688.774C1377.94 703.446 1341.58 687.142 1331.35 655.027C1316.97 609.85 1295.99 549.076 1274.64 505.078C1253.7 461.931 1219.77 408.903 1193.67 370.18C1174.83 342.221 1184.63 303.588 1214.98 288.912L1230.4 281.456Z" fill="url(#paint7_linear_57:126)"/>
<path d="M1147.83 860.428C1133.37 881.375 1106.19 889.51 1082.92 879.202C961.558 825.442 887.978 772.583 789.169 675.683C770.647 657.519 768.178 628.619 782.913 607.267L792.043 594.038C811.186 566.299 850.854 562.526 875.603 585.405C910.417 617.589 958.664 660.082 998.956 687.802C1038.47 714.985 1094.15 744.349 1135.97 765.138C1166.16 780.147 1176.71 818.581 1157.56 846.331L1147.83 860.428Z" fill="url(#paint8_linear_57:126)"/>
<path d="M903.622 371.586C903.622 345.783 921.882 323.461 947.297 319.005C1092.2 293.6 1191.75 295.371 1343.34 319.648C1369.26 323.801 1388.17 346.347 1388.17 372.605V388.921C1388.17 422.305 1358.24 447.846 1325.15 443.42C1273.46 436.505 1199.98 428.25 1144.27 428.324C1089.61 428.397 1017.62 436.536 966.666 443.38C933.568 447.826 903.622 422.284 903.622 388.889V371.586Z" fill="url(#paint9_linear_57:126)"/>
<path d="M798.203 514.027C808.369 490.311 833.947 476.989 859.062 482.907C1002.26 516.649 1093.05 557.497 1222.81 639.535C1245.01 653.566 1253.5 681.738 1243.16 705.872L1236.73 720.868C1223.58 751.552 1186 763.234 1157.33 746.129C1112.55 719.407 1048.27 682.871 997.035 660.991C946.764 639.521 877.392 618.638 827.862 604.854C795.689 595.9 778.228 560.625 791.386 529.931L798.203 514.027Z" fill="url(#paint10_linear_57:126)"/>
<path fill-rule="evenodd" clip-rule="evenodd" d="M1161.61 481.212C1166.28 484.943 1167.04 491.749 1163.3 496.414L1157.22 504.016C1153.49 508.68 1146.69 509.437 1142.02 505.706L1121.75 489.493C1117.09 485.762 1116.33 478.956 1120.06 474.291L1126.14 466.689C1129.87 462.024 1136.68 461.267 1141.34 464.998L1161.61 481.212ZM1088.08 453.729C1087.79 447.763 1082.72 443.162 1076.76 443.453L1050.83 444.716C1044.86 445.007 1040.26 450.079 1040.55 456.046L1041.03 465.768C1041.32 471.735 1046.39 476.336 1052.35 476.045L1078.28 474.781C1084.25 474.491 1088.85 469.418 1088.56 463.452L1088.08 453.729ZM1094.11 530.046C1097.2 524.934 1095.56 518.285 1090.45 515.196L1068.23 501.774C1063.12 498.685 1056.47 500.326 1053.38 505.439L1048.35 513.771C1045.26 518.884 1046.9 525.532 1052.01 528.621L1074.23 542.043C1079.34 545.132 1085.99 543.491 1089.08 538.378L1094.11 530.046ZM1012.07 478.688C1018.03 478.398 1023.11 482.999 1023.4 488.965L1023.87 498.688C1024.16 504.654 1019.56 509.726 1013.59 510.017L987.667 511.281C981.7 511.571 976.628 506.97 976.337 501.004L975.863 491.281C975.573 485.315 980.174 480.243 986.14 479.952L1012.07 478.688ZM1123.8 559.833C1122.28 554.056 1116.36 550.608 1110.58 552.13L1085.48 558.743C1079.71 560.265 1076.26 566.181 1077.78 571.958L1080.26 581.371C1081.78 587.147 1087.7 590.596 1093.47 589.074L1118.58 582.46C1124.35 580.938 1127.8 575.022 1126.28 569.246L1123.8 559.833ZM970.352 444.096C966.472 439.554 959.644 439.018 955.103 442.898L935.368 459.761C930.826 463.641 930.29 470.468 934.17 475.01L940.494 482.41C944.374 486.952 951.201 487.488 955.743 483.608L975.478 466.745C980.019 462.865 980.555 456.038 976.675 451.496L970.352 444.096ZM931.135 536.685C927.328 532.082 927.975 525.264 932.579 521.458L940.081 515.255C944.685 511.449 951.502 512.096 955.309 516.699L971.849 536.706C975.655 541.309 975.008 548.127 970.404 551.933L962.902 558.136C958.298 561.942 951.481 561.295 947.675 556.691L931.135 536.685ZM1172.01 522.277C1166.31 520.469 1160.23 523.619 1158.42 529.312L1150.57 554.053C1148.76 559.746 1151.91 565.827 1157.6 567.635L1166.88 570.581C1172.58 572.388 1178.66 569.238 1180.46 563.545L1188.32 538.804C1190.13 533.111 1186.98 527.03 1181.28 525.223L1172.01 522.277ZM1038.9 549.678C1041.43 555.089 1039.1 561.527 1033.69 564.058L1024.87 568.184C1019.46 570.715 1013.02 568.382 1010.49 562.971L999.489 539.46C996.957 534.049 999.291 527.611 1004.7 525.079L1013.52 520.954C1018.93 518.422 1025.37 520.756 1027.9 526.167L1038.9 549.678Z" fill="url(#paint11_linear_57:126)"/>
<ellipse cx="1237.96" cy="544.188" rx="122.291" ry="153.891" transform="rotate(33.807 1237.96 544.188)" fill="#FBF1E5"/>
<ellipse cx="1213.66" cy="575.047" rx="79.2165" ry="89.8779" transform="rotate(33.807 1213.66 575.047)" fill="url(#paint12_linear_57:126)"/>
<path fill-rule="evenodd" clip-rule="evenodd" d="M1061.05 330.57C1061.38 335.038 1068.66 338.139 1077.29 337.496C1085.93 336.854 1092.66 332.711 1092.33 328.243C1092 323.776 1084.73 320.675 1076.09 321.317C1067.45 321.96 1060.72 326.102 1061.05 330.57ZM964.929 417.387C966.288 421.656 974.08 422.986 982.334 420.359C990.587 417.731 996.176 412.141 994.817 407.872C993.458 403.603 985.666 402.272 977.412 404.9C969.159 407.527 963.57 413.118 964.929 417.387ZM1039.9 482.932C1039.9 491.593 1036.27 498.615 1031.79 498.615C1027.31 498.615 1023.68 491.593 1023.68 482.932C1023.68 474.27 1027.31 467.249 1031.79 467.249C1036.27 467.249 1039.9 474.27 1039.9 482.932ZM1079.69 780.893C1079.12 785.336 1085.62 789.836 1094.21 790.943C1102.8 792.049 1110.23 789.345 1110.8 784.901C1111.37 780.458 1104.87 775.959 1096.28 774.852C1087.69 773.745 1080.26 776.45 1079.69 780.893ZM919.845 513.216C919.845 521.878 916.214 528.899 911.733 528.899C907.253 528.899 903.622 521.878 903.622 513.216C903.622 504.555 907.253 497.533 911.733 497.533C916.214 497.533 919.845 504.555 919.845 513.216ZM1116.12 425.729C1119.86 423.266 1119.04 415.404 1114.28 408.169C1109.51 400.935 1102.62 397.067 1098.88 399.53C1095.13 401.993 1095.96 409.855 1100.72 417.09C1105.49 424.324 1112.38 428.192 1116.12 425.729ZM1208.47 356.226C1211.42 364.367 1210.4 372.207 1206.19 373.736C1201.98 375.264 1196.17 369.903 1193.22 361.762C1190.26 353.62 1191.28 345.781 1195.49 344.252C1199.7 342.723 1205.51 348.084 1208.47 356.226ZM1039.36 656.526C1043.84 656.526 1047.47 649.504 1047.47 640.843C1047.47 632.181 1043.84 625.16 1039.36 625.16C1034.88 625.16 1031.25 632.181 1031.25 640.843C1031.25 649.504 1034.88 656.526 1039.36 656.526ZM927.105 609.258C931.958 616.432 932.884 624.283 929.173 626.793C925.462 629.303 918.52 625.522 913.667 618.348C908.814 611.174 907.888 603.323 911.599 600.813C915.31 598.303 922.252 602.084 927.105 609.258ZM965.676 662.738C967.691 666.739 975.596 666.824 983.332 662.928C991.067 659.032 995.705 652.63 993.689 648.629C991.674 644.627 983.769 644.542 976.034 648.438C968.298 652.335 963.661 658.737 965.676 662.738Z" fill="#F5E6D5"/>
<path d="M635 323.5C635 465.161 520.161 580 378.5 580C236.839 580 122 465.161 122 323.5C122 181.839 236.839 67 378.5 67C520.161 67 635 181.839 635 323.5Z" fill="#81C6AD"/>
<path fill-rule="evenodd" clip-rule="evenodd" d="M378.5 569.065C514.122 569.065 624.065 459.122 624.065 323.5C624.065 187.878 514.122 77.9353 378.5 77.9353C242.878 77.9353 132.935 187.878 132.935 323.5C132.935 459.122 242.878 569.065 378.5 569.065ZM378.5 580C520.161 580 635 465.161 635 323.5C635 181.839 520.161 67 378.5 67C236.839 67 122 181.839 122 323.5C122 465.161 236.839 580 378.5 580Z" fill="url(#paint13_linear_57:126)"/>
<path fill-rule="evenodd" clip-rule="evenodd" d="M309.362 465.532C314.639 465.532 318.917 469.448 318.917 474.277L318.917 731.964C318.917 736.793 314.639 740.709 309.362 740.709C304.085 740.709 299.808 736.793 299.808 731.964L299.808 474.277C299.808 469.448 304.085 465.532 309.362 465.532Z" fill="url(#paint14_linear_57:126)"/>
<rect x="280.698" y="491.012" width="56.0545" height="56.0545" rx="12.7397" fill="url(#paint15_radial_57:126)"/>
<path d="M217 195.452C217 145.497 257.497 105 307.452 105H318.917C368.872 105 409.369 145.497 409.369 195.452V440.053C409.369 490.008 368.872 530.504 318.917 530.504H307.452C257.497 530.504 217 490.008 217 440.053V195.452Z" fill="url(#paint16_radial_57:126)"/>
<path fill-rule="evenodd" clip-rule="evenodd" d="M246.5 209.5C246.5 203.149 251.649 198 258 198H347.395C366.833 198 373.119 224.138 355.807 232.977L296.46 263.277L357.857 271.048C375.289 273.255 380.115 296.24 365.042 305.271L299.569 344.5H351.349C370.088 344.5 376.951 369.159 360.906 378.84L299.32 416H361C367.351 416 372.5 421.149 372.5 427.5C372.5 433.851 367.351 439 361 439H283.151C264.412 439 257.549 414.341 273.594 404.66L335.18 367.5H283.303C264.534 367.5 257.694 342.777 273.794 333.13L342.055 292.232L279.087 284.261C261.022 281.974 256.78 257.711 272.998 249.431L328.685 221H258C251.649 221 246.5 215.851 246.5 209.5Z" fill="#B4373F"/>
<path fill-rule="evenodd" clip-rule="evenodd" d="M488.865 461.725C494.011 460.557 499.049 463.429 500.118 468.139L557.149 719.435C558.218 724.145 554.913 728.91 549.767 730.077C544.621 731.245 539.582 728.374 538.514 723.664L481.482 472.368C480.414 467.658 483.719 462.893 488.865 461.725Z" fill="url(#paint17_linear_57:126)"/>
<rect x="466.551" y="492.917" width="56.0545" height="56.0545" rx="12.7397" transform="rotate(-12.7866 466.551 492.917)" fill="url(#paint18_radial_57:126)"/>
<path d="M339.019 218.784C327.963 170.067 358.492 121.613 407.208 110.556L418.39 108.019C467.106 96.9629 515.561 127.492 526.617 176.209L580.752 414.744C591.808 463.46 561.278 511.915 512.562 522.971L501.381 525.509C452.665 536.565 404.21 506.035 393.154 457.319L339.019 218.784Z" fill="url(#paint19_radial_57:126)"/>
<path fill-rule="evenodd" clip-rule="evenodd" d="M370.896 225.955C369.491 219.761 373.372 213.6 379.566 212.195L466.744 192.41C485.7 188.108 497.615 212.207 482.689 224.657L431.519 267.34L493.113 261.331C510.602 259.625 520.395 280.972 507.695 293.115L452.527 345.862L503.023 334.402C521.298 330.254 533.448 352.783 519.944 365.775L468.108 415.644L528.259 401.993C534.453 400.587 540.614 404.468 542.019 410.662C543.425 416.856 539.543 423.017 533.35 424.422L457.431 441.652C439.157 445.799 427.006 423.27 440.511 410.279L492.346 360.41L441.755 371.891C423.451 376.045 411.31 353.449 424.876 340.478L482.392 285.486L419.221 291.649C401.098 293.418 391.592 270.694 405.575 259.03L453.588 218.98L384.656 234.624C378.462 236.03 372.302 232.148 370.896 225.955Z" fill="#F2C658"/>
<path d="M1648.2 255.329L1668.85 257.216L1613.46 1079.47L1567.68 1079.93L1648.2 255.329Z" fill="url(#paint20_linear_57:126)"/>
<path d="M1760.54 169.344L1781.19 171.231L1721.75 1079.93L1674.83 1079.93L1760.54 169.344Z" fill="url(#paint21_linear_57:126)"/>
<path fill-rule="evenodd" clip-rule="evenodd" d="M359.022 876.097C358.363 875.312 358.466 874.142 359.251 873.483L376.601 858.92C377.386 858.261 378.556 858.364 379.215 859.149C379.874 859.934 379.772 861.104 378.987 861.763L361.637 876.325C360.852 876.984 359.681 876.882 359.022 876.097Z" fill="#323138"/>
<path d="M537.226 806.757L462.306 819.068C452.847 820.622 444.102 825.068 437.273 831.794L402.468 866.076C393.619 874.791 379.376 874.665 370.683 865.795C361.36 856.281 362.324 840.789 372.755 832.505L405.982 806.118C421.434 793.847 441.135 788.233 460.734 790.516L537.054 799.408C541.328 799.906 541.472 806.059 537.226 806.757Z" fill="url(#paint22_linear_57:126)"/>
<path fill-rule="evenodd" clip-rule="evenodd" d="M271.817 839.352C270.991 839.958 270.812 841.119 271.418 841.946L284.807 860.216C285.413 861.043 286.575 861.222 287.401 860.616C288.228 860.01 288.407 858.849 287.801 858.022L274.411 839.752C273.805 838.925 272.644 838.746 271.817 839.352Z" fill="#323138"/>
<path d="M428.423 949.076L358.578 919.304C349.761 915.545 342.324 909.148 337.29 900.99L311.634 859.416C305.112 848.847 291.247 845.582 280.694 852.131C269.376 859.155 266.629 874.433 274.792 884.959L300.791 918.49C312.881 934.083 330.683 944.221 350.263 946.663L426.508 956.173C430.778 956.706 432.381 950.763 428.423 949.076Z" fill="url(#paint23_linear_57:126)"/>
</g>
<defs>
<radialGradient id="paint0_radial_57:126" cx="0" cy="0" r="1" gradientUnits="userSpaceOnUse" gradientTransform="translate(1107.5 523.259) rotate(90) scale(520.441 460.896)">
<stop stop-color="#F08C61"/>
<stop offset="1" stop-color="#CB2D2D"/>
</radialGradient>
<linearGradient id="paint1_linear_57:126" x1="1225.8" y1="420.571" x2="839.808" y2="553.775" gradientUnits="userSpaceOnUse">
<stop stop-color="#E15023"/>
<stop offset="1" stop-color="#F39985"/>
</linearGradient>
<linearGradient id="paint2_linear_57:126" x1="1147.39" y1="596.619" x2="884.667" y2="545.33" gradientUnits="userSpaceOnUse">
<stop stop-color="#E85628"/>
<stop offset="1" stop-color="#F39985"/>
</linearGradient>
<linearGradient id="paint3_linear_57:126" x1="1108.04" y1="223.893" x2="1108.04" y2="478.064" gradientUnits="userSpaceOnUse">
<stop stop-color="#E96136"/>
<stop offset="1" stop-color="#F39985"/>
</linearGradient>
<linearGradient id="paint4_linear_57:126" x1="1289.44" y1="838.056" x2="1112.77" y2="419.815" gradientUnits="userSpaceOnUse">
<stop stop-color="#E55629"/>
<stop offset="1" stop-color="#F39985"/>
</linearGradient>
<linearGradient id="paint5_linear_57:126" x1="1037.74" y1="577.57" x2="687.305" y2="474.278" gradientUnits="userSpaceOnUse">
<stop stop-color="#E96136"/>
<stop offset="1" stop-color="#F39985"/>
</linearGradient>
<linearGradient id="paint6_linear_57:126" x1="1185.91" y1="622.996" x2="835.482" y2="519.705" gradientUnits="userSpaceOnUse">
<stop stop-color="#E96136"/>
<stop offset="1" stop-color="#F39985"/>
</linearGradient>
<linearGradient id="paint7_linear_57:126" x1="1390.2" y1="450.856" x2="1198.89" y2="534.307" gradientUnits="userSpaceOnUse">
<stop stop-color="#E85628"/>
<stop offset="1" stop-color="#F39985"/>
</linearGradient>
<linearGradient id="paint8_linear_57:126" x1="1194.57" y1="653.281" x2="801.953" y2="750.623" gradientUnits="userSpaceOnUse">
<stop stop-color="#E85628"/>
<stop offset="0.660461" stop-color="#F18B71"/>
<stop offset="1" stop-color="#FCB1A0"/>
</linearGradient>
<linearGradient id="paint9_linear_57:126" x1="1145.9" y1="553.775" x2="1154.01" y2="355.305" gradientUnits="userSpaceOnUse">
<stop stop-color="#E97F36"/>
<stop offset="1" stop-color="#FBB1A0"/>
</linearGradient>
<linearGradient id="paint10_linear_57:126" x1="949.1" y1="776.934" x2="1034.75" y2="597.713" gradientUnits="userSpaceOnUse">
<stop stop-color="#E97F36"/>
<stop offset="1" stop-color="#FBB1A0"/>
</linearGradient>
<linearGradient id="paint11_linear_57:126" x1="826.83" y1="431.015" x2="1065.86" y2="596.498" gradientUnits="userSpaceOnUse">
<stop stop-color="#ABE2B3"/>
<stop offset="1" stop-color="#61B078"/>
</linearGradient>
<linearGradient id="paint12_linear_57:126" x1="1221.14" y1="531.924" x2="1257.37" y2="739.54" gradientUnits="userSpaceOnUse">
<stop stop-color="#F7DC7E"/>
<stop offset="1" stop-color="#E68F3F"/>
</linearGradient>
<linearGradient id="paint13_linear_57:126" x1="378.5" y1="67" x2="378.5" y2="580" gradientUnits="userSpaceOnUse">
<stop stop-color="#98D7C0"/>
<stop offset="1" stop-color="#ACE2CE"/>
</linearGradient>
<linearGradient id="paint14_linear_57:126" x1="321.864" y1="727.449" x2="296.636" y2="727.385" gradientUnits="userSpaceOnUse">
<stop offset="0.186406" stop-color="#F5DFC7"/>
<stop offset="0.93046" stop-color="#EEC8A1"/>
</linearGradient>
<radialGradient id="paint15_radial_57:126" cx="0" cy="0" r="1" gradientUnits="userSpaceOnUse" gradientTransform="translate(314.014 543.491) rotate(-87.9828) scale(85.0184 85.0246)">
<stop stop-color="#D9915C"/>
<stop offset="1" stop-color="#F5CD66"/>
</radialGradient>
<radialGradient id="paint16_radial_57:126" cx="0" cy="0" r="1" gradientUnits="userSpaceOnUse" gradientTransform="translate(388.5 421.5) rotate(-109.721) scale(373.401 168.832)">
<stop stop-color="#D9915C"/>
<stop offset="1" stop-color="#F5CD66"/>
</radialGradient>
<linearGradient id="paint17_linear_57:126" x1="559.024" y1="714.38" x2="534.407" y2="719.901" gradientUnits="userSpaceOnUse">
<stop offset="0.186406" stop-color="#F5DFC7"/>
<stop offset="0.93046" stop-color="#EEC8A1"/>
</linearGradient>
<radialGradient id="paint18_radial_57:126" cx="0" cy="0" r="1" gradientUnits="userSpaceOnUse" gradientTransform="translate(499.866 545.397) rotate(-87.9828) scale(85.0184 85.0246)">
<stop stop-color="#D9915C"/>
<stop offset="1" stop-color="#F5CD66"/>
</radialGradient>
<radialGradient id="paint19_radial_57:126" cx="0" cy="0" r="1" gradientUnits="userSpaceOnUse" gradientTransform="translate(518.664 493.76) rotate(-104.889) scale(499.704 225.939)">
<stop stop-color="#D9915C"/>
<stop offset="1" stop-color="#F5CD66"/>
</radialGradient>
<linearGradient id="paint20_linear_57:126" x1="1628" y1="133.997" x2="1750.38" y2="1172.87" gradientUnits="userSpaceOnUse">
<stop offset="0.186406" stop-color="#E4E0DC"/>
<stop offset="0.990229" stop-color="#B6B6B6"/>
</linearGradient>
<linearGradient id="paint21_linear_57:126" x1="1736.46" y1="35.6986" x2="1869.52" y2="1183.44" gradientUnits="userSpaceOnUse">
<stop offset="0.186406" stop-color="#E4E0DC"/>
<stop offset="0.990229" stop-color="#B6B6B6"/>
</linearGradient>
<linearGradient id="paint22_linear_57:126" x1="415.311" y1="824.286" x2="404.812" y2="898.042" gradientUnits="userSpaceOnUse">
<stop stop-color="#D55561"/>
<stop offset="1" stop-color="#EB8B75"/>
</linearGradient>
<linearGradient id="paint23_linear_57:126" x1="314.173" y1="903.061" x2="321.513" y2="828.923" gradientUnits="userSpaceOnUse">
<stop stop-color="#D55561"/>
<stop offset="1" stop-color="#EB8B75"/>
</linearGradient>
<clipPath id="clip0_57:126">
<rect width="1920" height="1080" fill="white"/>
</clipPath>
</defs>
</svg>
