<svg width="1920" height="1080" viewBox="0 0 1920 1080" fill="none" xmlns="http://www.w3.org/2000/svg">
<g clip-path="url(#clip0_51:2)">
<rect width="1920" height="1080" fill="#F6F4EA"/>
<path d="M874 1080L1920 -0.000410839L1920.42 511.422L1920 1080L874 1080Z" fill="#F3CF95"/>
<path fill-rule="evenodd" clip-rule="evenodd" d="M1634.38 1089.6L1608.7 1089.58L991.793 980.516C990.603 980.308 989.806 979.176 990.013 977.986C990.022 977.933 990.033 977.881 990.046 977.829L991.521 976.271C991.841 976.172 992.19 976.145 992.543 976.206L1634.38 1089.6ZM1920.42 951.842V956.282L1140.51 818.866L1144.12 815.054L1920.42 951.842ZM1920.42 776.877V781.317L1282.71 668.638L1286.31 664.826L1920.42 776.877ZM1920.42 601.912V606.352L1424.9 518.41L1428.51 514.598L1920.42 601.912ZM1920.42 426.947V431.387L1567.1 368.182L1570.71 364.37L1920.42 426.947ZM1920.42 251.982V256.422L1709.29 217.954L1712.9 214.142L1920.42 251.982Z" fill="#F1DDBE"/>
<path d="M1573.65 265.417L1594.3 267.285L1538.91 1081.24L1493.13 1081.69L1573.65 265.417Z" fill="url(#paint0_linear_51:2)"/>
<path d="M1710.99 180.3L1731.64 182.168L1672.19 1081.69L1625.28 1081.69L1710.99 180.3Z" fill="url(#paint1_linear_51:2)"/>
<path d="M1410 540C1410 788.528 1208.53 990 960 990C711.471 990 510 788.528 510 540C510 291.472 711.471 90 960 90C1208.53 90 1410 291.472 1410 540Z" fill="#323138"/>
<path fill-rule="evenodd" clip-rule="evenodd" d="M960 978.979C1202.44 978.979 1398.98 782.441 1398.98 540C1398.98 297.559 1202.44 101.021 960 101.021C717.558 101.021 521.021 297.559 521.021 540C521.021 782.441 717.558 978.979 960 978.979ZM960 990C1208.53 990 1410 788.528 1410 540C1410 291.472 1208.53 90 960 90C711.471 90 510 291.472 510 540C510 788.528 711.471 990 960 990Z" fill="url(#paint2_linear_51:2)"/>
<circle cx="970.817" cy="540" r="378.606" fill="url(#paint3_radial_51:2)"/>
<circle r="11.899" transform="matrix(1 0 0 -1 777.188 766.082)" fill="#D55561"/>
<circle r="11.899" transform="matrix(1 0 0 -1 1119.01 805.024)" fill="#D55561"/>
<circle r="6.49038" transform="matrix(1 0 0 -1 1128.75 726.058)" fill="#D55561"/>
<circle r="6.49038" transform="matrix(1 0 0 -1 1178.51 286.875)" fill="#D55561"/>
<circle r="6.49038" transform="matrix(1 0 0 -1 1284.52 455.625)" fill="#EEAB75"/>
<circle r="6.49038" transform="matrix(1 0 0 -1 644.134 431.827)" fill="#EEAB75"/>
<circle r="6.49038" transform="matrix(1 0 0 -1 929.711 263.077)" fill="#D55561"/>
<path d="M676.375 282.548L712.833 296.237C768.763 317.237 797.079 379.6 776.079 435.53L762.39 471.988L725.933 458.299C670.003 437.299 641.687 374.935 662.687 319.005L676.375 282.548Z" fill="url(#paint4_linear_51:2)"/>
<path opacity="0.5" fill-rule="evenodd" clip-rule="evenodd" d="M758.053 470.359L675.713 284.311L676.375 282.548L712.832 296.237C768.762 317.237 797.078 379.6 776.078 435.53L762.39 471.987L758.053 470.359Z" fill="#529D6A"/>
<path d="M829.978 764.058L856.893 756.806C898.184 745.681 940.676 770.135 951.801 811.426L959.053 838.342L932.138 845.593C890.846 856.719 848.355 832.264 837.229 790.973L829.978 764.058Z" fill="url(#paint5_linear_51:2)"/>
<path opacity="0.5" fill-rule="evenodd" clip-rule="evenodd" d="M955.852 839.204L830.329 765.36L829.978 764.058L856.893 756.806C898.184 745.681 940.676 770.135 951.801 811.426L959.053 838.341L955.852 839.204Z" fill="#529D6A"/>
<circle cx="730.673" cy="639.519" r="93.0288" fill="url(#paint6_linear_51:2)"/>
<path fill-rule="evenodd" clip-rule="evenodd" d="M817.886 671.971C821.647 661.867 823.703 650.933 823.703 639.519C823.703 627.285 821.341 615.603 817.049 604.904H644.298C640.006 615.603 637.645 627.285 637.645 639.519C637.645 650.933 639.701 661.867 643.462 671.971H817.886Z" fill="#E3E798"/>
<path fill-rule="evenodd" clip-rule="evenodd" d="M730.673 725.935C778.4 725.935 817.089 687.245 817.089 639.519C817.089 591.793 778.4 553.103 730.673 553.103C682.947 553.103 644.257 591.793 644.257 639.519C644.257 687.245 682.947 725.935 730.673 725.935ZM730.673 732.548C782.052 732.548 823.702 690.898 823.702 639.519C823.702 588.141 782.052 546.49 730.673 546.49C679.295 546.49 637.645 588.141 637.645 639.519C637.645 690.898 679.295 732.548 730.673 732.548Z" fill="#F3F4CB"/>
<path fill-rule="evenodd" clip-rule="evenodd" d="M1095.46 282.437C1072.47 282.158 1053.71 288.219 1043.86 304.517C1039.23 312.174 1039.29 319.275 1042.87 326.022C1046.49 332.854 1053.76 339.389 1063.68 345.66C1083.5 358.193 1113.46 369.377 1144.37 379.728C1154.31 383.056 1164.35 386.297 1174.16 389.469C1194.82 396.143 1214.52 402.505 1230.31 408.703C1241.95 413.273 1251.56 417.787 1257.89 422.319C1261.06 424.584 1263.48 426.902 1264.91 429.295C1266.36 431.721 1266.8 434.251 1265.95 436.816C1264.96 439.793 1262.66 441.795 1259.59 443.047C1256.54 444.29 1252.66 444.827 1248.31 444.875C1239.61 444.97 1228.73 443.103 1218.14 440.598C1207.54 438.089 1197.17 434.924 1189.45 432.387C1185.59 431.119 1182.39 430.007 1180.16 429.211C1179.04 428.814 1178.16 428.495 1177.57 428.276C1177.27 428.166 1177.04 428.081 1176.88 428.024L1176.71 427.958L1176.65 427.936C1176.65 427.936 1176.65 427.936 1177 427C1177.35 426.064 1177.35 426.064 1177.35 426.064L1177.36 426.065L1177.41 426.085L1177.58 426.149C1177.73 426.206 1177.96 426.29 1178.26 426.398C1178.85 426.616 1179.72 426.932 1180.83 427.327C1183.05 428.118 1186.23 429.225 1190.08 430.487C1197.77 433.014 1208.08 436.161 1218.61 438.652C1229.15 441.146 1239.83 442.967 1248.29 442.875C1252.52 442.829 1256.11 442.303 1258.83 441.195C1261.53 440.095 1263.29 438.457 1264.05 436.184C1264.69 434.272 1264.4 432.346 1263.19 430.322C1261.96 428.265 1259.79 426.137 1256.73 423.946C1250.61 419.566 1241.19 415.125 1229.58 410.564C1213.85 404.39 1194.25 398.06 1173.63 391.398C1163.8 388.222 1153.73 384.971 1143.74 381.624C1112.85 371.28 1082.67 360.03 1062.61 347.351C1052.59 341.016 1044.97 334.252 1041.1 326.958C1037.19 319.58 1037.16 311.731 1042.14 303.483C1052.54 286.281 1072.22 280.155 1095.49 280.438C1118.78 280.721 1145.94 287.416 1171.76 296.178C1197.59 304.945 1222.15 315.807 1240.24 324.473C1249.28 328.807 1256.72 332.594 1261.89 335.297C1264.48 336.649 1266.5 337.731 1267.88 338.474C1268.56 338.846 1269.09 339.134 1269.45 339.328C1269.62 339.426 1269.76 339.5 1269.85 339.55L1269.95 339.607L1269.98 339.625C1269.99 339.626 1269.99 339.626 1269.5 340.5C1269.01 341.374 1269.01 341.373 1269.01 341.373L1268.98 341.356L1268.88 341.3C1268.79 341.251 1268.66 341.178 1268.48 341.082C1268.13 340.889 1267.61 340.604 1266.93 340.234C1265.56 339.494 1263.54 338.417 1260.97 337.07C1255.81 334.375 1248.4 330.599 1239.37 326.277C1221.32 317.631 1196.85 306.805 1171.12 298.072C1145.37 289.334 1118.44 282.717 1095.46 282.437ZM1270.37 340.986C1270.11 341.469 1269.5 341.642 1269.01 341.374L1269.5 340.5L1269.99 339.626C1270.47 339.895 1270.64 340.504 1270.37 340.986ZM1176.06 426.647C1176.26 426.131 1176.84 425.87 1177.35 426.064L1177 427L1176.65 427.936C1176.13 427.741 1175.87 427.164 1176.06 426.647Z" fill="#BE424D"/>
<path d="M1339.81 373.34L986.366 349.64L904.411 345.458C832.902 341.81 772.254 397.416 769.699 468.973C766.98 545.096 830.815 606.799 906.802 601.498L1005.95 594.581C1013.23 594.073 1014.26 583.798 1007.23 581.851L896.592 551.223C878.94 546.336 874.967 523.096 889.993 512.624L923.626 489.183L961.073 509.008C1016.13 538.157 1083.43 530.614 1130.66 489.997L1168.1 457.813L1341.27 381.618C1345.41 379.796 1344.33 373.643 1339.81 373.34Z" fill="url(#paint7_linear_51:2)"/>
<path d="M847.905 378.846L828.434 392.909C828.434 392.909 835.849 440.628 853.313 464.303C868.968 485.525 903.073 503.245 903.073 503.245L912.809 496.755C912.809 496.755 878.421 473.364 865.212 451.322C850.255 426.361 847.905 378.846 847.905 378.846Z" fill="url(#paint8_linear_51:2)"/>
<path d="M895.029 508.864L895.501 508.654H871.734C861.061 508.654 850.552 506.022 841.139 500.991L801.484 479.796C799.435 478.701 797.336 481.165 798.742 483.014L807.566 494.611C822.604 514.375 842.996 529.41 866.322 537.933L886.847 545.433C876.615 533.585 880.724 515.222 895.029 508.864Z" fill="url(#paint9_linear_51:2)"/>
<path fill-rule="evenodd" clip-rule="evenodd" d="M911.342 395.588L920.684 380.908L924.403 383.275L915.062 397.955C902.569 417.586 901.731 442.456 912.873 462.884L926.642 488.127L922.772 490.238L909.003 464.995C897.092 443.158 897.988 416.573 911.342 395.588Z" fill="#D15A63"/>
<circle cx="1178.91" cy="374.519" r="21.6346" fill="#4B1E20"/>
<path fill-rule="evenodd" clip-rule="evenodd" d="M1010.66 278.964C1003.59 282.593 998.636 288.181 996.466 296.26C994.154 304.865 996.454 313.397 1002.42 321.895C1008.4 330.412 1018.01 338.818 1030.15 347.065C1054.42 363.555 1088.49 379.233 1122.88 393.821C1134.3 398.664 1145.75 403.387 1156.89 407.979C1179.25 417.199 1200.32 425.888 1217.21 433.943C1229.86 439.975 1240.24 445.689 1247.1 451.047C1250.53 453.725 1253.14 456.36 1254.7 458.957C1256.27 461.574 1256.81 464.224 1255.95 466.816C1254.96 469.793 1252.66 471.795 1249.59 473.047C1246.54 474.29 1242.66 474.827 1238.31 474.875C1229.61 474.97 1218.73 473.103 1208.14 470.598C1197.54 468.089 1187.17 464.924 1179.45 462.387C1175.59 461.119 1172.39 460.007 1170.16 459.212C1169.04 458.814 1168.16 458.495 1167.57 458.276C1167.27 458.167 1167.04 458.082 1166.88 458.024L1166.71 457.959L1166.65 457.936C1166.65 457.936 1166.65 457.936 1167 457C1167.35 456.064 1167.35 456.064 1167.35 456.064L1167.36 456.065L1167.41 456.085L1167.58 456.149C1167.68 456.187 1167.81 456.236 1167.98 456.297C1168.06 456.328 1168.16 456.362 1168.26 456.398C1168.85 456.616 1169.72 456.932 1170.83 457.327C1173.05 458.118 1176.23 459.225 1180.08 460.487C1187.77 463.014 1198.08 466.161 1208.61 468.652C1219.15 471.147 1229.83 472.967 1238.29 472.875C1242.52 472.829 1246.11 472.303 1248.83 471.195C1251.53 470.096 1253.29 468.457 1254.05 466.184C1254.68 464.299 1254.35 462.261 1252.98 459.987C1251.61 457.692 1249.21 455.234 1245.87 452.624C1239.19 447.407 1228.97 441.77 1216.35 435.748C1199.5 427.716 1178.52 419.064 1156.2 409.857C1145.05 405.261 1133.57 400.526 1122.1 395.662C1087.72 381.076 1053.47 365.332 1029.03 348.719C1016.81 340.414 1006.96 331.848 1000.78 323.044C994.59 314.221 992.024 305.084 994.534 295.741C996.864 287.069 1002.22 281.048 1009.75 277.185C1017.24 273.34 1026.86 271.642 1037.77 271.5C1059.58 271.217 1086.89 277.16 1113.54 285.167C1140.21 293.181 1166.31 303.289 1185.73 311.39C1195.44 315.441 1203.49 318.992 1209.11 321.53C1211.92 322.799 1214.12 323.816 1215.63 324.515C1216.38 324.864 1216.95 325.135 1217.34 325.318C1217.54 325.41 1217.68 325.479 1217.78 325.526L1217.93 325.597C1217.93 325.597 1217.93 325.598 1217.5 326.5C1217.07 327.402 1217.07 327.402 1217.07 327.401L1216.92 327.333C1216.87 327.306 1216.79 327.272 1216.71 327.23C1216.64 327.2 1216.57 327.165 1216.49 327.127C1216.1 326.945 1215.53 326.676 1214.78 326.328C1213.29 325.632 1211.09 324.619 1208.29 323.353C1202.68 320.821 1194.65 317.278 1184.96 313.235C1165.57 305.149 1139.54 295.069 1112.96 287.083C1086.36 279.09 1059.29 273.221 1037.79 273.5C1027.05 273.64 1017.77 275.316 1010.66 278.964ZM1218.4 326.931C1218.16 327.43 1217.57 327.64 1217.07 327.402L1217.5 326.5L1217.93 325.598C1218.43 325.836 1218.64 326.433 1218.4 326.931ZM1166.06 456.648C1166.26 456.131 1166.84 455.87 1167.35 456.064L1167 457L1166.65 457.936C1166.13 457.741 1165.87 457.164 1166.06 456.648Z" fill="#BE424D"/>
<path fill-rule="evenodd" clip-rule="evenodd" d="M1045.66 385.964C1038.59 389.593 1033.64 395.181 1031.47 403.26C1029.15 411.865 1031.45 420.397 1037.42 428.895C1043.4 437.412 1053.01 445.818 1065.15 454.065C1089.42 470.555 1123.49 486.233 1157.88 500.821C1169.3 505.664 1180.75 510.387 1191.89 514.979C1214.25 524.199 1235.32 532.888 1252.21 540.943C1264.86 546.975 1275.24 552.689 1282.1 558.047C1285.53 560.725 1288.14 563.36 1289.7 565.957C1291.27 568.574 1291.81 571.224 1290.95 573.816C1289.96 576.793 1287.66 578.795 1284.59 580.047C1281.54 581.29 1277.66 581.827 1273.31 581.875C1264.61 581.97 1253.73 580.103 1243.14 577.598C1232.54 575.089 1222.17 571.924 1214.45 569.387C1210.59 568.119 1207.39 567.007 1205.16 566.212C1204.04 565.814 1203.16 565.495 1202.57 565.276C1202.27 565.167 1202.04 565.082 1201.88 565.024L1201.71 564.959L1201.65 564.936C1201.65 564.936 1201.65 564.936 1202 564C1202.35 563.064 1202.35 563.064 1202.35 563.064L1202.36 563.065L1202.41 563.085L1202.58 563.149C1202.68 563.187 1202.81 563.236 1202.98 563.297C1203.06 563.328 1203.16 563.362 1203.26 563.398C1203.85 563.616 1204.72 563.932 1205.83 564.327C1208.05 565.118 1211.23 566.225 1215.08 567.487C1222.77 570.014 1233.08 573.161 1243.61 575.652C1254.15 578.147 1264.83 579.967 1273.29 579.875C1277.52 579.829 1281.11 579.303 1283.83 578.195C1286.53 577.096 1288.29 575.457 1289.05 573.184C1289.68 571.299 1289.35 569.261 1287.98 566.987C1286.61 564.692 1284.21 562.234 1280.87 559.624C1274.19 554.407 1263.97 548.77 1251.35 542.748C1234.5 534.716 1213.52 526.064 1191.2 516.857C1180.05 512.261 1168.57 507.526 1157.1 502.662C1122.72 488.076 1088.47 472.332 1064.03 455.719C1051.81 447.414 1041.96 438.848 1035.78 430.044C1029.59 421.221 1027.02 412.084 1029.53 402.741C1031.86 394.069 1037.22 388.048 1044.75 384.185C1052.24 380.34 1061.86 378.642 1072.77 378.5C1094.58 378.217 1121.89 384.16 1148.54 392.167C1175.21 400.181 1201.31 410.289 1220.73 418.39C1230.44 422.441 1238.49 425.992 1244.11 428.53C1246.92 429.799 1249.12 430.816 1250.63 431.515C1251.38 431.864 1251.95 432.135 1252.34 432.318C1252.54 432.41 1252.68 432.479 1252.78 432.526L1252.93 432.597C1252.93 432.597 1252.93 432.598 1252.5 433.5C1252.07 434.402 1252.07 434.402 1252.07 434.401L1251.92 434.333C1251.87 434.306 1251.79 434.272 1251.71 434.23C1251.64 434.2 1251.57 434.165 1251.49 434.127C1251.1 433.945 1250.53 433.676 1249.78 433.328C1248.29 432.632 1246.09 431.619 1243.29 430.353C1237.68 427.821 1229.65 424.278 1219.96 420.235C1200.57 412.149 1174.54 402.069 1147.96 394.083C1121.36 386.09 1094.29 380.221 1072.79 380.5C1062.05 380.64 1052.77 382.316 1045.66 385.964ZM1253.4 433.931C1253.16 434.43 1252.57 434.64 1252.07 434.402L1252.5 433.5L1252.93 432.598C1253.43 432.836 1253.64 433.433 1253.4 433.931ZM1201.06 563.648C1201.26 563.131 1201.84 562.87 1202.35 563.064L1202 564L1201.65 564.936C1201.13 564.741 1200.87 564.164 1201.06 563.648Z" fill="#BE424D"/>
<path d="M1356.72 517.186L1003.27 493.486L921.316 489.304C849.807 485.656 789.159 541.262 786.604 612.819C783.885 688.942 847.72 750.646 923.708 745.344L1022.85 738.427C1030.13 737.919 1031.16 727.644 1024.13 725.697L913.497 695.069C895.845 690.182 891.873 666.942 906.898 656.47L940.531 633.029L977.978 652.854C1033.04 682.003 1100.33 674.46 1147.57 633.843L1185 601.659L1358.17 525.464C1362.31 523.642 1361.23 517.489 1356.72 517.186Z" fill="url(#paint10_linear_51:2)"/>
<path fill-rule="evenodd" clip-rule="evenodd" d="M1100.46 459.437C1077.47 459.158 1058.71 465.219 1048.86 481.517C1044.23 489.174 1044.29 496.275 1047.87 503.022C1051.49 509.854 1058.76 516.389 1068.68 522.66C1088.5 535.193 1118.46 546.377 1149.37 556.728C1159.31 560.056 1169.35 563.297 1179.16 566.469C1199.82 573.143 1219.52 579.505 1235.31 585.703C1246.95 590.273 1256.56 594.787 1262.89 599.319C1266.06 601.584 1268.48 603.902 1269.91 606.295C1271.36 608.721 1271.8 611.251 1270.95 613.816C1269.96 616.793 1267.66 618.795 1264.59 620.047C1261.54 621.29 1257.66 621.827 1253.31 621.875C1244.61 621.97 1233.73 620.103 1223.14 617.598C1212.54 615.089 1202.17 611.924 1194.45 609.387C1190.59 608.119 1187.39 607.007 1185.16 606.211C1184.04 605.814 1183.16 605.495 1182.57 605.276C1182.27 605.166 1182.04 605.081 1181.88 605.024L1181.71 604.958L1181.65 604.936C1181.65 604.936 1181.65 604.936 1182 604C1182.35 603.064 1182.35 603.064 1182.35 603.064L1182.36 603.065L1182.41 603.085L1182.58 603.149C1182.73 603.206 1182.96 603.29 1183.26 603.398C1183.85 603.616 1184.72 603.932 1185.83 604.327C1188.05 605.118 1191.23 606.225 1195.08 607.487C1202.77 610.014 1213.08 613.161 1223.61 615.652C1234.15 618.146 1244.83 619.967 1253.29 619.875C1257.52 619.829 1261.11 619.303 1263.83 618.195C1266.53 617.095 1268.29 615.457 1269.05 613.184C1269.69 611.272 1269.4 609.346 1268.19 607.322C1266.96 605.265 1264.79 603.137 1261.73 600.946C1255.61 596.566 1246.19 592.125 1234.58 587.564C1218.85 581.39 1199.25 575.06 1178.63 568.398C1168.8 565.222 1158.73 561.971 1148.74 558.624C1117.85 548.28 1087.67 537.03 1067.61 524.351C1057.59 518.016 1049.97 511.252 1046.1 503.958C1042.19 496.58 1042.16 488.731 1047.14 480.483C1057.54 463.281 1077.22 457.155 1100.49 457.438C1123.78 457.721 1150.94 464.416 1176.76 473.178C1202.59 481.945 1227.15 492.807 1245.24 501.473C1254.28 505.807 1261.72 509.594 1266.89 512.297C1269.48 513.649 1271.5 514.731 1272.88 515.474C1273.56 515.846 1274.09 516.134 1274.45 516.328C1274.62 516.426 1274.76 516.5 1274.85 516.55L1274.95 516.607L1274.98 516.625C1274.99 516.626 1274.99 516.626 1274.5 517.5C1274.01 518.374 1274.01 518.373 1274.01 518.373L1273.98 518.356L1273.88 518.3C1273.79 518.251 1273.66 518.178 1273.48 518.082C1273.13 517.889 1272.61 517.604 1271.93 517.234C1270.56 516.494 1268.54 515.417 1265.97 514.07C1260.81 511.375 1253.4 507.599 1244.37 503.277C1226.32 494.631 1201.85 483.805 1176.12 475.072C1150.37 466.334 1123.44 459.717 1100.46 459.437ZM1275.37 517.986C1275.11 518.469 1274.5 518.642 1274.01 518.374L1274.5 517.5L1274.99 516.626C1275.47 516.895 1275.64 517.504 1275.37 517.986ZM1181.06 603.647C1181.26 603.131 1181.84 602.87 1182.35 603.064L1182 604L1181.65 604.936C1181.13 604.741 1180.87 604.164 1181.06 603.647Z" fill="#BE424D"/>
<path d="M864.808 522.692L845.336 536.755C845.336 536.755 852.752 584.474 870.216 608.149C885.871 629.371 919.976 647.091 919.976 647.091L929.711 640.601C929.711 640.601 895.324 617.21 882.115 595.168C867.157 570.207 864.808 522.692 864.808 522.692Z" fill="url(#paint11_linear_51:2)"/>
<path d="M911.931 652.71L912.403 652.5H888.635C877.962 652.5 867.454 649.868 858.041 644.837L818.386 623.642C816.337 622.547 814.237 625.011 815.644 626.86L824.468 638.457C839.506 658.221 859.897 673.256 883.224 681.779L903.749 689.279C893.517 677.431 897.625 659.068 911.931 652.71Z" fill="url(#paint12_linear_51:2)"/>
<path fill-rule="evenodd" clip-rule="evenodd" d="M928.245 539.434L937.587 524.754L941.306 527.121L931.964 541.801C919.472 561.432 918.633 586.302 929.776 606.73L943.545 631.973L939.675 634.084L925.906 608.841C913.995 587.004 914.891 560.419 928.245 539.434Z" fill="#D15A63"/>
<circle cx="1195.82" cy="518.365" r="21.6346" fill="#4B1E20"/>
<path d="M797.021 444.296C771.694 429.513 741.532 425.397 713.17 432.853C684.808 440.309 660.57 458.726 645.787 484.054C631.004 509.381 626.888 539.543 634.344 567.905C641.8 596.267 660.217 620.505 685.544 635.288L741.283 539.792L797.021 444.296Z" fill="#DBE272"/>
<path fill-rule="evenodd" clip-rule="evenodd" d="M630.814 544.561L740.411 541.082L684.923 444.662C668.882 454.167 655.355 467.663 645.788 484.054C635.015 502.511 629.907 523.536 630.814 544.561Z" fill="#E3E798"/>
<path fill-rule="evenodd" clip-rule="evenodd" d="M631.146 568.745C623.468 539.535 627.707 508.471 642.932 482.387C658.157 456.302 683.12 437.334 712.33 429.655C741.54 421.977 772.604 426.216 798.689 441.441L795.355 447.152C770.785 432.811 741.525 428.818 714.011 436.051C686.497 443.284 662.984 461.151 648.643 485.72C634.302 510.29 630.309 539.55 637.542 567.064C644.775 594.578 662.642 618.092 687.211 632.432L683.878 638.144C657.793 622.919 638.825 597.956 631.146 568.745Z" fill="#F3F4CB"/>
<path d="M1078.63 733.64L1077.18 767.043C1074.97 818.287 1031.64 858.035 980.394 855.823L946.991 854.381L948.433 820.978C950.645 769.735 993.979 729.987 1045.22 732.199L1078.63 733.64Z" fill="url(#paint13_linear_51:2)"/>
<path opacity="0.5" fill-rule="evenodd" clip-rule="evenodd" d="M947.163 850.408L1077.01 733.571L1078.63 733.641L1077.18 767.043C1074.97 818.287 1031.64 858.035 980.394 855.823L946.991 854.381L947.163 850.408Z" fill="#529D6A"/>
<path d="M1162.42 659.104C1163.17 654.252 1167.34 650.67 1172.25 650.67H1206.98C1234.72 650.67 1259.38 672.376 1249.84 698.416C1246.85 706.575 1242.47 714.738 1236.11 721.956C1228.33 730.78 1218.33 736.973 1207.87 741.313C1177.74 753.821 1152.54 723.323 1157.5 691.076L1162.42 659.104Z" fill="url(#paint14_linear_51:2)"/>
<path d="M1169.05 659.104C1169.8 654.252 1173.97 650.67 1178.88 650.67H1213.61C1241.35 650.67 1266.01 672.376 1256.47 698.416C1253.48 706.575 1249.1 714.738 1242.74 721.956C1234.96 730.78 1224.96 736.973 1214.5 741.313C1184.37 753.821 1159.17 723.323 1164.13 691.076L1169.05 659.104Z" fill="#F5E6D5"/>
<path fill-rule="evenodd" clip-rule="evenodd" d="M1192.43 710.184C1195.29 722.385 1212.79 722.005 1215.12 709.691L1215.24 709.07C1215.41 708.17 1216.28 707.579 1217.18 707.75C1218.08 707.92 1218.67 708.788 1218.5 709.687L1218.38 710.308C1215.38 726.141 1192.88 726.63 1189.2 710.942L1185.14 693.675C1181.07 676.351 1197.64 661.312 1214.49 667.041L1232.98 673.328C1247.17 678.154 1246.18 698.549 1231.59 701.979L1224.02 703.759C1223.12 703.968 1222.23 703.415 1222.02 702.524C1221.81 701.633 1222.37 700.74 1223.26 700.531L1230.83 698.751C1242.18 696.083 1242.95 680.221 1231.91 676.467L1213.42 670.18C1199.04 665.289 1184.89 678.128 1188.37 692.916L1192.43 710.184Z" fill="url(#paint15_linear_51:2)"/>
<path d="M1051.6 223.984C1050.97 219.116 1046.87 215.437 1041.97 215.323L1007.24 214.516C979.517 213.871 954.36 234.998 963.293 261.254C966.091 269.48 970.277 277.742 976.469 285.106C984.039 294.109 993.896 300.533 1004.25 305.114C1034.08 318.319 1059.98 288.415 1055.77 256.061L1051.6 223.984Z" fill="url(#paint16_linear_51:2)"/>
<path d="M1044.97 223.83C1044.33 218.961 1040.24 215.283 1035.34 215.169L1000.61 214.362C972.887 213.717 947.729 234.844 956.662 261.1C959.461 269.326 963.646 277.588 969.838 284.952C977.408 293.955 987.265 300.379 997.617 304.96C1027.45 318.165 1053.35 288.261 1049.14 255.907L1044.97 223.83Z" fill="#F5E6D5"/>
<path fill-rule="evenodd" clip-rule="evenodd" d="M1020.41 274.352C1017.26 286.484 999.781 285.697 997.732 273.332L997.629 272.708C997.479 271.805 996.626 271.194 995.723 271.344C994.819 271.493 994.208 272.347 994.358 273.25L994.461 273.874C997.095 289.772 1019.57 290.784 1023.62 275.186L1028.08 258.017C1032.55 240.793 1016.33 225.372 999.358 230.708L980.727 236.564C966.426 241.059 966.941 261.471 981.45 265.239L988.981 267.195C989.867 267.425 990.772 266.893 991.003 266.007C991.233 265.121 990.701 264.216 989.815 263.986L982.284 262.03C970.999 259.1 970.598 243.223 981.721 239.727L1000.35 233.871C1014.84 229.316 1028.69 242.48 1024.87 257.184L1020.41 274.352Z" fill="url(#paint17_linear_51:2)"/>
<path d="M880.685 256.436C880.051 251.567 875.96 247.889 871.052 247.775L836.329 246.968C808.603 246.323 783.446 267.45 792.379 293.706C795.177 301.932 799.363 310.194 805.555 317.558C813.125 326.561 822.982 332.985 833.333 337.566C863.168 350.771 889.069 320.867 884.859 288.513L880.685 256.436Z" fill="url(#paint18_linear_51:2)"/>
<path d="M874.054 256.282C873.421 251.413 869.33 247.735 864.422 247.621L829.699 246.814C801.973 246.169 776.815 267.296 785.748 293.552C788.547 301.778 792.732 310.04 798.924 317.404C806.494 326.407 816.351 332.83 826.703 337.412C856.538 350.617 882.439 320.713 878.229 288.359L874.054 256.282Z" fill="#F5E6D5"/>
<path fill-rule="evenodd" clip-rule="evenodd" d="M849.499 306.804C846.348 318.936 828.866 318.149 826.818 305.784L826.714 305.16C826.565 304.257 825.711 303.646 824.808 303.796C823.905 303.945 823.294 304.799 823.443 305.702L823.547 306.326C826.18 322.224 848.657 323.235 852.708 307.638L857.166 290.469C861.639 273.245 845.42 257.824 828.443 263.16L809.812 269.016C795.512 273.511 796.027 293.923 810.536 297.691L818.067 299.647C818.953 299.877 819.858 299.345 820.088 298.459C820.318 297.573 819.786 296.668 818.9 296.438L811.369 294.482C800.084 291.551 799.684 275.675 810.806 272.179L829.437 266.323C843.93 261.768 857.775 274.932 853.957 289.636L849.499 306.804Z" fill="url(#paint19_linear_51:2)"/>
<path d="M339.716 1004.52C363.62 1028.04 395.888 1041.1 429.421 1040.83C462.954 1040.55 495.005 1026.97 518.523 1003.07C542.04 979.161 555.099 946.893 554.825 913.36C554.552 879.827 540.969 847.776 517.064 824.258L428.39 914.391L339.716 1004.52Z" fill="#DBE272"/>
<path fill-rule="evenodd" clip-rule="evenodd" d="M552.161 940.228L429.719 913.21L464.052 1035.7C484.508 1029.68 503.301 1018.54 518.521 1003.07C535.66 985.647 547.243 963.784 552.161 940.228Z" fill="#E3E798"/>
<path d="M339.716 1004.52C363.62 1028.04 395.888 1041.1 429.421 1040.83C462.954 1040.55 495.005 1026.97 518.523 1003.07C542.04 979.161 555.099 946.893 554.825 913.36C554.552 879.827 540.969 847.776 517.064 824.258" stroke="#F3F4CB" stroke-width="7.42177"/>
<path d="M1404.17 134.494L1435.65 110.85C1483.94 74.5785 1552.49 84.3203 1588.76 132.609L1612.4 164.086L1580.93 187.729C1532.64 224.001 1464.09 214.259 1427.82 165.97L1404.17 134.494Z" fill="url(#paint20_linear_51:2)"/>
<path opacity="0.5" fill-rule="evenodd" clip-rule="evenodd" d="M1608.66 166.898L1405.32 136.016L1404.17 134.494L1435.65 110.851C1483.94 74.5788 1552.49 84.3205 1588.76 132.609L1612.4 164.086L1608.66 166.898Z" fill="#529D6A"/>
<path d="M243.242 526.977L208.132 544.782C154.268 572.098 88.459 550.576 61.1435 496.712L43.3382 461.602L78.4487 443.797C132.312 416.481 198.121 438.003 225.437 491.866L243.242 526.977Z" fill="url(#paint21_linear_51:2)"/>
<path opacity="0.5" fill-rule="evenodd" clip-rule="evenodd" d="M47.5148 459.484L242.381 525.279L243.242 526.977L208.132 544.782C154.268 572.098 88.4592 550.576 61.1437 496.712L43.3384 461.602L47.5148 459.484Z" fill="#529D6A"/>
<path d="M215.189 522.767L212.609 562.05C208.649 622.314 156.586 667.958 96.3215 663.998L57.039 661.418L59.6199 622.135C63.5793 561.871 115.643 516.227 175.907 520.186L215.189 522.767Z" fill="url(#paint22_linear_51:2)"/>
<path opacity="0.5" fill-rule="evenodd" clip-rule="evenodd" d="M57.3449 656.745L213.288 522.642L215.188 522.767L212.607 562.049C208.648 622.313 156.585 667.958 96.3204 663.998L57.0379 661.417L57.3449 656.745Z" fill="#529D6A"/>
<path d="M476.117 200.059C476.117 297.293 397.293 376.117 300.058 376.117C202.824 376.117 124 297.293 124 200.059C124 102.824 202.824 23.9999 300.058 23.9999C397.293 23.9999 476.117 102.824 476.117 200.059Z" fill="#323138"/>
<path fill-rule="evenodd" clip-rule="evenodd" d="M300.058 365.182C391.253 365.182 465.182 291.254 465.182 200.059C465.182 108.864 391.253 34.9353 300.058 34.9353C208.863 34.9353 134.935 108.864 134.935 200.059C134.935 291.254 208.863 365.182 300.058 365.182ZM300.058 376.117C397.293 376.117 476.117 297.293 476.117 200.059C476.117 102.824 397.293 23.9999 300.058 23.9999C202.824 23.9999 124 102.824 124 200.059C124 297.293 202.824 376.117 300.058 376.117Z" fill="url(#paint23_linear_51:2)"/>
<circle cx="300.058" cy="200.059" r="112.634" fill="#C24048"/>
<circle cx="245.382" cy="213.181" r="3.2806" fill="#B4373F"/>
<circle cx="280.375" cy="158.504" r="3.2806" fill="#B4373F"/>
<circle cx="330.677" cy="206.62" r="3.2806" fill="#B4373F"/>
<circle cx="330.677" cy="267.858" r="3.2806" fill="#B4373F"/>
<circle cx="372.23" cy="180.375" r="3.2806" fill="#B4373F"/>
<circle cx="245.382" cy="130.073" r="3.2806" fill="#B4373F"/>
<path d="M236.556 690.099L251.865 668.228" stroke="#323138" stroke-width="4.37413" stroke-linecap="round"/>
<path d="M71.4008 799.732L152.936 762.864C163.23 758.21 171.829 750.481 177.551 740.74L206.717 691.097C214.132 678.476 230.385 674.275 242.987 681.721C256.503 689.708 260.13 707.639 250.782 720.251L221.006 760.426C207.159 779.109 186.443 791.509 163.434 794.888L73.8386 808.046C68.8215 808.782 66.7804 801.822 71.4008 799.732Z" fill="url(#paint24_linear_51:2)"/>
<path d="M349.495 665.669L342.286 644.195" stroke="#323138" stroke-width="3.71138" stroke-linecap="round"/>
<path d="M341.07 833.654L357.008 759.421C359.02 750.049 358.08 740.284 354.317 731.468L335.136 686.537C330.26 675.115 335.586 661.904 347.02 657.057C359.284 651.858 373.351 658.421 377.247 671.159L389.657 711.733C395.428 730.602 393.449 750.992 384.157 768.398L347.973 836.181C345.947 839.977 340.167 837.861 341.07 833.654Z" fill="url(#paint25_linear_51:2)"/>
<path d="M172.513 904.654L151.753 913.716" stroke="#323138" stroke-width="3.71138" stroke-linecap="round"/>
<path d="M291.42 785.696L247.07 847.321C241.471 855.101 233.599 860.956 224.537 864.08L178.352 880.005C166.611 884.053 160.388 896.866 164.466 908.597C168.84 921.179 183.144 927.206 195.203 921.548L233.615 903.527C251.479 895.146 265.27 879.997 271.942 861.428L297.925 789.119C299.38 785.07 293.933 782.203 291.42 785.696Z" fill="url(#paint26_linear_51:2)"/>
</g>
<defs>
<linearGradient id="paint0_linear_51:2" x1="1435.73" y1="1059.64" x2="1494.59" y2="145.953" gradientUnits="userSpaceOnUse">
<stop stop-color="#FEF4E9"/>
<stop offset="1" stop-color="#E9D2BA"/>
</linearGradient>
<linearGradient id="paint1_linear_51:2" x1="1562.55" y1="1019.07" x2="1623.28" y2="54.3819" gradientUnits="userSpaceOnUse">
<stop stop-color="#FEF4E9"/>
<stop offset="1" stop-color="#E9D2BA"/>
</linearGradient>
<linearGradient id="paint2_linear_51:2" x1="960" y1="90" x2="960" y2="990" gradientUnits="userSpaceOnUse">
<stop stop-color="#64626F"/>
<stop offset="1" stop-color="#64626F" stop-opacity="0.34"/>
</linearGradient>
<radialGradient id="paint3_radial_51:2" cx="0" cy="0" r="1" gradientUnits="userSpaceOnUse" gradientTransform="translate(956.755 459.952) rotate(88.5761) scale(565.92 501.172)">
<stop stop-color="#F7C97C"/>
<stop offset="1" stop-color="#D55561"/>
</radialGradient>
<linearGradient id="paint4_linear_51:2" x1="728.51" y1="427.5" x2="661.443" y2="302.019" gradientUnits="userSpaceOnUse">
<stop stop-color="#64B581"/>
<stop offset="1" stop-color="#8DE691"/>
</linearGradient>
<linearGradient id="paint5_linear_51:2" x1="920.784" y1="826.606" x2="829.418" y2="781.613" gradientUnits="userSpaceOnUse">
<stop stop-color="#64B581"/>
<stop offset="1" stop-color="#8DE691"/>
</linearGradient>
<linearGradient id="paint6_linear_51:2" x1="677.669" y1="595.168" x2="724.183" y2="690.36" gradientUnits="userSpaceOnUse">
<stop stop-color="#C4CC57"/>
<stop offset="1" stop-color="#DBE272"/>
</linearGradient>
<linearGradient id="paint7_linear_51:2" x1="1010.84" y1="465.361" x2="984.879" y2="326.899" gradientUnits="userSpaceOnUse">
<stop stop-color="#D55561"/>
<stop offset="1" stop-color="#EB8B75"/>
</linearGradient>
<linearGradient id="paint8_linear_51:2" x1="901.587" y1="506.466" x2="811.126" y2="432.933" gradientUnits="userSpaceOnUse">
<stop stop-color="#C14752"/>
<stop offset="1" stop-color="#C14752" stop-opacity="0"/>
</linearGradient>
<linearGradient id="paint9_linear_51:2" x1="847.5" y1="538.918" x2="817.394" y2="467.12" gradientUnits="userSpaceOnUse">
<stop stop-color="#C14752"/>
<stop offset="1" stop-color="#C14752" stop-opacity="0"/>
</linearGradient>
<linearGradient id="paint10_linear_51:2" x1="1041.13" y1="641.683" x2="1013.01" y2="510.793" gradientUnits="userSpaceOnUse">
<stop stop-color="#D55561"/>
<stop offset="1" stop-color="#EB8B75"/>
</linearGradient>
<linearGradient id="paint11_linear_51:2" x1="965.409" y1="689.279" x2="828.029" y2="576.779" gradientUnits="userSpaceOnUse">
<stop stop-color="#C14752"/>
<stop offset="1" stop-color="#C14752" stop-opacity="0"/>
</linearGradient>
<linearGradient id="paint12_linear_51:2" x1="953.533" y1="711.63" x2="885.419" y2="579.016" gradientUnits="userSpaceOnUse">
<stop stop-color="#C14752"/>
<stop offset="1" stop-color="#C14752" stop-opacity="0"/>
</linearGradient>
<linearGradient id="paint13_linear_51:2" x1="974.253" y1="814.862" x2="1058.75" y2="726.651" gradientUnits="userSpaceOnUse">
<stop stop-color="#64B581"/>
<stop offset="1" stop-color="#8DE691"/>
</linearGradient>
<linearGradient id="paint14_linear_51:2" x1="1188.41" y1="776.048" x2="1200.39" y2="658.73" gradientUnits="userSpaceOnUse">
<stop offset="0.438968" stop-color="#A58F78"/>
<stop offset="1" stop-color="#CFBDAA"/>
</linearGradient>
<linearGradient id="paint15_linear_51:2" x1="1279.77" y1="733.561" x2="1260.96" y2="653.186" gradientUnits="userSpaceOnUse">
<stop stop-color="#A58F78"/>
<stop offset="1" stop-color="#F5E6D5"/>
</linearGradient>
<linearGradient id="paint16_linear_51:2" x1="1022.9" y1="340.293" x2="1013.64" y2="222.727" gradientUnits="userSpaceOnUse">
<stop offset="0.438968" stop-color="#A58F78"/>
<stop offset="1" stop-color="#CFBDAA"/>
</linearGradient>
<linearGradient id="paint17_linear_51:2" x1="932.554" y1="295.693" x2="953.22" y2="215.777" gradientUnits="userSpaceOnUse">
<stop stop-color="#A58F78"/>
<stop offset="1" stop-color="#F5E6D5"/>
</linearGradient>
<linearGradient id="paint18_linear_51:2" x1="851.986" y1="372.745" x2="842.728" y2="255.179" gradientUnits="userSpaceOnUse">
<stop offset="0.438968" stop-color="#A58F78"/>
<stop offset="1" stop-color="#CFBDAA"/>
</linearGradient>
<linearGradient id="paint19_linear_51:2" x1="761.639" y1="328.145" x2="782.305" y2="248.229" gradientUnits="userSpaceOnUse">
<stop stop-color="#A58F78"/>
<stop offset="1" stop-color="#F5E6D5"/>
</linearGradient>
<linearGradient id="paint20_linear_51:2" x1="1556.07" y1="168.799" x2="1412.66" y2="157.803" gradientUnits="userSpaceOnUse">
<stop stop-color="#64B581"/>
<stop offset="1" stop-color="#8DE691"/>
</linearGradient>
<linearGradient id="paint21_linear_51:2" x1="99.6321" y1="466.762" x2="238.941" y2="502.547" gradientUnits="userSpaceOnUse">
<stop stop-color="#64B581"/>
<stop offset="1" stop-color="#8DE691"/>
</linearGradient>
<linearGradient id="paint22_linear_51:2" x1="90.1765" y1="615.619" x2="191.98" y2="514.013" gradientUnits="userSpaceOnUse">
<stop stop-color="#64B581"/>
<stop offset="1" stop-color="#8DE691"/>
</linearGradient>
<linearGradient id="paint23_linear_51:2" x1="300.058" y1="23.9999" x2="300.058" y2="376.117" gradientUnits="userSpaceOnUse">
<stop stop-color="#64626F"/>
<stop offset="1" stop-color="#64626F" stop-opacity="0.34"/>
</linearGradient>
<linearGradient id="paint24_linear_51:2" x1="204.843" y1="742.588" x2="194.296" y2="655.42" gradientUnits="userSpaceOnUse">
<stop stop-color="#D55561"/>
<stop offset="1" stop-color="#EB8B75"/>
</linearGradient>
<linearGradient id="paint25_linear_51:2" x1="369.335" y1="713.773" x2="304.525" y2="677.031" gradientUnits="userSpaceOnUse">
<stop stop-color="#D55561"/>
<stop offset="1" stop-color="#EB8B75"/>
</linearGradient>
<linearGradient id="paint26_linear_51:2" x1="221.493" y1="887.089" x2="150.765" y2="863.686" gradientUnits="userSpaceOnUse">
<stop stop-color="#D55561"/>
<stop offset="1" stop-color="#EB8B75"/>
</linearGradient>
<clipPath id="clip0_51:2">
<rect width="1920" height="1080" fill="white"/>
</clipPath>
</defs>
</svg>
