<svg width="1920" height="1080" viewBox="0 0 1920 1080" fill="none" xmlns="http://www.w3.org/2000/svg">
<g clip-path="url(#clip0_61:162)">
<rect width="1920" height="1080" fill="#F7F9FA"/>
<path d="M1919.5 1080V165L98 1080H1919.5Z" fill="#C6D8EF"/>
<path fill-rule="evenodd" clip-rule="evenodd" d="M1744.86 1080L1700.11 1005.74L1919.5 925.98V922.788L1698.53 1003.13L1566.63 784.274L1795.89 700.921L1919.5 906.014V900.202L1798.76 699.877L1919.5 655.98V652.788L1797.19 697.258L1665.28 478.407L1852.23 410.44L1919.5 522.049V516.238L1855.1 409.395L1919.5 385.98V382.788L1853.52 406.777L1756.99 246.634L1754.3 247.984L1850.65 407.821L1663.71 475.788L1579.37 335.858L1576.68 337.209L1660.83 476.833L1431.57 560.186L1362.14 444.981L1359.45 446.332L1428.7 561.23L1190.42 647.863L1136.46 558.345L1133.77 559.696L1187.54 648.908L960.743 731.366L921.534 666.311L918.845 667.662L957.87 732.411L750.756 807.712L725.028 765.023L722.339 766.374L747.883 808.756L498.116 899.565L488.606 883.786L485.917 885.136L495.243 900.609L349.974 953.425L326.97 964.981L496.821 903.228L603.362 1080H606.864L499.694 902.183L749.461 811.375L881.363 1030.23L744.462 1080H753.242L882.941 1032.84L911.362 1080H914.864L885.814 1031.8L1092.93 956.5L1167.36 1080H1170.86L1095.8 955.455L1322.6 872.997L1447.36 1080H1450.86L1325.47 871.952L1563.76 785.319L1695.66 1004.17L1487.09 1080H1495.87L1697.24 1006.79L1741.36 1080H1744.86ZM267.864 1080L228.388 1014.5L225.7 1015.85L264.362 1080H267.864ZM752.334 810.33L884.236 1029.18L1091.35 953.881L959.448 735.029L752.334 810.33ZM962.321 733.985L1094.22 952.836L1321.02 870.378L1189.12 651.526L962.321 733.985ZM1191.99 650.482L1323.9 869.334L1562.18 782.7L1430.28 563.849L1191.99 650.482ZM1433.15 562.804L1565.05 781.656L1794.31 698.303L1662.41 479.451L1433.15 562.804Z" fill="#A0BDDF"/>
<path d="M912.5 126.86C940.096 105.217 978.904 105.217 1006.5 126.86C1025.58 141.821 1050.64 146.806 1073.99 140.284C1107.77 130.85 1143.62 145.701 1160.83 176.256C1172.73 197.379 1193.98 211.575 1218.05 214.485C1252.86 218.695 1280.3 246.136 1284.51 280.953C1287.42 305.022 1301.62 326.267 1322.74 338.167C1353.3 355.38 1368.15 391.234 1358.72 425.011C1352.19 448.362 1357.18 473.423 1372.14 492.5C1393.78 520.096 1393.78 558.903 1372.14 586.5C1357.18 605.577 1352.19 630.637 1358.72 653.988C1368.15 687.766 1353.3 723.619 1322.74 740.832C1301.62 752.732 1287.42 773.977 1284.51 798.046C1280.3 832.863 1252.86 860.304 1218.05 864.514C1193.98 867.424 1172.73 881.62 1160.83 902.743C1143.62 933.299 1107.77 948.15 1073.99 938.715C1050.64 932.193 1025.58 937.178 1006.5 952.14C978.904 973.782 940.096 973.782 912.5 952.14C893.423 937.178 868.362 932.193 845.012 938.715C811.234 948.15 775.381 933.299 758.167 902.743C746.268 881.62 725.023 867.424 700.954 864.514C666.137 860.304 638.696 832.863 634.486 798.046C631.576 773.977 617.38 752.732 596.257 740.832C565.701 723.619 550.85 687.766 560.285 653.988C566.807 630.637 561.822 605.577 546.86 586.5C525.218 558.904 525.218 520.096 546.86 492.5C561.822 473.423 566.807 448.362 560.285 425.011C550.85 391.234 565.701 355.38 596.257 338.167C617.38 326.267 631.576 305.022 634.486 280.953C638.696 246.136 666.137 218.695 700.954 214.485C725.023 211.575 746.268 197.379 758.167 176.256C775.381 145.701 811.234 130.85 845.012 140.284C868.362 146.806 893.423 141.821 912.5 126.86Z" fill="url(#paint0_radial_61:162)"/>
<path d="M1315.13 539.5C1315.13 735.91 1155.91 895.131 959.5 895.131C763.09 895.131 603.869 735.91 603.869 539.5C603.869 343.09 763.09 183.868 959.5 183.868C1155.91 183.868 1315.13 343.09 1315.13 539.5Z" fill="url(#paint1_linear_61:162)"/>
<path fill-rule="evenodd" clip-rule="evenodd" d="M1314.2 513.5H1241V603.5L1309.39 603.5C1305.17 626.695 1298.71 649.107 1290.23 670.5L1241 670.5V756.856C1220.23 783.723 1195.69 807.533 1168.18 827.5H1084V872.73C1062.57 880.74 1040.16 886.742 1017 890.507V827.5H927V892.374C903.906 889.491 881.499 884.394 860 877.301V827.5H770V832.578C740.844 812.494 714.832 788.171 692.856 760.5H703V670.5H640.773C632.293 649.107 625.827 626.695 621.612 603.5H703V513.5H616.805C618.467 490.491 622.319 468.088 628.152 446.5H703V356.5H666.504C692.765 312.826 728.141 275.255 770 246.421V289.5H860V201.698C881.499 194.605 903.906 189.508 927 186.625V289.5L1017 289.5V188.493C1040.16 192.258 1062.57 198.26 1084 206.27V289.5H1174V255.814C1210.21 283.233 1241 317.423 1264.5 356.5H1241V446.5H1302.85C1308.68 468.088 1312.53 490.491 1314.2 513.5ZM770 356.5V446.5H860V356.5H770ZM927 356.5V446.5L1017 446.5V356.5L927 356.5ZM1084 356.5V446.5H1174V356.5H1084ZM1174 670.5V760.5H1084V670.5H1174ZM1174 513.5V603.5H1084V513.5H1174ZM770 513.5V603.5H860V513.5H770ZM927 513.5V603.5H1017V513.5L927 513.5ZM1017 670.5V760.5H927V670.5H1017ZM770 670.5V760.5H860V670.5H770Z" fill="#DC5155"/>
<path fill-rule="evenodd" clip-rule="evenodd" d="M758 246.421C716.141 275.255 680.765 312.826 654.504 356.5H691V446.5H616.152C610.319 468.088 606.467 490.491 604.805 513.5H691V603.5H609.612C613.827 626.695 620.293 649.107 628.773 670.5H691V760.5H680.856C702.832 788.171 728.844 812.494 758 832.578V827.5H848V877.301C869.499 884.394 891.906 889.491 915 892.374V827.5H1005V892.248C1028.1 889.298 1050.51 884.132 1072 876.97V827.5H1162V831.887C1190.75 811.937 1216.42 787.854 1238.14 760.5H1229V670.5L1290.23 670.5C1298.71 649.107 1305.17 626.695 1309.39 603.5L1229 603.5V513.5H1314.2C1312.53 490.491 1308.68 468.088 1302.85 446.5H1229V356.5H1264.5C1238.45 313.174 1203.42 275.855 1162 247.112V289.5H1072V202.029C1050.51 194.867 1028.1 189.701 1005 186.751V289.5L915 289.5V186.625C891.906 189.508 869.499 194.605 848 201.698V289.5H758V246.421ZM758 446.5V356.5H848V446.5H758ZM915 446.5V356.5L1005 356.5V446.5L915 446.5ZM1072 446.5V356.5H1162V446.5H1072ZM1162 760.5V670.5H1072V760.5H1162ZM1162 603.5V513.5H1072V603.5H1162ZM758 603.5V513.5H848V603.5H758ZM915 603.5V513.5L1005 513.5V603.5H915ZM1005 760.5V670.5H915V760.5H1005ZM758 760.5V670.5H848V760.5H758Z" fill="url(#paint2_radial_61:162)"/>
<path d="M1854 371.5C1854 484.442 1762.44 576 1649.5 576C1536.56 576 1445 484.442 1445 371.5C1445 258.558 1536.56 167 1649.5 167C1762.44 167 1854 258.558 1854 371.5Z" fill="url(#paint3_radial_61:162)"/>
<path fill-rule="evenodd" clip-rule="evenodd" d="M1649.5 570.898C1759.62 570.898 1848.9 481.624 1848.9 371.5C1848.9 261.376 1759.62 172.102 1649.5 172.102C1539.38 172.102 1450.1 261.376 1450.1 371.5C1450.1 481.624 1539.38 570.898 1649.5 570.898ZM1649.5 576C1762.44 576 1854 484.442 1854 371.5C1854 258.558 1762.44 167 1649.5 167C1536.56 167 1445 258.558 1445 371.5C1445 484.442 1536.56 576 1649.5 576Z" fill="white"/>
<rect x="1634" y="492" width="26" height="64" fill="white"/>
<path d="M1792 375C1792 453.424 1728.42 517 1650 517C1571.58 517 1508 453.424 1508 375C1508 296.576 1571.58 233 1650 233C1728.42 233 1792 296.576 1792 375Z" fill="url(#paint4_radial_61:162)"/>
<path fill-rule="evenodd" clip-rule="evenodd" d="M1650 507C1722.9 507 1782 447.902 1782 375C1782 302.098 1722.9 243 1650 243C1577.1 243 1518 302.098 1518 375C1518 447.902 1577.1 507 1650 507ZM1650 517C1728.42 517 1792 453.424 1792 375C1792 296.576 1728.42 233 1650 233C1571.58 233 1508 296.576 1508 375C1508 453.424 1571.58 517 1650 517Z" fill="white"/>
<circle cx="1650" cy="375" r="119" fill="#704319"/>
<circle r="5.5" transform="matrix(-1 0 0 1 1570.5 415.5)" fill="#B18964"/>
<circle r="3.5" transform="matrix(-1 0 0 1 1693.5 285.5)" fill="#B18964"/>
<circle r="8.5" transform="matrix(-1 0 0 1 1581.5 429.5)" fill="#B18964"/>
<path fill-rule="evenodd" clip-rule="evenodd" d="M1283.43 93.8285L1231.79 88.5006L1232.2 84.4913L1283.85 89.8192C1311.75 92.6973 1337.86 102.913 1359.87 118.85L1334.06 80.2301L1337.41 77.9906L1369.03 125.314L1368.57 125.627C1382.61 137.38 1394.64 151.629 1403.97 167.879L1396.11 121.554L1400.08 120.88L1410.02 179.45L1437.82 235.788L1434.21 237.571L1404.98 178.35C1399.1 166.432 1391.78 155.488 1383.28 145.7L1317.42 150.709L1317.11 146.69L1379.88 141.916C1354.95 115.083 1320.84 97.6872 1283.43 93.8285Z" fill="#B43945"/>
<circle cx="1258.25" cy="85.9707" r="28.6882" transform="rotate(-9.63416 1258.25 85.9707)" fill="url(#paint5_radial_61:162)"/>
<circle cx="1313.62" cy="143.421" r="28.6882" transform="rotate(-9.63416 1313.62 143.421)" fill="url(#paint6_radial_61:162)"/>
<circle cx="1335.06" cy="65.8555" r="28.6882" transform="rotate(-9.63416 1335.06 65.8555)" fill="url(#paint7_radial_61:162)"/>
<circle cx="1407.07" cy="105.537" r="28.6882" transform="rotate(-9.63416 1407.07 105.537)" fill="url(#paint8_radial_61:162)"/>
<ellipse cx="266.271" cy="702.543" rx="143" ry="143.5" transform="rotate(-27.0952 266.271 702.543)" fill="url(#paint9_radial_61:162)"/>
<path fill-rule="evenodd" clip-rule="evenodd" d="M316.115 528.718C323.21 531.01 327.103 538.619 324.811 545.714L307.42 599.543C305.128 606.638 297.518 610.531 290.423 608.239C283.328 605.947 279.435 598.337 281.727 591.242L299.119 537.413C301.411 530.319 309.02 526.425 316.115 528.718Z" fill="#2C0F0D"/>
<path d="M284.297 571.019L291.759 585.604C294.274 590.521 300.299 592.468 305.216 589.952L316.638 584.108C331.645 576.43 349.443 576.503 364.387 584.305L411.589 608.946C449.843 628.916 468.539 673.226 456.152 714.563L452.512 726.711C444.728 752.685 427.625 774.87 404.485 789.006L288.25 860.013C273.935 868.757 255.232 864.066 246.74 849.601L243.563 844.191C238.497 835.562 227.833 832.005 218.601 835.865L207.366 840.562C192.905 846.609 176.226 840.503 169.086 826.548L103.885 699.107C83.761 659.774 89.1234 612.218 117.5 578.354L129.083 564.533C152.22 536.921 189.594 525.767 224.081 536.18L253.035 544.923C266.57 549.01 277.857 558.432 284.297 571.019Z" fill="#F9EED9"/>
<path fill-rule="evenodd" clip-rule="evenodd" d="M228.771 832.545L293.833 589.767L300.594 591.579L235.532 834.357L228.771 832.545Z" fill="#EEE1C8"/>
<path opacity="0.8" d="M202.617 730.537C197.972 712.895 208.715 694.878 226.444 690.577C228.169 690.158 229.911 691.197 230.363 692.914C235.008 710.555 224.264 728.573 206.536 732.874C204.811 733.292 203.069 732.253 202.617 730.537Z" fill="#2C0F0D"/>
<path opacity="0.8" d="M301.308 711.968C287.416 723.793 285.939 744.718 298.031 758.378C299.207 759.706 301.231 759.849 302.582 758.699C316.474 746.874 317.951 725.949 305.859 712.29C304.683 710.961 302.659 710.818 301.308 711.968Z" fill="#2C0F0D"/>
<ellipse cx="233.801" cy="342.369" rx="114.655" ry="115.056" transform="rotate(43.9684 233.801 342.369)" fill="url(#paint10_radial_61:162)"/>
<path fill-rule="evenodd" clip-rule="evenodd" d="M378.597 334.942C378.705 340.919 373.947 345.851 367.97 345.959L322.622 346.775C316.645 346.883 311.712 342.125 311.604 336.148C311.497 330.171 316.255 325.238 322.232 325.131L367.58 324.314C373.557 324.206 378.49 328.965 378.597 334.942Z" fill="#2C0F0D"/>
<path d="M338.238 321.817L329.118 331.271C326.044 334.458 326.135 339.534 329.322 342.608L336.726 349.75C346.454 359.134 351.029 372.651 349.001 386.013L342.595 428.223C337.403 462.43 308.663 488.138 274.091 489.5L263.931 489.9C242.207 490.755 220.932 483.557 204.191 469.686L120.096 400.009C109.739 391.428 108.431 376.024 117.191 365.819L120.468 362.002C125.694 355.915 125.617 346.902 120.287 340.905L113.802 333.607C105.453 324.213 105.744 309.975 114.469 300.929L194.155 218.321C218.748 192.826 256.21 184.519 289.275 197.229L302.771 202.416C329.732 212.779 347.916 238.221 348.991 267.085L349.895 291.318C350.317 302.646 346.108 313.658 338.238 321.817Z" fill="#F9EED9"/>
<path fill-rule="evenodd" clip-rule="evenodd" d="M125.451 347.754L326.501 333.927L326.886 339.526L125.836 353.353L125.451 347.754Z" fill="#EEE1C8"/>
<path opacity="0.8" d="M196.008 301.377C208.179 293.264 224.638 296.724 232.513 309.05C233.279 310.249 232.945 311.841 231.761 312.63C219.59 320.743 203.13 317.283 195.256 304.957C194.489 303.758 194.824 302.166 196.008 301.377Z" fill="#2C0F0D"/>
<path opacity="0.8" d="M235.769 371.392C223.187 363.933 206.933 368.257 199.72 380.982C199.018 382.22 199.436 383.792 200.66 384.518C213.243 391.976 229.497 387.652 236.709 374.927C237.411 373.689 236.993 372.117 235.769 371.392Z" fill="#2C0F0D"/>
<path d="M441.827 253.996C443.862 267.486 460.155 273.209 470.18 263.955L545.182 194.713C568.733 172.972 560.672 133.981 530.432 123.359L482.73 106.603C452.489 95.9816 421.817 121.368 426.598 153.061L441.827 253.996Z" fill="url(#paint11_linear_61:162)"/>
<path fill-rule="evenodd" clip-rule="evenodd" d="M461.948 139.132L455.116 155.505L449.623 153.212L456.455 136.84L461.948 139.132ZM493.307 148.843L486.475 165.215L480.982 162.923L487.814 146.551L493.307 148.843ZM524.666 158.553L517.834 174.925L512.341 172.633L519.173 156.261L524.666 158.553ZM491.706 203.207L498.538 186.835L493.044 184.542L486.213 200.914L491.706 203.207ZM469.871 177.297L462.374 192.126L457.062 189.441L464.559 174.611L469.871 177.297ZM463.904 224.804L471.401 209.974L466.088 207.289L458.592 222.119L463.904 224.804Z" fill="#E5818A"/>
<path d="M579.656 955.824C593.212 957.364 602.971 943.117 596.639 931.032L549.263 840.615C534.387 812.225 494.641 809.878 476.526 836.32L447.953 878.03C429.838 904.472 446.384 940.687 478.23 944.304L579.656 955.824Z" fill="url(#paint12_linear_61:162)"/>
<path fill-rule="evenodd" clip-rule="evenodd" d="M473.965 906.55L488 917.401L484.359 922.11L470.324 911.259L473.965 906.55ZM491.49 878.791L505.524 889.642L501.884 894.351L487.849 883.5L491.49 878.791ZM509.014 851.032L523.049 861.883L519.408 866.592L505.374 855.742L509.014 851.032ZM543.571 894.462L529.536 883.612L525.895 888.321L539.93 899.172L543.571 894.462ZM512.877 908.815L525.25 919.908L521.276 924.34L508.904 913.247L512.877 908.815ZM557.202 926.921L544.83 915.829L540.856 920.261L553.229 931.353L557.202 926.921Z" fill="#E5818A"/>
<path d="M1607.7 908.229L1721.55 1080.87L1774.55 1080.87L1635.57 889.56C1632 884.512 1630.96 878.095 1632.76 872.178L1640.12 848.025C1645.32 830.941 1642.64 812.427 1632.81 797.518L1616.55 772.867L1477.06 594.722C1474.99 592.072 1471.22 591.473 1468.42 593.35C1465.46 595.34 1464.69 599.363 1466.71 602.309L1591.78 785.115C1594.06 788.458 1592.95 793.046 1589.39 794.975C1586.35 796.624 1582.55 795.734 1580.56 792.903L1453.67 612.789C1451.69 609.974 1447.82 609.258 1444.96 611.179C1442.08 613.112 1441.3 617 1443.19 619.902L1565.03 806.389C1566.93 809.299 1566.14 813.197 1563.25 815.135C1560.4 817.053 1556.54 816.35 1554.54 813.548L1426.32 633.571C1424.22 630.615 1419.97 630.238 1417.38 632.776C1415.35 634.758 1415.02 637.897 1416.58 640.259L1538.49 824.679C1540.42 827.596 1539.63 831.522 1536.73 833.471C1533.89 835.38 1530.04 834.698 1528.03 831.929L1396.32 650.643C1395.22 649.129 1393.35 648.385 1391.51 648.732C1388.26 649.347 1386.57 652.975 1388.19 655.861L1500.02 854.505L1514.68 874.995C1526.46 891.452 1545.74 900.865 1565.95 900.031L1590.04 899.038C1597.14 898.745 1603.87 902.244 1607.7 908.229Z" fill="url(#paint13_linear_61:162)"/>
</g>
<defs>
<radialGradient id="paint0_radial_61:162" cx="0" cy="0" r="1" gradientUnits="userSpaceOnUse" gradientTransform="translate(971.711 539.5) rotate(115.505) scale(498.034 590.346)">
<stop stop-color="#F6E5BB"/>
<stop offset="0.597617" stop-color="#F9B97E"/>
<stop offset="1" stop-color="#CA6919"/>
</radialGradient>
<linearGradient id="paint1_linear_61:162" x1="959.5" y1="730.289" x2="682.662" y2="211.342" gradientUnits="userSpaceOnUse">
<stop stop-color="#D55561"/>
<stop offset="1" stop-color="#EB8B75"/>
</linearGradient>
<radialGradient id="paint2_radial_61:162" cx="0" cy="0" r="1" gradientUnits="userSpaceOnUse" gradientTransform="translate(959.503 528.261) rotate(111.986) scale(637.068 757.334)">
<stop stop-color="#F6E5BB"/>
<stop offset="0.424329" stop-color="#F9B97E"/>
</radialGradient>
<radialGradient id="paint3_radial_61:162" cx="0" cy="0" r="1" gradientUnits="userSpaceOnUse" gradientTransform="translate(1649.5 394.106) rotate(90) scale(196.501)">
<stop stop-color="#D3DDEA"/>
<stop offset="1" stop-color="#F8F9FA"/>
</radialGradient>
<radialGradient id="paint4_radial_61:162" cx="0" cy="0" r="1" gradientUnits="userSpaceOnUse" gradientTransform="translate(1650 390.697) rotate(90) scale(136.446)">
<stop stop-color="#D3DDEA"/>
<stop offset="1" stop-color="#F8F9FA"/>
</radialGradient>
<radialGradient id="paint5_radial_61:162" cx="0" cy="0" r="1" gradientUnits="userSpaceOnUse" gradientTransform="translate(1256.31 85.9707) rotate(100.968) scale(50.9411 60.3832)">
<stop stop-color="#F0D36D"/>
<stop offset="0.40243" stop-color="#F2C76C"/>
<stop offset="1" stop-color="#F0864C"/>
</radialGradient>
<radialGradient id="paint6_radial_61:162" cx="0" cy="0" r="1" gradientUnits="userSpaceOnUse" gradientTransform="translate(1311.68 143.421) rotate(100.968) scale(50.9411 60.3832)">
<stop stop-color="#F0D36D"/>
<stop offset="0.40243" stop-color="#F2C76C"/>
<stop offset="1" stop-color="#F0864C"/>
</radialGradient>
<radialGradient id="paint7_radial_61:162" cx="0" cy="0" r="1" gradientUnits="userSpaceOnUse" gradientTransform="translate(1333.12 65.8555) rotate(100.968) scale(50.9411 60.3832)">
<stop stop-color="#F0D36D"/>
<stop offset="0.40243" stop-color="#F2C76C"/>
<stop offset="1" stop-color="#F0864C"/>
</radialGradient>
<radialGradient id="paint8_radial_61:162" cx="0" cy="0" r="1" gradientUnits="userSpaceOnUse" gradientTransform="translate(1405.13 105.537) rotate(100.968) scale(50.9411 60.3832)">
<stop stop-color="#F0D36D"/>
<stop offset="0.40243" stop-color="#F2C76C"/>
<stop offset="1" stop-color="#F0864C"/>
</radialGradient>
<radialGradient id="paint9_radial_61:162" cx="0" cy="0" r="1" gradientUnits="userSpaceOnUse" gradientTransform="translate(266.271 695.094) rotate(90) scale(267.045 235.668)">
<stop stop-color="#F08C61"/>
<stop offset="1" stop-color="#CB2D2D"/>
</radialGradient>
<radialGradient id="paint10_radial_61:162" cx="0" cy="0" r="1" gradientUnits="userSpaceOnUse" gradientTransform="translate(233.801 336.396) rotate(90) scale(214.113 188.955)">
<stop stop-color="#F08C61"/>
<stop offset="1" stop-color="#CB2D2D"/>
</radialGradient>
<linearGradient id="paint11_linear_61:162" x1="453.899" y1="161.769" x2="511.956" y2="234.883" gradientUnits="userSpaceOnUse">
<stop stop-color="#D55561"/>
<stop offset="1" stop-color="#B81C49"/>
</linearGradient>
<linearGradient id="paint12_linear_61:162" x1="493.733" y1="920.204" x2="579.42" y2="883.138" gradientUnits="userSpaceOnUse">
<stop stop-color="#D55561"/>
<stop offset="1" stop-color="#B81C49"/>
</linearGradient>
<linearGradient id="paint13_linear_61:162" x1="1291.67" y1="670.499" x2="1763.05" y2="1075.87" gradientUnits="userSpaceOnUse">
<stop stop-color="#FAFBFB"/>
<stop offset="1" stop-color="#DEEBF2"/>
</linearGradient>
<clipPath id="clip0_61:162">
<rect width="1920" height="1080" fill="white"/>
</clipPath>
</defs>
</svg>
