<svg width="1920" height="1080" viewBox="0 0 1920 1080" fill="none" xmlns="http://www.w3.org/2000/svg">
<g clip-path="url(#clip0_56:5)">
<rect width="1920" height="1080" fill="#F4F9E7"/>
<path d="M0 1080L-0.5 299L1920 1080H0Z" fill="#317245"/>
<path fill-rule="evenodd" clip-rule="evenodd" d="M236.557 1080H234.075L621.962 552.133L623.873 552.911L236.557 1080ZM592.557 1080H590.075L896.056 663.598L897.967 664.375L592.557 1080ZM1008.56 1080H1006.08L1216.35 793.848L1218.26 794.625L1008.56 1080ZM1344.56 1080H1342.08L1475.04 899.051L1476.95 899.828L1344.56 1080ZM1680.56 1080H1678.08L1733.74 1004.25L1735.65 1005.03L1680.56 1080ZM395.382 459.991L397.293 460.768L1.80556 998.592L0.19429 997.408L395.382 459.991ZM165.41 366.47L167.321 367.247L-0.310341 595.103L-0.3125 591.731L165.41 366.47Z" fill="#4F9B67"/>
<path d="M1435.81 553.93C1435.81 792.298 1242.58 985.533 1004.21 985.533C765.842 985.533 572.607 792.298 572.607 553.93C572.607 315.562 765.842 122.327 1004.21 122.327C1242.58 122.327 1435.81 315.562 1435.81 553.93Z" fill="url(#paint0_radial_56:5)"/>
<path fill-rule="evenodd" clip-rule="evenodd" d="M1004.21 977.053C1237.89 977.053 1427.33 787.615 1427.33 553.93C1427.33 320.245 1237.89 130.807 1004.21 130.807C770.525 130.807 581.086 320.245 581.086 553.93C581.086 787.615 770.525 977.053 1004.21 977.053ZM1004.21 985.533C1242.58 985.533 1435.81 792.298 1435.81 553.93C1435.81 315.562 1242.58 122.327 1004.21 122.327C765.842 122.327 572.607 315.562 572.607 553.93C572.607 792.298 765.842 985.533 1004.21 985.533Z" fill="#F1F8FB"/>
<path d="M1115.5 813.5C1048.68 949.204 927.5 999.5 758.902 928.226C601.5 849 567.356 697.229 634.176 561.525C700.996 425.821 865.173 369.979 1000.88 436.799C1086.5 500 1182.32 677.796 1115.5 813.5Z" fill="url(#paint1_radial_56:5)"/>
<path fill-rule="evenodd" clip-rule="evenodd" d="M758.746 922.893C890.248 987.644 1043.01 954.719 1107.76 823.216C1172.51 691.714 1118.39 532.619 986.892 467.868C855.389 403.117 696.294 457.23 631.543 588.733C566.792 720.235 627.243 858.142 758.746 922.893ZM755 930.5C890.704 997.32 1048.54 962.666 1115.36 826.962C1182.18 691.258 1126.34 527.081 990.638 460.261C854.934 393.441 690.756 449.283 623.936 584.987C557.117 720.691 619.296 863.68 755 930.5Z" fill="url(#paint2_linear_56:5)"/>
<path opacity="0.8" fill-rule="evenodd" clip-rule="evenodd" d="M1005.38 569.02C1012.11 572.33 1020.15 569.735 1023.36 563.222C1026.57 556.71 1023.72 548.748 1017 545.438C1010.27 542.128 1002.22 544.724 999.018 551.236C995.811 557.748 998.661 565.71 1005.38 569.02ZM750.791 546.684C765.495 553.924 781.944 550.598 787.53 539.254C793.115 527.911 785.723 512.845 771.018 505.605C756.313 498.364 739.864 501.69 734.279 513.034C728.693 524.378 736.086 539.443 750.791 546.684ZM824.605 586.81C831.328 590.12 839.376 587.524 842.583 581.012C845.789 574.499 842.939 566.537 836.217 563.227C829.495 559.917 821.446 562.513 818.24 569.025C815.033 575.537 817.883 583.5 824.605 586.81ZM940.58 731.342C937.373 737.854 929.325 740.45 922.602 737.14C915.88 733.83 913.03 725.868 916.237 719.356C919.443 712.844 927.492 710.248 934.214 713.558C940.936 716.868 943.786 724.83 940.58 731.342ZM979.175 779.647C975.969 786.159 967.92 788.755 961.198 785.445C954.476 782.135 951.626 774.172 954.832 767.66C958.039 761.148 966.088 758.552 972.81 761.862C979.532 765.172 982.382 773.135 979.175 779.647ZM1002.76 853.797C1009.49 857.107 1017.53 854.511 1020.74 847.999C1023.95 841.487 1021.1 833.524 1014.38 830.214C1007.65 826.904 999.604 829.5 996.398 836.012C993.191 842.525 996.041 850.487 1002.76 853.797ZM1098.66 659.843C1095.45 666.355 1087.4 668.951 1080.68 665.641C1073.96 662.331 1071.11 654.368 1074.31 647.856C1077.52 641.344 1085.57 638.748 1092.29 642.058C1099.01 645.368 1101.86 653.331 1098.66 659.843ZM627.097 659.688C633.82 662.997 641.868 660.402 645.075 653.89C648.281 647.377 645.431 639.415 638.709 636.105C631.987 632.795 623.938 635.391 620.732 641.903C617.525 648.415 620.375 656.378 627.097 659.688ZM674.966 797.778C671.76 804.29 663.711 806.886 656.989 803.576C650.267 800.266 647.417 792.303 650.623 785.791C653.83 779.279 661.879 776.683 668.601 779.993C675.323 783.303 678.173 791.266 674.966 797.778ZM673.933 845.945C677.295 847.6 681.277 846.387 682.829 843.236C684.38 840.085 682.913 836.189 679.552 834.534C676.191 832.879 672.209 834.092 670.657 837.243C669.105 840.394 670.572 844.29 673.933 845.945ZM876.809 845.497C875.257 848.648 871.275 849.861 867.914 848.206C864.553 846.551 863.086 842.655 864.637 839.504C866.189 836.353 870.171 835.14 873.532 836.795C876.893 838.45 878.36 842.346 876.809 845.497ZM888.249 917.446C891.61 919.101 895.592 917.888 897.144 914.737C898.696 911.586 897.229 907.69 893.868 906.035C890.506 904.38 886.524 905.593 884.972 908.744C883.421 911.895 884.888 915.791 888.249 917.446Z" fill="url(#paint3_linear_56:5)"/>
<path d="M645.578 794.208C543.638 682.454 551.594 509.222 663.348 407.283C775.101 305.344 948.333 313.299 1050.27 425.053C1152.21 536.806 1173.75 686.061 1062 788C950.247 889.939 747.517 905.961 645.578 794.208Z" fill="url(#paint4_radial_56:5)"/>
<path fill-rule="evenodd" clip-rule="evenodd" d="M669.062 413.547C560.768 512.331 553.059 680.2 651.842 788.493C750.625 896.786 954.992 881.012 1063.29 782.228C1171.58 683.445 1142.79 539.061 1044.01 430.767C945.224 322.474 777.355 314.764 669.062 413.547ZM663.347 407.283C551.594 509.222 543.638 682.454 645.578 794.208C747.517 905.961 957.247 890.432 1069 788.493C1180.75 686.554 1152.21 536.806 1050.27 425.053C948.333 313.299 775.101 305.344 663.347 407.283Z" fill="url(#paint5_linear_56:5)"/>
<path opacity="0.8" fill-rule="evenodd" clip-rule="evenodd" d="M925.866 785.996C920.331 791.045 919.809 799.486 924.701 804.849C929.592 810.212 938.046 810.466 943.581 805.416C949.117 800.366 949.639 791.925 944.747 786.563C939.855 781.2 931.402 780.946 925.866 785.996ZM1039.62 557.135C1027.51 568.181 1024.6 584.708 1033.12 594.05C1041.64 603.392 1058.36 602.01 1070.47 590.964C1082.58 579.918 1085.49 563.39 1076.97 554.049C1068.45 544.707 1051.72 546.089 1039.62 557.135ZM975.309 611.202C969.773 616.252 969.251 624.693 974.143 630.056C979.035 635.418 987.488 635.672 993.024 630.623C998.559 625.573 999.081 617.132 994.19 611.769C989.298 606.407 980.844 606.153 975.309 611.202ZM798.411 666.401C793.519 661.038 794.041 652.597 799.577 647.547C805.112 642.498 813.566 642.752 818.457 648.114C823.349 653.477 822.827 661.918 817.291 666.968C811.756 672.017 803.302 671.763 798.411 666.401ZM739.35 684.696C734.458 679.333 734.98 670.892 740.516 665.843C746.051 660.793 754.505 661.047 759.397 666.41C764.288 671.773 763.766 680.214 758.231 685.263C752.695 690.313 744.242 690.059 739.35 684.696ZM632.374 668.079C626.838 673.129 626.316 681.57 631.208 686.932C636.1 692.295 644.553 692.549 650.089 687.499C655.625 682.45 656.147 674.009 651.255 668.646C646.363 663.283 637.91 663.029 632.374 668.079ZM807.26 839.67C802.368 834.307 802.89 825.866 808.426 820.817C813.961 815.767 822.415 816.021 827.306 821.384C832.198 826.746 831.676 835.187 826.14 840.237C820.605 845.287 812.152 845.033 807.26 839.67ZM979.574 400.721C974.038 405.771 973.516 414.212 978.408 419.575C983.3 424.937 991.753 425.191 997.289 420.142C1002.82 415.092 1003.35 406.651 998.455 401.288C993.563 395.926 985.11 395.672 979.574 400.721ZM804.207 383.364C799.315 378.001 799.837 369.561 805.373 364.511C810.909 359.461 819.362 359.715 824.254 365.078C829.146 370.441 828.624 378.882 823.088 383.931C817.552 388.981 809.099 388.727 804.207 383.364ZM759.743 364.816C756.975 367.341 756.65 371.491 759.017 374.086C761.384 376.681 765.547 376.738 768.315 374.213C771.082 371.688 771.407 367.538 769.04 364.943C766.673 362.348 762.511 362.291 759.743 364.816ZM715.42 565.354C713.053 562.759 713.378 558.609 716.146 556.084C718.913 553.559 723.076 553.616 725.443 556.211C727.81 558.806 727.485 562.956 724.717 565.481C721.949 568.006 717.787 567.949 715.42 565.354ZM614.929 538.231C612.161 540.756 611.836 544.906 614.203 547.501C616.57 550.096 620.733 550.153 623.501 547.628C626.268 545.103 626.593 540.953 624.226 538.358C621.859 535.763 617.697 535.706 614.929 538.231Z" fill="url(#paint6_linear_56:5)"/>
<path d="M774.5 807.5C624.709 784.835 497.178 587.694 519.551 439.83C541.925 291.967 673.4 236.392 823.191 259.057C972.982 281.723 1076.27 419.963 1053.9 567.827C1031 701.5 915 824 774.5 807.5Z" fill="url(#paint7_radial_56:5)"/>
<path fill-rule="evenodd" clip-rule="evenodd" d="M524.884 436.269C502.954 581.199 620.07 778.57 765 800.5C909.93 822.43 1023.12 714.561 1045.05 569.631C1066.98 424.701 967.27 289.434 822.34 267.504C677.41 245.575 546.814 291.339 524.884 436.269ZM516.5 435C493.87 584.56 614.171 786.254 763.731 808.884C913.292 831.514 1030.81 720.46 1053.44 570.899C1076.07 421.339 973.169 281.751 823.609 259.12C674.048 236.49 539.13 285.44 516.5 435Z" fill="url(#paint8_linear_56:5)"/>
<path opacity="0.8" fill-rule="evenodd" clip-rule="evenodd" d="M959.572 624.447C958.451 631.855 963.361 638.742 970.538 639.828C977.715 640.914 984.442 635.788 985.563 628.38C986.684 620.971 981.774 614.085 974.597 612.999C967.42 611.913 960.693 617.038 959.572 624.447ZM903.836 375.029C901.383 391.235 909.53 405.906 922.032 407.798C934.534 409.69 946.657 398.086 949.109 381.879C951.561 365.673 943.414 351.002 930.912 349.11C918.411 347.219 906.288 358.823 903.836 375.029ZM887.922 457.523C886.801 464.931 891.71 471.818 898.887 472.904C906.064 473.99 912.791 468.864 913.912 461.456C915.033 454.047 910.124 447.161 902.947 446.075C895.77 444.989 889.043 450.114 887.922 457.523ZM785.251 611.791C778.074 610.705 773.165 603.819 774.286 596.411C775.407 589.002 782.134 583.877 789.311 584.963C796.488 586.049 801.397 592.935 800.276 600.343C799.155 607.752 792.428 612.877 785.251 611.791ZM750.889 663.193C743.712 662.107 738.802 655.221 739.923 647.813C741.044 640.404 747.771 635.278 754.948 636.364C762.125 637.45 767.035 644.337 765.914 651.745C764.793 659.154 758.066 664.279 750.889 663.193ZM657.319 717.642C656.198 725.051 661.107 731.937 668.284 733.023C675.461 734.109 682.188 728.984 683.309 721.575C684.43 714.166 679.521 707.28 672.344 706.194C665.167 705.108 658.44 710.234 657.319 717.642ZM901.226 740.827C894.049 739.741 889.14 732.855 890.261 725.447C891.382 718.038 898.109 712.913 905.286 713.999C912.463 715.085 917.372 721.971 916.251 729.379C915.13 736.788 908.403 741.913 901.226 740.827ZM758.703 291.322C757.582 298.73 762.492 305.617 769.669 306.703C776.846 307.789 783.573 302.663 784.694 295.255C785.815 287.846 780.905 280.96 773.728 279.874C766.551 278.788 759.824 283.913 758.703 291.322ZM611.537 388.259C604.36 387.173 599.451 380.287 600.572 372.879C601.693 365.47 608.42 360.345 615.597 361.431C622.774 362.517 627.683 369.403 626.562 376.811C625.441 384.22 618.714 389.345 611.537 388.259ZM565.315 401.848C564.754 405.552 567.115 408.981 570.588 409.506C574.061 410.032 577.33 407.455 577.891 403.751C578.451 400.046 576.091 396.617 572.618 396.092C569.145 395.567 565.875 398.143 565.315 401.848ZM657.154 585.548C653.681 585.022 651.32 581.594 651.881 577.889C652.441 574.185 655.711 571.608 659.184 572.133C662.657 572.659 665.017 576.088 664.457 579.792C663.896 583.496 660.627 586.073 657.154 585.548ZM562.007 627.752C561.446 631.456 563.807 634.885 567.28 635.411C570.753 635.936 574.022 633.359 574.583 629.655C575.143 625.951 572.782 622.522 569.31 621.996C565.837 621.471 562.567 624.048 562.007 627.752Z" fill="url(#paint9_linear_56:5)"/>
<path d="M1296 262.288C1296 344.737 1229.16 411.575 1146.71 411.575C1064.27 411.575 997.427 344.737 997.427 262.288C997.427 179.838 1064.27 113 1146.71 113C1229.16 113 1296 179.838 1296 262.288Z" fill="#2C0F0D"/>
<path fill-rule="evenodd" clip-rule="evenodd" d="M1146.71 402.303C1224.04 402.303 1286.73 339.616 1286.73 262.288C1286.73 184.959 1224.04 122.273 1146.71 122.273C1069.39 122.273 1006.7 184.959 1006.7 262.288C1006.7 339.616 1069.39 402.303 1146.71 402.303ZM1146.71 411.575C1229.16 411.575 1296 344.737 1296 262.288C1296 179.838 1229.16 113 1146.71 113C1064.27 113 997.427 179.838 997.427 262.288C997.427 344.737 1064.27 411.575 1146.71 411.575Z" fill="url(#paint10_linear_56:5)"/>
<path d="M1280.64 261.814C1280.64 335.572 1220.47 395.365 1146.24 395.365C1072.01 395.365 1011.84 335.572 1011.84 261.814C1011.84 188.056 1072.01 128.263 1146.24 128.263C1220.47 128.263 1280.64 188.056 1280.64 261.814Z" fill="url(#paint11_linear_56:5)"/>
<circle cx="1100.35" cy="273.415" r="2.78176" fill="#B4373F"/>
<circle cx="1130.02" cy="227.052" r="2.78176" fill="#B4373F"/>
<circle cx="1172.68" cy="267.851" r="2.78176" fill="#B4373F"/>
<circle cx="1172.68" cy="319.777" r="2.78176" fill="#B4373F"/>
<circle cx="1207.91" cy="245.597" r="2.78176" fill="#B4373F"/>
<circle cx="1100.35" cy="202.943" r="2.78176" fill="#B4373F"/>
<path d="M1147.13 252.11L1160.22 267.775C1180.31 291.807 1177.12 327.574 1153.09 347.664L1137.42 360.759L1124.33 345.094C1104.24 321.062 1107.43 285.294 1131.46 265.205L1147.13 252.11Z" fill="url(#paint12_linear_56:5)"/>
<path opacity="0.5" fill-rule="evenodd" clip-rule="evenodd" d="M1135.86 358.895L1146.37 252.743L1147.13 252.109L1160.22 267.774C1180.31 291.806 1177.12 327.574 1153.09 347.663L1137.42 360.758L1135.86 358.895Z" fill="#529D6A"/>
<path d="M1148.28 266.777L1168.43 263.497C1199.34 258.465 1228.49 279.448 1233.52 310.364L1236.8 330.517L1216.65 333.797C1185.73 338.829 1156.59 317.845 1151.56 286.929L1148.28 266.777Z" fill="url(#paint13_linear_56:5)"/>
<path opacity="0.5" fill-rule="evenodd" clip-rule="evenodd" d="M1234.4 330.907L1148.43 267.752L1148.28 266.778L1168.43 263.498C1199.34 258.466 1228.49 279.449 1233.52 310.365L1236.8 330.517L1234.4 330.907Z" fill="#529D6A"/>
<path fill-rule="evenodd" clip-rule="evenodd" d="M1055.13 270.258C1055.48 271.055 1056.41 271.419 1057.2 271.071L1074.81 263.387C1075.6 263.039 1075.97 262.112 1075.62 261.315C1075.27 260.519 1074.34 260.155 1073.55 260.503L1055.95 268.187C1055.15 268.534 1054.78 269.462 1055.13 270.258Z" fill="#323138"/>
<path d="M1175 161.075L1137.4 213.329C1132.65 219.926 1125.97 224.891 1118.29 227.54L1079.13 241.043C1069.17 244.476 1063.9 255.341 1067.35 265.288C1071.06 275.957 1083.19 281.067 1093.42 276.27L1125.99 260.988C1141.14 253.882 1152.83 241.037 1158.49 225.291L1180.52 163.977C1181.75 160.544 1177.13 158.113 1175 161.075Z" fill="url(#paint14_linear_56:5)"/>
<path d="M1441 560.764C1441 643.213 1374.16 710.051 1291.71 710.051C1209.26 710.051 1142.42 643.213 1142.42 560.764C1142.42 478.314 1209.26 411.476 1291.71 411.476C1374.16 411.476 1441 478.314 1441 560.764Z" fill="#2C0F0D"/>
<path fill-rule="evenodd" clip-rule="evenodd" d="M1291.71 700.779C1369.04 700.779 1431.73 638.092 1431.73 560.764C1431.73 483.435 1369.04 420.748 1291.71 420.748C1214.38 420.748 1151.7 483.435 1151.7 560.764C1151.7 638.092 1214.38 700.779 1291.71 700.779ZM1291.71 710.051C1374.16 710.051 1441 643.213 1441 560.764C1441 478.314 1374.16 411.476 1291.71 411.476C1209.26 411.476 1142.42 478.314 1142.42 560.764C1142.42 643.213 1209.26 710.051 1291.71 710.051Z" fill="url(#paint15_linear_56:5)"/>
<path d="M1425.64 560.29C1425.64 634.048 1365.46 693.841 1291.24 693.841C1217.01 693.841 1156.84 634.048 1156.84 560.29C1156.84 486.532 1217.01 426.739 1291.24 426.739C1365.46 426.739 1425.64 486.532 1425.64 560.29Z" fill="url(#paint16_linear_56:5)"/>
<circle opacity="0.5" cx="1225.56" cy="582.362" r="3.43031" fill="#2C0F0D"/>
<circle opacity="0.5" cx="1262.15" cy="525.19" r="3.43031" fill="#2C0F0D"/>
<circle opacity="0.5" cx="1314.75" cy="575.501" r="3.43031" fill="#2C0F0D"/>
<circle opacity="0.5" cx="1314.75" cy="639.534" r="3.43031" fill="#2C0F0D"/>
<circle opacity="0.5" cx="1358.2" cy="548.059" r="3.43031" fill="#2C0F0D"/>
<circle opacity="0.5" cx="1225.56" cy="495.461" r="3.43031" fill="#2C0F0D"/>
<path d="M1292.13 510.48L1305.22 526.145C1325.31 550.177 1322.12 585.944 1298.08 606.034L1282.42 619.129L1269.32 603.464C1249.23 579.432 1252.43 543.665 1276.46 523.575L1292.13 510.48Z" fill="url(#paint17_linear_56:5)"/>
<path opacity="0.5" fill-rule="evenodd" clip-rule="evenodd" d="M1280.86 617.265L1291.37 511.113L1292.13 510.48L1305.22 526.144C1325.31 550.176 1322.11 585.944 1298.08 606.033L1282.42 619.128L1280.86 617.265Z" fill="#529D6A"/>
<circle cx="1151.49" cy="843.342" r="73.7852" transform="rotate(60.3094 1151.49 843.342)" fill="url(#paint18_linear_56:5)"/>
<path fill-rule="evenodd" clip-rule="evenodd" d="M1163.4 916.18C1171.83 914.802 1180.18 911.923 1188.04 907.439C1196.47 902.633 1203.59 896.416 1209.28 889.256L1141.41 770.228C1132.35 771.474 1123.38 774.436 1114.95 779.243C1107.08 783.727 1100.36 789.438 1094.87 795.999L1163.4 916.18Z" fill="#E3E798"/>
<path fill-rule="evenodd" clip-rule="evenodd" d="M1091.95 877.291C1110.7 910.175 1152.56 921.633 1185.44 902.884C1218.33 884.134 1229.78 842.277 1211.03 809.393C1192.29 776.509 1150.43 765.051 1117.54 783.8C1084.66 802.55 1073.2 844.407 1091.95 877.291ZM1087.39 879.889C1107.58 915.289 1152.64 927.624 1188.04 907.44C1223.44 887.256 1235.78 842.195 1215.59 806.795C1195.41 771.394 1150.35 759.059 1114.95 779.244C1079.55 799.428 1067.21 844.488 1087.39 879.889Z" fill="#F3F4CB"/>
<path d="M1312.07 812.361C1312.3 789.103 1303.29 766.704 1287.01 750.091C1270.73 733.478 1248.52 724.013 1225.26 723.778C1202 723.542 1179.6 732.555 1162.99 748.835C1146.38 765.114 1136.91 787.326 1136.68 810.584L1224.37 811.473L1312.07 812.361Z" fill="#DBE272"/>
<path fill-rule="evenodd" clip-rule="evenodd" d="M1177.69 737.232L1223.14 811.378L1267.78 735.267C1254.93 727.949 1240.31 723.931 1225.26 723.778C1208.31 723.606 1191.82 728.347 1177.69 737.232Z" fill="#E3E798"/>
<path fill-rule="evenodd" clip-rule="evenodd" d="M1161.16 746.962C1178.27 730.195 1201.34 720.912 1225.29 721.155C1249.24 721.398 1272.12 731.146 1288.89 748.256C1305.65 765.365 1314.93 788.434 1314.69 812.388L1309.45 812.335C1309.68 789.772 1300.93 768.042 1285.14 751.927C1269.35 735.811 1247.8 726.628 1225.24 726.4C1202.67 726.171 1180.94 734.915 1164.83 750.708C1148.71 766.5 1139.53 788.048 1139.3 810.611L1134.06 810.558C1134.3 786.604 1144.05 763.728 1161.16 746.962Z" fill="#F3F4CB"/>
<circle cx="489.627" cy="184.627" r="76.739" transform="rotate(-127.621 489.627 184.627)" fill="url(#paint19_linear_56:5)"/>
<path fill-rule="evenodd" clip-rule="evenodd" d="M466.916 111.305C458.42 113.936 450.241 118.098 442.784 123.846C434.79 130.006 428.347 137.432 423.517 145.624L510.506 258.494C519.658 255.91 528.479 251.57 536.473 245.41C543.93 239.663 550.039 232.814 554.747 225.268L466.916 111.305Z" fill="#E3E798"/>
<path fill-rule="evenodd" clip-rule="evenodd" d="M546.088 141.112C522.056 109.929 477.295 104.133 446.112 128.165C414.93 152.198 409.133 196.958 433.166 228.141C457.198 259.324 501.959 265.12 533.142 241.088C564.324 217.056 570.121 172.295 546.088 141.112ZM550.409 137.782C524.538 104.213 476.351 97.973 442.782 123.845C409.213 149.716 402.973 197.902 428.845 231.471C454.716 265.04 502.903 271.28 536.472 245.409C570.041 219.537 576.281 171.351 550.409 137.782Z" fill="#F3F4CB"/>
<circle cx="411.567" cy="274.567" r="76.739" transform="rotate(37.3759 411.567 274.567)" fill="url(#paint20_linear_56:5)"/>
<path fill-rule="evenodd" clip-rule="evenodd" d="M452.485 339.51C460.01 334.77 466.833 328.632 472.548 321.15C478.674 313.13 482.976 304.29 485.52 295.127L372.279 208.623C364.108 213.487 356.71 219.963 350.584 227.982C344.868 235.464 340.741 243.661 338.147 252.168L452.485 339.51Z" fill="#E3E798"/>
<path fill-rule="evenodd" clip-rule="evenodd" d="M368.295 331.214C399.58 355.113 444.316 349.124 468.215 317.839C492.113 286.554 486.125 241.818 454.84 217.919C423.554 194.021 378.819 200.009 354.92 231.294C331.021 262.58 337.009 307.315 368.295 331.214ZM364.983 335.549C398.663 361.276 446.822 354.83 472.549 321.15C498.277 287.471 491.831 239.312 458.151 213.584C424.472 187.857 376.313 194.303 350.585 227.983C324.858 261.662 331.304 309.821 364.983 335.549Z" fill="#F3F4CB"/>
<path d="M301.73 200.081C300.83 175.907 290.364 153.081 272.635 136.624C254.905 120.167 231.364 111.427 207.19 112.326C183.016 113.226 160.19 123.692 143.733 141.422C127.275 159.151 118.535 182.692 119.435 206.866L210.582 203.474L301.73 200.081Z" fill="#DBE272"/>
<path fill-rule="evenodd" clip-rule="evenodd" d="M158.43 128.644L209.298 203.436L251.924 122.171C238.213 115.2 222.834 111.745 207.19 112.327C189.573 112.983 172.672 118.719 158.43 128.644Z" fill="#E3E798"/>
<path fill-rule="evenodd" clip-rule="evenodd" d="M141.733 139.566C158.683 121.306 182.192 110.527 207.088 109.6C231.985 108.674 256.23 117.675 274.49 134.625C292.75 151.574 303.529 175.083 304.455 199.98L299.004 200.182C298.131 176.732 287.978 154.588 270.779 138.623C253.579 122.658 230.742 114.179 207.291 115.052C183.84 115.924 161.697 126.077 145.731 143.277C129.766 160.476 121.288 183.314 122.16 206.765L116.709 206.967C115.783 182.071 124.784 157.826 141.733 139.566Z" fill="#F3F4CB"/>
<path d="M391.788 762.259L378.904 799.458C359.138 856.526 296.851 886.765 239.783 866.999L202.584 854.115L215.469 816.915C235.235 759.848 297.521 729.609 354.589 749.375L391.788 762.259Z" fill="url(#paint21_linear_56:5)"/>
<path opacity="0.5" fill-rule="evenodd" clip-rule="evenodd" d="M204.117 849.689L389.989 761.635L391.788 762.259L378.904 799.458C359.138 856.526 296.851 886.765 239.783 866.998L202.584 854.114L204.117 849.689Z" fill="#529D6A"/>
<path d="M368.686 778.72L394.12 808.768C433.139 854.865 427.401 923.866 381.303 962.885L351.256 988.319L325.821 958.271C286.802 912.174 292.54 843.173 338.638 804.154L368.686 778.72Z" fill="url(#paint22_linear_56:5)"/>
<path opacity="0.5" fill-rule="evenodd" clip-rule="evenodd" d="M348.23 984.745L367.232 779.951L368.685 778.72L394.119 808.768C433.138 854.866 427.4 923.866 381.303 962.885L351.255 988.319L348.23 984.745Z" fill="#529D6A"/>
<path d="M82.1392 471.725L121.501 472.364C181.887 473.344 230.045 523.091 229.065 583.478L228.426 622.84L189.064 622.201C128.678 621.22 80.5201 571.473 81.5003 511.087L82.1392 471.725Z" fill="url(#paint23_linear_56:5)"/>
<path opacity="0.5" fill-rule="evenodd" clip-rule="evenodd" d="M223.744 622.765L82.1077 473.63L82.1386 471.726L121.501 472.365C181.887 473.345 230.045 523.093 229.065 583.479L228.426 622.841L223.744 622.765Z" fill="#529D6A"/>
<path fill-rule="evenodd" clip-rule="evenodd" d="M1656.24 404.755L1612.88 318.57L1617.52 316.234L1660.88 402.418C1671.2 422.927 1679 444.35 1684.28 466.245L1703.34 420.216L1708.14 422.204L1686.27 475.049C1698.24 532.285 1693.15 592.323 1670.81 647.417L1732.61 596.657L1735.91 600.674L1666.38 657.786L1609.39 785.057L1667.64 760.676L1669.65 765.472L1606.28 791.992L1530.36 961.539L1525.62 959.414L1653.05 674.83L1622.77 644.005L1626.48 640.362L1655.33 669.735L1661.88 655.103C1661.89 655.1 1661.89 655.098 1661.89 655.095C1685.08 603.303 1692.4 546.538 1684 491.694L1620.24 466.11L1622.17 461.286L1683.02 485.699C1678.16 457.851 1669.22 430.566 1656.24 404.755Z" fill="#C14752"/>
<path d="M1506.27 235.869L1540.37 235.024C1592.68 233.728 1636.13 275.082 1637.43 327.39L1638.27 361.487L1604.17 362.332C1551.87 363.628 1508.41 322.274 1507.12 269.966L1506.27 235.869Z" fill="url(#paint24_linear_56:5)"/>
<path opacity="0.5" fill-rule="evenodd" clip-rule="evenodd" d="M1634.21 361.589L1506.31 237.519L1506.27 235.87L1540.37 235.025C1592.67 233.729 1636.13 275.083 1637.43 327.391L1638.27 361.488L1634.21 361.589Z" fill="#529D6A"/>
<path d="M1692.92 445.747L1683.17 413.065C1668.2 362.926 1696.72 310.149 1746.86 295.183L1779.54 285.429L1789.29 318.111C1804.26 368.25 1775.74 421.027 1725.6 435.992L1692.92 445.747Z" fill="url(#paint25_linear_56:5)"/>
<path opacity="0.5" fill-rule="evenodd" clip-rule="evenodd" d="M1780.7 289.316L1694.51 445.275L1692.92 445.747L1683.17 413.065C1668.2 362.926 1696.72 310.148 1746.86 295.183L1779.54 285.428L1780.7 289.316Z" fill="#529D6A"/>
<path d="M1674.12 485.522L1662.86 453.329C1645.58 403.941 1591.53 377.913 1542.14 395.195L1509.95 406.46L1521.21 438.653C1538.49 488.042 1592.54 514.069 1641.93 496.787L1674.12 485.522Z" fill="url(#paint26_linear_56:5)"/>
<path opacity="0.5" fill-rule="evenodd" clip-rule="evenodd" d="M1511.29 410.29L1672.56 486.068L1674.12 485.523L1662.86 453.33C1645.58 403.942 1591.53 377.914 1542.14 395.196L1509.95 406.461L1511.29 410.29Z" fill="#529D6A"/>
<path d="M1647.74 663.152L1648.43 629.052C1649.49 576.738 1607.95 533.468 1555.63 532.405L1521.53 531.713L1520.84 565.813C1519.78 618.127 1561.32 661.397 1613.64 662.46L1647.74 663.152Z" fill="url(#paint27_linear_56:5)"/>
<path opacity="0.5" fill-rule="evenodd" clip-rule="evenodd" d="M1521.45 535.769L1646.09 663.119L1647.74 663.152L1648.43 629.052C1649.49 576.738 1607.94 533.468 1555.63 532.406L1521.53 531.713L1521.45 535.769Z" fill="#529D6A"/>
<path d="M1700.2 627.791L1697.65 593.78C1693.73 541.602 1732.85 496.126 1785.02 492.205L1819.04 489.649L1821.59 523.66C1825.51 575.838 1786.39 621.314 1734.21 625.235L1700.2 627.791Z" fill="url(#paint28_linear_56:5)"/>
<path opacity="0.5" fill-rule="evenodd" clip-rule="evenodd" d="M1819.34 493.694L1701.85 627.667L1700.2 627.791L1697.65 593.78C1693.73 541.602 1732.85 496.126 1785.03 492.205L1819.04 489.649L1819.34 493.694Z" fill="#529D6A"/>
<path d="M1626.94 781.889L1634.41 748.608C1645.86 697.551 1696.53 665.443 1747.58 676.893L1780.86 684.356L1773.4 717.637C1761.95 768.693 1711.28 800.801 1660.22 789.352L1626.94 781.889Z" fill="url(#paint29_linear_56:5)"/>
<path opacity="0.5" fill-rule="evenodd" clip-rule="evenodd" d="M1779.98 688.315L1628.55 782.25L1626.94 781.889L1634.41 748.608C1645.86 697.551 1696.53 665.444 1747.58 676.893L1780.86 684.356L1779.98 688.315Z" fill="#529D6A"/>
</g>
<defs>
<radialGradient id="paint0_radial_56:5" cx="0" cy="0" r="1" gradientUnits="userSpaceOnUse" gradientTransform="translate(978.772 592.935) rotate(87.4324) scale(567.844)">
<stop stop-color="#B4B8BB"/>
<stop offset="0.366165" stop-color="#E0E4E7"/>
<stop offset="0.979813" stop-color="#ECEEEF"/>
</radialGradient>
<radialGradient id="paint1_radial_56:5" cx="0" cy="0" r="1" gradientUnits="userSpaceOnUse" gradientTransform="translate(838 770.5) rotate(116.615) scale(254.465)">
<stop stop-color="#CB9749"/>
<stop offset="1" stop-color="#E9D8B7"/>
</radialGradient>
<linearGradient id="paint2_linear_56:5" x1="1247.98" y1="445.47" x2="626.863" y2="956.016" gradientUnits="userSpaceOnUse">
<stop stop-color="#D0A777"/>
<stop offset="0.408235" stop-color="#D9AE86"/>
<stop offset="0.985021" stop-color="#EFD6B9"/>
</linearGradient>
<linearGradient id="paint3_linear_56:5" x1="951.463" y1="886.142" x2="1160.75" y2="386.017" gradientUnits="userSpaceOnUse">
<stop stop-color="#8F5F33"/>
<stop offset="1" stop-color="#8F5F33" stop-opacity="0.4"/>
</linearGradient>
<radialGradient id="paint4_radial_56:5" cx="0" cy="0" r="1" gradientUnits="userSpaceOnUse" gradientTransform="translate(833.353 593.655) rotate(-170.024) scale(303.949)">
<stop stop-color="#DFB06A"/>
<stop offset="1" stop-color="#E9D8B7"/>
</radialGradient>
<linearGradient id="paint5_linear_56:5" x1="952.313" y1="1056.95" x2="703.787" y2="292.312" gradientUnits="userSpaceOnUse">
<stop stop-color="#D0A777"/>
<stop offset="0.408235" stop-color="#D9AE86"/>
<stop offset="0.985021" stop-color="#EFD6B9"/>
</linearGradient>
<linearGradient id="paint6_linear_56:5" x1="650.324" y1="620.014" x2="1039.51" y2="997.448" gradientUnits="userSpaceOnUse">
<stop stop-color="#8F5F33"/>
<stop offset="1" stop-color="#8F5F33" stop-opacity="0.4"/>
</linearGradient>
<radialGradient id="paint7_radial_56:5" cx="0" cy="0" r="1" gradientUnits="userSpaceOnUse" gradientTransform="translate(761.268 523.548) rotate(-171.707) scale(258.347 255.022)">
<stop stop-color="#DFB06A"/>
<stop offset="1" stop-color="#E9D8B7"/>
</radialGradient>
<linearGradient id="paint8_linear_56:5" x1="1145.39" y1="811.704" x2="470.854" y2="374.166" gradientUnits="userSpaceOnUse">
<stop stop-color="#D0A777"/>
<stop offset="0.408235" stop-color="#D9AE86"/>
<stop offset="0.985021" stop-color="#EFD6B9"/>
</linearGradient>
<linearGradient id="paint9_linear_56:5" x1="641" y1="669" x2="1181" y2="717.159" gradientUnits="userSpaceOnUse">
<stop stop-color="#8F5F33"/>
<stop offset="1" stop-color="#8F5F33" stop-opacity="0.4"/>
</linearGradient>
<linearGradient id="paint10_linear_56:5" x1="1146.71" y1="113" x2="1146.67" y2="424.619" gradientUnits="userSpaceOnUse">
<stop stop-color="#788286"/>
<stop offset="1" stop-color="#B2B9BB"/>
</linearGradient>
<linearGradient id="paint11_linear_56:5" x1="1191.18" y1="487.367" x2="1178.12" y2="241.883" gradientUnits="userSpaceOnUse">
<stop stop-color="#F2BA5D"/>
<stop offset="1" stop-color="#D55561"/>
</linearGradient>
<linearGradient id="paint12_linear_56:5" x1="1133.46" y1="331.709" x2="1135.29" y2="257.134" gradientUnits="userSpaceOnUse">
<stop stop-color="#64B581"/>
<stop offset="1" stop-color="#8DE691"/>
</linearGradient>
<linearGradient id="paint13_linear_56:5" x1="1209.79" y1="319.116" x2="1146.56" y2="279.528" gradientUnits="userSpaceOnUse">
<stop stop-color="#64B581"/>
<stop offset="1" stop-color="#8DE691"/>
</linearGradient>
<linearGradient id="paint14_linear_56:5" x1="1115.71" y1="247.051" x2="1055.74" y2="227.206" gradientUnits="userSpaceOnUse">
<stop stop-color="#AB2B37"/>
<stop offset="1" stop-color="#C5472B"/>
</linearGradient>
<linearGradient id="paint15_linear_56:5" x1="1291.71" y1="411.476" x2="1291.66" y2="723.095" gradientUnits="userSpaceOnUse">
<stop stop-color="#788286"/>
<stop offset="1" stop-color="#B2B9BB"/>
</linearGradient>
<linearGradient id="paint16_linear_56:5" x1="1247.57" y1="560.714" x2="1392.19" y2="426.784" gradientUnits="userSpaceOnUse">
<stop stop-color="#F5E2CD"/>
<stop offset="1" stop-color="#E38E72"/>
</linearGradient>
<linearGradient id="paint17_linear_56:5" x1="1278.46" y1="590.079" x2="1280.28" y2="515.504" gradientUnits="userSpaceOnUse">
<stop stop-color="#64B581"/>
<stop offset="1" stop-color="#8DE691"/>
</linearGradient>
<linearGradient id="paint18_linear_56:5" x1="1109.45" y1="808.165" x2="1146.35" y2="883.666" gradientUnits="userSpaceOnUse">
<stop stop-color="#C4CC57"/>
<stop offset="1" stop-color="#DBE272"/>
</linearGradient>
<linearGradient id="paint19_linear_56:5" x1="445.904" y1="148.042" x2="484.273" y2="226.565" gradientUnits="userSpaceOnUse">
<stop stop-color="#C4CC57"/>
<stop offset="1" stop-color="#DBE272"/>
</linearGradient>
<linearGradient id="paint20_linear_56:5" x1="367.844" y1="237.982" x2="406.213" y2="316.505" gradientUnits="userSpaceOnUse">
<stop stop-color="#C4CC57"/>
<stop offset="1" stop-color="#DBE272"/>
</linearGradient>
<linearGradient id="paint21_linear_56:5" x1="246.66" y1="818.718" x2="371.722" y2="747.675" gradientUnits="userSpaceOnUse">
<stop stop-color="#64B581"/>
<stop offset="1" stop-color="#8DE691"/>
</linearGradient>
<linearGradient id="paint22_linear_56:5" x1="343.273" y1="932.355" x2="345.91" y2="788.548" gradientUnits="userSpaceOnUse">
<stop stop-color="#64B581"/>
<stop offset="1" stop-color="#8DE691"/>
</linearGradient>
<linearGradient id="paint23_linear_56:5" x1="181.048" y1="592.003" x2="74.5413" y2="495.339" gradientUnits="userSpaceOnUse">
<stop stop-color="#64B581"/>
<stop offset="1" stop-color="#8DE691"/>
</linearGradient>
<linearGradient id="paint24_linear_56:5" x1="1596.16" y1="336.476" x2="1500.53" y2="256.58" gradientUnits="userSpaceOnUse">
<stop stop-color="#64B581"/>
<stop offset="1" stop-color="#8DE691"/>
</linearGradient>
<linearGradient id="paint25_linear_56:5" x1="1766.44" y1="332.622" x2="1714.41" y2="445.855" gradientUnits="userSpaceOnUse">
<stop stop-color="#64B581"/>
<stop offset="1" stop-color="#8DE691"/>
</linearGradient>
<linearGradient id="paint26_linear_56:5" x1="1548.23" y1="437.006" x2="1656.78" y2="498.213" gradientUnits="userSpaceOnUse">
<stop stop-color="#64B581"/>
<stop offset="1" stop-color="#8DE691"/>
</linearGradient>
<linearGradient id="paint27_linear_56:5" x1="1546.73" y1="573.71" x2="1627.05" y2="668.983" gradientUnits="userSpaceOnUse">
<stop stop-color="#64B581"/>
<stop offset="1" stop-color="#8DE691"/>
</linearGradient>
<linearGradient id="paint28_linear_56:5" x1="1796.17" y1="532.96" x2="1721.18" y2="632.482" gradientUnits="userSpaceOnUse">
<stop stop-color="#64B581"/>
<stop offset="1" stop-color="#8DE691"/>
</linearGradient>
<linearGradient id="paint29_linear_56:5" x1="1746.37" y1="719.128" x2="1645.64" y2="792.486" gradientUnits="userSpaceOnUse">
<stop stop-color="#64B581"/>
<stop offset="1" stop-color="#8DE691"/>
</linearGradient>
<clipPath id="clip0_56:5">
<rect width="1920" height="1080" fill="white"/>
</clipPath>
</defs>
</svg>
