<svg width="1920" height="1080" viewBox="0 0 1920 1080" fill="none" xmlns="http://www.w3.org/2000/svg">
<g clip-path="url(#clip0_95:2)">
<rect width="1920" height="1080" fill="#F0F2DB"/>
<path d="M1919.5 1080V422L97 1080H1919.5Z" fill="#DDE1A4"/>
<path opacity="0.3" fill-rule="evenodd" clip-rule="evenodd" d="M1026.21 744.517L1291.48 648.742L1685.29 1080H1332.56L1026.21 744.517ZM433.897 958.366L712.423 857.806L930.114 1080H553.066L433.897 958.366ZM162.001 1080H113.236L147.352 1065.05L162.001 1080ZM1919.5 935.845L1566.62 549.406L1831.89 453.631L1919.5 549.571V935.845Z" fill="#F8FAFD"/>
<ellipse cx="951.464" cy="622.596" rx="588.224" ry="365.993" transform="rotate(9.44905 951.464 622.596)" fill="url(#paint0_radial_95:2)"/>
<ellipse cx="936.447" cy="614.944" rx="472.497" ry="278.914" transform="rotate(9.44905 936.447 614.944)" fill="url(#paint1_radial_95:2)"/>
<rect x="780.443" y="301" width="838.359" height="497.534" transform="rotate(19.3002 780.443 301)" fill="#529D6A"/>
<path fill-rule="evenodd" clip-rule="evenodd" d="M780.463 301L1571.71 578.093L1535.24 682.215L744 405.122L780.463 301ZM720.463 473L1511.71 750.093L1475.24 854.215L684 577.122L720.463 473ZM1442.71 945.093L651.463 668L615 772.122L1406.24 1049.21L1442.71 945.093Z" fill="url(#paint2_linear_95:2)"/>
<path d="M761.021 481.251C761.021 611.872 655.132 717.762 524.511 717.762C393.889 717.762 288 611.872 288 481.251C288 350.63 393.889 244.74 524.511 244.74C655.132 244.74 761.021 350.63 761.021 481.251Z" fill="url(#paint3_radial_95:2)"/>
<path fill-rule="evenodd" clip-rule="evenodd" d="M524.511 698.932C644.733 698.932 742.192 601.473 742.192 481.251C742.192 361.029 644.733 263.57 524.511 263.57C404.289 263.57 306.829 361.029 306.829 481.251C306.829 601.473 404.289 698.932 524.511 698.932ZM524.511 717.762C655.132 717.762 761.021 611.872 761.021 481.251C761.021 350.63 655.132 244.74 524.511 244.74C393.889 244.74 288 350.63 288 481.251C288 611.872 393.889 717.762 524.511 717.762Z" fill="#F1F8FB"/>
<circle cx="524.511" cy="481.252" r="182.81" fill="url(#paint4_radial_95:2)"/>
<path fill-rule="evenodd" clip-rule="evenodd" d="M1188.95 552.662C1187.04 558.382 1193.95 565.832 1204.37 569.301L1760.41 754.405C1770.83 757.874 1780.82 756.049 1782.73 750.328C1784.63 744.608 1777.73 737.158 1767.31 733.689L1211.27 548.585C1200.84 545.116 1190.85 546.941 1188.95 552.662Z" fill="url(#paint5_linear_95:2)"/>
<path fill-rule="evenodd" clip-rule="evenodd" d="M906.169 527.601C931.76 536.739 957.624 537.279 978.513 530.757C990.546 549.035 1010.9 565 1036.49 574.139C1060.98 582.882 1085.71 583.754 1106.1 578.102C1118.29 595.39 1137.99 610.383 1162.47 619.126C1179.1 625.066 1195.85 627.373 1211.28 626.469C1222.64 636.938 1237.06 645.763 1253.7 651.702C1270.33 657.643 1287.08 659.949 1302.5 659.045C1313.87 669.515 1328.29 678.339 1344.92 684.279C1394.91 702.128 1445.93 687.173 1458.89 650.875C1471.86 614.578 1441.84 570.684 1391.86 552.835C1375.23 546.895 1358.48 544.588 1343.05 545.492C1331.69 535.023 1317.27 526.198 1300.64 520.258C1284 514.318 1267.25 512.011 1251.83 512.915C1240.46 502.446 1226.04 493.622 1209.41 487.682C1184.92 478.939 1160.19 478.067 1139.8 483.719C1127.61 466.431 1107.91 451.438 1083.43 442.695C1057.84 433.556 1031.98 433.017 1011.09 439.538C999.054 421.26 978.698 405.295 953.108 396.157C903.125 378.308 852.098 393.263 839.136 429.56C826.175 465.858 856.186 509.752 906.169 527.601Z" fill="url(#paint6_linear_95:2)"/>
<path fill-rule="evenodd" clip-rule="evenodd" d="M1110.01 578.983C1118.4 549.134 1109.36 517.099 1086.6 496.037L1084.46 494.053C1083.04 492.74 1080.83 492.825 1079.51 494.244C1078.2 495.663 1078.29 497.877 1079.71 499.19L1081.85 501.174C1102.68 520.451 1110.95 549.77 1103.27 577.089L1110.01 578.983Z" fill="#AD723A"/>
<path fill-rule="evenodd" clip-rule="evenodd" d="M1353.65 545.272C1351.83 576.225 1332.82 603.549 1304.44 616.021L1301.76 617.196C1299.99 617.973 1297.93 617.169 1297.15 615.399C1296.37 613.629 1297.18 611.564 1298.95 610.787L1301.62 609.612C1327.6 598.198 1345 573.19 1346.67 544.861L1353.65 545.272Z" fill="#C07F42"/>
<path fill-rule="evenodd" clip-rule="evenodd" d="M984.12 510.554C985.202 512.156 987.378 512.577 988.98 511.495L991.8 509.59C1000.21 503.913 1004.02 493.483 1001.26 483.723L997.393 470.049C995.638 463.843 997.66 457.183 1002.57 453L1011.84 445.103C1013.31 443.849 1013.49 441.64 1012.23 440.169C1010.98 438.698 1008.77 438.521 1007.3 439.775L998.029 447.672C991.038 453.629 988.158 463.114 990.657 471.953L994.523 485.628C996.461 492.48 993.783 499.803 987.882 503.79L985.061 505.695C983.46 506.777 983.038 508.953 984.12 510.554Z" fill="#B97F48"/>
<path fill-rule="evenodd" clip-rule="evenodd" d="M1202.81 565.472C1204.61 566.172 1206.64 565.279 1207.34 563.477L1209.83 557.066C1214.14 545.975 1223.59 537.681 1235.14 534.841L1240.87 533.431C1242.75 532.97 1243.9 531.074 1243.44 529.197C1242.98 527.32 1241.08 526.172 1239.2 526.634L1233.47 528.043C1219.7 531.428 1208.44 541.313 1203.31 554.531L1200.82 560.942C1200.12 562.744 1201.01 564.772 1202.81 565.472Z" fill="#9B5929"/>
<path fill-rule="evenodd" clip-rule="evenodd" d="M959.035 507.031C958.367 506.083 958.594 504.773 959.543 504.105L962.916 501.728C968.752 497.616 972.217 490.917 972.202 483.778L972.194 480.235C972.192 479.076 973.13 478.133 974.29 478.131C975.449 478.128 976.392 479.067 976.394 480.226L976.402 483.769C976.42 492.277 972.291 500.26 965.335 505.161L961.962 507.538C961.014 508.206 959.704 507.979 959.035 507.031Z" fill="#EDC797"/>
<path fill-rule="evenodd" clip-rule="evenodd" d="M1095.21 567.446C1094.05 567.445 1093.11 566.504 1093.11 565.345L1093.12 553.708L1081.68 564.618C1080.84 565.418 1079.51 565.387 1078.71 564.547C1077.91 563.708 1077.95 562.379 1078.78 561.578L1092.83 548.182L1089.4 537.276C1089.05 536.169 1089.67 534.99 1090.77 534.642C1091.88 534.294 1093.06 534.909 1093.41 536.015L1097.33 548.477L1097.31 565.348C1097.31 566.508 1096.37 567.447 1095.21 567.446Z" fill="#EDC797"/>
<path fill-rule="evenodd" clip-rule="evenodd" d="M851.311 460.584C852.467 460.492 853.479 461.356 853.57 462.512L853.896 466.626C854.458 473.743 858.455 480.139 864.604 483.765L867.656 485.564C868.655 486.153 868.987 487.44 868.398 488.44C867.809 489.439 866.522 489.771 865.523 489.182L862.471 487.383C855.142 483.061 850.379 475.439 849.709 466.957L849.383 462.843C849.292 461.687 850.155 460.675 851.311 460.584Z" fill="#F5E1C6"/>
<path fill-rule="evenodd" clip-rule="evenodd" d="M1437.51 649.414C1435.88 648.381 1433.72 648.869 1432.69 650.503L1429.01 656.318C1422.66 666.378 1411.8 672.708 1399.91 673.281L1394.02 673.566C1392.08 673.659 1390.59 675.299 1390.69 677.23C1390.78 679.161 1392.42 680.651 1394.35 680.558L1400.25 680.273C1414.41 679.59 1427.36 672.046 1434.93 660.057L1438.6 654.242C1439.64 652.608 1439.15 650.446 1437.51 649.414Z" fill="#7C431A"/>
<path fill-rule="evenodd" clip-rule="evenodd" d="M1277.51 542.683C1278.24 541.759 1278.06 540.415 1277.12 539.681C1276.19 538.947 1274.84 539.102 1274.12 540.026C1273.39 540.951 1273.57 542.295 1274.51 543.029C1275.44 543.762 1276.79 543.608 1277.51 542.683ZM1304.49 546.696C1305.43 547.43 1305.6 548.774 1304.88 549.698C1304.15 550.623 1302.81 550.777 1301.87 550.044C1300.93 549.31 1300.76 547.966 1301.48 547.041C1302.2 546.117 1303.55 545.962 1304.49 546.696ZM1327.16 541.047C1328.1 541.78 1328.27 543.124 1327.55 544.049C1326.82 544.973 1325.48 545.128 1324.54 544.394C1323.6 543.66 1323.43 542.316 1324.15 541.392C1324.87 540.467 1326.22 540.313 1327.16 541.047ZM1317.26 543.198C1317.98 542.274 1317.81 540.93 1316.87 540.196C1315.93 539.462 1314.59 539.617 1313.87 540.541C1313.14 541.466 1313.32 542.81 1314.25 543.544C1315.19 544.277 1316.54 544.123 1317.26 543.198ZM1292.39 531.835C1293.33 532.569 1293.5 533.913 1292.78 534.837C1292.05 535.762 1290.71 535.916 1289.77 535.183C1288.83 534.449 1288.66 533.105 1289.38 532.18C1290.1 531.256 1291.45 531.101 1292.39 531.835ZM1322.18 549.743C1323.12 550.477 1323.29 551.821 1322.57 552.745C1321.85 553.67 1320.5 553.824 1319.56 553.091C1318.62 552.357 1318.45 551.013 1319.17 550.088C1319.9 549.164 1321.24 549.009 1322.18 549.743Z" fill="#9B5929"/>
<path fill-rule="evenodd" clip-rule="evenodd" d="M1007.98 546.415C1008.71 545.49 1008.53 544.146 1007.59 543.413C1006.66 542.679 1005.31 542.833 1004.59 543.758C1003.86 544.682 1004.04 546.026 1004.98 546.76C1005.91 547.494 1007.26 547.339 1007.98 546.415ZM1034.96 550.428C1035.9 551.161 1036.07 552.505 1035.35 553.43C1034.62 554.354 1033.28 554.509 1032.34 553.775C1031.4 553.041 1031.23 551.697 1031.95 550.773C1032.67 549.848 1034.02 549.694 1034.96 550.428ZM1057.63 544.778C1058.56 545.512 1058.74 546.856 1058.02 547.78C1057.29 548.705 1055.95 548.859 1055.01 548.126C1054.07 547.392 1053.9 546.048 1054.62 545.123C1055.34 544.199 1056.69 544.044 1057.63 544.778ZM1047.73 546.93C1048.45 546.005 1048.28 544.661 1047.34 543.927C1046.4 543.194 1045.06 543.348 1044.33 544.273C1043.61 545.197 1043.78 546.541 1044.72 547.275C1045.66 548.009 1047.01 547.854 1047.73 546.93ZM1022.86 535.566C1023.79 536.3 1023.97 537.644 1023.25 538.569C1022.52 539.493 1021.18 539.648 1020.24 538.914C1019.3 538.18 1019.13 536.836 1019.85 535.912C1020.57 534.987 1021.92 534.833 1022.86 535.566ZM1052.65 553.475C1053.59 554.208 1053.76 555.552 1053.04 556.477C1052.31 557.401 1050.97 557.556 1050.03 556.822C1049.09 556.088 1048.92 554.744 1049.64 553.82C1050.36 552.896 1051.71 552.741 1052.65 553.475Z" fill="#B97849"/>
<path fill-rule="evenodd" clip-rule="evenodd" d="M1139.95 634.661C1138.04 640.381 1144.95 647.831 1155.37 651.3L1711.41 836.404C1721.83 839.873 1731.82 838.048 1733.73 832.327C1735.63 826.607 1728.73 819.157 1718.31 815.688L1162.27 630.584C1151.84 627.115 1141.85 628.94 1139.95 634.661Z" fill="url(#paint7_linear_95:2)"/>
<path fill-rule="evenodd" clip-rule="evenodd" d="M857.169 609.6C882.76 618.738 908.624 619.278 929.513 612.756C941.546 631.034 961.901 646.999 987.492 656.138C1011.98 664.881 1036.71 665.753 1057.1 660.101C1069.29 677.389 1088.99 692.382 1113.47 701.125C1130.1 707.065 1146.85 709.372 1162.28 708.468C1173.64 718.937 1188.06 727.762 1204.7 733.702C1221.33 739.642 1238.08 741.948 1253.5 741.045C1264.87 751.514 1279.29 760.338 1295.92 766.278C1345.91 784.127 1396.93 769.172 1409.89 732.874C1422.86 696.577 1392.84 652.683 1342.86 634.834C1326.23 628.894 1309.48 626.587 1294.05 627.491C1282.69 617.022 1268.27 608.197 1251.64 602.257C1235 596.317 1218.25 594.01 1202.83 594.914C1191.46 584.445 1177.04 575.621 1160.41 569.681C1135.92 560.938 1111.19 560.066 1090.8 565.718C1078.61 548.43 1058.91 533.437 1034.43 524.694C1008.84 515.555 982.976 515.016 962.087 521.537C950.054 503.259 929.698 487.294 904.108 478.156C854.125 460.307 803.098 475.262 790.136 511.559C777.175 547.857 807.186 591.751 857.169 609.6Z" fill="url(#paint8_linear_95:2)"/>
<path fill-rule="evenodd" clip-rule="evenodd" d="M1061.01 660.982C1069.4 631.133 1060.36 599.098 1037.6 578.036L1035.46 576.052C1034.04 574.739 1031.83 574.825 1030.51 576.243C1029.2 577.662 1029.29 579.876 1030.71 581.189L1032.85 583.173C1053.68 602.45 1061.95 631.769 1054.27 659.088L1061.01 660.982Z" fill="#BA7C41"/>
<path fill-rule="evenodd" clip-rule="evenodd" d="M1304.65 627.271C1302.83 658.224 1283.82 685.548 1255.44 698.02L1252.76 699.195C1250.99 699.972 1248.93 699.168 1248.15 697.398C1247.37 695.628 1248.18 693.563 1249.95 692.786L1252.62 691.611C1278.6 680.197 1296 655.189 1297.67 626.86L1304.65 627.271Z" fill="#C07F42"/>
<path fill-rule="evenodd" clip-rule="evenodd" d="M935.12 592.553C936.202 594.155 938.378 594.576 939.98 593.494L942.8 591.589C951.205 585.912 955.019 575.482 952.259 565.722L948.393 552.048C946.638 545.842 948.66 539.182 953.569 534.999L962.837 527.102C964.309 525.848 964.485 523.639 963.232 522.168C961.978 520.697 959.769 520.52 958.297 521.774L949.029 529.671C942.038 535.628 939.158 545.113 941.657 553.952L945.523 567.627C947.461 574.479 944.783 581.802 938.882 585.789L936.061 587.694C934.46 588.776 934.038 590.952 935.12 592.553Z" fill="#B97F48"/>
<path fill-rule="evenodd" clip-rule="evenodd" d="M1153.81 647.471C1155.61 648.171 1157.64 647.278 1158.34 645.476L1160.83 639.065C1165.14 627.974 1174.59 619.68 1186.14 616.84L1191.87 615.43C1193.75 614.969 1194.9 613.073 1194.44 611.196C1193.98 609.319 1192.08 608.171 1190.2 608.633L1184.47 610.042C1170.7 613.427 1159.44 623.312 1154.31 636.53L1151.82 642.941C1151.12 644.743 1152.01 646.771 1153.81 647.471Z" fill="#9B5929"/>
<path fill-rule="evenodd" clip-rule="evenodd" d="M910.035 589.03C909.367 588.082 909.594 586.772 910.543 586.104L913.916 583.727C919.752 579.615 923.217 572.916 923.202 565.777L923.194 562.234C923.192 561.075 924.13 560.132 925.29 560.13C926.449 560.127 927.392 561.066 927.394 562.225L927.402 565.768C927.42 574.276 923.291 582.259 916.335 587.16L912.962 589.537C912.014 590.205 910.704 589.978 910.035 589.03Z" fill="#EDC797"/>
<path d="M1046.21 647.345L1046.23 630.797M1046.23 630.797L1042.4 618.644M1046.23 630.797L1031.23 645.096" stroke="#EDC797" stroke-width="4.2" stroke-linecap="round"/>
<path d="M802.477 544.676L802.802 548.79C803.419 556.589 807.798 563.599 814.538 567.572L817.589 569.371" stroke="#F5E1C6" stroke-width="4.2" stroke-linecap="round"/>
<path fill-rule="evenodd" clip-rule="evenodd" d="M1388.51 731.413C1386.88 730.38 1384.72 730.868 1383.69 732.502L1380.01 738.317C1373.66 748.377 1362.8 754.707 1350.91 755.28L1345.02 755.565C1343.08 755.658 1341.59 757.298 1341.69 759.229C1341.78 761.16 1343.42 762.65 1345.35 762.557L1351.25 762.272C1365.41 761.589 1378.36 754.045 1385.93 742.056L1389.6 736.241C1390.64 734.607 1390.15 732.445 1388.51 731.413Z" fill="#7C431A"/>
<path fill-rule="evenodd" clip-rule="evenodd" d="M1228.51 624.682C1229.24 623.758 1229.06 622.414 1228.12 621.68C1227.19 620.946 1225.84 621.101 1225.12 622.025C1224.39 622.95 1224.57 624.294 1225.51 625.028C1226.44 625.761 1227.79 625.607 1228.51 624.682ZM1255.49 628.695C1256.43 629.429 1256.6 630.773 1255.88 631.697C1255.15 632.622 1253.81 632.776 1252.87 632.043C1251.93 631.309 1251.76 629.965 1252.48 629.04C1253.2 628.116 1254.55 627.961 1255.49 628.695ZM1278.16 623.046C1279.1 623.779 1279.27 625.123 1278.55 626.048C1277.82 626.972 1276.48 627.127 1275.54 626.393C1274.6 625.659 1274.43 624.315 1275.15 623.391C1275.87 622.466 1277.22 622.312 1278.16 623.046ZM1268.26 625.197C1268.98 624.273 1268.81 622.929 1267.87 622.195C1266.93 621.461 1265.59 621.616 1264.87 622.54C1264.14 623.465 1264.32 624.809 1265.25 625.543C1266.19 626.276 1267.54 626.122 1268.26 625.197ZM1243.39 613.834C1244.33 614.568 1244.5 615.912 1243.78 616.836C1243.05 617.761 1241.71 617.915 1240.77 617.182C1239.83 616.448 1239.66 615.104 1240.38 614.179C1241.1 613.255 1242.45 613.1 1243.39 613.834ZM1273.18 631.742C1274.12 632.476 1274.29 633.82 1273.57 634.744C1272.85 635.669 1271.5 635.823 1270.56 635.09C1269.62 634.356 1269.45 633.012 1270.17 632.087C1270.9 631.163 1272.24 631.008 1273.18 631.742Z" fill="#9B5929"/>
<path fill-rule="evenodd" clip-rule="evenodd" d="M853.706 492.763C854.429 491.839 854.255 490.495 853.317 489.761C852.379 489.027 851.032 489.182 850.309 490.106C849.586 491.031 849.76 492.375 850.698 493.109C851.636 493.842 852.983 493.688 853.706 492.763ZM880.68 496.776C881.618 497.51 881.792 498.854 881.069 499.778C880.346 500.703 879 500.857 878.062 500.124C877.124 499.39 876.949 498.046 877.673 497.121C878.396 496.197 879.742 496.042 880.68 496.776ZM903.349 491.127C904.287 491.86 904.462 493.204 903.739 494.129C903.016 495.053 901.669 495.208 900.731 494.474C899.793 493.74 899.619 492.396 900.342 491.472C901.065 490.548 902.411 490.393 903.349 491.127ZM893.454 493.278C894.177 492.354 894.003 491.01 893.065 490.276C892.127 489.542 890.78 489.697 890.057 490.621C889.334 491.546 889.508 492.89 890.446 493.624C891.384 494.357 892.731 494.203 893.454 493.278ZM868.579 481.915C869.517 482.649 869.691 483.993 868.968 484.917C868.245 485.842 866.899 485.996 865.961 485.263C865.023 484.529 864.848 483.185 865.572 482.26C866.295 481.336 867.641 481.181 868.579 481.915ZM898.372 499.823C899.31 500.557 899.484 501.901 898.761 502.826C898.038 503.75 896.692 503.905 895.754 503.171C894.816 502.437 894.641 501.093 895.364 500.169C896.087 499.244 897.434 499.09 898.372 499.823Z" fill="#C68657"/>
<path fill-rule="evenodd" clip-rule="evenodd" d="M958.983 628.414C959.706 627.489 959.532 626.145 958.594 625.412C957.656 624.678 956.309 624.832 955.586 625.757C954.863 626.681 955.037 628.025 955.975 628.759C956.913 629.493 958.26 629.338 958.983 628.414ZM985.957 632.427C986.895 633.16 987.069 634.504 986.346 635.429C985.623 636.353 984.277 636.508 983.339 635.774C982.401 635.04 982.226 633.696 982.949 632.772C983.672 631.847 985.019 631.693 985.957 632.427ZM1008.63 626.777C1009.56 627.511 1009.74 628.855 1009.02 629.779C1008.29 630.704 1006.95 630.858 1006.01 630.125C1005.07 629.391 1004.9 628.047 1005.62 627.122C1006.34 626.198 1007.69 626.043 1008.63 626.777ZM998.731 628.929C999.454 628.004 999.279 626.66 998.341 625.926C997.403 625.193 996.057 625.347 995.334 626.272C994.611 627.196 994.785 628.54 995.723 629.274C996.661 630.008 998.008 629.853 998.731 628.929ZM973.856 617.565C974.794 618.299 974.968 619.643 974.245 620.568C973.522 621.492 972.176 621.647 971.238 620.913C970.3 620.179 970.125 618.835 970.848 617.911C971.571 616.986 972.918 616.832 973.856 617.565ZM1003.65 635.474C1004.59 636.207 1004.76 637.551 1004.04 638.476C1003.31 639.4 1001.97 639.555 1001.03 638.821C1000.09 638.087 999.918 636.743 1000.64 635.819C1001.36 634.895 1002.71 634.74 1003.65 635.474Z" fill="#B97849"/>
<path fill-rule="evenodd" clip-rule="evenodd" d="M1071.95 785.662C1070.04 791.382 1076.95 798.832 1087.37 802.301L1643.41 987.405C1653.83 990.874 1663.82 989.049 1665.73 983.328C1667.63 977.608 1660.73 970.158 1650.31 966.689L1094.27 781.585C1083.84 778.116 1073.85 779.941 1071.95 785.662Z" fill="url(#paint9_linear_95:2)"/>
<path fill-rule="evenodd" clip-rule="evenodd" d="M789.169 760.601C814.76 769.739 840.624 770.279 861.513 763.757C873.546 782.035 893.901 798 919.492 807.139C943.976 815.882 968.71 816.754 989.098 811.102C1001.29 828.39 1020.99 843.383 1045.47 852.126C1062.1 858.066 1078.85 860.373 1094.28 859.469C1105.64 869.938 1120.06 878.763 1136.7 884.702C1153.33 890.643 1170.08 892.949 1185.5 892.045C1196.87 902.515 1211.29 911.339 1227.92 917.279C1277.91 935.128 1328.93 920.173 1341.89 883.875C1354.86 847.578 1324.84 803.684 1274.86 785.835C1258.23 779.895 1241.48 777.588 1226.05 778.492C1214.69 768.023 1200.27 759.198 1183.64 753.258C1167 747.318 1150.25 745.011 1134.83 745.915C1123.46 735.446 1109.04 726.622 1092.41 720.682C1067.92 711.939 1043.19 711.067 1022.8 716.719C1010.61 699.431 990.915 684.438 966.43 675.695C940.84 666.556 914.976 666.017 894.087 672.538C882.054 654.26 861.698 638.295 836.108 629.157C786.125 611.308 735.098 626.263 722.136 662.56C709.175 698.858 739.186 742.752 789.169 760.601Z" fill="url(#paint10_linear_95:2)"/>
<path fill-rule="evenodd" clip-rule="evenodd" d="M993.006 811.983C1001.4 782.134 992.36 750.099 969.604 729.037L967.461 727.053C966.042 725.74 963.828 725.825 962.515 727.244C961.202 728.663 961.287 730.877 962.706 732.19L964.849 734.174C985.676 753.451 993.948 782.77 986.267 810.089L993.006 811.983Z" fill="#BA7C41"/>
<path fill-rule="evenodd" clip-rule="evenodd" d="M1236.65 778.272C1234.83 809.225 1215.82 836.549 1187.44 849.021L1184.76 850.196C1182.99 850.973 1180.93 850.169 1180.15 848.399C1179.37 846.629 1180.18 844.564 1181.95 843.787L1184.62 842.612C1210.6 831.198 1228 806.19 1229.67 777.861L1236.65 778.272Z" fill="#C07F42"/>
<path fill-rule="evenodd" clip-rule="evenodd" d="M867.12 743.554C868.202 745.156 870.378 745.577 871.98 744.495L874.8 742.59C883.205 736.913 887.019 726.483 884.259 716.723L880.393 703.049C878.638 696.843 880.66 690.183 885.569 686L894.837 678.103C896.309 676.849 896.485 674.64 895.232 673.169C893.978 671.698 891.769 671.521 890.297 672.775L881.029 680.672C874.038 686.629 871.158 696.114 873.657 704.953L877.523 718.628C879.461 725.48 876.783 732.803 870.882 736.79L868.061 738.695C866.46 739.777 866.038 741.953 867.12 743.554Z" fill="#B97F48"/>
<path fill-rule="evenodd" clip-rule="evenodd" d="M1085.81 798.472C1087.61 799.172 1089.64 798.279 1090.34 796.477L1092.83 790.066C1097.14 778.975 1106.59 770.681 1118.14 767.841L1123.87 766.431C1125.75 765.97 1126.9 764.074 1126.44 762.197C1125.98 760.32 1124.08 759.172 1122.2 759.634L1116.47 761.043C1102.7 764.428 1091.44 774.313 1086.31 787.531L1083.82 793.942C1083.12 795.744 1084.01 797.772 1085.81 798.472Z" fill="#9B5929"/>
<path fill-rule="evenodd" clip-rule="evenodd" d="M842.035 740.031C841.367 739.083 841.594 737.773 842.543 737.105L845.916 734.728C851.752 730.616 855.217 723.917 855.202 716.778L855.194 713.235C855.192 712.076 856.13 711.133 857.29 711.131C858.449 711.128 859.392 712.067 859.394 713.226L859.402 716.769C859.42 725.277 855.291 733.26 848.335 738.161L844.962 740.538C844.014 741.206 842.704 740.979 842.035 740.031Z" fill="#EDC797"/>
<path d="M978.213 798.346L978.228 781.798M978.228 781.798L974.404 769.645M978.228 781.798L963.234 796.097" stroke="#EDC797" stroke-width="4.2" stroke-linecap="round"/>
<path d="M734.477 695.677L734.802 699.791C735.419 707.59 739.798 714.6 746.538 718.573L749.589 720.372" stroke="#F5E1C6" stroke-width="4.2" stroke-linecap="round"/>
<path fill-rule="evenodd" clip-rule="evenodd" d="M1320.51 882.414C1318.88 881.381 1316.72 881.869 1315.69 883.503L1312.01 889.318C1305.66 899.378 1294.8 905.708 1282.91 906.281L1277.02 906.566C1275.08 906.659 1273.59 908.299 1273.69 910.23C1273.78 912.161 1275.42 913.651 1277.35 913.558L1283.25 913.273C1297.41 912.59 1310.36 905.046 1317.93 893.057L1321.6 887.242C1322.64 885.608 1322.15 883.446 1320.51 882.414Z" fill="#7C431A"/>
<path fill-rule="evenodd" clip-rule="evenodd" d="M1160.51 775.683C1161.24 774.759 1161.06 773.415 1160.12 772.681C1159.19 771.947 1157.84 772.102 1157.12 773.026C1156.39 773.951 1156.57 775.295 1157.51 776.029C1158.44 776.762 1159.79 776.608 1160.51 775.683ZM1187.49 779.696C1188.43 780.43 1188.6 781.774 1187.88 782.698C1187.15 783.623 1185.81 783.777 1184.87 783.044C1183.93 782.31 1183.76 780.966 1184.48 780.041C1185.2 779.117 1186.55 778.962 1187.49 779.696ZM1210.16 774.047C1211.1 774.78 1211.27 776.124 1210.55 777.049C1209.82 777.973 1208.48 778.128 1207.54 777.394C1206.6 776.66 1206.43 775.316 1207.15 774.392C1207.87 773.467 1209.22 773.313 1210.16 774.047ZM1200.26 776.198C1200.98 775.274 1200.81 773.93 1199.87 773.196C1198.93 772.462 1197.59 772.617 1196.87 773.541C1196.14 774.466 1196.32 775.81 1197.25 776.544C1198.19 777.277 1199.54 777.123 1200.26 776.198ZM1175.39 764.835C1176.33 765.569 1176.5 766.913 1175.78 767.837C1175.05 768.762 1173.71 768.916 1172.77 768.183C1171.83 767.449 1171.66 766.105 1172.38 765.18C1173.1 764.256 1174.45 764.101 1175.39 764.835ZM1205.18 782.743C1206.12 783.477 1206.29 784.821 1205.57 785.745C1204.85 786.67 1203.5 786.824 1202.56 786.091C1201.62 785.357 1201.45 784.013 1202.17 783.088C1202.9 782.164 1204.24 782.009 1205.18 782.743Z" fill="#9B5929"/>
<path fill-rule="evenodd" clip-rule="evenodd" d="M890.983 779.415C891.706 778.49 891.532 777.146 890.594 776.413C889.656 775.679 888.309 775.833 887.586 776.758C886.863 777.682 887.037 779.026 887.975 779.76C888.913 780.494 890.26 780.339 890.983 779.415ZM917.957 783.428C918.895 784.161 919.069 785.505 918.346 786.43C917.623 787.354 916.277 787.509 915.339 786.775C914.401 786.041 914.226 784.697 914.949 783.773C915.672 782.848 917.019 782.694 917.957 783.428ZM940.626 777.778C941.564 778.512 941.739 779.856 941.015 780.78C940.292 781.705 938.946 781.859 938.008 781.126C937.07 780.392 936.896 779.048 937.619 778.123C938.342 777.199 939.688 777.044 940.626 777.778ZM930.731 779.93C931.454 779.005 931.279 777.661 930.341 776.927C929.403 776.194 928.057 776.348 927.334 777.273C926.611 778.197 926.785 779.541 927.723 780.275C928.661 781.009 930.008 780.854 930.731 779.93ZM905.856 768.566C906.794 769.3 906.968 770.644 906.245 771.569C905.522 772.493 904.176 772.648 903.238 771.914C902.3 771.18 902.125 769.836 902.848 768.912C903.571 767.987 904.918 767.833 905.856 768.566ZM935.649 786.475C936.587 787.208 936.761 788.552 936.038 789.477C935.315 790.401 933.968 790.556 933.03 789.822C932.092 789.088 931.918 787.744 932.641 786.82C933.364 785.896 934.711 785.741 935.649 786.475Z" fill="#B97849"/>
<path fill-rule="evenodd" clip-rule="evenodd" d="M778.706 675.763C779.429 674.839 779.255 673.495 778.317 672.761C777.379 672.027 776.032 672.182 775.309 673.106C774.586 674.031 774.76 675.375 775.698 676.109C776.636 676.842 777.983 676.688 778.706 675.763ZM805.68 679.776C806.618 680.51 806.792 681.854 806.069 682.778C805.346 683.703 804 683.857 803.062 683.124C802.124 682.39 801.949 681.046 802.673 680.121C803.396 679.197 804.742 679.042 805.68 679.776ZM828.349 674.127C829.287 674.86 829.462 676.204 828.739 677.129C828.016 678.053 826.669 678.208 825.731 677.474C824.793 676.74 824.619 675.396 825.342 674.472C826.065 673.548 827.411 673.393 828.349 674.127ZM818.454 676.278C819.177 675.354 819.003 674.01 818.065 673.276C817.127 672.542 815.78 672.697 815.057 673.621C814.334 674.546 814.508 675.89 815.446 676.624C816.384 677.357 817.731 677.203 818.454 676.278ZM793.579 664.915C794.517 665.649 794.691 666.993 793.968 667.917C793.245 668.842 791.899 668.996 790.961 668.263C790.023 667.529 789.848 666.185 790.572 665.26C791.295 664.336 792.641 664.181 793.579 664.915ZM823.372 682.823C824.31 683.557 824.484 684.901 823.761 685.826C823.038 686.75 821.692 686.905 820.754 686.171C819.816 685.437 819.641 684.093 820.364 683.169C821.087 682.244 822.434 682.09 823.372 682.823Z" fill="#B97849"/>
<path fill-rule="evenodd" clip-rule="evenodd" d="M1086.7 693.699C1088.72 688.02 1098.75 686.406 1109.1 690.094L1661.11 886.876C1671.46 890.564 1678.21 898.158 1676.18 903.837C1674.16 909.516 1664.13 911.13 1653.78 907.442L1101.77 710.66C1091.42 706.972 1084.68 699.378 1086.7 693.699Z" fill="url(#paint11_linear_95:2)"/>
<path fill-rule="evenodd" clip-rule="evenodd" d="M848.526 539.216C874.313 547.785 895.017 563.295 907.453 581.301C928.192 574.318 954.062 574.284 979.849 582.853C1004.52 591.051 1024.54 605.603 1037.12 622.616C1057.37 616.513 1082.12 616.836 1106.79 625.034C1123.56 630.604 1138.17 639.107 1149.76 649.321C1165.16 648.076 1181.96 650.011 1198.72 655.58C1215.48 661.15 1230.1 669.653 1241.69 679.868C1257.09 678.622 1273.89 680.557 1290.65 686.127C1341.01 702.863 1371.99 746.08 1359.84 782.656C1347.68 819.232 1297 835.315 1246.63 818.579C1229.87 813.01 1215.26 804.507 1203.67 794.292C1188.27 795.538 1171.47 793.603 1154.71 788.033C1137.95 782.463 1123.33 773.961 1111.74 763.746C1096.34 764.991 1079.54 763.057 1062.78 757.487C1038.11 749.289 1018.09 734.737 1005.51 717.724C985.256 723.827 960.509 723.504 935.837 715.306C910.05 706.737 889.345 691.227 876.91 673.22C856.17 680.203 830.301 680.238 804.514 671.669C754.148 654.933 723.17 611.715 735.324 575.139C747.477 538.564 798.16 522.48 848.526 539.216Z" fill="url(#paint12_linear_95:2)"/>
<path fill-rule="evenodd" clip-rule="evenodd" d="M1040.74 624.33C1028.96 653.011 1002.1 672.676 971.201 675.246L968.29 675.488C966.364 675.648 964.672 674.216 964.512 672.29C964.352 670.363 965.783 668.672 967.71 668.512L970.62 668.27C998.901 665.918 1023.48 647.92 1034.26 621.67L1040.74 624.33Z" fill="#BA7C41"/>
<path fill-rule="evenodd" clip-rule="evenodd" d="M1211.88 800.995C1229.51 775.493 1231.38 742.26 1216.7 714.946L1215.32 712.373C1214.4 710.671 1212.28 710.032 1210.58 710.947C1208.88 711.862 1208.24 713.984 1209.15 715.687L1210.54 718.259C1223.97 743.257 1222.26 773.673 1206.12 797.014L1211.88 800.995Z" fill="#C07F42"/>
<path fill-rule="evenodd" clip-rule="evenodd" d="M899.423 600.67C901.262 600.075 903.235 601.083 903.83 602.923L904.878 606.161C908 615.811 904.579 626.376 896.392 632.363L884.921 640.752C879.716 644.559 877.205 651.051 878.495 657.37L880.93 669.3C881.316 671.194 880.094 673.043 878.2 673.429C876.306 673.816 874.457 672.594 874.071 670.7L871.636 658.769C869.799 649.769 873.375 640.524 880.789 635.102L892.259 626.713C898.008 622.509 900.41 615.092 898.218 608.316L897.17 605.077C896.575 603.238 897.584 601.265 899.423 600.67Z" fill="#B97F48"/>
<path fill-rule="evenodd" clip-rule="evenodd" d="M1105.51 692.149C1107.36 692.708 1108.41 694.661 1107.85 696.511L1105.86 703.096C1102.42 714.487 1104.75 726.839 1112.1 736.195L1115.75 740.838C1116.95 742.358 1116.68 744.558 1115.16 745.752C1113.64 746.946 1111.44 746.682 1110.25 745.162L1106.6 740.52C1097.84 729.37 1095.06 714.649 1099.16 701.073L1101.15 694.488C1101.71 692.638 1103.66 691.591 1105.51 692.149Z" fill="#9B5929"/>
<path fill-rule="evenodd" clip-rule="evenodd" d="M877.493 587.99C876.383 588.325 875.755 589.497 876.09 590.607L877.283 594.558C879.346 601.392 877.948 608.804 873.538 614.417L871.349 617.203C870.633 618.115 870.791 619.435 871.703 620.151C872.615 620.868 873.935 620.709 874.652 619.797L876.84 617.012C882.097 610.322 883.762 601.489 881.303 593.344L880.111 589.393C879.776 588.283 878.604 587.654 877.493 587.99Z" fill="#EDC797"/>
<path fill-rule="evenodd" clip-rule="evenodd" d="M1021.98 624.302C1021.06 623.588 1019.74 623.75 1019.03 624.664L1011.87 633.837L1009.58 618.195C1009.41 617.048 1008.34 616.253 1007.2 616.421C1006.05 616.589 1005.25 617.656 1005.42 618.803L1008.23 638.01L998.811 644.486C997.855 645.143 997.613 646.451 998.27 647.406C998.927 648.362 1000.23 648.604 1001.19 647.947L1011.96 640.547L1022.34 627.249C1023.05 626.335 1022.89 625.015 1021.98 624.302Z" fill="#EDC797"/>
<path fill-rule="evenodd" clip-rule="evenodd" d="M764.027 558.205C764.881 558.989 766.209 558.932 766.994 558.078L769.785 555.038C774.613 549.779 781.701 547.203 788.779 548.136L792.291 548.599C793.441 548.751 794.496 547.941 794.648 546.791C794.799 545.642 793.99 544.587 792.84 544.435L789.328 543.972C780.893 542.86 772.445 545.93 766.691 552.198L763.9 555.238C763.116 556.092 763.172 557.421 764.027 558.205Z" fill="#F5E1C6"/>
<path fill-rule="evenodd" clip-rule="evenodd" d="M1342.1 770.634C1340.17 770.441 1338.77 768.725 1338.96 766.801L1339.65 759.958C1340.84 748.119 1336.19 736.442 1327.18 728.668L1322.71 724.811C1321.25 723.548 1321.09 721.338 1322.35 719.875C1323.61 718.411 1325.82 718.249 1327.29 719.512L1331.76 723.369C1342.49 732.634 1348.04 746.55 1346.62 760.659L1345.93 767.503C1345.73 769.426 1344.02 770.828 1342.1 770.634Z" fill="#8B5026"/>
<path fill-rule="evenodd" clip-rule="evenodd" d="M1150.31 756.125C1150.31 757.299 1149.35 758.25 1148.16 758.25C1146.97 758.25 1146 757.299 1146 756.125C1146 754.951 1146.97 754 1148.16 754C1149.35 754 1150.31 754.951 1150.31 756.125ZM1174.03 769.583C1175.22 769.583 1176.19 768.632 1176.19 767.458C1176.19 766.285 1175.22 765.333 1174.03 765.333C1172.84 765.333 1171.88 766.285 1171.88 767.458C1171.88 768.632 1172.84 769.583 1174.03 769.583ZM1188.41 788C1189.6 788 1190.56 787.049 1190.56 785.875C1190.56 784.701 1189.6 783.75 1188.41 783.75C1187.22 783.75 1186.25 784.701 1186.25 785.875C1186.25 787.049 1187.22 788 1188.41 788ZM1181.94 780.208C1181.94 781.382 1180.97 782.333 1179.78 782.333C1178.59 782.333 1177.62 781.382 1177.62 780.208C1177.62 779.035 1178.59 778.083 1179.78 778.083C1180.97 778.083 1181.94 779.035 1181.94 780.208ZM1155.34 773.833C1156.53 773.833 1157.5 772.882 1157.5 771.708C1157.5 770.535 1156.53 769.583 1155.34 769.583C1154.15 769.583 1153.19 770.535 1153.19 771.708C1153.19 772.882 1154.15 773.833 1155.34 773.833ZM1189.84 778.083C1191.03 778.083 1192 777.132 1192 775.958C1192 774.785 1191.03 773.833 1189.84 773.833C1188.65 773.833 1187.69 774.785 1187.69 775.958C1187.69 777.132 1188.65 778.083 1189.84 778.083Z" fill="#9B5929"/>
<path fill-rule="evenodd" clip-rule="evenodd" d="M940.312 587.125C940.312 588.299 939.347 589.25 938.156 589.25C936.965 589.25 936 588.299 936 587.125C936 585.951 936.965 585 938.156 585C939.347 585 940.312 585.951 940.312 587.125ZM964.031 600.583C965.222 600.583 966.188 599.632 966.188 598.458C966.188 597.285 965.222 596.333 964.031 596.333C962.84 596.333 961.875 597.285 961.875 598.458C961.875 599.632 962.84 600.583 964.031 600.583ZM978.406 619C979.597 619 980.562 618.049 980.562 616.875C980.562 615.701 979.597 614.75 978.406 614.75C977.215 614.75 976.25 615.701 976.25 616.875C976.25 618.049 977.215 619 978.406 619ZM971.938 611.208C971.938 612.382 970.972 613.333 969.781 613.333C968.59 613.333 967.625 612.382 967.625 611.208C967.625 610.035 968.59 609.083 969.781 609.083C970.972 609.083 971.938 610.035 971.938 611.208ZM945.344 604.833C946.535 604.833 947.5 603.882 947.5 602.708C947.5 601.535 946.535 600.583 945.344 600.583C944.153 600.583 943.188 601.535 943.188 602.708C943.188 603.882 944.153 604.833 945.344 604.833ZM979.844 609.083C981.035 609.083 982 608.132 982 606.958C982 605.785 981.035 604.833 979.844 604.833C978.653 604.833 977.688 605.785 977.688 606.958C977.688 608.132 978.653 609.083 979.844 609.083Z" fill="#B97849"/>
<path d="M679.524 752.063C679.524 774.299 661.498 792.325 639.262 792.325C617.026 792.325 599 774.299 599 752.063C599 729.827 617.026 711.801 639.262 711.801C661.498 711.801 679.524 729.827 679.524 752.063Z" fill="url(#paint13_linear_95:2)"/>
<path fill-rule="evenodd" clip-rule="evenodd" d="M639.262 788.934C659.625 788.934 676.133 772.426 676.133 752.063C676.133 731.699 659.625 715.191 639.262 715.191C618.898 715.191 602.39 731.699 602.39 752.063C602.39 772.426 618.898 788.934 639.262 788.934ZM639.262 792.325C661.498 792.325 679.524 774.299 679.524 752.063C679.524 729.827 661.498 711.801 639.262 711.801C617.026 711.801 599 729.827 599 752.063C599 774.299 617.026 792.325 639.262 792.325Z" fill="#E03F49"/>
<path d="M638.896 714.729L646.324 747.408L670.911 770.18L638.896 760.273L606.881 770.18L631.469 747.408L638.896 714.729Z" fill="#F9747C"/>
<circle cx="639.628" cy="769.997" r="3.29415" fill="#F3F4CB"/>
<circle cx="625.224" cy="744.162" r="3.32743" transform="rotate(117.995 625.224 744.162)" fill="#F3F4CB"/>
<circle r="3.32743" transform="matrix(0.469392 0.88299 0.88299 -0.469392 651.758 744.162)" fill="#F3F4CB"/>
<circle cx="627.915" cy="775.121" r="3.29415" fill="#F3F4CB"/>
<circle cx="625.833" cy="731.674" r="3.32743" transform="rotate(117.995 625.833 731.674)" fill="#F3F4CB"/>
<circle r="3.32743" transform="matrix(0.469392 0.88299 0.88299 -0.469392 651.149 731.674)" fill="#F3F4CB"/>
<circle cx="649.876" cy="775.121" r="3.29415" fill="#F3F4CB"/>
<circle cx="615.212" cy="751.653" r="3.32743" transform="rotate(117.995 615.212 751.653)" fill="#F3F4CB"/>
<circle r="3.32743" transform="matrix(0.469392 0.88299 0.88299 -0.469392 661.769 751.653)" fill="#F3F4CB"/>
<path d="M715.971 789.469C715.971 809.599 699.653 825.917 679.524 825.917C659.394 825.917 643.076 809.599 643.076 789.469C643.076 769.34 659.394 753.021 679.524 753.021C699.653 753.021 715.971 769.34 715.971 789.469Z" fill="url(#paint14_linear_95:2)"/>
<path fill-rule="evenodd" clip-rule="evenodd" d="M679.524 822.526C697.781 822.526 712.581 807.726 712.581 789.469C712.581 771.212 697.781 756.412 679.524 756.412C661.267 756.412 646.467 771.212 646.467 789.469C646.467 807.726 661.267 822.526 679.524 822.526ZM679.524 825.917C699.653 825.917 715.971 809.599 715.971 789.469C715.971 769.34 699.653 753.021 679.524 753.021C659.394 753.021 643.076 769.34 643.076 789.469C643.076 809.599 659.394 825.917 679.524 825.917Z" fill="#E03F49"/>
<path d="M679.192 755.672L685.916 785.255L708.174 805.87L679.192 796.901L650.21 805.87L672.469 785.255L679.192 755.672Z" fill="#F9747C"/>
<circle cx="679.855" cy="805.705" r="2.98207" fill="#F3F4CB"/>
<circle cx="666.815" cy="782.316" r="3.0122" transform="rotate(117.995 666.815 782.316)" fill="#F3F4CB"/>
<circle r="3.0122" transform="matrix(0.469392 0.88299 0.88299 -0.469392 690.836 782.316)" fill="#F3F4CB"/>
<circle cx="669.252" cy="810.343" r="2.98207" fill="#F3F4CB"/>
<circle cx="667.367" cy="771.011" r="3.0122" transform="rotate(117.995 667.367 771.011)" fill="#F3F4CB"/>
<circle r="3.0122" transform="matrix(0.469392 0.88299 0.88299 -0.469392 690.285 771.011)" fill="#F3F4CB"/>
<circle cx="689.133" cy="810.343" r="2.98207" fill="#F3F4CB"/>
<circle cx="657.753" cy="789.097" r="3.0122" transform="rotate(117.995 657.753 789.097)" fill="#F3F4CB"/>
<circle r="3.0122" transform="matrix(0.469392 0.88299 0.88299 -0.469392 699.898 789.097)" fill="#F3F4CB"/>
<path d="M738.297 775.06C723.641 790.515 699.231 791.163 683.775 776.507C668.319 761.851 667.672 737.44 682.328 721.985C696.984 706.529 721.394 705.881 736.85 720.537C752.306 735.194 752.954 759.604 738.297 775.06Z" fill="url(#paint15_linear_95:2)"/>
<path fill-rule="evenodd" clip-rule="evenodd" d="M686.108 774.047C700.205 787.415 722.469 786.824 735.837 772.727C749.205 758.63 748.614 736.365 734.517 722.998C720.42 709.63 698.156 710.221 684.788 724.318C671.42 738.415 672.011 760.679 686.108 774.047ZM683.775 776.507C699.231 791.163 723.641 790.515 738.297 775.06C752.954 759.604 752.306 735.194 736.85 720.537C721.394 705.881 696.984 706.529 682.328 721.985C667.672 737.44 668.319 761.851 683.775 776.507Z" fill="#E03F49"/>
<path d="M734.666 722.331L718.289 749.941L720.369 781.976L704.646 753.988L675.864 739.772L707.963 740.15L734.666 722.331Z" fill="#F9747C"/>
<circle cx="698.746" cy="761.23" r="3.15545" transform="rotate(43.4795 698.746 761.23)" fill="#F3F4CB"/>
<circle cx="705.763" cy="733.779" r="3.18732" transform="rotate(161.474 705.763 733.779)" fill="#F3F4CB"/>
<circle r="3.18732" transform="matrix(-0.26698 0.963702 0.963702 0.26698 724.206 751.267)" fill="#F3F4CB"/>
<circle cx="687.227" cy="757.071" r="3.15545" transform="rotate(43.4795 687.227 757.071)" fill="#F3F4CB"/>
<circle cx="714.418" cy="725.5" r="3.18732" transform="rotate(161.474 714.418 725.5)" fill="#F3F4CB"/>
<circle r="3.18732" transform="matrix(-0.26698 0.963702 0.963702 0.26698 732.014 742.186)" fill="#F3F4CB"/>
<circle cx="702.492" cy="771.547" r="3.15545" transform="rotate(43.4795 702.492 771.547)" fill="#F3F4CB"/>
<circle cx="693.867" cy="732.387" r="3.18732" transform="rotate(161.474 693.867 732.387)" fill="#F3F4CB"/>
<circle r="3.18732" transform="matrix(-0.26698 0.963702 0.963702 0.26698 726.228 763.073)" fill="#F3F4CB"/>
<path d="M773.049 832.386C758.393 847.841 733.983 848.489 718.527 833.833C703.071 819.177 702.423 794.766 717.08 779.311C731.736 763.855 756.146 763.207 771.602 777.864C787.057 792.52 787.705 816.93 773.049 832.386Z" fill="url(#paint16_linear_95:2)"/>
<path fill-rule="evenodd" clip-rule="evenodd" d="M720.86 831.373C734.957 844.741 757.221 844.15 770.589 830.053C783.957 815.956 783.366 793.692 769.269 780.324C755.172 766.956 732.908 767.547 719.54 781.644C706.172 795.741 706.763 818.005 720.86 831.373ZM718.527 833.833C733.983 848.489 758.393 847.841 773.049 832.386C787.705 816.93 787.057 792.52 771.602 777.864C756.146 763.207 731.736 763.855 717.08 779.311C702.423 794.766 703.071 819.177 718.527 833.833Z" fill="#E03F49"/>
<path d="M769.418 779.657L753.04 807.268L755.121 839.302L739.398 811.314L710.616 797.098L742.715 797.476L769.418 779.657Z" fill="#F9747C"/>
<circle cx="733.498" cy="818.556" r="3.15545" transform="rotate(43.4795 733.498 818.556)" fill="#F3F4CB"/>
<circle cx="740.514" cy="791.104" r="3.18732" transform="rotate(161.474 740.514 791.104)" fill="#F3F4CB"/>
<circle r="3.18732" transform="matrix(-0.26698 0.963702 0.963702 0.26698 758.958 808.593)" fill="#F3F4CB"/>
<circle cx="721.979" cy="814.397" r="3.15545" transform="rotate(43.4795 721.979 814.397)" fill="#F3F4CB"/>
<circle cx="749.169" cy="782.826" r="3.18732" transform="rotate(161.474 749.169 782.826)" fill="#F3F4CB"/>
<circle r="3.18732" transform="matrix(-0.26698 0.963702 0.963702 0.26698 766.766 799.511)" fill="#F3F4CB"/>
<circle cx="737.244" cy="828.873" r="3.15545" transform="rotate(43.4795 737.244 828.873)" fill="#F3F4CB"/>
<circle cx="728.619" cy="789.711" r="3.18732" transform="rotate(161.474 728.619 789.711)" fill="#F3F4CB"/>
<circle r="3.18732" transform="matrix(-0.26698 0.963702 0.963702 0.26698 760.979 820.398)" fill="#F3F4CB"/>
<circle cx="1662.39" cy="171.627" r="76.739" transform="rotate(-127.621 1662.39 171.627)" fill="url(#paint17_linear_95:2)"/>
<path fill-rule="evenodd" clip-rule="evenodd" d="M1639.68 98.3056C1631.19 100.936 1623.01 105.099 1615.55 110.846C1607.56 117.006 1601.11 124.432 1596.28 132.624L1683.27 245.494C1692.42 242.91 1701.24 238.571 1709.24 232.41C1716.7 226.663 1722.8 219.814 1727.51 212.269L1639.68 98.3056Z" fill="#E3E798"/>
<path fill-rule="evenodd" clip-rule="evenodd" d="M1718.85 128.113C1694.82 96.9299 1650.06 91.1334 1618.88 115.166C1587.69 139.198 1581.9 183.959 1605.93 215.142C1629.96 246.325 1674.72 252.121 1705.91 228.089C1737.09 204.056 1742.89 159.295 1718.85 128.113ZM1723.17 124.783C1697.3 91.2138 1649.12 84.9737 1615.55 110.845C1581.98 136.717 1575.74 184.903 1601.61 218.472C1627.48 252.041 1675.67 258.281 1709.24 232.409C1742.81 206.538 1749.05 158.352 1723.17 124.783Z" fill="#F3F4CB"/>
<circle cx="1566.63" cy="264.773" r="76.739" transform="rotate(-127.621 1566.63 264.773)" fill="url(#paint18_linear_95:2)"/>
<path fill-rule="evenodd" clip-rule="evenodd" d="M1543.92 191.451C1535.42 194.081 1527.24 198.244 1519.78 203.992C1511.79 210.152 1505.35 217.577 1500.52 225.769L1587.51 338.639C1596.66 336.056 1605.48 331.716 1613.47 325.556C1620.93 319.808 1627.04 312.959 1631.75 305.414L1543.92 191.451Z" fill="#E3E798"/>
<path fill-rule="evenodd" clip-rule="evenodd" d="M1623.09 221.258C1599.06 190.075 1554.29 184.279 1523.11 208.311C1491.93 232.344 1486.13 277.105 1510.17 308.287C1534.2 339.47 1578.96 345.267 1610.14 321.234C1641.32 297.202 1647.12 252.441 1623.09 221.258ZM1627.41 217.928C1601.54 184.359 1553.35 178.119 1519.78 203.991C1486.21 229.862 1479.97 278.048 1505.84 311.617C1531.72 345.186 1579.9 351.426 1613.47 325.555C1647.04 299.683 1653.28 251.497 1627.41 217.928Z" fill="#F3F4CB"/>
<path d="M1455.9 138.275C1445.31 116.527 1426.51 99.8782 1403.64 91.9906C1380.77 84.103 1355.71 85.6229 1333.96 96.216C1312.21 106.809 1295.56 125.608 1287.68 148.476C1279.79 171.345 1281.31 196.41 1291.9 218.158L1373.9 178.216L1455.9 138.275Z" fill="#DBE272"/>
<path fill-rule="evenodd" clip-rule="evenodd" d="M1295.96 130.849L1372.71 178.701L1378.86 87.1413C1363.5 86.3063 1348.04 89.3617 1333.96 96.217C1318.11 103.937 1304.97 116.014 1295.96 130.849Z" fill="#E3E798"/>
<path fill-rule="evenodd" clip-rule="evenodd" d="M1285.1 147.587C1293.22 124.034 1310.37 104.674 1332.77 93.7638C1355.17 82.8539 1380.98 81.2886 1404.53 89.4121C1428.08 97.5355 1447.45 114.682 1458.35 137.081L1453.45 139.469C1443.17 118.372 1424.94 102.221 1402.75 94.5688C1380.57 86.9171 1356.25 88.3916 1335.16 98.6679C1314.06 108.944 1297.91 127.181 1290.26 149.365C1282.6 171.55 1284.08 195.866 1294.35 216.963L1289.45 219.352C1278.54 196.954 1276.97 171.139 1285.1 147.587Z" fill="#F3F4CB"/>
<path fill-rule="evenodd" clip-rule="evenodd" d="M209.475 208.114C208.457 206.902 208.615 205.094 209.827 204.077L236.623 181.586C237.836 180.568 239.643 180.726 240.661 181.939C241.678 183.151 241.521 184.959 240.308 185.976L213.512 208.467C212.3 209.485 210.492 209.327 209.475 208.114Z" fill="#323138"/>
<path d="M484.695 101.024L368.987 120.037C354.379 122.438 340.873 129.304 330.326 139.692L276.572 192.637C262.907 206.097 240.909 205.903 227.483 192.203C213.085 177.51 214.574 153.583 230.684 140.789L281.999 100.037C305.863 81.0854 336.291 72.4152 366.56 75.9419L484.429 89.675C491.029 90.444 491.252 99.9471 484.695 101.024Z" fill="url(#paint19_linear_95:2)"/>
<path fill-rule="evenodd" clip-rule="evenodd" d="M320.791 919.48C322.087 918.572 322.403 916.785 321.495 915.488L301.433 886.829C300.526 885.532 298.739 885.217 297.442 886.124C296.145 887.032 295.83 888.819 296.738 890.116L316.799 918.775C317.707 920.072 319.494 920.387 320.791 919.48Z" fill="#323138"/>
<path d="M82.6651 744.806L189.51 793.119C202.999 799.218 214.267 809.346 221.766 822.11L259.985 887.164C269.701 903.702 291 909.207 307.513 899.449C325.225 888.984 329.979 865.487 317.729 848.959L278.71 796.314C260.564 771.832 233.417 755.582 203.267 751.154L85.8596 733.912C79.2852 732.947 76.6104 742.068 82.6651 744.806Z" fill="url(#paint20_linear_95:2)"/>
<path fill-rule="evenodd" clip-rule="evenodd" d="M115.334 135.174C113.755 135.287 112.567 136.659 112.681 138.238L115.187 173.132C115.3 174.71 116.672 175.898 118.251 175.785C119.83 175.671 121.017 174.3 120.904 172.721L118.398 137.827C118.285 136.249 116.913 135.061 115.334 135.174Z" fill="#323138"/>
<path d="M230.035 407.312L163.139 311.007C154.694 298.848 150.222 284.372 150.338 269.569L150.93 194.121C151.081 174.941 135.628 159.283 116.448 159.181C95.8756 159.072 79.7345 176.797 81.7638 197.269L88.2276 262.478C91.2336 292.803 106.19 320.683 129.792 339.959L221.702 415.022C226.849 419.225 233.826 412.77 230.035 407.312Z" fill="url(#paint21_linear_95:2)"/>
<path d="M99.9989 500.731L173.293 460.063C187.795 452.016 206.076 457.264 214.102 471.778L242.173 522.543L250.618 534.82C273.293 567.784 257.102 613.277 218.699 624.503C206.031 628.207 192.351 625.394 182.171 616.993L178.084 613.62L174.607 614.305C161.434 616.9 147.838 612.714 138.407 603.158L132.729 597.405L119.683 599.221C108.556 600.771 97.2455 597.17 89.005 589.533C61.4126 563.963 66.8592 518.533 99.9989 500.731Z" fill="url(#paint22_linear_95:2)"/>
<path fill-rule="evenodd" clip-rule="evenodd" d="M214.293 471.863L213.919 471.186C213.539 470.499 213.135 469.832 212.71 469.186C211.667 474.658 211.526 480.271 212.3 485.804L221.778 553.538C223.967 569.185 218.478 584.927 207.034 595.82L183.874 617.865C184.426 618.268 184.986 618.655 185.555 619.026L208.413 597.269C220.324 585.931 226.037 569.546 223.758 553.261L214.281 485.527C213.645 480.984 213.652 476.385 214.293 471.863ZM204.964 625.441C204.074 625.388 203.186 625.305 202.303 625.192L227.857 601.29C242.12 587.95 247.099 567.414 240.531 549.023L220.044 491.662C218.35 486.918 217.377 481.976 217.134 477.001L219.558 481.384C220.019 484.641 220.81 487.86 221.928 490.99L242.414 548.351C249.251 567.492 244.068 588.866 229.224 602.751L204.964 625.441ZM175.191 613.562L193.567 589.696C200.158 581.136 203.86 570.705 204.14 559.905L205.94 490.541C206.021 487.423 206.4 484.32 207.07 481.274L210.406 466.127C209.875 465.509 209.322 464.917 208.749 464.351L205.117 480.844C204.419 484.014 204.025 487.244 203.941 490.489L202.141 559.854C201.872 570.229 198.315 580.252 191.982 588.476L172.271 614.077C172.989 613.976 173.707 613.854 174.424 613.713L175.191 613.562ZM162.816 614.28L205.628 461.666C205.061 461.243 204.481 460.842 203.888 460.462L160.808 614.033C161.474 614.132 162.144 614.214 162.816 614.28ZM143.301 606.916L187.386 455.699C186.683 455.705 185.979 455.736 185.275 455.792L141.597 605.616C142.154 606.066 142.723 606.499 143.301 606.916ZM131.913 596.902L129.431 571.91C128.405 561.582 130.686 551.194 135.944 542.245L171.095 482.419C172.739 479.621 174.113 476.671 175.197 473.611L181.301 456.378C180.518 456.549 179.738 456.751 178.964 456.987L173.312 472.944C172.27 475.883 170.951 478.717 169.371 481.406L134.219 541.232C128.747 550.546 126.373 561.358 127.441 572.108L129.93 597.178L131.913 596.902ZM120.102 598.546L112.772 570.184C108.819 554.888 112.485 538.624 122.617 526.501L166.477 474.023C170.378 469.356 173.409 464.033 175.431 458.31C174.648 458.66 173.874 459.047 173.11 459.471L172.786 459.651C170.875 464.389 168.23 468.807 164.943 472.74L121.082 525.218C110.536 537.836 106.722 554.764 110.836 570.685L118.101 598.798C118.567 598.751 119.034 598.695 119.5 598.63L120.102 598.546ZM100.954 596.488L92.2059 563.816C87.1547 544.952 93.7873 524.889 109.087 512.753L156.807 474.9C161.33 471.312 165.184 467.004 168.233 462.177L164.302 464.358C161.799 467.693 158.867 470.713 155.564 473.333L107.844 511.186C91.9199 523.818 85.0166 544.699 90.274 564.333L98.62 595.502C99.3874 595.857 100.166 596.186 100.954 596.488Z" fill="#F1B6E4"/>
<path d="M603.243 159.572L614.129 94.2579C616.283 81.3344 628.515 72.6108 641.435 74.7834L686.626 82.3825L698.369 83.1962C729.899 85.3811 750.07 117.758 738.132 147.023C734.194 156.677 725.73 163.753 715.531 165.917L711.435 166.787L710.15 169.273C705.278 178.694 696.006 185.043 685.461 186.177L679.112 186.86L673.821 195.82C669.309 203.462 661.522 208.685 652.749 210.026C623.373 214.517 597.959 188.815 603.243 159.572Z" fill="url(#paint23_linear_95:2)"/>
<path fill-rule="evenodd" clip-rule="evenodd" d="M641.582 74.7075L640.98 74.6062C640.368 74.5033 639.757 74.4248 639.149 74.3701C642.02 77.705 645.422 80.5522 649.223 82.7935L695.765 110.232C706.517 116.571 713.552 127.704 714.662 140.135L716.908 165.294C717.428 165.151 717.943 164.994 718.452 164.825L716.236 139.995C715.081 127.056 707.758 115.468 696.568 108.871L650.026 81.4325C646.904 79.5923 644.064 77.327 641.582 74.7075ZM731.96 155.977C731.49 156.502 731.002 157.01 730.498 157.501L728.281 129.949C727.044 114.571 716.794 101.397 702.193 96.4169L656.653 80.885C652.886 79.6002 649.353 77.7722 646.156 75.4766L650.058 76.1327C652.299 77.4487 654.678 78.5422 657.163 79.3896L702.703 94.9216C717.9 100.105 728.569 113.817 729.856 129.822L731.96 155.977ZM709.978 168.547L704.255 145.452C702.202 137.169 697.572 129.751 691.032 124.268L649.026 89.0546C647.138 87.4718 645.405 85.7124 643.851 83.8003L636.125 74.2914C635.482 74.3158 634.844 74.3665 634.212 74.4424L642.625 84.7966C644.242 86.7867 646.046 88.618 648.011 90.2654L690.017 125.479C696.3 130.747 700.749 137.873 702.721 145.832L708.861 170.606C709.151 170.112 709.429 169.609 709.695 169.096L709.978 168.547ZM704.338 176.553L631.018 75.0527C630.477 75.1952 629.944 75.3565 629.418 75.536L703.198 177.673C703.587 177.309 703.967 176.936 704.338 176.553ZM690.191 184.999L618.36 83.3992C618.018 83.8365 617.691 84.2868 617.379 84.7494L688.549 185.414C689.101 185.29 689.649 185.152 690.191 184.999ZM678.4 187.118L661.727 176.366C654.836 171.923 649.534 165.406 646.585 157.755L626.873 106.608C625.951 104.216 624.803 101.916 623.443 99.7419L615.788 87.4955C615.509 88.0633 615.251 88.6451 615.016 89.2399L622.104 100.579C623.41 102.669 624.513 104.878 625.399 107.177L645.111 158.323C648.18 166.286 653.698 173.069 660.87 177.694L677.596 188.479L678.4 187.118ZM673.61 195.23L652.47 185.818C641.068 180.743 632.813 170.481 630.298 158.256L619.411 105.336C618.443 100.63 616.642 96.1391 614.097 92.0744C613.929 92.7308 613.788 93.4 613.674 94.0807L613.626 94.3693C615.616 97.8806 617.048 101.688 617.864 105.654L628.751 158.574C631.368 171.298 639.96 181.979 651.827 187.262L672.782 196.59C672.982 196.279 673.177 195.963 673.366 195.643L673.61 195.23ZM662.924 206.057L638.421 195.405C624.273 189.254 615.128 175.29 615.146 159.863L615.2 111.747C615.205 107.186 614.436 102.685 612.95 98.4269L612.366 101.93C613.197 105.117 613.623 108.415 613.62 111.745L613.566 159.861C613.548 175.918 623.066 190.452 637.791 196.854L661.167 207.016C661.764 206.716 662.35 206.396 662.924 206.057Z" fill="#F1B6E4"/>
</g>
<defs>
<radialGradient id="paint0_radial_95:2" cx="0" cy="0" r="1" gradientUnits="userSpaceOnUse" gradientTransform="translate(951.464 622.596) rotate(93.561) scale(539.865 865.619)">
<stop stop-color="#E8EDF3"/>
<stop offset="1" stop-color="white"/>
</radialGradient>
<radialGradient id="paint1_radial_95:2" cx="0" cy="0" r="1" gradientUnits="userSpaceOnUse" gradientTransform="translate(936.447 614.944) rotate(93.4044) scale(783.684 1324)">
<stop stop-color="#DFE7F3"/>
<stop offset="1" stop-color="#F8F9FA"/>
</radialGradient>
<linearGradient id="paint2_linear_95:2" x1="1708" y1="585" x2="1712.3" y2="198.438" gradientUnits="userSpaceOnUse">
<stop stop-color="#64B581"/>
<stop offset="1" stop-color="#8DE691"/>
</linearGradient>
<radialGradient id="paint3_radial_95:2" cx="0" cy="0" r="1" gradientUnits="userSpaceOnUse" gradientTransform="translate(510.571 502.625) rotate(87.4324) scale(311.168)">
<stop stop-color="#B4B8BB"/>
<stop offset="0.366165" stop-color="#E0E4E7"/>
<stop offset="0.979813" stop-color="#ECEEEF"/>
</radialGradient>
<radialGradient id="paint4_radial_95:2" cx="0" cy="0" r="1" gradientUnits="userSpaceOnUse" gradientTransform="translate(524.795 481.49) rotate(96.2869) scale(203.457)">
<stop stop-color="#AE5B41"/>
<stop offset="0.395704" stop-color="#8F5D3A"/>
<stop offset="1" stop-color="#713F24"/>
</radialGradient>
<linearGradient id="paint5_linear_95:2" x1="1749.6" y1="754.356" x2="1758.67" y2="726.996" gradientUnits="userSpaceOnUse">
<stop offset="0.186406" stop-color="#F5DFC7"/>
<stop offset="0.93046" stop-color="#EEC8A1"/>
</linearGradient>
<linearGradient id="paint6_linear_95:2" x1="648.5" y1="315.5" x2="1373.44" y2="636.635" gradientUnits="userSpaceOnUse">
<stop stop-color="#ECC084"/>
<stop offset="1" stop-color="#9B5929"/>
</linearGradient>
<linearGradient id="paint7_linear_95:2" x1="1700.6" y1="836.355" x2="1709.67" y2="808.995" gradientUnits="userSpaceOnUse">
<stop offset="0.186406" stop-color="#F5DFC7"/>
<stop offset="0.93046" stop-color="#EEC8A1"/>
</linearGradient>
<linearGradient id="paint8_linear_95:2" x1="619" y1="433.499" x2="1410.81" y2="649.019" gradientUnits="userSpaceOnUse">
<stop stop-color="#ECC084"/>
<stop offset="0.509125" stop-color="#CC9763"/>
<stop offset="1" stop-color="#9B5929"/>
</linearGradient>
<linearGradient id="paint9_linear_95:2" x1="1632.6" y1="987.356" x2="1641.67" y2="959.996" gradientUnits="userSpaceOnUse">
<stop offset="0.186406" stop-color="#F5DFC7"/>
<stop offset="0.93046" stop-color="#EEC8A1"/>
</linearGradient>
<linearGradient id="paint10_linear_95:2" x1="307" y1="577" x2="1339.49" y2="824.799" gradientUnits="userSpaceOnUse">
<stop stop-color="#ECC084"/>
<stop offset="0.509125" stop-color="#CC9763"/>
<stop offset="1" stop-color="#9B5929"/>
</linearGradient>
<linearGradient id="paint11_linear_95:2" x1="1652.57" y1="880.257" x2="1642.86" y2="907.396" gradientUnits="userSpaceOnUse">
<stop offset="0.186406" stop-color="#F5DFC7"/>
<stop offset="0.93046" stop-color="#EEC8A1"/>
</linearGradient>
<linearGradient id="paint12_linear_95:2" x1="863" y1="611" x2="1426.94" y2="692.941" gradientUnits="userSpaceOnUse">
<stop stop-color="#ECC084"/>
<stop offset="1" stop-color="#9B5929"/>
</linearGradient>
<linearGradient id="paint13_linear_95:2" x1="626.66" y1="703.945" x2="664.63" y2="783.65" gradientUnits="userSpaceOnUse">
<stop stop-color="#E23B45"/>
<stop offset="1" stop-color="#F4616A"/>
</linearGradient>
<linearGradient id="paint14_linear_95:2" x1="668.115" y1="745.91" x2="702.489" y2="818.064" gradientUnits="userSpaceOnUse">
<stop stop-color="#E23B45"/>
<stop offset="1" stop-color="#F4616A"/>
</linearGradient>
<linearGradient id="paint15_linear_95:2" x1="733.269" y1="706.771" x2="707.125" y2="787.199" gradientUnits="userSpaceOnUse">
<stop stop-color="#E23B45"/>
<stop offset="1" stop-color="#F4616A"/>
</linearGradient>
<linearGradient id="paint16_linear_95:2" x1="768.021" y1="764.097" x2="741.877" y2="844.525" gradientUnits="userSpaceOnUse">
<stop stop-color="#E23B45"/>
<stop offset="1" stop-color="#F4616A"/>
</linearGradient>
<linearGradient id="paint17_linear_95:2" x1="1618.67" y1="135.042" x2="1657.04" y2="213.566" gradientUnits="userSpaceOnUse">
<stop stop-color="#C4CC57"/>
<stop offset="1" stop-color="#DBE272"/>
</linearGradient>
<linearGradient id="paint18_linear_95:2" x1="1522.9" y1="228.188" x2="1561.27" y2="306.712" gradientUnits="userSpaceOnUse">
<stop stop-color="#C4CC57"/>
<stop offset="1" stop-color="#DBE272"/>
</linearGradient>
<linearGradient id="paint19_linear_95:2" x1="296.408" y1="128.097" x2="280.194" y2="242.007" gradientUnits="userSpaceOnUse">
<stop stop-color="#D55561"/>
<stop offset="1" stop-color="#EB8B75"/>
</linearGradient>
<linearGradient id="paint20_linear_95:2" x1="257.529" y1="819.688" x2="243.709" y2="933.914" gradientUnits="userSpaceOnUse">
<stop stop-color="#D55561"/>
<stop offset="1" stop-color="#EB8B75"/>
</linearGradient>
<linearGradient id="paint21_linear_95:2" x1="118.402" y1="253.29" x2="188.895" y2="162.354" gradientUnits="userSpaceOnUse">
<stop stop-color="#D55561"/>
<stop offset="1" stop-color="#EB8B75"/>
</linearGradient>
<linearGradient id="paint22_linear_95:2" x1="172.528" y1="534.988" x2="131.028" y2="679.988" gradientUnits="userSpaceOnUse">
<stop stop-color="#FAEDFD"/>
<stop offset="1" stop-color="#D868B9"/>
</linearGradient>
<linearGradient id="paint23_linear_95:2" x1="660.082" y1="131.565" x2="729.34" y2="228.511" gradientUnits="userSpaceOnUse">
<stop stop-color="#FAEDFD"/>
<stop offset="1" stop-color="#D868B9"/>
</linearGradient>
<clipPath id="clip0_95:2">
<rect width="1920" height="1080" fill="white"/>
</clipPath>
</defs>
</svg>
