<svg width="1920" height="1080" viewBox="0 0 1920 1080" fill="none" xmlns="http://www.w3.org/2000/svg">
<g clip-path="url(#clip0_56:267)">
<rect width="1920" height="1080" fill="#EEEEEE"/>
<path d="M1920 816L0.5 130.5L0 1080H1920V816Z" fill="#8FB4E5"/>
<path fill-rule="evenodd" clip-rule="evenodd" d="M1920 1068.28L1706.83 990.773L1831.26 784.309L1828.38 783.28L1703.95 989.728L1428.76 889.675L1552.3 684.687L1549.42 683.657L1425.88 888.63L1176.12 797.822L1298.86 594.174L1295.97 593.145L1173.24 796.777L966.131 721.477L1088.2 518.943L1085.32 517.914L963.257 720.432L736.458 637.974L857.79 436.659L854.908 435.63L733.585 636.929L495.301 550.296L615.862 350.261L612.98 349.231L492.428 549.251L263.168 465.899L382.986 267.095L380.104 266.066L260.294 464.854L73.353 396.887L192.576 199.095L189.694 198.066L70.4798 395.843L0.373877 370.354L0.372196 373.545L68.9016 398.461L0.299144 512.273L0.296081 518.089L71.7748 399.505L258.716 467.472L126.814 686.324L0.231724 640.302L0.230044 643.494L125.236 688.943L0.0967734 896.574L0.0937103 902.391L128.109 689.987L357.37 773.34L225.468 992.192L0.0895713 910.251L0.0878906 913.442L223.89 994.81L172.546 1080H176.049L226.763 995.855L458.202 1080H470.049L601.399 862.062L828.199 944.521L746.546 1080H750.049L831.072 945.565L1038.19 1020.87L1002.55 1080H1006.05L1041.06 1021.91L1200.83 1080H1209.61L1042.64 1019.29L1174.54 800.44L1424.31 891.249L1310.55 1080H1314.05L1427.18 892.293L1702.37 992.347L1649.55 1080H1653.05L1705.25 993.391L1920 1071.47V1068.28ZM466.624 1079.87L228.341 993.237L360.243 774.385L598.526 861.018L466.624 1079.87ZM1039.76 1018.25L1171.67 799.396L964.552 724.095L832.65 942.947L1039.76 1018.25ZM829.777 941.902L961.679 723.05L734.88 640.592L602.978 859.444L829.777 941.902ZM600.104 858.4L732.006 639.548L493.723 552.914L361.821 771.766L600.104 858.4ZM358.948 770.722L490.85 551.87L261.589 468.517L129.687 687.369L358.948 770.722Z" fill="#B9CDF5"/>
<circle cx="877.58" cy="556.048" r="461.58" fill="url(#paint0_radial_56:267)"/>
<path d="M768.599 958.485C579.68 929.899 449.704 753.576 478.289 564.657C506.875 375.737 683.198 245.761 872.118 274.347C1061.04 302.933 1191.01 479.256 1162.43 668.175C1133.84 857.095 957.519 987.071 768.599 958.485Z" fill="url(#paint1_radial_56:267)"/>
<path fill-rule="evenodd" clip-rule="evenodd" d="M488.88 566.259C461.179 749.33 587.131 920.194 770.202 947.895C953.272 975.596 1124.14 849.644 1151.84 666.573C1179.54 483.502 1053.59 312.638 870.515 284.937C687.445 257.236 516.581 383.189 488.88 566.259ZM478.289 564.657C449.704 753.576 579.68 929.899 768.599 958.485C957.519 987.071 1133.84 857.095 1162.43 668.175C1191.01 479.256 1061.04 302.933 872.118 274.347C683.198 245.761 506.875 375.737 478.289 564.657Z" fill="url(#paint2_linear_56:267)"/>
<path opacity="0.7" fill-rule="evenodd" clip-rule="evenodd" d="M1057.72 755.244C1048.65 753.872 1042.45 745.173 1043.86 735.815C1045.28 726.457 1053.78 719.983 1062.84 721.354C1071.91 722.726 1078.11 731.425 1076.69 740.783C1075.28 750.141 1066.78 756.615 1057.72 755.244ZM967.209 544.391C958.143 543.019 951.942 534.321 953.358 524.963C954.774 515.604 963.271 509.13 972.337 510.502C981.403 511.874 987.604 520.572 986.188 529.93C984.772 539.288 976.275 545.763 967.209 544.391ZM662.068 853.537C660.652 862.895 666.853 871.593 675.919 872.965C684.985 874.337 693.482 867.863 694.898 858.504C696.314 849.146 690.113 840.448 681.047 839.076C671.981 837.704 663.484 844.179 662.068 853.537ZM970.164 882.823C961.098 881.452 954.897 872.753 956.313 863.395C957.729 854.037 966.226 847.562 975.292 848.934C984.358 850.306 990.559 859.004 989.143 868.362C987.727 877.721 979.23 884.195 970.164 882.823ZM790.133 315.023C788.717 324.381 794.919 333.08 803.984 334.452C813.05 335.823 821.547 329.349 822.963 319.991C824.379 310.633 818.178 301.934 809.112 300.562C800.046 299.191 791.549 305.665 790.133 315.023ZM552.512 464.31C548.126 463.646 545.143 459.315 545.851 454.636C546.56 449.956 550.69 446.701 555.076 447.365C559.463 448.029 562.445 452.36 561.737 457.039C561.029 461.718 556.899 464.974 552.512 464.31ZM541.672 739.99C540.964 744.67 543.946 749.001 548.333 749.665C552.72 750.328 556.85 747.073 557.558 742.394C558.266 737.715 555.284 733.384 550.897 732.72C546.51 732.056 542.38 735.311 541.672 739.99Z" fill="url(#paint3_linear_56:267)"/>
<path d="M920.412 862.835C731.493 834.249 601.517 657.926 630.102 469.006C658.688 280.087 835.011 150.11 1023.93 178.696C1212.85 207.282 1342.83 383.605 1314.24 572.525C1285.65 761.444 1109.33 891.42 920.412 862.835Z" fill="url(#paint4_radial_56:267)"/>
<path fill-rule="evenodd" clip-rule="evenodd" d="M640.693 470.609C612.992 653.679 738.944 824.543 922.015 852.244C1105.09 879.945 1275.95 753.993 1303.65 570.922C1331.35 387.852 1205.4 216.988 1022.33 189.287C839.258 161.586 668.394 287.538 640.693 470.609ZM630.102 469.006C601.517 657.926 731.493 834.249 920.412 862.835C1109.33 891.42 1285.65 761.444 1314.24 572.525C1342.83 383.605 1212.85 207.282 1023.93 178.696C835.011 150.11 658.688 280.087 630.102 469.006Z" fill="url(#paint5_linear_56:267)"/>
<path opacity="0.7" fill-rule="evenodd" clip-rule="evenodd" d="M1209.53 659.593C1200.46 658.221 1194.26 649.523 1195.68 640.165C1197.09 630.806 1205.59 624.332 1214.66 625.704C1223.72 627.076 1229.92 635.774 1228.51 645.132C1227.09 654.49 1218.59 660.965 1209.53 659.593ZM1119.02 448.74C1109.96 447.369 1103.75 438.67 1105.17 429.312C1106.59 419.954 1115.08 413.479 1124.15 414.851C1133.22 416.223 1139.42 424.921 1138 434.28C1136.58 443.638 1128.09 450.112 1119.02 448.74ZM813.881 757.886C812.465 767.244 818.666 775.943 827.732 777.315C836.798 778.686 845.295 772.212 846.711 762.854C848.127 753.496 841.926 744.797 832.86 743.425C823.794 742.054 815.297 748.528 813.881 757.886ZM1121.98 787.173C1112.91 785.801 1106.71 777.103 1108.13 767.744C1109.54 758.386 1118.04 751.912 1127.11 753.283C1136.17 754.655 1142.37 763.354 1140.96 772.712C1139.54 782.07 1131.04 788.544 1121.98 787.173ZM941.946 219.373C940.53 228.731 946.732 237.429 955.797 238.801C964.863 240.173 973.36 233.698 974.776 224.34C976.192 214.982 969.991 206.283 960.925 204.912C951.859 203.54 943.362 210.014 941.946 219.373ZM704.325 368.659C699.938 367.995 696.956 363.664 697.664 358.985C698.372 354.306 702.502 351.051 706.889 351.714C711.276 352.378 714.258 356.71 713.55 361.389C712.842 366.068 708.712 369.323 704.325 368.659ZM693.485 644.34C692.777 649.019 695.759 653.35 700.146 654.014C704.532 654.678 708.662 651.423 709.37 646.743C710.078 642.064 707.096 637.733 702.71 637.069C698.323 636.406 694.193 639.661 693.485 644.34Z" fill="url(#paint6_linear_56:267)"/>
<path d="M777.375 797.898C588.456 769.312 458.48 592.989 487.065 404.069C515.651 215.15 691.974 85.1734 880.894 113.759C1069.81 142.345 1199.79 318.668 1171.2 507.588C1142.62 696.507 966.295 826.483 777.375 797.898Z" fill="url(#paint7_radial_56:267)"/>
<path fill-rule="evenodd" clip-rule="evenodd" d="M497.656 405.672C469.955 588.742 595.907 759.606 778.978 787.307C962.048 815.008 1132.91 689.056 1160.61 505.985C1188.31 322.915 1062.36 152.051 879.291 124.35C696.221 96.6488 525.357 222.601 497.656 405.672ZM487.065 404.069C458.48 592.989 588.456 769.312 777.375 797.898C966.295 826.483 1142.62 696.507 1171.2 507.588C1199.79 318.668 1069.81 142.345 880.894 113.759C691.974 85.1734 515.651 215.15 487.065 404.069Z" fill="url(#paint8_linear_56:267)"/>
<path opacity="0.7" fill-rule="evenodd" clip-rule="evenodd" d="M1066.49 594.656C1057.43 593.284 1051.22 584.586 1052.64 575.228C1054.06 565.869 1062.55 559.395 1071.62 560.767C1080.69 562.139 1086.89 570.837 1085.47 580.195C1084.05 589.553 1075.56 596.028 1066.49 594.656ZM975.985 383.803C966.919 382.432 960.718 373.733 962.134 364.375C963.55 355.017 972.047 348.542 981.113 349.914C990.178 351.286 996.38 359.984 994.964 369.343C993.548 378.701 985.051 385.175 975.985 383.803ZM670.844 692.949C669.428 702.307 675.629 711.006 684.695 712.378C693.761 713.749 702.258 707.275 703.674 697.917C705.09 688.559 698.889 679.86 689.823 678.488C680.757 677.117 672.26 683.591 670.844 692.949ZM978.94 722.236C969.874 720.864 963.673 712.165 965.089 702.807C966.505 693.449 975.002 686.975 984.068 688.346C993.134 689.718 999.335 698.417 997.919 707.775C996.503 717.133 988.006 723.607 978.94 722.236ZM798.909 154.435C797.493 163.794 803.694 172.492 812.76 173.864C821.826 175.236 830.323 168.761 831.739 159.403C833.155 150.045 826.954 141.346 817.888 139.975C808.822 138.603 800.325 145.077 798.909 154.435ZM561.288 303.722C556.901 303.058 553.919 298.727 554.627 294.048C555.335 289.369 559.465 286.114 563.852 286.777C568.239 287.441 571.221 291.773 570.513 296.452C569.805 301.131 565.675 304.386 561.288 303.722ZM550.448 579.403C549.74 584.082 552.722 588.413 557.109 589.077C561.495 589.741 565.625 586.486 566.333 581.806C567.042 577.127 564.059 572.796 559.673 572.132C555.286 571.469 551.156 574.724 550.448 579.403Z" fill="url(#paint9_linear_56:267)"/>
<path opacity="0.6" fill-rule="evenodd" clip-rule="evenodd" d="M559.333 377.183C559.333 334.451 595.707 299.81 640.576 299.81H1038.56C1083.43 299.81 1119.8 334.451 1119.8 377.183C1119.8 410.211 1098.07 438.405 1067.49 449.508C1079.01 460.216 1086.16 475.167 1086.16 491.709C1086.16 511.537 1075.88 529.079 1060.13 539.769H1083.65C1107.97 539.769 1134.7 558.539 1134.7 581.694C1134.7 604.848 1107.97 623.618 1083.65 623.618H636.282C611.969 623.618 592.26 604.848 592.26 581.694C592.26 569.401 597.815 558.345 606.664 550.676H576.2C542.004 550.676 514.283 524.276 514.283 491.709C514.283 460.253 551.553 434.55 584.132 432.833C568.842 418.764 559.333 399.031 559.333 377.183Z" fill="#F19E5A"/>
<path d="M733.241 458.823L733.241 434.511L856.083 403.405L926.033 463.237L925.122 490.1L802.28 545.518L733.241 458.823Z" fill="#EAB857"/>
<path d="M734.392 433.919L857.233 378.501L926.273 465.197L803.431 520.615L734.392 433.919Z" fill="#FAE8C5"/>
<path d="M1843 299C1843 437.071 1731.07 549 1593 549C1454.93 549 1343 437.071 1343 299C1343 160.929 1454.93 49 1593 49C1731.07 49 1843 160.929 1843 299Z" fill="url(#paint10_radial_56:267)"/>
<path fill-rule="evenodd" clip-rule="evenodd" d="M1593 543.898C1728.25 543.898 1837.9 434.253 1837.9 299C1837.9 163.747 1728.25 54.102 1593 54.102C1457.75 54.102 1348.1 163.747 1348.1 299C1348.1 434.253 1457.75 543.898 1593 543.898ZM1593 549C1731.07 549 1843 437.071 1843 299C1843 160.929 1731.07 49 1593 49C1454.93 49 1343 160.929 1343 299C1343 437.071 1454.93 549 1593 549Z" fill="white"/>
<path d="M1600.92 363.172C1601.65 376.796 1586.85 385.691 1575.16 378.653L1487.72 325.987C1460.26 309.451 1460.28 269.635 1487.75 253.124L1531.09 227.079C1558.56 210.568 1593.73 229.236 1595.45 261.241L1600.92 363.172Z" fill="url(#paint11_linear_56:267)"/>
<path fill-rule="evenodd" clip-rule="evenodd" d="M1558.01 254.74L1568.01 269.395L1572.93 266.04L1562.93 251.385L1558.01 254.74ZM1529.26 270.584L1539.26 285.239L1544.17 281.885L1534.18 267.23L1529.26 270.584ZM1500.51 286.429L1510.51 301.084L1515.42 297.729L1505.43 283.074L1500.51 286.429ZM1541.81 323.504L1531.81 308.85L1536.73 305.495L1546.73 320.15L1541.81 323.504ZM1557.96 293.718L1568.3 306.727L1572.96 303.024L1562.62 290.015L1557.96 293.718ZM1573.4 339.04L1563.06 326.031L1567.72 322.328L1578.06 335.337L1573.4 339.04Z" fill="#E5818A"/>
<path d="M1572.09 397.274C1580.35 408.132 1573.11 423.807 1559.48 424.552L1457.56 430.121C1425.55 431.87 1403.2 398.924 1416.64 369.83L1437.85 323.935C1451.3 294.841 1490.88 290.522 1510.29 316.031L1572.09 397.274Z" fill="url(#paint12_linear_56:267)"/>
<path fill-rule="evenodd" clip-rule="evenodd" d="M1475.67 331.688L1492.17 338.193L1494.36 332.655L1477.85 326.15L1475.67 331.688ZM1460.79 360.95L1477.29 367.455L1479.48 361.917L1462.97 355.412L1460.79 360.95ZM1445.91 390.212L1462.41 396.717L1464.6 391.179L1448.09 384.674L1445.91 390.212ZM1500.91 397.675L1484.4 391.17L1486.58 385.632L1503.09 392.137L1500.91 397.675ZM1497.53 363.959L1513.39 368.912L1515.16 363.23L1499.3 358.277L1497.53 363.959ZM1535.77 392.775L1519.91 387.822L1521.68 382.14L1537.54 387.093L1535.77 392.775Z" fill="#E5818A"/>
<path d="M1611.71 382.468C1604.98 394.34 1614.28 408.896 1627.88 407.798L1729.62 399.577C1761.57 396.996 1779.28 361.337 1762.03 334.321L1734.83 291.705C1717.58 264.688 1677.78 265.744 1661.99 293.636L1611.71 382.468Z" fill="url(#paint13_linear_56:267)"/>
<path fill-rule="evenodd" clip-rule="evenodd" d="M1698.41 304.484L1682.93 313.154L1680.02 307.961L1695.5 299.291L1698.41 304.484ZM1717.1 331.473L1701.62 340.143L1698.71 334.95L1714.19 326.28L1717.1 331.473ZM1735.78 358.462L1720.31 367.132L1717.4 361.939L1732.87 353.269L1735.78 358.462ZM1682.29 373.27L1697.77 364.6L1694.86 359.407L1679.39 368.077L1682.29 373.27ZM1681.1 339.407L1666.05 346.453L1663.52 341.062L1678.57 334.016L1681.1 339.407ZM1647.09 373.114L1662.14 366.068L1659.62 360.677L1644.57 367.723L1647.09 373.114Z" fill="#E5818A"/>
<path d="M1609.09 237.39C1602.37 249.263 1611.67 263.819 1625.26 262.72L1727.01 254.5C1758.96 251.918 1776.67 216.26 1759.42 189.243L1732.22 146.627C1714.97 119.611 1675.17 120.666 1659.38 148.559L1609.09 237.39Z" fill="url(#paint14_linear_56:267)"/>
<path fill-rule="evenodd" clip-rule="evenodd" d="M1695.8 159.406L1680.32 168.076L1677.41 162.883L1692.89 154.213L1695.8 159.406ZM1714.48 186.395L1699.01 195.066L1696.1 189.872L1711.57 181.202L1714.48 186.395ZM1733.17 213.384L1717.7 222.055L1714.79 216.861L1730.26 208.191L1733.17 213.384ZM1679.68 228.192L1695.16 219.522L1692.25 214.329L1676.77 222.999L1679.68 228.192ZM1678.48 194.329L1663.44 201.375L1660.91 195.984L1675.96 188.939L1678.48 194.329ZM1644.48 228.036L1659.53 220.99L1657 215.599L1641.96 222.645L1644.48 228.036Z" fill="#E5818A"/>
<circle cx="1586.2" cy="202.061" r="41.6667" fill="url(#paint15_linear_56:267)"/>
<circle cx="1428.03" cy="230.122" r="41.6667" fill="url(#paint16_linear_56:267)"/>
<circle cx="1702.69" cy="267.537" r="41.6667" fill="url(#paint17_linear_56:267)"/>
<circle cx="1620.21" cy="441.007" r="41.6667" fill="url(#paint18_linear_56:267)"/>
<path d="M1573.03 904.229L1686.88 1081.87L1739.88 1081.87L1600.9 885.561C1597.33 880.513 1596.29 874.095 1598.09 868.179L1605.44 844.026C1610.65 826.942 1607.97 808.428 1598.14 793.519L1581.88 768.868L1442.39 590.723C1440.32 588.072 1436.55 587.474 1433.75 589.351C1430.79 591.341 1430.02 595.364 1432.03 598.31L1557.1 781.115C1559.39 784.459 1558.28 789.047 1554.72 790.976C1551.68 792.625 1547.88 791.735 1545.88 788.904L1419 608.79C1417.02 605.974 1413.15 605.259 1410.29 607.179C1407.41 609.113 1406.62 613 1408.52 615.903L1530.36 802.389C1532.26 805.3 1531.47 809.198 1528.58 811.136C1525.73 813.054 1521.86 812.35 1519.87 809.549L1391.65 629.572C1389.54 626.616 1385.3 626.239 1382.7 628.777C1380.68 630.758 1380.34 633.897 1381.91 636.26L1503.81 820.68C1505.74 823.597 1504.96 827.522 1502.05 829.472C1499.21 831.381 1495.37 830.699 1493.36 827.93L1361.65 646.644C1360.55 645.13 1358.68 644.386 1356.84 644.733C1353.58 645.347 1351.89 648.976 1353.52 651.861L1465.35 850.506L1480.01 870.996C1491.79 887.452 1511.06 896.865 1531.28 896.032L1555.37 895.039C1562.47 894.746 1569.19 898.245 1573.03 904.229Z" fill="url(#paint19_linear_56:267)"/>
<path d="M1885.88 1080.87H1833.88L1559.03 639.223C1557.06 636.062 1558.19 631.895 1561.49 630.168C1564.08 628.814 1567.25 629.379 1569.21 631.542L1864.41 957.576C1877.28 971.797 1871.64 994.534 1853.6 1001.08L1829.38 1009.87L1885.88 1080.87Z" fill="url(#paint20_linear_56:267)"/>
<path d="M113.175 940.731C106.454 952.603 115.746 967.159 129.344 966.06L231.09 957.84C263.038 955.259 280.75 919.6 263.504 892.584L236.299 849.967C219.053 822.951 179.252 824.007 163.462 851.899L113.175 940.731Z" fill="url(#paint21_linear_56:267)"/>
<path fill-rule="evenodd" clip-rule="evenodd" d="M199.875 862.747L184.398 871.417L181.489 866.224L196.966 857.553L199.875 862.747ZM218.564 889.736L203.087 898.406L200.178 893.213L215.655 884.543L218.564 889.736ZM237.253 916.725L221.775 925.395L218.866 920.202L234.344 911.532L237.253 916.725ZM183.764 931.532L199.241 922.862L196.332 917.669L180.855 926.339L183.764 931.532ZM182.565 897.67L167.516 904.715L164.992 899.325L180.041 892.279L182.565 897.67ZM148.559 931.376L163.608 924.331L161.084 918.94L146.035 925.986L148.559 931.376Z" fill="#E5818A"/>
<path d="M220.308 764.133C231.616 771.766 229.786 788.937 217.124 794.015L122.38 832.007C92.6309 843.937 60.8814 819.911 64.2776 788.04L69.635 737.765C73.0313 705.894 109.131 689.098 135.698 707.029L220.308 764.133Z" fill="url(#paint22_linear_56:267)"/>
<path fill-rule="evenodd" clip-rule="evenodd" d="M107.937 732.97L125.656 733.832L125.946 727.887L108.226 727.024L107.937 732.97ZM103.237 765.459L120.956 766.322L121.246 760.376L103.526 759.514L103.237 765.459ZM98.5374 797.949L116.257 798.812L116.546 792.866L98.8267 792.004L98.5374 797.949ZM153.019 787.363L135.3 786.501L135.589 780.555L153.308 781.418L153.019 787.363ZM138.998 756.516L155.61 756.115L155.467 750.165L138.855 750.565L138.998 756.516ZM184.463 771.532L167.851 771.932L167.708 765.982L184.32 765.581L184.463 771.532Z" fill="#E5818A"/>
<path d="M447 242.5C447 355.442 355.442 447 242.5 447C129.558 447 38 355.442 38 242.5C38 129.558 129.558 38 242.5 38C355.442 38 447 129.558 447 242.5Z" fill="url(#paint23_radial_56:267)"/>
<path fill-rule="evenodd" clip-rule="evenodd" d="M242.5 441.898C352.624 441.898 441.898 352.624 441.898 242.5C441.898 132.376 352.624 43.102 242.5 43.102C132.376 43.102 43.102 132.376 43.102 242.5C43.102 352.624 132.376 441.898 242.5 441.898ZM242.5 447C355.442 447 447 355.442 447 242.5C447 129.558 355.442 38 242.5 38C129.558 38 38 129.558 38 242.5C38 355.442 129.558 447 242.5 447Z" fill="white"/>
<rect x="227" y="363" width="26" height="64" fill="white"/>
<path d="M385 246C385 324.424 321.424 388 243 388C164.576 388 101 324.424 101 246C101 167.576 164.576 104 243 104C321.424 104 385 167.576 385 246Z" fill="url(#paint24_radial_56:267)"/>
<path fill-rule="evenodd" clip-rule="evenodd" d="M243 378C315.902 378 375 318.902 375 246C375 173.098 315.902 114 243 114C170.098 114 111 173.098 111 246C111 318.902 170.098 378 243 378ZM243 388C321.424 388 385 324.424 385 246C385 167.576 321.424 104 243 104C164.576 104 101 167.576 101 246C101 324.424 164.576 388 243 388Z" fill="white"/>
<circle cx="243" cy="246" r="119" fill="#704319"/>
<circle r="5.5" transform="matrix(-1 0 0 1 163.5 286.5)" fill="#B18964"/>
<circle r="3.5" transform="matrix(-1 0 0 1 286.5 156.5)" fill="#B18964"/>
<circle r="8.5" transform="matrix(-1 0 0 1 174.5 300.5)" fill="#B18964"/>
</g>
<defs>
<radialGradient id="paint0_radial_56:267" cx="0" cy="0" r="1" gradientUnits="userSpaceOnUse" gradientTransform="translate(877.58 556.048) rotate(90) scale(387.658)">
<stop stop-color="#D3DDEA"/>
<stop offset="1" stop-color="#F8F9FA"/>
</radialGradient>
<radialGradient id="paint1_radial_56:267" cx="0" cy="0" r="1" gradientUnits="userSpaceOnUse" gradientTransform="translate(793.353 612.33) rotate(-171.396) scale(347.569)">
<stop stop-color="#E57A22"/>
<stop offset="1" stop-color="#F6E5BB"/>
</radialGradient>
<linearGradient id="paint2_linear_56:267" x1="1195.76" y1="941.874" x2="310.547" y2="470.487" gradientUnits="userSpaceOnUse">
<stop stop-color="#A96637"/>
<stop offset="0.387519" stop-color="#EE9C56"/>
<stop offset="0.985021" stop-color="#F6E2B6"/>
</linearGradient>
<linearGradient id="paint3_linear_56:267" x1="592.617" y1="743.366" x2="957.293" y2="1028.74" gradientUnits="userSpaceOnUse">
<stop stop-color="#DB7E24"/>
<stop offset="1" stop-color="#DB7E24" stop-opacity="0"/>
</linearGradient>
<radialGradient id="paint4_radial_56:267" cx="0" cy="0" r="1" gradientUnits="userSpaceOnUse" gradientTransform="translate(945.166 516.679) rotate(-167.832) scale(398.145)">
<stop stop-color="#E57A22"/>
<stop offset="1" stop-color="#F6E5BB"/>
</radialGradient>
<linearGradient id="paint5_linear_56:267" x1="1347.57" y1="846.223" x2="462.36" y2="374.836" gradientUnits="userSpaceOnUse">
<stop stop-color="#A96637"/>
<stop offset="0.387519" stop-color="#EE9C56"/>
<stop offset="0.985021" stop-color="#F6E2B6"/>
</linearGradient>
<linearGradient id="paint6_linear_56:267" x1="744.43" y1="647.715" x2="1109.11" y2="933.093" gradientUnits="userSpaceOnUse">
<stop stop-color="#DB7E24"/>
<stop offset="1" stop-color="#DB7E24" stop-opacity="0"/>
</linearGradient>
<radialGradient id="paint7_radial_56:267" cx="0" cy="0" r="1" gradientUnits="userSpaceOnUse" gradientTransform="translate(802.129 451.742) rotate(-169.188) scale(323.423)">
<stop stop-color="#E57A22"/>
<stop offset="1" stop-color="#F6E5BB"/>
</radialGradient>
<linearGradient id="paint8_linear_56:267" x1="1204.54" y1="781.286" x2="319.323" y2="309.899" gradientUnits="userSpaceOnUse">
<stop stop-color="#A96637"/>
<stop offset="0.387519" stop-color="#EE9C56"/>
<stop offset="0.985021" stop-color="#F6E2B6"/>
</linearGradient>
<linearGradient id="paint9_linear_56:267" x1="601.393" y1="582.778" x2="966.069" y2="868.156" gradientUnits="userSpaceOnUse">
<stop stop-color="#DB7E24"/>
<stop offset="1" stop-color="#DB7E24" stop-opacity="0"/>
</linearGradient>
<radialGradient id="paint10_radial_56:267" cx="0" cy="0" r="1" gradientUnits="userSpaceOnUse" gradientTransform="translate(1593 326.636) rotate(90) scale(240.221)">
<stop stop-color="#D3DDEA"/>
<stop offset="1" stop-color="#F8F9FA"/>
</radialGradient>
<linearGradient id="paint11_linear_56:267" x1="1570.47" y1="275.285" x2="1528.37" y2="358.618" gradientUnits="userSpaceOnUse">
<stop stop-color="#D55561"/>
<stop offset="1" stop-color="#B81C49"/>
</linearGradient>
<linearGradient id="paint12_linear_56:267" x1="1497.52" y1="341.684" x2="1509.52" y2="434.269" gradientUnits="userSpaceOnUse">
<stop stop-color="#D55561"/>
<stop offset="1" stop-color="#B81C49"/>
</linearGradient>
<linearGradient id="paint13_linear_56:267" x1="1678.11" y1="317.333" x2="1678.69" y2="410.692" gradientUnits="userSpaceOnUse">
<stop stop-color="#D55561"/>
<stop offset="1" stop-color="#B81C49"/>
</linearGradient>
<linearGradient id="paint14_linear_56:267" x1="1675.49" y1="172.256" x2="1676.08" y2="265.614" gradientUnits="userSpaceOnUse">
<stop stop-color="#D55561"/>
<stop offset="1" stop-color="#B81C49"/>
</linearGradient>
<linearGradient id="paint15_linear_56:267" x1="1567.92" y1="178.582" x2="1595.55" y2="234.279" gradientUnits="userSpaceOnUse">
<stop stop-color="#757DC6"/>
<stop offset="1" stop-color="#2C3AB3"/>
</linearGradient>
<linearGradient id="paint16_linear_56:267" x1="1409.75" y1="206.643" x2="1437.39" y2="262.341" gradientUnits="userSpaceOnUse">
<stop stop-color="#757DC6"/>
<stop offset="1" stop-color="#2C3AB3"/>
</linearGradient>
<linearGradient id="paint17_linear_56:267" x1="1684.41" y1="244.058" x2="1712.05" y2="299.756" gradientUnits="userSpaceOnUse">
<stop stop-color="#757DC6"/>
<stop offset="1" stop-color="#2C3AB3"/>
</linearGradient>
<linearGradient id="paint18_linear_56:267" x1="1601.93" y1="417.528" x2="1629.56" y2="473.225" gradientUnits="userSpaceOnUse">
<stop stop-color="#757DC6"/>
<stop offset="1" stop-color="#2C3AB3"/>
</linearGradient>
<linearGradient id="paint19_linear_56:267" x1="1469.88" y1="757.868" x2="1728.38" y2="1071.87" gradientUnits="userSpaceOnUse">
<stop stop-color="#FAFBFB"/>
<stop offset="1" stop-color="#DEEBF2"/>
</linearGradient>
<linearGradient id="paint20_linear_56:267" x1="1826.98" y1="909.939" x2="1546.19" y2="881.75" gradientUnits="userSpaceOnUse">
<stop stop-color="#FAFBFB"/>
<stop offset="1" stop-color="#DEEBF2"/>
</linearGradient>
<linearGradient id="paint21_linear_56:267" x1="179.575" y1="875.596" x2="180.158" y2="968.955" gradientUnits="userSpaceOnUse">
<stop stop-color="#D55561"/>
<stop offset="1" stop-color="#B81C49"/>
</linearGradient>
<linearGradient id="paint22_linear_56:267" x1="131.836" y1="735.424" x2="172.927" y2="819.255" gradientUnits="userSpaceOnUse">
<stop stop-color="#D55561"/>
<stop offset="1" stop-color="#B81C49"/>
</linearGradient>
<radialGradient id="paint23_radial_56:267" cx="0" cy="0" r="1" gradientUnits="userSpaceOnUse" gradientTransform="translate(242.5 265.106) rotate(90) scale(196.501)">
<stop stop-color="#D3DDEA"/>
<stop offset="1" stop-color="#F8F9FA"/>
</radialGradient>
<radialGradient id="paint24_radial_56:267" cx="0" cy="0" r="1" gradientUnits="userSpaceOnUse" gradientTransform="translate(243 261.697) rotate(90) scale(136.446)">
<stop stop-color="#D3DDEA"/>
<stop offset="1" stop-color="#F8F9FA"/>
</radialGradient>
<clipPath id="clip0_56:267">
<rect width="1920" height="1080" fill="white"/>
</clipPath>
</defs>
</svg>
