<svg id="Layer_1" data-name="Layer 1" xmlns="http://www.w3.org/2000/svg" viewBox="0 0 200 200"><defs><style>.cls-1,.cls-2,.cls-3,.cls-4,.cls-5{stroke:#000;}.cls-1,.cls-2,.cls-4,.cls-7,.cls-8{stroke-miterlimit:10;}.cls-1,.cls-2,.cls-3,.cls-4,.cls-5,.cls-6,.cls-7,.cls-8{stroke-width:0.86px;}.cls-2,.cls-3,.cls-4,.cls-5,.cls-6,.cls-7,.cls-8{fill:none;}.cls-3,.cls-4,.cls-8{stroke-linecap:round;}.cls-3,.cls-5,.cls-6{stroke-linejoin:round;}.cls-6,.cls-7,.cls-8{stroke:#fff;}</style></defs><path d="M155.24,145.27l-20.33,11v0l-3.59-6.64.06-.1,8-4.17v0h.15c.3-.09,1.3-.14,2.65-.26a30.29,30.29,0,0,0,8-1.59c1.54-.61,3.28-.69,4.37.55a3.54,3.54,0,0,1,.69,1.2Z"/><path class="cls-1" d="M118.26,158.28h0c.31.07,1.21.5,2.46,1a29.87,29.87,0,0,0,7.8,2.41c1.64.19,3.22.95,3.59,2.56a3.7,3.7,0,0,1,0,1.38.44.44,0,0,1,0,.1H109v-7.57l9,0h.18Z"/><path d="M117.52,131.64l-.07-1.88h0C117.48,130.36,117.5,131,117.52,131.64Z"/><path d="M90.78,87.21A3,3,0,0,0,92,85.1a1.11,1.11,0,0,0-1.18-1.18,1.4,1.4,0,0,1-.19.33l.09-1.81.2-3.66a.79.79,0,0,0-.68-.91H90l.62-4.25,4.62,0,.11-1.32H89.48l-.83,5.59h-2.8a2.55,2.55,0,1,0-2.73,2.73l.08,1.54.08,1.53h-.15a2.92,2.92,0,0,0-2.62,2.67l.1,5.06-.26.09a74.52,74.52,0,0,1-12.81,3.22c-3.44.47-5.9.29-7-.64-4.51-3.75,3.4-26.53,7.13-30.2,2.16-2.14,6.58-3.06,12-4.11a2.82,2.82,0,0,1,1.24-1.67l.06,0h0A25.07,25.07,0,0,1,91.05,58l.37.13a2,2,0,0,1,1.35,1.66s8.09.9,9.53,2.58c3.68,4.31,7.43,8.7,10.25,11.72.2.21,5.48-4.73,7.32-9.56l.06,0s2,3,5.41,2.44h0c-.27.54-9.31,18.57-13.6,17-3.63-1.34-7.57-4.3-11.76-7.82C98.35,74.72,104.89,104,105,104.6l-4.26,0-14.55.08H84l-17.47.09a68,68,0,0,1,.86-9.36,124,124,0,0,0,13-3.9l.26.08a18.06,18.06,0,0,0,3.26,1.09l.12,2a.77.77,0,0,0,.69.8h4.84a.77.77,0,0,0,.69-.8l.12-2.22C91.4,92.06,92,91.46,92,91A.94.94,0,0,0,90.9,90h-.05l0,0,.08,0A2.23,2.23,0,0,0,92,88.35a1,1,0,0,0-1.14-1.07Z"/><line class="cls-2" x1="118.1" y1="150.71" x2="132.07" y2="150.71"/><polyline class="cls-2" points="149.19 150.71 155.25 150.71 155.25 158.83 44.82 158.83 44.82 150.71 107.45 150.71"/><rect x="44.82" y="150.71" width="40.45" height="8.12"/><polyline class="cls-2" points="132.92 128.07 161.79 128.07 161.79 172.22 38.24 172.22 38.24 128.07 102.07 128.07"/><circle class="cls-2" cx="53.97" cy="132.38" r="1.61"/><circle class="cls-2" cx="48.28" cy="132.38" r="1.61"/><circle class="cls-2" cx="42.59" cy="132.38" r="1.61"/><path class="cls-3" d="M138,47.46c-.36,1.54-2.9,14-3.45,16.78"/><path class="cls-3" d="M134.51,64.23a7.36,7.36,0,0,0-5.92-1.07"/><path class="cls-3" d="M121.36,62.8C116.14,61.08,111,64.23,111,64.23c.43-5,.83-17.76.83-17.76,8.39-3.81,13.2,1.43,13.74,2.07l0,.06c2.2-3.61,9.32-3.81,12.36-1.15"/><path class="cls-2" d="M88.8,77.87H83.71a.8.8,0,0,0-.69.91l.1,1.82.08,1.54.08,1.53,0,.9v.08"/><path class="cls-2" d="M90.61,84.25l.09-1.81.2-3.66a.79.79,0,0,0-.68-.91h-.4"/><path class="cls-2" d="M83.89,92.68v0l.12,2a.77.77,0,0,0,.69.8h4.84a.77.77,0,0,0,.69-.8l.12-2.22v-.07"/><path class="cls-2" d="M83.3,84.49l0,.08c.86,2.24,6.08,1.16,7.28-.32a1.4,1.4,0,0,0,.19-.33s0,0,0,0"/><path class="cls-4" d="M90.79,83.92h0A1.11,1.11,0,0,1,92,85.1a3,3,0,0,1-1.2,2.11,5.73,5.73,0,0,1-4.7,1.06"/><path class="cls-4" d="M90.84,87.28A1,1,0,0,1,92,88.35,2.23,2.23,0,0,1,90.89,90l-.08,0a6.74,6.74,0,0,1-4.62.83"/><path class="cls-4" d="M90.85,90.05h.05A.94.94,0,0,1,92,91c0,.49-.58,1.09-1.63,1.53a10.67,10.67,0,0,1-6.46.23,18.06,18.06,0,0,1-3.26-1.09"/><path class="cls-4" d="M83.27,82.14c2-.79,2.53,1,4.51,1.46h0a4,4,0,0,0,1.27.06l.14,0h0a2.25,2.25,0,0,0,1.5-1.2"/><polyline class="cls-3" points="89.19 83.56 90.02 77.87 90.64 73.62 95.26 73.6 95.37 72.28 89.48 72.28 88.65 77.87 87.82 83.44"/><path class="cls-5" d="M83.31,80.61h-.19a2.55,2.55,0,1,1,2.73-2.73c0,.06,0,.12,0,.18"/><path class="cls-2" d="M86.08,104.72H83.82"/><path class="cls-4" d="M81.91,36.64c.13-.84.27-1.83.48-2.83a9.84,9.84,0,0,1,1.93-4.53c2.32-2.52,4.77-1.53,6.82.66a16,16,0,0,1,1.62,2A25.22,25.22,0,0,1,96.06,39c.83,3.47-4.18,11.2-5.58,11.73a2.27,2.27,0,0,1-.51.14c-2.07.36-4.66-1.52-5.52-3.35"/><path class="cls-2" d="M80.88,57.92c.1-5.82-.15-11.11.43-16.91"/><path class="cls-2" d="M89.91,50.67l.06.24c.47,2.3.57,5.11,1.45,7.19l0,.11"/><path class="cls-4" d="M82.71,37.7a4.85,4.85,0,0,0-.87-1c-2.3-2-3.89,2.42-3,3.69A2.08,2.08,0,0,0,81,41l.26,0h0a2.1,2.1,0,0,0,.55-.21"/><path class="cls-2" d="M92.74,32h0c.55,0,8.35-1.5,7.27-3.69-.62-1.26-4.75,0-8.89,1.65-3.92,1.56-7.85,3.46-8.75,3.87l-.15.07"/><path class="cls-4" d="M91.68,39.61a4,4,0,0,1,2.46-.23"/><path class="cls-4" d="M89.21,39.68a2,2,0,0,0-2.45.16"/><path class="cls-4" d="M81.4,38.48a2.47,2.47,0,0,1-1.58.6"/><path class="cls-4" d="M91.65,39.62c-.5,1.1,0,2.86.22,4,.11.79.27,2.31-1.2,1.78"/><path class="cls-2" d="M117.35,126.5c-.09-2.18-.2-3.85-.35-5.18-1.17-10.38-9.81-16.5-30.86-16.6"/><path class="cls-2" d="M118.26,158.54v-.34c-.21-6.48-.35-11.87-.47-16.38,0-.22,0-.45,0-.67-.09-3.76-.17-6.89-.24-9.51,0-.66,0-1.28-.06-1.88,0-1.19-.07-2.27-.11-3.25h0"/><path class="cls-2" d="M102.79,131.58c0-.06,0-.14-.06-.22l-.18-.65c-.27-.93-.62-2.18-.75-2.63H81c-6.38-.21-10-3.72-12.09-8.4-2-4.51-2.42-10.11-2.33-14.86a66.42,66.42,0,0,1,.86-9.36c.07-.41.12-.66.13-.74v0"/><path class="cls-2" d="M118.07,158.21l-9,0c-1.06-6.19-2.29-11.68-3.46-16.37-1-4.14-2-7.66-2.83-10.46l-.18-.65"/><path class="cls-2" d="M137.39,140.17h0l-4.6-12.08c-1.73-4.52-3.19-8.34-3.47-9-4.48-11.14-4.91-14.4-27.31-14.41h-1.32l-14.55.08H84l-17.47.09h0"/><path class="cls-2" d="M117.34,126.49h0c.66,1.37,2.1,3.86,3.87,6.79,1.61,2.66,3.48,5.68,5.27,8.52s3.68,5.72,5,7.71l7.9-4.21v0L138,141.81c-.19-.5-.41-1.07-.63-1.66"/><path class="cls-4" d="M86.14,46.14a2,2,0,0,0,3,1"/><path class="cls-4" d="M125.73,64.35l.21-.31c1.42-2.29.18-4.54.27-5.2.23-1.57,1.79-1.08,2.19,1.14a10.45,10.45,0,0,1,.13,3.17A4.08,4.08,0,0,1,125.4,67h0c-.27.54-9.31,18.57-13.6,17-3.63-1.34-7.57-4.3-11.76-7.82-1.68-1.41,5,27.92,5.11,28.56,0,0-3.13,0-3.13,0"/><path class="cls-4" d="M123.57,63.2a3.48,3.48,0,0,1-.22.36"/><path class="cls-4" d="M125.7,64.32a2.15,2.15,0,0,0,.23-.28c1.1-1.73.37-6.4-1.1-6.62a.76.76,0,0,0-.41.06c-1.72.68.9,2.72-.84,5.71"/><path class="cls-4" d="M123.35,63.57a3.6,3.6,0,0,0,.22-.37h0a3.53,3.53,0,0,0,.38-2.53c-.09-.54-.63-2.12-1.22-2.36a.79.79,0,0,0-1.06,1c.84,2.32.4,3.11-.24,3.56s-1.19.52-1.39,1.1a5.17,5.17,0,0,1-.18.51c-1.84,4.83-7.12,9.77-7.32,9.56-2.82-3-6.57-7.41-10.25-11.72-1.44-1.68-9.53-2.58-9.53-2.58a2,2,0,0,0-1.35-1.66L91.05,58a25.07,25.07,0,0,0-10.09.1h0l-.06,0a2.82,2.82,0,0,0-1.24,1.67c-5.4,1-9.82,2-12,4.11C63.92,67.55,56,90.33,60.52,94.08c1.12.93,3.58,1.11,7,.64A74.52,74.52,0,0,0,80.35,91.5l.26-.09-.1-5.06a2.92,2.92,0,0,1,2.62-2.67"/><polyline class="cls-3" points="125.57 48.39 125.56 48.54 124.84 57.36"/><path class="cls-4" d="M119.93,64.52s2,3,5.41,2.44"/><path class="cls-6" d="M66.43,95.62c.31,0,.63-.09,1-.16a124,124,0,0,0,13-3.9l1.21-.41"/><path d="M93.51,41.08a.4.4,0,0,1,0,.8.4.4,0,0,1,0-.8Z"/><path d="M88.65,41.08a.4.4,0,1,1-.4.4A.4.4,0,0,1,88.65,41.08Z"/><polygon class="cls-3" points="109.01 165.91 109.01 167.66 132.16 167.66 132.16 165.76 132.12 165.76 109.02 165.76 109.01 165.76 109.01 165.91"/><line class="cls-7" x1="135.08" y1="156.18" x2="147.26" y2="149.62"/><polygon class="cls-3" points="134.98 156.39 135.81 157.92 156.17 146.93 155.27 145.25 155.24 145.27 134.91 156.25 134.9 156.25 134.98 156.39"/><path class="cls-4" d="M74.59,112c.11,4-2.42,6.49-5.71,7.67a13.91,13.91,0,0,1-4,.77"/><path class="cls-3" d="M139.49,145.28c.3-.09,1.3-.14,2.65-.26a30.29,30.29,0,0,0,8-1.59c1.54-.61,3.28-.69,4.37.55a3.54,3.54,0,0,1,.69,1.2l0,.09,0,0-20,10.85-3.69-6.47Z"/><path class="cls-8" d="M81.52,85.67c-2.29.41-10.85,1.69-13.46,2a50.23,50.23,0,0,1,3.86-13.07"/><line class="cls-2" x1="136.09" y1="136.54" x2="161.58" y2="136.54"/><line class="cls-2" x1="117.69" y1="136.54" x2="123.1" y2="136.54"/><line class="cls-2" x1="38.21" y1="136.54" x2="104.17" y2="136.54"/></svg>