<svg id="Layer_1" data-name="Layer 1" xmlns="http://www.w3.org/2000/svg" viewBox="0 0 200 200"><defs><style>.cls-1,.cls-2,.cls-3,.cls-4,.cls-5{fill:none;stroke-width:0.86px;}.cls-1,.cls-2,.cls-3,.cls-4{stroke:#000;}.cls-1,.cls-3,.cls-5{stroke-linecap:round;}.cls-1,.cls-4,.cls-5{stroke-linejoin:round;}.cls-2,.cls-3{stroke-miterlimit:10;}.cls-5{stroke:#fff;}.cls-6{fill:#fff;}</style></defs><path d="M87.64,100.13c.61.8,4.74,3.68,6.32,4,2.33.39,5.2-1.92,6.91-3.32l0,0a12.11,12.11,0,1,0-18-13.53,12.25,12.25,0,0,0-.42,3.17,9.1,9.1,0,0,0,0,.91,28.73,28.73,0,0,0,6.41,3.23s0,.23,0,.6C88.8,96.5,88.54,99.85,87.64,100.13ZM76.74,97c-6.85-3.46-13.56-9.28-13.9-14.65-.18-2.75,1.11-4.9,2.29-7.35C66.63,72,75.27,60.69,77.39,59,79.78,57,88,55.78,88,55.78a3.48,3.48,0,0,1,1.3-2.06l.15-.07a24.69,24.69,0,0,1,10.11-.13.64.64,0,0,1,.18.06,2.85,2.85,0,0,1,1.67,2.2s4.93-.2,7.89,1.42A77.73,77.73,0,0,1,121.18,66a86,86,0,0,0-.44-11.9,9.91,9.91,0,0,1,5-.62l.18,0,0,.14c1.8,6.15,5.79,20.8,3.44,23.13-1.8,1.8-17-2.26-18.55-2.79,1.79,11.94,4.22,29.66,4.33,35.45h-.81L77,109.47H75.88c.09-1.63.42-6.64.79-12.3Zm1.09-19.72a59.72,59.72,0,0,0-3.92,4.92c-.74,1.25.91,3.29,3.39,5.35.28-4.42.52-8.28.6-10.2Z"/><rect class="cls-1" x="119.29" y="16.62" width="14.71" height="9.22" rx="2.35"/><polyline class="cls-1" points="120.39 17.22 126.65 23.2 133.23 16.93"/><polyline class="cls-1" points="120.37 17.23 126.65 23.2 133.23 16.93"/><line class="cls-1" x1="119.96" y1="25.23" x2="124.14" y2="20.88"/><line class="cls-1" x1="133.24" y1="25.03" x2="129.26" y2="20.88"/><path class="cls-1" d="M129.8,30.72H117.65a2.23,2.23,0,0,1-2.34-2.09V13.3a2.22,2.22,0,0,1,2.34-2.09h17.19a2.22,2.22,0,0,1,2.34,2.09V28.63a2.23,2.23,0,0,1-2.34,2.09h-2.33"/><path class="cls-1" d="M132.58,29.48S132,34.1,130.81,35s-.89-6.39-.89-6.39"/><path d="M124.45,182.82c2.08.25,4,1.4,3.6,4H104.94v-7.57c0,.1,0,.18,0,.25s7.26.15,7.89,0l.29,0C114.51,179.65,120.09,182.31,124.45,182.82Z"/><path d="M86.62,186.56v.23l-12.11-.11-9.82-4.63,3.16-6.47.12,0,6.8,2.7.17.08c3.61,1.84,3.79,4.3,5.64,4.21C83.78,182.47,86.36,184.85,86.62,186.56Z"/><path d="M128.88,49.22a2.23,2.23,0,0,0-1.92-.16c-.71.3-1.27-.85-.6-1.5a2.66,2.66,0,0,1,.44-.33v-.09c-1.59-.38-.9-1.35-.39-1.73a3.65,3.65,0,0,1,.54-.32h0c-1.54-.19-1-1.57-.44-1.93a4.9,4.9,0,0,1,1.72-.69l-.41-4.13a1.78,1.78,0,0,0-1.86-1.7l-4.48.45a1.78,1.78,0,0,0-1.5,2l.57,5.48,0,.07c1.23-.59,2.74-.81,3,.06.42,1.15-2.79,3-2.79,3L121,50a1.78,1.78,0,0,0,1.87,1.69l4.47-.44C128.31,51.16,129.55,50,128.88,49.22Zm-4.08.92a.78.78,0,1,1,.78-.78A.78.78,0,0,1,124.8,50.14Z"/><path class="cls-1" d="M121.18,66a85,85,0,0,0-.45-12"/><path class="cls-2" d="M126,53.5c-2.47-.69-5.7.73-5.7.73"/><path class="cls-2" d="M100.87,100.76c-1.71,1.4-4.58,3.71-6.91,3.32-1.68-.29-6.26-3.54-6.39-4.08"/><path class="cls-1" d="M76.67,97.18c-.37,5.66-.7,10.67-.79,12.3l39.26-.07c-.14-7.26-3.93-33.33-5.52-43.17"/><path class="cls-1" d="M77.9,77.39c-.08,1.92-.32,5.79-.6,10.2"/><path class="cls-3" d="M75,178.4c2.63-2.14,22.69-37.13,27.05-60.82"/><path class="cls-3" d="M77,109.56c-1.2,22.86-9,66-9,66"/><path class="cls-3" d="M97.05,134.71c1.88,10.21,7.4,41.49,7.93,44.83,0,0,7.84.16,7.94,0,1.32-2.88,2.22-33.43,1.41-69.77"/><path class="cls-2" d="M120.53,44.58,120,39.1a1.78,1.78,0,0,1,1.5-2l4.48-.45a1.79,1.79,0,0,1,1.86,1.7l.42,4.22"/><path class="cls-2" d="M131.05,47.9c2.13-2.9-2.37-4.16-4.65-2.49-.51.38-1.2,1.35.39,1.73"/><path class="cls-2" d="M131,45.23c1.83-3-2.34-3.54-4.53-2.08-.54.36-1.1,1.74.44,1.93"/><path class="cls-4" d="M125.65,53.43s4,.37,5.4-2.31a2.77,2.77,0,0,0-.59-3.52,3.19,3.19,0,0,0-4.1,0c-.67.65-.11,1.8.6,1.5a2.23,2.23,0,0,1,1.92.16c.67.79-.57,1.94-1.5,2l-4.47.44A1.78,1.78,0,0,1,121,50l-.22-2.31s3.21-1.83,2.79-3-3.2-.31-4.28.76c-1.55,1.53-2,7.29,1.45,8.56"/><path class="cls-2" d="M110.73,73.93c.87.36,16.78,4.66,18.63,2.82,2.35-2.33-1.64-17-3.44-23.13"/><path class="cls-2" d="M88.9,95.11c2,.45,4.33-1,5.83-1.21a14,14,0,0,1,2.33,0,1,1,0,0,1,.31,1.9c-.49.28-1.87.75-2.57,1-1,.43-1,2.65-.37,3.17,1.39,1.21,6,.86,6,.86"/><path class="cls-3" d="M83.78,115c-1,5.39-6.35,7-11.26,6.17"/><path class="cls-1" d="M113.16,179.55c1.35.1,6.93,2.76,11.29,3.27,2.09.25,4.08,1.42,3.59,4.09L105,187"/><rect class="cls-1" x="104.94" y="186.86" width="23.15" height="1.9" transform="translate(233.02 375.62) rotate(-180)"/><line class="cls-2" x1="104.94" y1="179.29" x2="104.94" y2="186.84"/><polygon class="cls-1" points="63.63 184.09 74.07 188.79 86.63 188.69 86.63 186.79 74.51 186.68 64.69 182.05 63.63 184.09"/><path class="cls-1" d="M86.62,186.56c-.26-1.71-2.84-4.09-6-3.94-1.88.09-2-2.44-5.81-4.29l-6.92-2.75-3.16,6.47"/><path class="cls-2" d="M82.5,91.48c0-.36,0-.73,0-1.11a12.12,12.12,0,1,1,17.78,10.71"/><path class="cls-2" d="M82.79,87.21s14.52-3,23.32,6.62"/><path class="cls-2" d="M94.81,100.33s13.38-5.41,7.07-19.56"/><path class="cls-2" d="M93.73,94.14c2.38-.7,4.8-2.74,5.14-5.47.49-3.92-1.32-8.84-10.93-8.51"/><path class="cls-1" d="M85.88,69.11a86.7,86.7,0,0,0-12,13.13C72,85.42,85.63,93.73,88.9,94.51c0,0-.13,5.59-1.37,5.64-7.75.31-24.15-9.28-24.69-17.76-.18-2.75,1.11-4.9,2.29-7.35C66.63,72,75.27,60.69,77.39,59,79.78,57,88,55.78,88,55.78a3.48,3.48,0,0,1,1.3-2.06c.77-.46,6.9-1.13,10.26-.2a2.81,2.81,0,0,1,1.85,2.26s4.93-.2,7.89,1.42A82.21,82.21,0,0,1,123,67.54"/><path class="cls-5" d="M75.54,84.89c4.07,4.5,11.74,8.49,14.13,9.08,0,0-.31,6.62-1.68,6.84-4,.64-10.57-2.24-16.07-5.62"/><path class="cls-3" d="M90.1,32c.31-2.27.72-5.63,2.3-7.39,5.07-5.66,10.94,5.87,11.88,9.59.89,3.46-4,11.25-5.4,11.81-2.12.84-5.12-1.15-6.08-3.12"/><path class="cls-2" d="M89.38,53.6c0-5.92-.32-11.3.18-17.21"/><path class="cls-2" d="M98.31,45.93c.56,2.36.67,5.37,1.66,7.51"/><path class="cls-3" d="M90.91,33.06c-2.79-4.12-4.86,1.29-3.78,2.71.69.91,2.17.75,3,.32"/><path class="cls-2" d="M100.86,27.2c.34,0,8.36-1.6,7.23-3.8-1.28-2.51-16.74,5.43-17.7,5.85"/><path class="cls-3" d="M96.34,33.49a2.78,2.78,0,0,0-2.43.43"/><path class="cls-3" d="M89.61,33.86a2.41,2.41,0,0,1-1.56.63"/><circle cx="95.58" cy="35.75" r="0.42"/><circle cx="101.07" cy="35.61" r="0.42"/><path class="cls-3" d="M101.77,33.65c-.66-.31-2.16-.22-2.42.43-.43,1,.21,3.22.48,4.47.19.86.49,2.51-1,2.06"/><path class="cls-3" d="M96.78,42.74a1.76,1.76,0,0,0,2.72-.18"/><circle class="cls-6" cx="132.43" cy="15.7" r="2.58"/><path d="M132.4,12.49a3.23,3.23,0,1,0,3.23,3.23A3.23,3.23,0,0,0,132.4,12.49Zm.55,4.78a.43.43,0,0,1-.43.43.44.44,0,0,1-.44-.43V15.36l-.05.08a.43.43,0,1,1-.72-.47l.85-1.29a.41.41,0,0,1,.48-.17.43.43,0,0,1,.31.41Z"/></svg>