<svg id="Layer_1" data-name="Layer 1" xmlns="http://www.w3.org/2000/svg" viewBox="0 0 200 200"><defs><style>.cls-1,.cls-2,.cls-3,.cls-4,.cls-5,.cls-6,.cls-7{fill:none;stroke-width:0.86px;}.cls-1,.cls-2,.cls-3{stroke:#000;}.cls-1,.cls-2,.cls-4{stroke-miterlimit:10;}.cls-2,.cls-3,.cls-4,.cls-7{stroke-linecap:round;}.cls-3,.cls-5,.cls-6,.cls-7{stroke-linejoin:round;}.cls-4,.cls-5,.cls-6,.cls-7{stroke:#fff;}.cls-6{stroke-linecap:square;}</style></defs><path d="M122.27,72.29c1.46-.33,2.64-.61,3.4-.83-2.07-2.4-2.9-3.6-4.25-5.31,0,0,.27,1.86.84,6.12Zm1,7.46,0,.09c1.47,10.26,3.19,21.6,3.31,23.81l-39.26-.07c.13-7.06,3-26.83,4.65-37h0c-.87.36-16.18,6-18,4.15l0-.05c-1.27-7.28-2.9-15.22-3.83-21.2h0l4.3-1.87c.67,2.09,3.59,9.74,5.42,13.75l0,0A81.27,81.27,0,0,1,93.23,51.38c3-1.62,7.9-1.42,7.9-1.42a2.83,2.83,0,0,1,1.56-2.16l.29-.11c3.35-.92,9.49-.26,10.26.21l0,0a3.53,3.53,0,0,1,1.28,2s8.17,1.2,10.57,3.17c0,0,7.28,9.95,10.92,17.76,1.34,2.87.83,4.63-1.61,6C133,77.77,128.2,78.89,123.29,79.75Zm-13.55-4,0,0c.18-.48-.93-1.83-2.24-1.94h-.13l.5-4.28h0v0c0-.53-2-1-4.41-1s-4.4.44-4.4,1a.29.29,0,0,0,.06.17l.54,4.75h0a.24.24,0,0,0,0,.08,1,1,0,0,0-1.06,1.09,2.14,2.14,0,0,0,1.14,1.59h0a.93.93,0,0,0-1.13.87,2,2,0,0,0,1.11,1.4l0,0a.83.83,0,0,0-1.09.76c0,.48.68,1.08,1.9,1.5l0,.24.3,2.69a9.47,9.47,0,0,0,2.57.38,12.48,12.48,0,0,0,2.81-.38l.28-2.54,0-.16a19.17,19.17,0,0,0,3.68-1.06l.17-.14C109.43,79.88,108.79,77,109.74,75.75Z"/><path d="M102.78,180.92h0v-.06H86.59v0c-.47-2.66,1.51-3.83,3.6-4.07,4.35-.51,9.57-3.28,10.38-3.45l0,0h8.92c0,1.54,0,2.48,0,2.67l0,.12a18.73,18.73,0,0,1-3.12.67C104.28,177.07,102.29,178.24,102.78,180.92Z"/><path d="M102.78,180.86v.06h0c-.49-2.68,1.5-3.85,3.59-4.09a18.73,18.73,0,0,0,3.12-.67c3.43-1,6.64-2.65,7.26-2.78v0h9.15c0,4.09-.05,6.8,0,7.5Z"/><path d="M107.1,29.67a.42.42,0,0,1,.39.44.43.43,0,0,1-.45.39.42.42,0,0,1-.38-.45A.4.4,0,0,1,107.1,29.67Z"/><path d="M101.61,29.52a.42.42,0,0,1-.06.83.42.42,0,1,1,.06-.83Z"/><path class="cls-1" d="M92,66.61c-.87.36-16.18,6-18,4.15"/><path class="cls-2" d="M112.55,26.33c-.12-.84-.25-1.82-.44-2.82A9.89,9.89,0,0,0,110.25,19c-2.29-2.56-4.75-1.6-6.84.55a16,16,0,0,0-1.64,2,25,25,0,0,0-3.41,7c-.88,3.46,4,11.26,5.41,11.82a3.07,3.07,0,0,0,.52.14c2.06.39,4.68-1.45,5.56-3.26"/><path class="cls-1" d="M113.26,47.93h0c0-5.92.32-11.3-.17-17.2"/><path class="cls-1" d="M104.34,40.25a2,2,0,0,0,0,.24c-.52,2.33-.66,5.21-1.62,7.28"/><path class="cls-2" d="M111.73,27.38a5.7,5.7,0,0,1,.86-1c2.34-2,3.89,2.45,2.93,3.71a2.22,2.22,0,0,1-2.41.54,2.43,2.43,0,0,1-.54-.22"/><path class="cls-1" d="M101.79,21.53h0c-.56-.06-8.33-1.63-7.22-3.81.64-1.24,4.76.08,8.86,1.78,3.9,1.62,7.8,3.58,8.7,4l.14.06"/><path class="cls-2" d="M106.31,27.82a2.69,2.69,0,0,1,2.42.43"/><path class="cls-2" d="M113,28.19a2.43,2.43,0,0,0,1.56.62"/><path class="cls-2" d="M100.88,28c.66-.3,2.15-.22,2.42.43.43,1.05-.21,3.23-.48,4.48-.19.85-.49,2.5,1,2.06"/><path class="cls-2" d="M105.87,37.07a1.75,1.75,0,0,1-2.72-.19"/><path class="cls-1" d="M109.73,149.14c-.09,10.66-.22,19.86-.26,24.23,0,1.54,0,2.48,0,2.67"/><path class="cls-2" d="M119.68,106.77c-.12,4.28,2.81,6.86,6.47,7.91a14.35,14.35,0,0,0,3.22.53"/><path class="cls-3" d="M125.86,180.86c0-.7,0-3.41,0-7.5.11-12.45.36-37.78.25-58.68,0-3.72-.05-7.3-.1-10.64"/><path class="cls-3" d="M102.78,180.92l23.08.1h0s0-.07,0-.14"/><path class="cls-3" d="M104.16,111.82a178.45,178.45,0,0,0,5.62,37.31c2.11,8.5,4.56,16.63,6.92,24.13l0,.1v0c-.62.13-3.83,1.79-7.26,2.78a18.73,18.73,0,0,1-3.12.67c-2.09.24-4.08,1.41-3.59,4.09"/><path class="cls-3" d="M88.11,103.7c.62,27.59,6.66,51.3,12.44,69.66l0,0c-.81.17-6,2.94-10.38,3.45-2.09.24-4.07,1.41-3.6,4.07v0H103"/><polyline class="cls-1" points="100.18 173.37 100.55 173.37 109.32 173.37"/><polyline class="cls-1" points="116.74 173.37 116.75 173.37 125.88 173.37"/><polygon class="cls-3" points="125.86 181.02 125.86 182.76 102.78 182.76 102.78 180.92 102.78 180.87 125.86 180.87 125.86 180.88 125.86 181.02"/><polygon class="cls-3" points="102.75 180.92 102.75 182.76 86.59 182.76 86.59 180.9 86.59 180.87 102.75 180.87 102.75 180.92"/><path class="cls-3" d="M123.31,79.84c1.47,10.26,3.19,21.6,3.31,23.81l-39.26-.07c.13-7.06,3-26.83,4.65-37,0-.29.09-.56.13-.83"/><path class="cls-2" d="M74.49,47.45c1.7-2.47.27-6.63-.21-8.28-.28-1-1.73-.92-1.58.5.12,1.22.29,2.51-.21,3"/><path class="cls-2" d="M72.42,42.83a.24.24,0,0,0,0-.08h0C71.45,40,68.3,35,66.67,36a.65.65,0,0,0-.29.84,3.29,3.29,0,0,0,.79,1.08,9,9,0,0,1,2.4,3.39"/><path class="cls-2" d="M66.33,36.87a1.88,1.88,0,0,0-1.52-.74.82.82,0,0,0-.85.66c-.16.5.19.9.54,1.23l0,0a21.48,21.48,0,0,1,3.31,4.33"/><path class="cls-2" d="M70,49.52c-1.4-.16-2.49-3.41-2.86-4.48a13.64,13.64,0,0,0-2.68-4.22c-.42-.49-1.28-1.3-1.23-2a1,1,0,0,1,1.28-.71"/><path class="cls-2" d="M70.46,44.66c-.4-1.32,1.21-1.87,2-1.84"/><path class="cls-3" d="M79.55,61.72l.31-.28A81.27,81.27,0,0,1,93.23,51.38c3-1.62,7.9-1.42,7.9-1.42a2.83,2.83,0,0,1,1.56-2.16l.29-.11c3.35-.92,9.49-.26,10.26.21l0,0a3.53,3.53,0,0,1,1.28,2s8.17,1.2,10.57,3.17c0,0,7.28,9.95,10.92,17.76,1.34,2.87.83,4.63-1.61,6-1.47.84-6.22,2-11.13,2.82-5.79,1-11.79,1.7-12.79,1.17a.94.94,0,0,1-.24-.18c-.83-.86-1.47-3.73-.52-5a1.47,1.47,0,0,1,.76-.52c4.19-1.21,8.62-2.21,11.77-2.94,1.46-.33,2.64-.61,3.4-.83-2.07-2.4-2.9-3.6-4.25-5.31,0,0,.27,1.86.84,6.12"/><path class="cls-1" d="M107.24,74.84h0c-.6,1.55-3.59,1.28-4.9,1.07-.46-.07-2.34-.61-2.67-1.45a.24.24,0,0,1,0-.08"/><path class="cls-2" d="M99.68,74.47h0a1,1,0,0,0-1.06,1.09,2.14,2.14,0,0,0,1.14,1.59,7,7,0,0,0,4.75.84"/><path class="cls-2" d="M99.74,77.16a.93.93,0,0,0-1.13.87,2,2,0,0,0,1.11,1.4,7.61,7.61,0,0,0,4.67.75"/><path class="cls-2" d="M99.7,79.45a.83.83,0,0,0-1.09.76c0,.48.68,1.08,1.9,1.5a12,12,0,0,0,5.9.23,19.17,19.17,0,0,0,3.68-1.06"/><path class="cls-2" d="M109.72,75.73c.18-.48-.93-1.83-2.24-1.94"/><polyline class="cls-3" points="99.08 69.47 99.1 69.64 99.64 74.39 99.65 74.45"/><polyline class="cls-3" points="107.86 69.47 107.85 69.5 107.35 73.78 107.23 74.85"/><path class="cls-3" d="M99.1,69.64a.29.29,0,0,1-.06-.17c0-.53,2-1,4.4-1s4.41.44,4.41,1v0c-.06.52-2,.94-4.4.94C101.26,70.44,99.45,70.09,99.1,69.64Z"/><path class="cls-3" d="M106.44,82.1l-.28,2.54a12.48,12.48,0,0,1-2.81.38,9.47,9.47,0,0,1-2.57-.38l-.3-2.69"/><path class="cls-3" d="M73.92,70.71c-1.27-7.28-2.9-15.22-3.83-21.2h0l4.3-1.87c.67,2.09,3.59,9.74,5.42,13.75"/><path class="cls-4" d="M104.61,67.17a2.6,2.6,0,0,0,.72-2,11.7,11.7,0,0,0-.86-1.64c-.63-1.44,0-2.49,1-3.48"/><path class="cls-4" d="M102.08,67.17a2.6,2.6,0,0,0,.72-2,12.86,12.86,0,0,0-.86-1.64c-.64-1.44,0-2.49,1-3.48"/><path class="cls-5" d="M116.39,173.37c-1.39.54-6,2.88-10,3.35-2.1.24-3.63,1-3.59,4.37"/><path class="cls-6" d="M109.14,75.41c3.74-2,10-3.11,13.22-3.88"/><path class="cls-7" d="M124,80.36l-.78.14c-5.9,1-12.44,1-14,.23"/></svg>