<svg id="Layer_1" data-name="Layer 1" xmlns="http://www.w3.org/2000/svg" viewBox="0 0 200 200"><defs><style>.cls-1,.cls-2,.cls-3,.cls-4,.cls-5,.cls-6{fill:none;stroke-width:0.86px;}.cls-1,.cls-2,.cls-3,.cls-4{stroke:#000;}.cls-1,.cls-4,.cls-5,.cls-6{stroke-linejoin:round;}.cls-2,.cls-3{stroke-miterlimit:10;}.cls-3,.cls-4,.cls-5{stroke-linecap:round;}.cls-5,.cls-6{stroke:#fff;}</style></defs><path d="M128.89,40.67a5.15,5.15,0,0,1-.42,2c-.46,1-2.22,3.87-2.22,3.87l-1.8,3.15a.47.47,0,0,1-.82,0l-1.81-3.15s-1.75-2.85-2.21-3.87a5.19,5.19,0,0,1-.42-2,4.85,4.85,0,1,1,9.7,0Zm-3-.43A1.84,1.84,0,1,0,124,42.07,1.83,1.83,0,0,0,125.87,40.24Z"/><path d="M97.42,47.93h0c.79.15,1.29,1.47,1.24,2.14,0,0,6,.07,8.07,1.26,0,0,2.84,2.7,6.37,11.19L110,61.42H98.67L93.13,77.86l-.08,0c-1.56-1.28-4.23.16-4.48,1.65,0,.12-.68,0-1.71-.23l0,.1c-3.18,2.13-1.61,6.19-1.61,6.19l0,.24A57.21,57.21,0,0,1,72.8,83.36c-4.11-1.45-6-3.32-6.93-5.6-1.41-3.28,4.37-23.57,9.79-26.38,2.06-1.07,9-1.46,9.91-1.5h0a3.14,3.14,0,0,1,1.21-1.83A.77.77,0,0,1,87,48,35.65,35.65,0,0,1,97.42,47.93Z"/><path d="M108.3,176.62c2.09.24,4.07,1.41,3.6,4.07v0H95.74v0h0c.48-2.67-1.5-3.84-3.6-4.08A19.91,19.91,0,0,1,89,176l0-.13c0-.18,0-1.12,0-2.67h8.9C98.73,173.34,103.94,176.1,108.3,176.62Z"/><path d="M110.75,103l-39.36.09A158.92,158.92,0,0,1,72.8,83.36a57.21,57.21,0,0,0,12.39,2.43l1.15.12A28.19,28.19,0,0,0,89,87c.37.08.73.14,1.07.18l-2.15,6.39,12.35-1.24,10,3.29v0C110.55,99.82,110.69,102.1,110.75,103Z"/><circle cx="98.75" cy="30.78" r="0.42"/><path d="M92.11,176.62c2.1.24,4.08,1.41,3.6,4.08h0v0H72.63c0-.7,0-3.41-.06-7.5h9.17c.61.14,3.83,1.8,7.26,2.79A19.91,19.91,0,0,0,92.11,176.62Z"/><circle cx="93.56" cy="30.78" r="0.42"/><path class="cls-1" d="M85.57,49.88a3.14,3.14,0,0,1,1.21-1.83A.77.77,0,0,1,87,48a35.65,35.65,0,0,1,10.44,0h0c.79.15,1.29,1.47,1.24,2.14,0,0,6,.07,8.07,1.26,0,0,2.84,2.7,6.37,11.19l.06.13"/><path class="cls-1" d="M85.5,50.08c0-.07,0-.14.07-.2"/><path class="cls-2" d="M88.75,148.92c.1,10.67.23,19.87.27,24.23,0,1.55,0,2.49,0,2.67"/><path class="cls-1" d="M110.23,95.59c.32,4.23.46,6.51.52,7.43l-39.36.09A158.92,158.92,0,0,1,72.8,83.36c0-.11,0-.23,0-.34"/><path class="cls-3" d="M78.81,106.56c.12,4.32-2.87,6.91-6.58,7.94a14,14,0,0,1-3.11.49"/><path class="cls-4" d="M72.63,180.65c0-.7,0-3.41-.06-7.5-.13-12.44-.43-37.74-.34-58.65,0-3.92,0-7.69.09-11.18"/><path class="cls-4" d="M95.7,180.7l-23.07.11h0a.88.88,0,0,1,0-.14"/><path class="cls-4" d="M94.33,111.61a178.26,178.26,0,0,1-5.62,37.3c-2.11,8.51-4.56,16.63-6.92,24.14l-.05.1h0c.61.14,3.83,1.8,7.26,2.79a19.91,19.91,0,0,0,3.11.67c2.1.24,4.08,1.41,3.6,4.08"/><path class="cls-4" d="M110.38,103.49c-.63,27.59-6.66,51.3-12.44,69.66h0c.81.18,6,2.94,10.38,3.46,2.09.24,4.07,1.41,3.6,4.07H95.51"/><path class="cls-3" d="M87.69,26.55c.12-.84.25-1.83.45-2.83A9.78,9.78,0,0,1,90,19.16c2.3-2.56,4.75-1.6,6.84.56a15.18,15.18,0,0,1,1.64,2,25,25,0,0,1,3.41,7c.88,3.46-4,11.25-5.41,11.81a2.74,2.74,0,0,1-.51.15c-2.06.38-4.68-1.45-5.56-3.27"/><path class="cls-2" d="M87,48.14V48c0-5.85-.31-11.18.18-17"/><path class="cls-2" d="M95.9,40.47l.06.24c.53,2.2.84,4.34,1.46,7.22h0"/><path class="cls-3" d="M88.51,27.6a4.79,4.79,0,0,0-.86-1c-2.33-2-3.89,2.45-2.92,3.72a2.2,2.2,0,0,0,2.4.53,2.26,2.26,0,0,0,.55-.22"/><path class="cls-2" d="M98.46,21.74h0c.56-.06,8.33-1.63,7.22-3.8-.63-1.25-4.75.07-8.86,1.78-3.9,1.61-7.8,3.57-8.69,4l-.15.07"/><path class="cls-3" d="M97.48,27.91c.34-.72,1.66-1.18,2.19-.32"/><path class="cls-3" d="M94.19,28.84a2.7,2.7,0,0,0-2.45.26"/><path class="cls-4" d="M96.88,37.9c-.64.76-2,.14-2.64-.26"/><path class="cls-3" d="M87.21,28.4a2.43,2.43,0,0,1-1.56.63"/><path class="cls-3" d="M96.92,29.23a12.9,12.9,0,0,0,.39,4c.13.87.31,2.54-1.17,2"/><polyline class="cls-2" points="98.31 173.15 97.94 173.15 89.17 173.15"/><polyline class="cls-2" points="81.75 173.15 81.74 173.15 72.61 173.15"/><polygon class="cls-4" points="72.63 180.81 72.63 182.55 95.7 182.55 95.7 180.7 95.7 180.65 72.63 180.65 72.63 180.67 72.63 180.81"/><polygon class="cls-4" points="95.74 180.7 95.74 182.55 111.9 182.55 111.9 180.69 111.9 180.65 95.74 180.65 95.74 180.7"/><polyline class="cls-1" points="123.18 82.02 124.48 78.61 130.43 62.98 120.23 65.06 113.14 62.53 110.02 61.42 98.67 61.42 93.13 77.86 92.13 80.82 92.11 80.88"/><polyline class="cls-1" points="90.11 86.89 90.03 87.13 87.88 93.53 100.23 92.28 110.23 95.57 118.77 93.59 121.15 87.36"/><path class="cls-4" d="M90.44,80.4a2.09,2.09,0,0,0,1.69.42c1.7-.24,3.53-1.82,4.16-.82.21.34,0,.8-.35,1.27-1.09,1.26-3.91,2.52-6,1.37"/><path class="cls-4" d="M96.07,81.31c1.09.74.48,1.71-.22,2.36-.17.15-.35.29-.5.4a5.81,5.81,0,0,1-5.71.84"/><path class="cls-1" d="M95.87,83.69c.55-.11.91.43.63,1.06s-2,3-6.47,2.38c-.34,0-.7-.1-1.07-.18a28.19,28.19,0,0,1-2.62-1l-1.15-.12A57.21,57.21,0,0,1,72.8,83.36c-4.11-1.45-6-3.32-6.93-5.6-1.41-3.28,4.37-23.57,9.79-26.38,2.06-1.07,9-1.46,9.91-1.5h.09"/><path class="cls-4" d="M123.54,81.81a.82.82,0,0,1-.36.21c-1.39.39-4.48-2.16-5-.58-.1.32.18.69.67,1a7.68,7.68,0,0,0,5,1.25"/><path class="cls-4" d="M118.85,82.5c-1.27.42-.82,1.27-.16,1.85a3.55,3.55,0,0,0,.65.44,10.7,10.7,0,0,0,4.07.9"/><path class="cls-4" d="M118.61,84.35c-.46-.11-.76.5-.52,1.13a6,6,0,0,0,3.09,1.77,5.34,5.34,0,0,0,2,.22,4.47,4.47,0,0,0,3.7-2.77,4.19,4.19,0,0,0,0-3.15,5.82,5.82,0,0,0-.82-1.56,7.21,7.21,0,0,0-1.41-1.29"/><path class="cls-4" d="M93.05,77.84c-1.56-1.28-4.23.16-4.48,1.65,0,.12-.68,0-1.71-.23-3.18-.77-9.8-3-11.38-5.15-2.1-2.8,3.9-13.25,3.9-13.25"/><line class="cls-4" x1="109.95" y1="62.04" x2="100.23" y2="92.28"/><line class="cls-4" x1="120.23" y1="65.06" x2="110.23" y2="95.57"/><path class="cls-4" d="M127.59,52.55H115.45a2.23,2.23,0,0,1-2.35-2.09V35.13A2.23,2.23,0,0,1,115.45,33h17.18A2.23,2.23,0,0,1,135,35.13V50.46a2.22,2.22,0,0,1-2.34,2.09H130.3"/><path class="cls-4" d="M130.37,51.32s-.07.5-.2,1.21c-.27,1.43-.81,3.7-1.57,4.29s-.89-2.2-.91-4.27c0-1.17,0-2.12,0-2.12"/><path class="cls-4" d="M85.22,85.55s-1.57-4.06,1.61-6.19"/><path class="cls-5" d="M87,80.06c-2.09-.71-9.6-3.41-11.55-6-2.09-2.7,3.9-13.25,3.9-13.25"/><path class="cls-6" d="M85.78,85.11C70.29,85,65.62,81.68,65,77.9"/><path class="cls-6" d="M82.07,173.27c1.41.52,6.12,2.88,10.11,3.34,2.11.24,3.95,1.4,3.55,4.36"/></svg>