<svg id="Layer_1" data-name="Layer 1" xmlns="http://www.w3.org/2000/svg" viewBox="0 0 200 200"><defs><style>.cls-1,.cls-2,.cls-3{fill:none;stroke:#000;stroke-linecap:round;stroke-linejoin:round;}.cls-1{stroke-width:0.86px;}.cls-2{stroke-width:0.84px;}.cls-3{stroke-width:0.86px;}</style></defs><path d="M67.69,106.07c.21-3.83,2.15-31.23,2.41-36.92l0,0L57.15,78.79s-8.74,16.36-9,16.36a.28.28,0,0,1-.11,0c-.73-.14-4.37-1.19-5.12-1.4l-.13,0L49.84,73C53.53,66.4,67.56,55.5,71.08,53.66c3.07-1.6,8.54-1.44,8.73-1.43v0c.32-.82.42-1.86,1.22-2.35l.06,0c1-.46,6.88-1,10.18-.11a1.58,1.58,0,0,1,.44.2,4.08,4.08,0,0,1,1.54,2.29s7.77.36,10.55,2.1c5,3.16,15.53,22.72,16.66,23.84,2.63,2.62,12.5,8.31,16.29,10.3l0,0c.76.74.45,4.39-.62,5.12l0,.06a200.59,200.59,0,0,1-21.27-8.75C113,83.79,103,72.09,103,72.09h0c1.73,11.47,4,28.08,4.12,33.9h-1l-37.83.07Z"/><path d="M78,184.7v.23l-12.14-.11L56,180.18l3.16-6.49.13.05,6.81,2.7.18.09c3.61,1.84,3.79,4.31,5.65,4.22C75.1,180.6,77.69,183,78,184.7Z"/><path d="M117.06,183.05l-2-7.31h0l.1.24s7.63-1.89,7.66-2.12v0l.25,0c1.34-.25,7.43.87,11.78.23,2.1-.31,4.32.31,4.55,3l-22.34,6.11Z"/><polygon points="162.64 20.31 162.64 186.64 147.94 186.64 147.94 20.32 162.64 20.31"/><path d="M93.22,32a.42.42,0,0,1-.39.45.42.42,0,0,1-.06-.84A.43.43,0,0,1,93.22,32Z"/><path d="M87.71,32.14a.41.41,0,0,1-.38.45.42.42,0,0,1-.45-.39.41.41,0,0,1,.39-.44A.4.4,0,0,1,87.71,32.14Z"/><polyline class="cls-1" points="162.64 20.31 162.64 186.64 147.94 186.64 85.33 186.64 85.33 140.64"/><polyline class="cls-1" points="85.33 19.83 85.33 19.77 85.33 13.06 162.64 13.06 162.64 20.31 147.94 20.32 147.89 20.32"/><path class="cls-1" d="M102.3,16.75a1.62,1.62,0,1,1-1.62-1.62A1.63,1.63,0,0,1,102.3,16.75Z"/><path class="cls-1" d="M96.59,16.75A1.62,1.62,0,1,1,95,15.13,1.62,1.62,0,0,1,96.59,16.75Z"/><path class="cls-1" d="M90.89,16.75a1.62,1.62,0,1,1-1.62-1.62A1.62,1.62,0,0,1,90.89,16.75Z"/><rect class="cls-1" x="116.99" y="180.19" width="23.21" height="1.91" transform="translate(-42.61 39.59) rotate(-15.05)"/><path class="cls-1" d="M66.24,176.52c1.79-1.46,11.58-18,19.07-35.88,1.48-3.53,2.87-7.12,4.1-10.65a101.42,101.42,0,0,0,4-14.47"/><path class="cls-1" d="M68.24,106.12c-.2,3.84-.59,8.29-1.09,13-2.5,23.58-7.87,54.49-7.87,54.49"/><path class="cls-1" d="M89.53,130c5.37,7.57,23.66,41.17,25.57,45.7l.1.24s7.63-1.89,7.66-2.12v0c.47-3.33-6.6-32.93-16.8-67.78"/><path class="cls-1" d="M73.75,113c-.69,3.68-3.39,5.6-6.6,6.19a13.68,13.68,0,0,1-4.69,0"/><path class="cls-1" d="M123.12,173.85c1.34-.25,7.43.87,11.78.23,2.1-.31,4.32.31,4.55,3l-22.34,6.11"/><line class="cls-1" x1="115.09" y1="175.74" x2="117.06" y2="183.05"/><polygon class="cls-1" points="55.96 180.18 55.96 180.18 54.89 182.23 65.36 186.94 77.96 186.84 77.96 184.93 77.95 184.93 65.81 184.82 55.96 180.18"/><path class="cls-1" d="M78,184.7c-.26-1.72-2.85-4.1-6.06-3.95-1.86.09-2-2.38-5.65-4.22l-.18-.09-6.81-2.7-.13-.05L56,180.18"/><path class="cls-1" d="M70.1,69.15c-.26,5.69-2.2,33.09-2.41,36.92h.55l37.83-.07h1c-.11-5.82-2.39-22.43-4.12-33.9-.44-2.9-.84-5.46-1.16-7.45"/><path class="cls-1" d="M81.8,28.42c.12-.84.25-1.84.44-2.84A9.83,9.83,0,0,1,84.11,21a5.22,5.22,0,0,1,1.29-1.08c1.9-1.09,3.86-.13,5.57,1.64a16.58,16.58,0,0,1,1.64,2,25.08,25.08,0,0,1,3.42,7c.89,3.47-4,11.29-5.42,11.85a2.38,2.38,0,0,1-.52.15c-2.07.38-4.7-1.46-5.58-3.28"/><path class="cls-1" d="M81.09,50.07v-.24c0-5.85-.32-11.17.17-17"/><path class="cls-2" d="M90,42.77l.06.23c.52,2.21.66,5,1.62,6.92"/><path class="cls-1" d="M82.62,29.47a5.1,5.1,0,0,0-.86-1c-2.35-2-3.9,2.46-2.93,3.73a2.24,2.24,0,0,0,2.41.54,3,3,0,0,0,.54-.22"/><path class="cls-3" d="M92.65,23.55h0c.43,0,5.1-1,6.73-2.39.49-.42.71-.89.45-1.38-.63-1.24-4.73.07-8.81,1.76-3.88,1.61-7.76,3.55-8.65,4l-.15.07"/><path class="cls-1" d="M88.06,29.9a2.75,2.75,0,0,0-2.43.44"/><path class="cls-1" d="M81.31,30.28a2.45,2.45,0,0,1-1.56.62"/><path class="cls-1" d="M93.51,30.06c-.66-.31-2.17-.22-2.43.43-.43,1.05.21,3.24.48,4.49.19.86.49,2.51-1,2.07"/><path class="cls-1" d="M88.5,39.18A1.76,1.76,0,0,0,91.23,39"/><path class="cls-1" d="M79.81,52.23h0c-.19,0-5.66-.17-8.73,1.43C67.56,55.5,53.53,66.4,49.84,73l-7.1,20.68.13,0c.75.21,4.39,1.26,5.12,1.4a.28.28,0,0,0,.11,0c.31,0,9-16.36,9-16.36l12.93-9.67,3.64-2.72"/><path class="cls-1" d="M46.51,99.51a9.06,9.06,0,0,1-.94,2.83c-1.45,2.74-4,3.88-4.93,2.2"/><path class="cls-1" d="M44.62,99.46a6.94,6.94,0,0,1-3.75,5l-.23.11c-.53.24-1.47.57-1.81-.13a1.15,1.15,0,0,1,.38-1.36l.07,0"/><path class="cls-1" d="M42.58,98.93c-.24,1.33-2.09,3.38-3.38,4.12a1.74,1.74,0,0,1-.81.27c-1.36,0-1.29-1.41-.26-2.11,3.52-2.4,2.69-6.5,4.74-7.47"/><path class="cls-1" d="M45.61,102.36a1.39,1.39,0,0,0,2.08-.78,8.37,8.37,0,0,0,.63-2.78A8.71,8.71,0,0,0,48,95.23"/><path class="cls-1" d="M146.11,93.57a2.54,2.54,0,0,1-.11,1.67,2.63,2.63,0,0,1-3.11,1.52l-.32-.11a2.62,2.62,0,1,1,3.54-3.08Z"/><path class="cls-1" d="M146.33,93.5c.76-1,.26-2.12-.68-2.84a3.25,3.25,0,0,0-.67-.41,3.67,3.67,0,0,0-4.9,1.46"/><path class="cls-1" d="M145.87,90.61c.27-1.45-1.38-2-2-2.13a1.91,1.91,0,0,0-.33-.06c-1.69-.28-3.2,0-4.17,1.74"/><path class="cls-1" d="M79.81,52.21c.32-.82.42-1.86,1.22-2.35l.06,0c1-.46,6.88-1,10.18-.11a1.58,1.58,0,0,1,.44.2,4.08,4.08,0,0,1,1.54,2.29s7.77.36,10.55,2.1c5,3.16,15.53,22.72,16.66,23.84,2.63,2.62,12.5,8.31,16.29,10.3a7.35,7.35,0,0,0,1.48.7c.66-1.51,4-3.06,5.36-.94"/><path class="cls-1" d="M103,72.09s10,11.7,11.87,12.81a200.59,200.59,0,0,0,21.27,8.75c.75.24,1.46.45,2.1.62a.87.87,0,0,1,.59.5c.41,1,1.68,3.22,4.09,2"/><polyline class="cls-1" points="99.42 21.21 147.94 15.77 147.94 20.32 147.94 186.64 147.94 186.65"/><path class="cls-1" d="M136.11,93.59c1.07-.73,1.38-4.38.62-5.12"/></svg>