<svg id="Layer_1" data-name="Layer 1" xmlns="http://www.w3.org/2000/svg" viewBox="0 0 200 200"><defs><style>.cls-1,.cls-2,.cls-3,.cls-4,.cls-6,.cls-7{fill:none;}.cls-2,.cls-3,.cls-4{stroke:#000;}.cls-2,.cls-3,.cls-7{stroke-linecap:round;}.cls-2,.cls-7{stroke-linejoin:round;}.cls-2,.cls-3,.cls-4,.cls-5,.cls-6,.cls-7{stroke-width:0.86px;}.cls-3,.cls-4,.cls-5{stroke-miterlimit:10;}.cls-5,.cls-6,.cls-7{stroke:#fff;}.cls-6{stroke-linecap:square;stroke-linejoin:bevel;}</style></defs><path class="cls-1" d="M88.6,49.89a43,43,0,0,0,10.19-1.75c4.32-1.25,7.67-2.93,7-4.17s-4.73.13-8.81,1.84c-2.1-2.2-4.58-3.19-6.89-.61a7.49,7.49,0,0,0-1.61,4.55l0,0A.07.07,0,0,0,88.6,49.89Z"/><path class="cls-1" d="M170.85,121.05h0c-1.94-1.91-4-.93-5.4.66-2.88,3.31-8.1,6.07-8.7,6.64l-5.27,7.49-.07-.05,5.09-7.33s-20.65-15.12-28.09-19.53c-7.82-4.63-16.48-5.42-37.38,2.08l0,0c-1.68-3.65-5.45-8-5-21.63h0s11,13.14,16.5,10.83,11.49-24.67,11.49-24.67h-.14v-.08c.27-.84,2.52-3.19,4.42-4.29,1-.56,2.08-.92,2.7-1.35a.75.75,0,0,0-.14-1.33l.28-.1a1,1,0,0,0,.33-.91c-.18-.58-1.11-.74-2.29-.58l0-.23c-.25-.94-1.39-.74-1.9-.66-2.77.44-6.44,3.25-6.65,3.93l-.28.07c-.41-.33-.85-.45-.88-.53-.11-.24,1.24-3,0-3.29-.49-.11-1,.42-1.14.8-.38.74-1.32,3.66-.51,8.31v0h-.28c-4.45,11-7.73,15.55-8,15.54s-8.92-13.06-12-14.49c-1.82-.83-7.91-1.05-7.91-1.05a2.72,2.72,0,0,0-1.71-2l0-.1c-1-2-1.1-4.78-1.61-7a2.29,2.29,0,0,0,.51-.15c1.39-.55,6.29-8.35,5.41-11.81-1-3.71-5.86-13.16-12-8.16-1.82,1.5-1.91,3.69-2.23,6l0,0c-2.34-2-3.89,2.44-2.92,3.71a2.22,2.22,0,0,0,2.4.54l0,.08c-.5,5.91-.17,11.29-.18,17.21l.09.16a3.32,3.32,0,0,0-1.23,2s-7.47-.2-9.45,2.09C53.13,82,44.33,92.14,44,92.15s-3-4.35-7.41-15.33h-.25c.88-4.57,0-7.33-.33-8.07-.18-.38-.63-.92-1.12-.82-1.3.26,0,3-.13,3.29a6.7,6.7,0,0,0-1,.61l-.16-.18c-.2-.68-3.8-3.58-6.55-4.08-.51-.09-1.65-.32-1.92.62l0,.23c-1.17-.19-2.11,0-2.3.53a1,1,0,0,0,.31.92l.12.17a.77.77,0,0,0,0,1.26c.61.44,1.7.83,2.67,1.41,1.87,1.14,4,3.3,4.3,4.15V77H30s6.19,23.51,11.84,25.43C46.3,104,57.75,90.84,57.75,90.84s-3,10.76-.49,30l.25-.08v.06a29.47,29.47,0,0,0,4.62,9.29A15.76,15.76,0,0,0,70,135.84c6.55,1.95,20.41.58,30.59-.44a13.35,13.35,0,0,1,8.23,1.95L135.86,157l6.27-6.42-23.62-25.17a20.87,20.87,0,0,0-3.26-2.71l0-.06a6.3,6.3,0,0,1,5.24.31l30.85,12.88h.11c3.45,2.31,5.73,3.83,6.31,4.24h0l0,0h0l.08.06h0l1.44,1,13-19.07Z"/><path d="M173.44,35.25H61.72V47.83a2.23,2.23,0,0,1-2.34,2.09H57.93c0,2.07-.18,4.84-.91,4.28s-1.3-2.88-1.57-4.31l-.22,0h-13a2.23,2.23,0,0,1-2.35-2.09V35.25H26.56A8.56,8.56,0,0,0,18,43.82V161a8.57,8.57,0,0,0,8.57,8.57H173.44A8.57,8.57,0,0,0,182,161V43.82A8.56,8.56,0,0,0,173.44,35.25ZM166.9,76.14l1.14-1a.08.08,0,0,0,0-.09l-.9-1.21a.06.06,0,0,1,.06-.1l1.49.26a.06.06,0,0,0,.07,0l.39-1.47a.06.06,0,0,1,.11,0l.73,1.34a.06.06,0,0,0,.08,0l1.38-.62a.07.07,0,0,1,.09.08L171,74.7s0,.06,0,.08l1.35.7a.07.07,0,0,1,0,.12l-1.46.41s0,0,0,.07l.29,1.49a.06.06,0,0,1-.1.06l-1.23-.89a.06.06,0,0,0-.08,0l-1,1.16a.06.06,0,0,1-.11,0l-.08-1.51a.06.06,0,0,0-.06-.06l-1.51,0A.06.06,0,0,1,166.9,76.14Zm-.12,26.57.81.78s0,0,.06,0l.85-.74s.08,0,.08,0l-.12,1.12a0,0,0,0,0,0,0l1.11.2a.05.05,0,0,1,0,.09l-.95.61a0,0,0,0,0,0,.06l.53,1s0,.08-.06.07l-1.06-.36a0,0,0,0,0-.06,0l-.44,1s-.08,0-.09,0l-.39-1.06s0,0,0,0l-1.09.31a0,0,0,0,1-.05-.07l.59-1s0,0,0-.06l-.91-.66s0-.08,0-.08l1.12-.14a.05.05,0,0,0,0,0l-.05-1.13A0,0,0,0,1,166.78,102.71Zm-8.2-55.25,1.63-1.5a.14.14,0,0,0,0-.14l-.94-2a.11.11,0,0,1,.14-.15l2.11.65a.11.11,0,0,0,.13,0l1.26-1.82a.12.12,0,0,1,.21,0l.48,2.16a.14.14,0,0,0,.11.09l2.2.18a.12.12,0,0,1,.07.2l-1.63,1.5a.13.13,0,0,0,0,.13l.94,2a.11.11,0,0,1-.14.15L163,48.27a.11.11,0,0,0-.13,0l-1.26,1.82a.12.12,0,0,1-.21,0L161,47.93a.14.14,0,0,0-.11-.09l-2.2-.18A.12.12,0,0,1,158.58,47.46Zm-16.8,21.15.91-.22s0,0,0,0l-.14-.93s0,0,.06,0l.74.58a0,0,0,0,0,.05,0l.64-.68a0,0,0,0,1,.07,0v.94a0,0,0,0,0,0,0l.93.07a0,0,0,0,1,0,.07l-.73.59a0,0,0,0,0,0,0l.53.77a0,0,0,0,1,0,.06l-.91-.2s0,0-.05,0l-.28.89a0,0,0,0,1-.07,0l-.41-.85,0,0-.87.35s-.06,0-.05-.06l.4-.84s0,0,0,0l-.81-.47S141.74,68.61,141.78,68.61ZM134,94.88l1.09-1a.08.08,0,0,0,0-.09l-.63-1.35a.08.08,0,0,1,.09-.11l1.42.44a.08.08,0,0,0,.09,0l.85-1.22a.07.07,0,0,1,.13,0l.33,1.45a.09.09,0,0,0,.07.06l1.48.13a.07.07,0,0,1,.05.13l-1.09,1a.08.08,0,0,0,0,.09l.63,1.35a.07.07,0,0,1-.09.1L137,95.42a.08.08,0,0,0-.09,0L136,96.67a.07.07,0,0,1-.13,0l-.33-1.46a.11.11,0,0,0-.07-.06L134,95A.08.08,0,0,1,134,94.88ZM121.35,48.6l1.59-.37a.05.05,0,0,0,0-.07l-.24-1.62a.07.07,0,0,1,.11-.07l1.28,1a.08.08,0,0,0,.1,0l1.11-1.2a.07.07,0,0,1,.12,0V48a.07.07,0,0,0,.07.06l1.63.13a.07.07,0,0,1,0,.12l-1.28,1a.08.08,0,0,0,0,.1l.92,1.35a.06.06,0,0,1-.07.1l-1.6-.36a.09.09,0,0,0-.08,0l-.48,1.56a.07.07,0,0,1-.13,0l-.71-1.47a.08.08,0,0,0-.09,0l-1.52.6a.07.07,0,0,1-.09-.1l.7-1.47a.06.06,0,0,0,0-.09l-1.42-.82A.07.07,0,0,1,121.35,48.6ZM90.13,45.2c2.31-2.58,4.79-1.59,6.89.61,4.08-1.71,8.19-3.05,8.81-1.84s-2.72,2.92-7,4.17A43,43,0,0,1,88.6,49.89a.07.07,0,0,1-.06-.12l0,0A7.49,7.49,0,0,1,90.13,45.2ZM94,64.42a0,0,0,0,1,0,0l-.75-.25s0,0,0,0l-.31.73a0,0,0,0,1-.06,0l-.27-.74s0,0,0,0l-.76.21s0,0,0,0l.42-.68a.06.06,0,0,0,0,0l-.64-.46s0-.06,0-.06l.79-.1a0,0,0,0,0,0,0l0-.79s0,0,.06,0l.56.55h0l.59-.52s.06,0,.06,0l-.08.79s0,0,0,0l.78.14s0,.05,0,.06l-.66.43a0,0,0,0,0,0,0ZM48.89,71.11l.91-.22s0,0,0,0l-.14-.93s0-.06.06,0l.74.58s0,0,0,0l.64-.68a0,0,0,0,1,.07,0v.94a0,0,0,0,0,0,0l.93.07a0,0,0,0,1,0,.07l-.73.59a0,0,0,0,0,0,0l.53.77a0,0,0,0,1,0,.06l-.91-.2s0,0,0,0l-.28.9a0,0,0,0,1-.07,0l-.41-.85s0,0-.05,0l-.87.35s-.06,0-.05-.06l.4-.84s0,0,0,0l-.81-.47S48.85,71.11,48.89,71.11ZM23.94,49l.91-.22s0,0,0,0l-.14-.93s0,0,.06,0l.74.58s0,0,.05,0l.64-.68a0,0,0,0,1,.07,0v.94a0,0,0,0,0,0,0l.93.07a0,0,0,0,1,0,.07l-.73.59a0,0,0,0,0,0,0l.53.77a0,0,0,0,1,0,.06l-.91-.2s0,0-.05,0L25.8,51a0,0,0,0,1-.07,0l-.41-.85-.05,0-.87.35s-.06,0,0-.06l.4-.84s0,0,0,0l-.81-.47S23.9,49,23.94,49Zm2.83,47.63-.69.63a.07.07,0,0,0,0,.06l.4.84a.05.05,0,0,1-.06.07l-.89-.28s0,0-.06,0l-.53.76s-.08,0-.08,0l-.21-.91s0,0,0,0l-.93-.08a0,0,0,0,1,0-.08l.68-.63a0,0,0,0,0,0-.06l-.39-.84A.05.05,0,0,1,24,96l.89.28s0,0,.05,0l.53-.77a.05.05,0,0,1,.09,0l.2.91a.1.1,0,0,0,0,0l.93.07A.05.05,0,0,1,26.77,96.62Zm8,60.77-1.63,1.5a.12.12,0,0,0,0,.13l.94,2a.12.12,0,0,1-.14.16l-2.11-.65a.11.11,0,0,0-.13,0l-1.26,1.82a.12.12,0,0,1-.21,0l-.48-2.16a.13.13,0,0,0-.11-.09l-2.2-.19a.11.11,0,0,1-.07-.19l1.62-1.5a.12.12,0,0,0,0-.14l-.94-2a.12.12,0,0,1,.14-.16l2.11.66a.11.11,0,0,0,.13-.05l1.26-1.81a.11.11,0,0,1,.2,0l.49,2.16a.12.12,0,0,0,.11.08l2.2.19A.12.12,0,0,1,34.79,157.39Zm5.34-36.11-1.29,1.19a.09.09,0,0,0,0,.11l.75,1.59a.09.09,0,0,1-.11.13l-1.68-.52a.11.11,0,0,0-.11,0l-1,1.45a.1.1,0,0,1-.17,0l-.39-1.72a.08.08,0,0,0-.08-.07l-1.75-.15a.1.1,0,0,1-.06-.16l1.3-1.19a.11.11,0,0,0,0-.11l-.75-1.59a.09.09,0,0,1,.11-.13l1.68.52a.09.09,0,0,0,.1,0l1-1.45a.09.09,0,0,1,.16,0l.39,1.72a.08.08,0,0,0,.08.07l1.76.15A.09.09,0,0,1,40.13,121.28ZM69,158.91l-1.71.39a.08.08,0,0,0-.07.08l-.15,1.76a.09.09,0,0,1-.16.05l-1.2-1.29a.08.08,0,0,0-.1,0l-1.6.75a.09.09,0,0,1-.12-.11l.52-1.69a.1.1,0,0,0,0-.1l-1.45-1a.09.09,0,0,1,0-.17l1.72-.39a.08.08,0,0,0,.07-.08l.15-1.75a.09.09,0,0,1,.16-.06l1.19,1.3a.14.14,0,0,0,.11,0l1.59-.75a.09.09,0,0,1,.13.11l-.52,1.68a.08.08,0,0,0,0,.1l1.45,1A.09.09,0,0,1,69,158.91Zm27.21-12.69-1,.61s0,0,0,.06l.54,1s0,.08-.06.06l-1.07-.36a.05.05,0,0,0,0,0l-.45,1s-.07,0-.08,0l-.39-1.05a0,0,0,0,0-.06,0l-1.08.3s-.08,0,0-.07l.58-1a0,0,0,0,0,0-.07l-.91-.66a0,0,0,0,1,0-.08l1.12-.14a.07.07,0,0,0,0,0l-.05-1.13a0,0,0,0,1,.08,0l.8.78a.06.06,0,0,0,.07,0l.85-.75s.08,0,.07,0l-.11,1.12a.07.07,0,0,0,0,.06l1.11.2S96.28,146.2,96.25,146.22ZM124,162.57l-1,.61a0,0,0,0,0,0,.06l.53,1a.05.05,0,0,1-.06.07l-1.06-.36a0,0,0,0,0-.06,0l-.44,1s-.08,0-.09,0l-.39-1.06s0,0,0,0l-1.09.3a0,0,0,0,1,0-.07l.59-1a0,0,0,0,0,0-.06l-.91-.66a.05.05,0,0,1,0-.09l1.12-.14a0,0,0,0,0,0,0l0-1.12a0,0,0,0,1,.08,0l.81.79s0,0,.06,0l.85-.74s.08,0,.08,0l-.12,1.12s0,.05,0,.05l1.11.2A.05.05,0,0,1,124,162.57Zm33.91-22.39h0l-.08-.06h0l0,0h0c-.58-.41-2.86-1.93-6.31-4.24h-.11L120.53,123a6.3,6.3,0,0,0-5.24-.31l0,.06a20.87,20.87,0,0,1,3.26,2.71l23.62,25.17L135.86,157l-27.05-19.66a13.35,13.35,0,0,0-8.23-1.95c-10.18,1-24,2.39-30.59.44a15.76,15.76,0,0,1-7.85-5.76,29.47,29.47,0,0,1-4.62-9.29v-.06l-.25.08c-2.53-19.21.49-30,.49-30S46.3,104,41.88,102.46C36.23,100.54,30,77,30,77h.14v-.16c-.26-.85-2.43-3-4.3-4.15-1-.58-2.06-1-2.67-1.41a.77.77,0,0,1,0-1.26l-.12-.17a1,1,0,0,1-.31-.92c.19-.58,1.13-.72,2.3-.53l0-.23c.27-.94,1.41-.71,1.92-.62,2.75.5,6.35,3.4,6.55,4.08l.16.18a6.7,6.7,0,0,1,1-.61c.11-.24-1.17-3,.13-3.29.49-.1.94.44,1.12.82.37.74,1.21,3.5.33,8.07h.25c4.45,11,7.1,15.34,7.41,15.33S53.13,82,56.67,77.87c2-2.29,9.45-2.09,9.45-2.09a3.32,3.32,0,0,1,1.23-2l-.09-.16c0-5.92-.32-11.3.18-17.21l0-.08a2.22,2.22,0,0,1-2.4-.54c-1-1.27.58-5.74,2.92-3.71l0,0c.32-2.27.41-4.46,2.23-6,6.1-5,11,4.45,12,8.16.88,3.46-4,11.26-5.41,11.81a2.29,2.29,0,0,1-.51.15c.51,2.25.65,5,1.61,7l0,.1a2.72,2.72,0,0,1,1.71,2s6.09.22,7.91,1.05c3.11,1.43,11.71,14.48,12,14.49s3.59-4.55,8-15.54h.28v0c-.81-4.65.13-7.57.51-8.31.19-.38.65-.91,1.14-.8,1.29.29-.06,3.05,0,3.29,0,.08.47.2.88.53l.28-.07c.21-.68,3.88-3.49,6.65-3.93.51-.08,1.65-.28,1.9.66l0,.23c1.18-.16,2.11,0,2.29.58a1,1,0,0,1-.33.91l-.28.1a.75.75,0,0,1,.14,1.33c-.62.43-1.72.79-2.7,1.35-1.9,1.1-4.15,3.45-4.42,4.29v.08h.14s-6,22.36-11.49,24.67S86.07,89.4,86.07,89.4h0c-.48,13.67,3.29,18,5,21.63l0,0c20.9-7.5,29.56-6.71,37.38-2.08,7.44,4.41,28.09,19.53,28.09,19.53l-5.09,7.33.07.05,5.27-7.49c.6-.57,5.82-3.33,8.7-6.64,1.38-1.59,3.46-2.57,5.4-.66h0l1.52,1-13,19.07Zm16.25,5.87-.73.59a0,0,0,0,0,0,.05l.52.77a0,0,0,0,1,0,.06l-.91-.2a0,0,0,0,0-.05,0l-.27.9a0,0,0,0,1-.08,0l-.41-.84s0,0-.05,0l-.87.35s-.06,0,0-.06l.41-.84s0,0,0-.05l-.81-.47s0-.07,0-.07l.91-.22s0,0,0,0l-.14-.93a0,0,0,0,1,.07,0l.73.58s0,0,0,0l.64-.68a0,0,0,0,1,.07,0v.94a0,0,0,0,0,0,0l.93.07A0,0,0,0,1,174.18,146.05Z"/><path d="M170.85,121.05h0l0,0-13,19.07c-.58-.41-2.86-1.93-6.31-4.24h-.11l0-.05.07.05,5.27-7.49c.6-.57,5.82-3.33,8.7-6.64C166.83,120.12,168.91,119.14,170.85,121.05Z"/><path d="M36.35,76.82h.25c4.45,11,7.1,15.34,7.41,15.33S53.13,82,56.67,77.87c2-2.29,9.45-2.09,9.45-2.09a3.32,3.32,0,0,1,1.23-2c.75-.47,6.87-1.3,10.25-.52a.83.83,0,0,1,.21.06,2.72,2.72,0,0,1,1.71,2s6.09.22,7.91,1.05c3.11,1.43,11.71,14.48,12,14.49s3.59-4.55,8-15.54h.28l6.14.2h.14s-6,22.36-11.49,24.67S86.07,89.4,86.07,89.4h0c-.48,13.67,3.29,18,5,21.63h0l-33.49,9.7-.25.08c-2.53-19.21.49-30,.49-30S46.3,104,41.88,102.46C36.23,100.54,30,77,30,77h.14Z"/><path class="cls-2" d="M115.29,122.65a6.3,6.3,0,0,1,5.24.31l30.85,12.88,0-.05,5.09-7.33s-20.65-15.12-28.09-19.53c-7.82-4.63-16.63-5.53-37.53,2"/><path class="cls-2" d="M57.52,120.79a29.47,29.47,0,0,0,4.62,9.29A15.76,15.76,0,0,0,70,135.84c6.55,1.95,20.41.58,30.59-.44a13.35,13.35,0,0,1,8.23,1.95L135.86,157l6.27-6.42-23.62-25.17a20.87,20.87,0,0,0-3.26-2.71c-4.79-3.34-14.88-8.25-30.43-5.58"/><circle cx="79.03" cy="55.29" r="0.42"/><circle cx="73.42" cy="55.2" r="0.42"/><line class="cls-2" x1="46.1" y1="40.94" x2="47.78" y2="40.94"/><polygon class="cls-2" points="46.1 40.94 46.1 35.26 42.32 40.94 46.1 40.94"/><line class="cls-2" x1="46.1" y1="44.29" x2="46.1" y2="40.94"/><line class="cls-2" x1="57.91" y1="40.94" x2="59.59" y2="40.94"/><polygon class="cls-2" points="57.91 40.94 57.91 35.27 54.13 40.94 57.91 40.94"/><line class="cls-2" x1="57.91" y1="44.29" x2="57.91" y2="40.94"/><ellipse class="cls-2" cx="50.93" cy="39.76" rx="2.16" ry="4.54"/><path class="cls-3" d="M68,52c.32-2.27.41-4.46,2.23-6,6.1-5,11,4.45,12,8.16.88,3.46-4,11.26-5.41,11.81a2.29,2.29,0,0,1-.51.15c-2.06.38-4.68-1.45-5.57-3.27"/><path class="cls-4" d="M67.26,73.62c0-5.92-.32-11.3.18-17.21"/><path class="cls-4" d="M76.18,66l.06.24c.51,2.25.65,5,1.61,7"/><path class="cls-3" d="M68.79,53.08a4.74,4.74,0,0,0-.86-1c-2.34-2-3.89,2.44-2.92,3.71a2.22,2.22,0,0,0,2.4.54,3.5,3.5,0,0,0,.55-.22"/><path class="cls-3" d="M88.52,49.75a7.49,7.49,0,0,1,1.61-4.55c2.31-2.58,4.79-1.59,6.89.61A16.71,16.71,0,0,1,98.73,48"/><path class="cls-4" d="M97,45.81c-3.73,1.56-7.44,3.43-8.46,3.95h0a.07.07,0,0,0,.06.12,43,43,0,0,0,10.19-1.75c4.32-1.25,7.67-2.93,7-4.17S101.1,44.1,97,45.81Z"/><path class="cls-3" d="M74.46,53a1.63,1.63,0,0,0-2.43.2"/><path class="cls-3" d="M79.79,53.08a1.64,1.64,0,0,0-2.44.19"/><path class="cls-2" d="M74.19,62.6c.47-.88,2.13-1.16,2.64-.27"/><path class="cls-3" d="M67.49,53.88a2.43,2.43,0,0,1-1.56.63"/><path class="cls-3" d="M77.32,53.32c-.49,1.22.09,3.14.27,4.4.13.87.31,2.54-1.17,2"/><path class="cls-3" d="M69.07,122c.13,4.46-3.06,7.08-6.93,8a14.83,14.83,0,0,1-2.75.4"/><polygon class="cls-5" points="157.93 140.18 159.37 141.16 172.38 122.09 170.85 121.05 170.8 121.02 157.81 140.09 157.8 140.09 157.83 140.11 157.85 140.12 157.93 140.18"/><path class="cls-2" d="M58.07,49.92h1.31a2.23,2.23,0,0,0,2.34-2.09V32.5a2.22,2.22,0,0,0-2.34-2.09H42.2a2.23,2.23,0,0,0-2.35,2.09V47.83a2.23,2.23,0,0,0,2.35,2.09h13"/><path class="cls-2" d="M55.25,48.68s.07.5.2,1.2c.27,1.43.81,3.71,1.57,4.31s.89-2.21.91-4.28c0-1.16,0-2.11,0-2.11"/><path class="cls-2" d="M30.18,76.86c-.26-.85-2.43-3-4.3-4.15-1-.58-2.06-1-2.67-1.41a.77.77,0,0,1,0-1.26,1.66,1.66,0,0,1,1-.14,12.05,12.05,0,0,1,5,2.62"/><path class="cls-2" d="M33.6,71.65c-.2-.68-3.8-3.58-6.55-4.08-.51-.09-1.65-.32-1.92.62"/><path class="cls-2" d="M30.2,71.08a9,9,0,0,0-5.11-2.66c-1.17-.19-2.11,0-2.3.53a1,1,0,0,0,.31.92"/><path class="cls-2" d="M33.18,73.56a1.83,1.83,0,0,1,.58-1.73,6.7,6.7,0,0,1,1-.61c.11-.24-1.17-3,.13-3.29.49-.1.9.46,1.12.82.4.66,1.28,6.12-.06,9.45"/><path class="cls-2" d="M113.92,75.48c.27-.84,2.52-3.19,4.42-4.29,1-.56,2.08-.92,2.7-1.35a.75.75,0,0,0-.14-1.33,1.81,1.81,0,0,0-.86-.09A12,12,0,0,0,115,70.93"/><path class="cls-2" d="M110.64,70c.21-.68,3.88-3.49,6.65-3.93.51-.08,1.65-.28,1.9.66"/><path class="cls-2" d="M114.05,69.46a9.07,9.07,0,0,1,5.17-2.54c1.18-.16,2.11,0,2.29.58a1,1,0,0,1-.33.91"/><path class="cls-2" d="M111,71.88a1.85,1.85,0,0,0-.66-1.85c-.41-.33-.85-.45-.88-.53-.11-.24,1.24-3,0-3.29-.49-.11-1,.42-1.14.8a14.94,14.94,0,0,0-.27,9"/><path class="cls-2" d="M61.64,35.25h111.8A8.56,8.56,0,0,1,182,43.82V161a8.57,8.57,0,0,1-8.57,8.57H26.56A8.57,8.57,0,0,1,18,161V43.82a8.56,8.56,0,0,1,8.57-8.57H39.79"/><path class="cls-6" d="M157.32,139.76c-.58-.41-5.61-4.51-5.63-4.48"/><path class="cls-6" d="M151.63,135.22l4.52-6.44c.6-.57,6.42-3.76,9.3-7.07,1.38-1.59,3.46-2.57,5.4-.66h0l-12.92,19.13h0l-.08-.06"/><polygon class="cls-5" points="141.29 162.36 142.52 163.6 158.95 147.4 157.65 146.08 157.62 146.04 141.19 162.25 141.18 162.25 141.21 162.28 141.22 162.29 141.29 162.36"/><path class="cls-6" d="M140.77,161.83c-.49-.51-4.63-5.5-4.65-5.48"/><path class="cls-6" d="M136.07,156.28l5.67-5.45c.7-.44,7-2.44,10.48-5.14,1.67-1.3,3.9-1.86,5.43.39h0l-16.36,16.28h0l-.07-.07"/><path class="cls-7" d="M86.07,89.4s11,13.14,16.5,10.83,11.31-24.78,11.31-24.78l-6.15-.2c-4.45,11-8,15.65-8.27,15.64s-8.92-13.06-12-14.49c-1.82-.83-7.91-1.05-7.91-1.05a2.72,2.72,0,0,0-1.71-2,.83.83,0,0,0-.21-.06c-3.38-.78-9.5,0-10.25.52a3.32,3.32,0,0,0-1.23,2s-7.47-.2-9.45,2.09C53.13,82,44.33,92.14,44,92.15s-7.66-15.08-7.66-15.08l-6,.16s5.91,23.31,11.56,25.23C46.3,104,57.75,90.84,57.75,90.84s-3,10.76-.49,30l.25-.08L91,111h0c-1.68-3.65-5.45-8-5-21.63v-.07"/></svg>