<svg id="Layer_1" data-name="Layer 1" xmlns="http://www.w3.org/2000/svg" viewBox="0 0 200 200"><defs><style>.cls-1,.cls-2,.cls-3,.cls-4,.cls-5,.cls-6,.cls-7,.cls-9{fill:none;}.cls-2,.cls-3,.cls-4,.cls-7,.cls-8{stroke:#000;}.cls-2,.cls-7{stroke-linejoin:round;}.cls-2,.cls-3,.cls-4,.cls-5,.cls-6,.cls-7,.cls-8,.cls-9{stroke-width:0.86px;}.cls-3,.cls-4,.cls-5,.cls-6,.cls-8,.cls-9{stroke-miterlimit:10;}.cls-4,.cls-7,.cls-9{stroke-linecap:round;}.cls-5,.cls-6,.cls-9{stroke:#fff;}.cls-5{stroke-linecap:square;}</style></defs><path d="M75.28,123.71l-19.9,0h-.06a44.19,44.19,0,0,1,.47-9.54v0c4.53,1.36,10.88,2.78,18.49,4.36l1.06.22h0c1.64.41,3.66.24,4.55,2.41.08.19.17.52.28.88l-.2,0-3.63.17a1.06,1.06,0,0,0-.93,1.5Z"/><path d="M76.9,112.33a6.2,6.2,0,0,0-2.58,5.88l0,.24c-7.61-1.58-14-3-18.49-4.36s-7.09-2.57-7.51-3.84c-3.23-9.79,3.89-29.59,7.62-33.27,2.17-2.13,7.18-3.79,12.58-4.84a4,4,0,0,1,1.24-1.77,1.45,1.45,0,0,1,.24-.1,25,25,0,0,1,9.94,0,2.92,2.92,0,0,1,.56.21,2.25,2.25,0,0,1,1.37,1.7s10.1,1.14,12,3.53c2.28,2.84,6.28,12.63,9.6,27.65L91,103.78A3.16,3.16,0,0,0,88,106.55l-2,12.52c-.19-1.73-.32-3.82-2.16-4.37S79.59,113.3,76.9,112.33Z"/><path d="M145.65,35.68c-1.39-.19-3.36-4.88-.24-6.54l.32-.18v0a27.25,27.25,0,0,1,4.4,29.16c.3-4.19.86-8.22-2.31-10.52-4.63-3.36-10.46.47-10.46.47,0-5.6.32-10.67-.18-16.26v0a1.74,1.74,0,0,0,1.92-.56,2.75,2.75,0,0,0,.14-2h.05a1.68,1.68,0,0,0,1.23.63h0c-.5,1.85-1,6,5.11,5.8Z"/><path d="M137.58,24.4l-.11,0c-.26-.24-.63-.26-1.13.12l-.13,0a14.43,14.43,0,0,0-.87-2.93c.81.32,1.61.68,2.39,1.08A4.47,4.47,0,0,0,137.58,24.4Z"/><path d="M130.32,41.27a31,31,0,0,1-1.62,6.35c-.19-1-2.48-2.37-4.3-2.37-6.23,0-7.48,6.25-8.19,9.8-.15-2.15-.3-4.19-.38-4.91s.06-1.8-1.63-1.77c-1.38,0-2.62,0-4.07,0a1,1,0,0,0-1,1.17c0,.26.06.57.1.89h0a2.55,2.55,0,0,0-2.49,2.59,1.75,1.75,0,0,0,.24.81h0a2.26,2.26,0,0,0,.33,2.3c-.4,1.77,1,2.37,2,2.39H110v.17l.2,1.89a1.17,1.17,0,0,0,1.28,1.09l.39,0c0,1.29-.88,8.58,2.14,9.9l-.07.15a27.26,27.26,0,0,1,11.38-52h.77a9.67,9.67,0,0,0-3.25,8.18,3.56,3.56,0,0,0,.8.32l-.09.29c0,.35,0,.72,0,1.09l0,0a2.37,2.37,0,0,0,.24,4l0,0c.41,3.73,1.46,7.25,4.11,7.78A4.89,4.89,0,0,0,130.32,41.27Z"/><path d="M122.38,55.47c0,.59-.17,10.61-2.51,18l0,.17a27.19,27.19,0,0,1-5.94-1.94l.07-.15a2.25,2.25,0,0,0,.64.18C118.3,72.29,122.38,55.47,122.38,55.47Z"/><path class="cls-1" d="M139.14,180.25v1.9H116V180.4h0l23.09-.1v-.05Z"/><path d="M125.05,172.55h.18v.08h0c.8.18,5.9,2.93,10.25,3.44,2.09.25,4.06,1.4,3.6,4H116v-7.57Z"/><path d="M90,154.83c.47,1.25,1.73,6.4,4,9.79,1.18,1.73,1.6,4-.68,5.37L78.21,152.55h0l5.52-4.8a78.88,78.88,0,0,0,6.4,7Z"/><polyline class="cls-2" points="90.73 140.42 56.66 140.42 56.66 182.29 106.96 182.29 106.96 143.7"/><path class="cls-2" d="M75.38,118.38c-15.62-3.22-26.22-5.8-27.09-8.42-3.23-9.79,3.89-29.6,7.62-33.27,2.17-2.14,7.18-3.79,12.58-4.85a4,4,0,0,1,1.24-1.77c.77-.46,6.83-1,10.18-.13a2.49,2.49,0,0,1,1.93,1.91s10.1,1.14,12,3.54c2.29,2.85,6.3,12.39,9.64,27.49"/><path class="cls-3" d="M55.79,113.85c-2.15,14.8,2.07,21.89,10.55,25.5a18.6,18.6,0,0,0,4.76,1.09l19.64-.08"/><path class="cls-3" d="M122.92,133c1.14,5.22,1.34,15.06,2.33,39.88"/><path class="cls-3" d="M122.68,106.42l-3.14,17.63a3.17,3.17,0,0,1-2.86,2.68l-28.26,1.78a3.27,3.27,0,0,1-3.26-3.89L88,106.25A3.15,3.15,0,0,1,91,103.49l28.54-1A3.28,3.28,0,0,1,122.68,106.42Z"/><path class="cls-3" d="M87.14,128.32,76,123.9a1.06,1.06,0,0,1,.36-2L80,121.7"/><line class="cls-3" x1="55.53" y1="123.38" x2="75.28" y2="123.42"/><path class="cls-4" d="M75.35,118.38c1.64.4,3.66.24,4.55,2.41.3.71.77,3.48,2.13,2.37.57-.47.36-1.86.25-2.52a9.86,9.86,0,0,0-1.15-3.25"/><path class="cls-4" d="M83.49,116.63c.73,1.32,1.94,7.24-1.1,6.4"/><path class="cls-4" d="M84.2,122.49c0,.17,1.09.56,1.29-.11"/><path class="cls-5" d="M94.1,102.58c-.37-2.39-2.67-10-4-15.21"/><path class="cls-6" d="M74.07,118.15c0-3.18,1.25-5.09,3.09-6.14"/><path class="cls-4" d="M64.21,126.63c.16,5.48-4.71,8.18-9.68,8.43"/><path class="cls-4" d="M70.68,48.72c.31-2.27.72-5.63,2.3-7.39,5.07-5.66,10.94,5.87,11.89,9.58.88,3.47-4,11.26-5.41,11.82-2.11.84-5.12-1.15-6.08-3.12"/><path class="cls-3" d="M70,70.31a102,102,0,0,1,.14-17.21"/><path class="cls-3" d="M78.89,62.63c.56,2.37.68,5.38,1.67,7.52"/><path class="cls-4" d="M71.5,49.76c-2.8-4.12-4.86,1.3-3.79,2.72.7.91,2.17.74,3,.31"/><path class="cls-3" d="M81.44,43.91c.34,0,8.37-1.6,7.24-3.8C87.39,37.59,71.93,45.54,71,46"/><path class="cls-4" d="M70.19,50.57a2.39,2.39,0,0,1-1.56.63"/><circle cx="76.55" cy="53.21" r="0.42"/><circle cx="81.61" cy="53.21" r="0.42"/><path class="cls-4" d="M80,52c-.49,1,.08,2.66.27,3.73.12.73.31,2.15-1.18,1.68"/><path class="cls-3" d="M125.05,172.55l-9,0a267.5,267.5,0,0,0-7.22-30.13"/><path class="cls-7" d="M125.25,172.62c.8.18,5.9,2.93,10.25,3.44,2.1.25,4.08,1.42,3.6,4.09l-23.09.11"/><rect class="cls-7" x="115.99" y="180.25" width="23.15" height="1.9" transform="translate(255.13 362.39) rotate(-180)"/><line class="cls-3" x1="116" y1="172.53" x2="116" y2="180.08"/><path class="cls-8" d="M90.3,155c.42,1.29,1.52,6.36,3.76,9.63,1.08,1.59,1.53,3.61-.18,5a.69.69,0,0,1-.95-.07L78.54,153.17a.68.68,0,0,1,.06-.95L83.53,148"/><path class="cls-4" d="M75,58.11c.17,1.39,2.18,1.39,2.54,1"/><path class="cls-9" d="M62.47,87.73c-2.13,6.72-4.79,15.21-4.25,16.26s10.9,5,19,7.91"/><path class="cls-5" d="M74.16,117.81c-8.13-1.13-14.58-2.42-19.51-3.57"/><path class="cls-4" d="M123.77,33.39c.41,3.73,1.46,7.24,4.11,7.78A6.19,6.19,0,0,0,134,38.05"/><path class="cls-4" d="M123.51,28.24c0,.34,0,.71,0,1.09"/><path class="cls-4" d="M135.84,28.36c2.42-3.92,4.22,1.24,3.28,2.59a2,2,0,0,1-2.56.3"/><path class="cls-4" d="M137.84,28.49a2.42,2.42,0,0,0,.16,1.67"/><path class="cls-7" d="M136.58,26.73a4.45,4.45,0,0,1-2.16,1.52A6.75,6.75,0,0,1,128,25.48c-.46,1-.71,1.82-1.66,2.25a4,4,0,0,1-3.52-.1c-.83-6.39,6.49-13.52,11.56-7.86,1.57,1.76,2,5.12,2.3,7.39"/><path class="cls-4" d="M136.34,24.26c1.59-1.2,1.88,1.66,1.49,2.53"/><path class="cls-7" d="M142.91,27.91a2.12,2.12,0,0,1-3.6,1"/><path class="cls-7" d="M137.58,24.1c-.28-2.52,2.07-7.14,7.78-4.92,4.46,1.73,4.31,7.41,0,9.66-3.12,1.66-1.14,6.37.25,6.55"/><path class="cls-7" d="M145.65,35.39c-6.15.15-5.61-3.94-5.11-5.8"/><ellipse class="cls-7" cx="130.95" cy="31.28" rx="2.31" ry="2.36"/><ellipse class="cls-7" cx="124.86" cy="31.28" rx="2.31" ry="2.36"/><path class="cls-4" d="M135.78,28.4s-2.71,1.75-2.73,1.75"/><path class="cls-7" d="M128.62,31.32a.72.72,0,0,0-1.44,0"/><path class="cls-7" d="M131.75,36.84A1.62,1.62,0,0,1,129.52,38"/><path class="cls-7" d="M127.31,31.1a8.38,8.38,0,0,1-.21,1.48c-.06.39-.61,2.59-.67,2.92s1.18.42,1.48.47"/><path class="cls-4" d="M145.85,64.5c-2.78-3-12.48-11.57-12.88-11.86a4.06,4.06,0,0,0-2-.45,28.64,28.64,0,0,0-6,.1c-1,.12-1.24,1.49-.08,1.57.78,0,1.64-.06,2.43-.06a23.39,23.39,0,0,1,3.14.09"/><path class="cls-4" d="M130.47,53.94a7,7,0,0,0-3.35.42c-1.58.65-.65,2.1-.36,2.4"/><path class="cls-4" d="M130.38,55.5c-.79-.06-3.81-.24-3.64,1.69.05.52,1.2,2.52,2.6,2.18a.61.61,0,0,0,.5-.79c-.1-.37-.52-.57-.77-.83s-.3-.27-.13-.43a2.92,2.92,0,0,1,1.57,0c3.54,1.71,9.12,9.42,10.66,11.24"/><path class="cls-3" d="M113.07,54.64a.82.82,0,0,0,.54-1.52,33.5,33.5,0,0,0-4-.54.87.87,0,0,1-.58-.23c-.27-.36.13-.87.53-.88"/><path class="cls-3" d="M109.19,50.17a2.54,2.54,0,0,0-2.49,2.58c.09,1.47,1.63,1.92,2.2,2s4.46-.2,5,0,.93,1.41,0,1.73a36.67,36.67,0,0,1-4.88.15,2.15,2.15,0,0,1-2.14-3"/><path class="cls-3" d="M113.72,56.55a.81.81,0,0,1,0,1.51,35.18,35.18,0,0,1-4.45.21c-1.15,0-2.56-.67-2-2.62"/><path class="cls-3" d="M110,58.45l.2,1.88a1.18,1.18,0,0,0,1.28,1.1l4.22-.28a1.18,1.18,0,0,0,.91-1.36c-.2-2.64-.58-8.6-.74-9.95-.09-.73.06-1.8-1.62-1.76-1.39,0-2.63,0-4.08,0a1,1,0,0,0-1,1.17c.1,1,.3,2.43.4,3.42"/><path class="cls-2" d="M150.17,57.81c.3-4.25.74-9.51-2.75-11.41-5.36-2.91-10,1.39-10,1.39,0-5.59.32-10.67-.18-16.25"/><path class="cls-2" d="M116.2,54.82c.7-3.54,1.93-9.86,8.2-9.86,1.82,0,3.87.84,4.3,2.37a30.39,30.39,0,0,0,1.62-6.4"/><path class="cls-2" d="M119.87,73.23c2.34-7.45,2.53-17.47,2.51-18.06,0,0-4.08,16.82-7.77,16.32s-2.78-8.95-2.78-10.14"/><path class="cls-2" d="M136.14,55.38l6.25.09s0,1.81,0,5.65"/><line class="cls-2" x1="122.38" y1="55.17" x2="126.27" y2="55.23"/><path class="cls-3" d="M137.73,22.44c-.79-.4-1.59-.77-2.42-1.1"/><path class="cls-3" d="M126.09,19.45l-.81,0a27.26,27.26,0,1,0,20.46,9.26"/><path class="cls-3" d="M120.55,117.4c.54.17,1.07.36,1.6.56,5.48,2.09,7.39,9.06,2.77,13.22-3.5,3.15-33,22.59-34.86,23.54l-6.44-6.9S97.21,133.46,103,127.67"/><path class="cls-2" d="M122.92,55.14c-.13-.25-.92-8.33,3.26-9.91"/><path class="cls-2" d="M126.33,51.88c-.13-.78.33-4.4,2-4.67"/><path class="cls-2" d="M142.13,55.5c.13-.24.92-8.33-3.27-9.91"/><path class="cls-2" d="M139.13,55.51c.21-1.27.07-7.23-1.73-7.78"/><path class="cls-4" d="M80,52s1.55-1,2.44,0"/><path class="cls-7" d="M75.22,52a2.65,2.65,0,0,1,2.44,0"/><rect class="cls-7" x="73.51" y="160.95" width="23.15" height="1.9" transform="translate(18.81 332.37) rotate(-131.03)"/></svg>